<?xml version="1.0" encoding="utf-8"?>
<!-- Generator: Adobe Illustrator 24.3.0, SVG Export Plug-In . SVG Version: 6.00 Build 0)  -->
<svg version="1.1" id="Layer_1" xmlns="http://www.w3.org/2000/svg" xmlns:xlink="http://www.w3.org/1999/xlink" x="0px" y="0px"
	 viewBox="0 0 350 350" enable-background="new 0 0 350 350" xml:space="preserve">
<g>
	
		<radialGradient id="SVGID_1_" cx="243.547" cy="167.5468" r="134.5618" gradientTransform="matrix(0.5734 -0.7894 0.4525 0.3009 -75.7979 303.0585)" gradientUnits="userSpaceOnUse">
		<stop  offset="0" style="stop-color:#B0BED9"/>
		<stop  offset="0.206" style="stop-color:#C7D1E4"/>
		<stop  offset="0.5296" style="stop-color:#E6EAF3"/>
		<stop  offset="0.8058" style="stop-color:#F8FAFC"/>
		<stop  offset="1" style="stop-color:#FFFFFF"/>
	</radialGradient>
	<path fill="url(#SVGID_1_)" d="M42.157,210.575c-7.104,57.846,30.788,82.642,84.662,55.39
		c53.866-27.31,103.257-96.282,110.36-154.13c7.108-57.877-30.766-82.672-84.636-55.333
		C98.669,83.752,49.255,152.783,42.157,210.575z"/>
	<g>
		<g>
			<path fill="#FFA044" d="M297.347,231.055c0,15.347-35.474,27.787-79.234,27.787c-43.761,0-79.235-12.44-79.235-27.787
				c0-15.345,35.475-27.786,79.235-27.786C261.873,203.269,297.347,215.71,297.347,231.055z"/>
			<path fill="#FFB642" d="M301.319,221.691c0,16.116-37.253,29.179-83.207,29.179s-83.207-13.062-83.207-29.179
				c0-16.115,37.253-29.18,83.207-29.18S301.319,205.575,301.319,221.691z"/>
		</g>
		<path fill="#0DCA6F" d="M242.178,213.264c0,0-108.739-39.251-100.648-10.212c0.866,3.109,4.884,5.615,2.878,7.563
			c-2.861,2.78-7.922,6.827-6.143,9.702c3.816,6.168,10.894-0.521,15.494,3.824c3.109,2.937-3.047,7.19,3.732,11.503
			c2.338,1.486,7.607-2.698,9.665-1.793c6.368,2.797,0.831,9.366,5.009,12.552c5.254,4.007,12.609-16.9,18.926-1.703
			c2.498,6.01,12.241,5.088,15.367,7.294c8.526,6.029,5.912-7.478,7.213-8.285c6.606-4.09,5.73,8.682,15.128,6.205
			c5.458-1.438,1.683-10.367,3.999-14.044c4.457-7.076,18.697-1.438,20.934-12.114C254.931,218.029,247.658,215.58,242.178,213.264z
			"/>
		<path fill="#0DCA6F" d="M200.015,213.264c0,0,108.74-39.251,100.649-10.212c-0.867,3.109-4.885,5.615-2.879,7.563
			c2.861,2.78,7.922,6.827,6.143,9.702c-3.816,6.168-10.893-0.521-15.494,3.824c-3.109,2.937,3.047,7.19-3.733,11.503
			c-2.337,1.486-7.607-2.698-9.665-1.793c-6.368,2.797-0.831,9.366-5.009,12.552c-5.254,4.007-12.609-16.9-18.926-1.703
			c-2.497,6.01-12.241,5.088-15.367,7.294c-8.526,6.029-5.911-7.478-7.213-8.285c-6.606-4.09-5.73,8.682-15.128,6.205
			c-5.457-1.438-1.683-10.367-3.999-14.044c-4.457-7.076-18.696-1.438-20.934-12.114
			C187.263,218.029,194.535,215.58,200.015,213.264z"/>
		<path fill="#75D894" d="M287.566,201.181c0,0-169.546-25.298-150.667,1.832c2.021,2.905,6.851,11.284,4.318,13.573
			c-3.612,3.268-5.971,8.975-2.645,11.48c7.138,5.376,11.881-3.307,19.76,0.128c5.324,2.322-2.854,7.648,8.264,10.649
			c3.833,1.034,10.705-4.061,13.985-3.548c10.148,1.583,5.194,10.877,12.17,13.247c8.772,2.98,13.067-20.779,26.052-6.965
			c5.134,5.463,9.536,9.565,14.732,9.16c14.172-1.102,12.438-11.638,13.411-13.53c5.534-10.759,15.859,6.733,29.284,2.561
			c7.797-2.424,0.074-10.528,2.663-14.578c4.981-7.796,27.529-4.863,28.356-15.798C307.694,203.528,296.279,202.453,287.566,201.181
			z"/>
		<g>
			<path fill="#FFDE91" d="M205.079,179.122l-79.955,26.354c0,0,13.001,11.357,29.902,20.357c16.9,9,43.597,16.544,43.597,16.544
				s32.281-3.846,57.202-11.213c24.922-7.366,52.874-22.122,52.874-22.122S230.618,172.747,205.079,179.122z"/>
			<path fill="#FFA044" d="M125.124,205.477c0,0,22.426,19.928,46.802,29.57c24.376,9.643,27.198,10.453,27.198,10.453
				s43.467-6.669,56.98-10.453c34.128-9.559,52.595-26.005,52.595-26.005s-41.543,20.434-69.819,25.148
				c-28.277,4.714-39.327,6.534-39.327,6.534s-23.407-8.67-44.202-18.319C144.638,217.433,125.124,205.477,125.124,205.477z"/>
		</g>
		<g>
			<path fill="#480C11" d="M306.635,195.087c0,18.728-40.164,33.909-89.708,33.909c-49.545,0-89.709-15.182-89.709-33.909
				c0-18.727,40.164-33.908,89.709-33.908C266.471,161.179,306.635,176.361,306.635,195.087z"/>
		</g>
		<g>
			<ellipse fill="#862942" cx="216.926" cy="176.939" rx="77.258" ry="29.202"/>
		</g>
		<g>
			<rect x="167.605" y="176.096" fill="#0DCA6F" width="127.853" height="4.55"/>
			<path fill="#0DCA6F" d="M295.458,179.849c0,12.381-28.621,22.418-63.927,22.418c-35.306,0-63.926-10.037-63.926-22.418
				c0-12.381,28.62-22.418,63.926-22.418C266.837,157.431,295.458,167.468,295.458,179.849z"/>
			<path fill="#75D894" d="M295.458,176.321c0,12.381-28.621,22.418-63.927,22.418c-35.306,0-63.926-10.037-63.926-22.418
				c0-12.381,28.62-22.417,63.926-22.417C266.837,153.904,295.458,163.94,295.458,176.321z"/>
			<path fill="#0DCA6F" d="M228.568,174.665c0,0-12.111-10.706-28.02-9.888c-21.251,1.093-18.396,6.093-12.748,9.888
				C193.084,178.217,211.505,177.714,228.568,174.665z"/>
			<path fill="#0DCA6F" d="M233.389,174.479c0,0,14.521-8.416,30.477-8.464c16.438-0.05,17.375,4.771,11.858,8.65
				C268.895,179.469,250.452,177.527,233.389,174.479z"/>
			<path fill="#0DCA6F" d="M228.568,176.321c0,0-23.333,3.641-30.368,5.328c-7.035,1.686-0.893,8.139,13.852,8.234
				C231.245,190.009,228.568,176.321,228.568,176.321z"/>
			<path fill="#0DCA6F" d="M232.926,176.321c0,0,23.534,3.313,30.368,5.328c8.48,2.499-3.325,8.14-18.069,8.235
				C226.031,190.01,232.926,176.321,232.926,176.321z"/>
			<path fill="#0DCA6F" d="M231.531,172.653c0,0-9.765-5.715-11.897-7.92c-2.133-2.204,2.634-5.256,13.755-5.298
				c15.354-0.058,16.634,2.908,11.516,6.608C239.786,169.743,231.531,172.653,231.531,172.653z"/>
		</g>
		<g>
			<rect x="132.6" y="168.38" fill="#0DCA6F" width="127.853" height="4.551"/>
			<path fill="#0DCA6F" d="M260.453,172.133c0,12.381-28.62,22.418-63.926,22.418c-35.306,0-63.927-10.037-63.927-22.418
				c0-12.381,28.621-22.417,63.927-22.417C231.833,149.716,260.453,159.752,260.453,172.133z"/>
			<path fill="#75D894" d="M260.453,168.606c0,12.381-28.62,22.417-63.926,22.417c-35.306,0-63.927-10.036-63.927-22.417
				c0-12.382,28.621-22.418,63.927-22.418C231.833,146.188,260.453,156.224,260.453,168.606z"/>
			<path fill="#0DCA6F" d="M193.563,166.95c0,0-12.11-10.706-28.02-9.888c-21.252,1.093-18.396,6.093-12.749,9.888
				C158.08,170.501,176.501,169.998,193.563,166.95z"/>
			<path fill="#0DCA6F" d="M198.384,166.763c0,0,14.521-8.415,30.478-8.464c16.438-0.05,17.374,4.771,11.858,8.65
				C233.889,171.753,215.447,169.811,198.384,166.763z"/>
			<path fill="#0DCA6F" d="M193.563,168.606c0,0-23.332,3.64-30.367,5.327c-7.036,1.688-0.894,8.139,13.852,8.234
				C196.24,182.293,193.563,168.606,193.563,168.606z"/>
			<path fill="#0DCA6F" d="M197.921,168.606c0,0,23.534,3.312,30.368,5.327c8.48,2.5-3.324,8.14-18.069,8.235
				C191.026,182.294,197.921,168.606,197.921,168.606z"/>
			<path fill="#0DCA6F" d="M196.527,164.937c0,0-9.766-5.715-11.897-7.919c-2.133-2.205,2.633-5.256,13.754-5.299
				c15.355-0.058,16.634,2.909,11.516,6.608C204.781,162.028,196.527,164.937,196.527,164.937z"/>
		</g>
		<g>
			<rect x="138.059" y="157.454" fill="#FF2657" width="157.398" height="5.173"/>
			<path fill="#FF2657" d="M295.458,161.72c0,14.075-35.234,25.485-78.699,25.485c-43.465,0-78.699-11.41-78.699-25.485
				c0-14.074,35.234-25.483,78.699-25.483C260.223,136.237,295.458,147.646,295.458,161.72z"/>
			<ellipse fill="#FF5978" cx="216.759" cy="157.71" rx="78.699" ry="25.484"/>
			<ellipse fill="#FF8DA6" cx="216.759" cy="157.71" rx="70.494" ry="21.474"/>
			<path fill="#FF2657" d="M169.87,168.624c-6.727,0.13-26.571-13.827-0.641-23.299c25.931-9.472,60.845-6.365,68.029-5.326
				c10.107,1.463-0.567,7.164-12.523,7.701c-5.444,0.245-18.313,1.213-25.959,3.249c-9.142,2.434-12.671,6.109-12.374,7.988
				C186.949,162.387,175.603,168.515,169.87,168.624z"/>
			<path fill="#FF2657" d="M193.621,163.024c-7.26,2.327-18.417,8.433-5.975,10.647c26.415,4.701,53.221,2.02,72.374-3.486
				c19.154-5.507,23.705-14.579,12.537-20.955c-8.113-4.632-16.166-5.03-20.709-3.234c-10.56,4.175-1.28,11.583-21.809,14.045
				C217.959,161.491,201.87,160.378,193.621,163.024z"/>
			<path fill="#FF5978" d="M223.099,145.325c0,0,5.479-4.35-1.139-4.253C217.607,141.136,223.099,145.325,223.099,145.325z"/>
			<path fill="#FF5978" d="M215.663,145.881c0,0,0-5.523-7.081-4.849C203.929,141.477,215.663,145.881,215.663,145.881z"/>
			<path fill="#FF5978" d="M205.202,146.408c0,0-4.59-5.021-9.714-4.026C190.365,143.375,205.202,146.408,205.202,146.408z"/>
			<path fill="#FF5978" d="M194.536,148.853c0,0-5.431-5.975-12.487-4.191C174.993,146.445,194.536,148.853,194.536,148.853z"/>
			<path fill="#FF5978" d="M186.272,152.381c0,0-8.611-6.24-16.509-3.151C164.5,151.288,186.272,152.381,186.272,152.381z"/>
			<path fill="#FF5978" d="M181.474,156.024c0,0-12.637-2.649-16.906-0.802C160.299,157.07,172.477,159.658,181.474,156.024z"/>
			<path fill="#FF5978" d="M180.514,160.04c0,0-8.894,0.222-13.065,1.957c-2.077,0.863,0,2.96,4.172,2.469
				C178.847,163.615,180.514,160.04,180.514,160.04z"/>
			<path fill="#FF5978" d="M251.422,150.376c0,0,3.949-2.179,9.073-2.005c5.123,0.174,7.579,2.189,1.494,2.448
				C255.905,151.08,251.422,150.376,251.422,150.376z"/>
			<path fill="#FF5978" d="M198.776,164.206c-0.406,0.13-6.276,2.274-7.984,4.028c-1.708,1.755,4.91,3.576,6.938,0.392
				C199.759,165.441,198.776,164.206,198.776,164.206z"/>
			<path fill="#FF5978" d="M208.179,164.206c0,0-2.443,1.691-2.23,4.42c0.214,2.728,6.025,3.38,5.628,0
				C211.18,165.245,208.179,164.206,208.179,164.206z"/>
			<path fill="#FF5978" d="M218.224,163.502c0,0,0.106,2.915,1.281,5.124c1.174,2.208,9.607,3.378,6.191-0.521
				C222.281,164.206,218.224,163.502,218.224,163.502z"/>
			<path fill="#FF5978" d="M230.305,162.972c0,0,2.33,3.251,6.813,5.654c4.483,2.403,9.18,0.583,5.017-2.145
				C237.972,163.751,230.305,162.972,230.305,162.972z"/>
			<path fill="#FF5978" d="M240.854,160.547c0,0,4.482,3.334,9.82,5.153c5.337,1.819,10.674,0.066,4.27-2.209
				C248.54,161.217,240.854,160.547,240.854,160.547z"/>
			<path fill="#FF5978" d="M248.646,156.876c0,0,9.073,3.736,14.73,4.275c5.658,0.54,9.287-3.119,2.883-3.769
				C259.854,156.733,248.646,156.876,248.646,156.876z"/>
			<path fill="#FF5978" d="M252.212,153.924c0,0,7.643-1.479,12.232-1.154c4.591,0.324,8.54,2.209,3.63,2.339
				C263.163,155.239,252.212,153.924,252.212,153.924z"/>
		</g>
		<path fill="#FFB642" d="M296.127,143.648c-1.243-9.939-7.141-19.078-16.348-26.608c-15.146-12.388-39.271-20.414-66.535-20.414
			c-40.509,0-74.059,17.719-81.522,41.153c-0.612,1.924-1.716,6.423-1.614,8.611c0.724,15.59,37.646,28.698,83.137,28.698
			c45.491,0,82.398-12.808,83.139-28.698C296.383,146.39,296.29,144.397,296.127,143.648z"/>
		<path fill="#FFA044" d="M296.127,143.648c-1.243-9.939-7.141-19.078-16.348-26.609c-7.051-5.766-16.066-10.57-26.419-14.076
			c7.847,4.792,14.523,11.487,17.853,20.213c6.371,16.703-4.757,33.732-21.534,37.13c-90.196,18.269-119.571-13.915-119.571-13.915
			c0.741,15.891,37.646,28.698,83.137,28.698c45.491,0,82.398-12.808,83.139-28.698C296.383,146.39,296.29,144.397,296.127,143.648z
			"/>
		<g>
			<path fill="#FFA044" d="M174.781,116.845c0.827,0.382,1.188,1.361,0.806,2.188c-0.382,0.827-1.362,1.188-2.189,0.807
				c-0.827-0.382-2.082-2.42-1.945-2.716C171.588,116.828,173.954,116.462,174.781,116.845z"/>
			<path fill="#FFA044" d="M164.972,124.593c0.826,0.382,1.188,1.362,0.806,2.189c-0.382,0.827-1.362,1.188-2.189,0.806
				c-0.827-0.382-2.083-2.42-1.946-2.716C161.778,124.576,164.143,124.21,164.972,124.593z"/>
			<path fill="#FFA044" d="M180.671,111.588c-0.25-0.876,0.258-1.789,1.134-2.039c0.876-0.25,1.789,0.258,2.039,1.134
				c0.249,0.877-0.477,3.157-0.79,3.247C182.741,114.019,180.921,112.464,180.671,111.588z"/>
			<path fill="#FFA044" d="M162.822,132.824c0.827,0.383,1.188,1.362,0.806,2.19c-0.382,0.827-1.362,1.188-2.189,0.806
				c-0.827-0.382-2.082-2.42-1.945-2.716C159.629,132.808,161.995,132.442,162.822,132.824z"/>
			<path fill="#FFA044" d="M156.817,121.591c-0.67,0.618-1.714,0.576-2.331-0.094c-0.618-0.669-0.576-1.713,0.094-2.331
				c0.67-0.618,3.033-0.997,3.254-0.758C158.055,118.649,157.487,120.974,156.817,121.591z"/>
			<path fill="#FFA044" d="M146.349,128.127c0.819-0.398,1.807-0.059,2.206,0.761c0.398,0.818,0.059,1.807-0.761,2.205
				c-0.818,0.399-3.191,0.083-3.334-0.21C144.318,130.591,145.53,128.527,146.349,128.127z"/>
			<path fill="#FFA044" d="M171.218,103.976c0.818-0.399,1.807-0.059,2.205,0.76c0.399,0.819,0.06,1.807-0.76,2.206
				c-0.818,0.399-3.191,0.083-3.334-0.21C169.185,106.439,170.398,104.374,171.218,103.976z"/>
			<path fill="#FFA044" d="M170.376,113.157c-0.32,0.854-1.271,1.286-2.124,0.967c-0.854-0.319-1.286-1.271-0.966-2.124
				c0.319-0.853,2.258-2.257,2.564-2.143C170.154,109.972,170.695,112.303,170.376,113.157z"/>
			<path fill="#FFA044" d="M175.801,132.927c-0.319,0.853-1.271,1.286-2.124,0.967c-0.853-0.32-1.285-1.271-0.966-2.124
				c0.319-0.854,2.259-2.257,2.563-2.143C175.579,129.742,176.12,132.074,175.801,132.927z"/>
			<path fill="#FFA044" d="M261.863,122.936c0.827-0.382,1.188-1.362,0.807-2.189c-0.382-0.827-1.362-1.188-2.19-0.806
				c-0.827,0.382-2.083,2.42-1.946,2.716C258.671,122.952,261.036,123.318,261.863,122.936z"/>
			<path fill="#FFA044" d="M252.054,115.188c0.827-0.383,1.188-1.362,0.806-2.189c-0.382-0.827-1.362-1.188-2.189-0.807
				c-0.827,0.382-2.082,2.421-1.945,2.716C248.86,115.203,251.226,115.57,252.054,115.188z"/>
			<path fill="#FFA044" d="M266.108,127.498c-0.25,0.876,0.258,1.789,1.135,2.039c0.876,0.25,1.789-0.258,2.039-1.134
				c0.25-0.876-0.477-3.157-0.79-3.246C268.179,125.068,266.358,126.622,266.108,127.498z"/>
			<path fill="#FFA044" d="M249.904,106.956c0.827-0.382,1.188-1.362,0.807-2.189c-0.382-0.827-1.362-1.188-2.189-0.807
				c-0.827,0.383-2.083,2.421-1.946,2.717C246.712,106.973,249.077,107.338,249.904,106.956z"/>
			<path fill="#FFA044" d="M243.899,118.189c-0.669-0.618-1.713-0.576-2.331,0.094c-0.617,0.67-0.575,1.713,0.094,2.331
				c0.67,0.618,3.033,0.997,3.255,0.758C245.138,121.132,244.569,118.806,243.899,118.189z"/>
			<path fill="#FFA044" d="M233.432,111.653c0.818,0.399,1.807,0.059,2.205-0.76c0.399-0.819,0.059-1.807-0.76-2.206
				c-0.819-0.399-3.191-0.083-3.335,0.21C231.4,109.19,232.613,111.253,233.432,111.653z"/>
			<path fill="#FFA044" d="M258.3,135.805c0.819,0.399,1.807,0.059,2.206-0.761c0.4-0.818,0.059-1.807-0.761-2.205
				c-0.818-0.399-3.191-0.083-3.334,0.21C256.268,133.342,257.481,135.406,258.3,135.805z"/>
			<path fill="#FFA044" d="M252.924,123.12c-0.319-0.854-1.27-1.286-2.123-0.967c-0.854,0.319-1.286,1.271-0.967,2.124
				c0.319,0.853,2.259,2.257,2.563,2.143C252.703,126.306,253.243,123.974,252.924,123.12z"/>
			<path fill="#FFA044" d="M262.883,106.853c-0.319-0.853-1.27-1.286-2.123-0.966c-0.854,0.319-1.286,1.27-0.967,2.123
				c0.319,0.854,2.259,2.257,2.564,2.143C262.662,110.038,263.202,107.706,262.883,106.853z"/>
			<path fill="#FFA044" d="M240.698,130.423c0.827-0.382,1.188-1.362,0.806-2.189c-0.382-0.827-1.362-1.188-2.189-0.806
				c-0.828,0.382-2.083,2.42-1.946,2.716C237.505,130.44,239.871,130.805,240.698,130.423z"/>
			<path fill="#FFA044" d="M230.889,122.675c0.827-0.382,1.188-1.362,0.806-2.189c-0.382-0.827-1.362-1.188-2.189-0.807
				c-0.827,0.383-2.083,2.421-1.946,2.717C227.695,122.691,230.061,123.057,230.889,122.675z"/>
			<path fill="#FFA044" d="M232.088,141.9c-0.25,0.876,0.258,1.789,1.134,2.039c0.877,0.25,1.789-0.258,2.039-1.135
				c0.25-0.876-0.476-3.157-0.789-3.246C234.158,139.468,232.338,141.023,232.088,141.9z"/>
			<path fill="#FFA044" d="M228.739,114.444c0.827-0.382,1.188-1.362,0.806-2.189c-0.382-0.827-1.362-1.188-2.189-0.806
				c-0.827,0.382-2.082,2.42-1.946,2.716C225.546,114.46,227.912,114.825,228.739,114.444z"/>
			<path fill="#FFA044" d="M222.734,125.676c-0.67-0.618-1.714-0.576-2.331,0.094c-0.618,0.67-0.576,1.714,0.094,2.331
				c0.67,0.618,3.033,0.997,3.254,0.758C223.972,128.619,223.404,126.294,222.734,125.676z"/>
			<path fill="#FFA044" d="M212.266,119.14c0.819,0.399,1.807,0.059,2.206-0.76c0.399-0.819,0.059-1.807-0.761-2.206
				c-0.818-0.399-3.191-0.083-3.334,0.21C210.235,116.677,211.447,118.741,212.266,119.14z"/>
			<path fill="#FFA044" d="M229.973,128.769c0.819,0.399,1.807,0.059,2.206-0.76c0.399-0.819,0.059-1.807-0.761-2.206
				c-0.818-0.399-3.191-0.083-3.334,0.21C227.942,126.306,229.154,128.369,229.973,128.769z"/>
			<path fill="#FFA044" d="M231.759,130.608c-0.319-0.854-1.27-1.286-2.124-0.966c-0.852,0.319-1.285,1.27-0.966,2.123
				c0.319,0.854,2.259,2.257,2.564,2.143C231.538,133.793,232.078,131.461,231.759,130.608z"/>
			<path fill="#FFA044" d="M241.718,114.341c-0.319-0.854-1.271-1.286-2.124-0.967c-0.852,0.319-1.285,1.27-0.966,2.123
				c0.319,0.854,2.258,2.257,2.564,2.143C241.497,117.526,242.037,115.194,241.718,114.341z"/>
			<path fill="#FFA044" d="M193.714,131.028c0.827-0.382,1.188-1.362,0.806-2.189c-0.382-0.827-1.362-1.187-2.189-0.806
				c-0.827,0.382-2.082,2.42-1.945,2.716C190.52,131.044,192.887,131.41,193.714,131.028z"/>
			<path fill="#FFA044" d="M180.004,124.833c0.827-0.382,1.188-1.362,0.807-2.19c-0.382-0.827-1.362-1.188-2.189-0.806
				c-0.827,0.382-2.083,2.42-1.946,2.716S179.177,125.215,180.004,124.833z"/>
			<path fill="#FFA044" d="M206.62,126.205c-0.25,0.877,0.258,1.79,1.134,2.039c0.876,0.25,1.789-0.257,2.039-1.134
				c0.25-0.876-0.476-3.156-0.789-3.246C208.69,123.775,206.87,125.329,206.62,126.205z"/>
			<path fill="#FFA044" d="M177.855,116.602c0.827-0.382,1.188-1.362,0.806-2.189c-0.382-0.827-1.362-1.188-2.189-0.806
				c-0.827,0.382-2.082,2.42-1.945,2.716C174.662,116.618,177.028,116.985,177.855,116.602z"/>
			<path fill="#FFA044" d="M171.85,127.834c-0.67-0.617-1.714-0.575-2.331,0.094c-0.618,0.67-0.576,1.714,0.094,2.332
				c0.67,0.617,3.033,0.997,3.254,0.757C173.088,130.778,172.52,128.452,171.85,127.834z"/>
			<path fill="#FFA044" d="M162.798,119.829c0.818,0.4,1.807,0.06,2.205-0.76c0.399-0.819,0.06-1.807-0.76-2.206
				c-0.819-0.399-3.191-0.083-3.335,0.21C160.765,117.367,161.978,119.431,162.798,119.829z"/>
			<path fill="#FFA044" d="M209.142,138.582c0.818,0.399,1.807,0.059,2.205-0.76c0.399-0.819,0.06-1.807-0.76-2.206
				c-0.819-0.4-3.192-0.083-3.335,0.21C207.11,136.119,208.323,138.183,209.142,138.582z"/>
			<path fill="#FFA044" d="M182.155,135.972c-0.319-0.854-1.27-1.286-2.123-0.967c-0.854,0.319-1.286,1.27-0.967,2.123
				c0.319,0.854,2.259,2.257,2.564,2.143C181.934,139.157,182.474,136.825,182.155,135.972z"/>
			<path fill="#FFA044" d="M194.072,107.381c-0.319-0.853-1.27-1.286-2.124-0.966c-0.854,0.319-1.286,1.27-0.967,2.123
				c0.32,0.854,2.259,2.257,2.564,2.143C193.85,110.567,194.391,108.235,194.072,107.381z"/>
			<path fill="#FFA044" d="M214.579,104.73c0.433-0.802,0.133-1.803-0.67-2.234c-0.802-0.433-1.803-0.133-2.234,0.67
				c-0.433,0.802-0.213,3.186,0.074,3.34C212.036,106.659,214.147,105.533,214.579,104.73z"/>
			<path fill="#FFA044" d="M202.082,104.423c0.433-0.803,0.133-1.803-0.67-2.235c-0.802-0.432-1.802-0.132-2.234,0.67
				c-0.433,0.802-0.213,3.186,0.074,3.341C199.539,106.353,201.65,105.225,202.082,104.423z"/>
			<path fill="#FFA044" d="M220.714,105.83c0.326,0.851,1.28,1.276,2.131,0.95s1.276-1.28,0.95-2.131
				c-0.326-0.851-2.276-2.239-2.581-2.123C220.91,102.644,220.388,104.98,220.714,105.83z"/>
			<path fill="#FFA044" d="M186.183,102.841c0.432-0.802,0.132-1.802-0.67-2.234c-0.803-0.433-1.803-0.133-2.235,0.67
				c-0.432,0.802-0.212,3.186,0.074,3.341C183.639,104.772,185.751,103.644,186.183,102.841z"/>
			<path fill="#FFA044" d="M198.48,114.346c-0.906-0.092-1.716,0.568-1.808,1.475c-0.093,0.907,0.567,1.716,1.475,1.809
				c0.906,0.092,3.025-1.023,3.057-1.348C201.237,115.957,199.387,114.439,198.48,114.346z"/>
			<path fill="#FFA044" d="M191.288,124.275c0.896-0.173,1.48-1.038,1.309-1.933c-0.173-0.895-1.038-1.48-1.933-1.308
				c-0.895,0.172-2.602,1.85-2.541,2.17C188.184,123.525,190.393,124.447,191.288,124.275z"/>
			<path fill="#FFA044" d="M219.455,117.161c0.895-0.173,1.48-1.038,1.308-1.933c-0.172-0.895-1.037-1.479-1.932-1.308
				c-0.895,0.173-2.603,1.85-2.541,2.17C216.351,116.411,218.56,117.333,219.455,117.161z"/>
			<path fill="#FFA044" d="M207.541,110.244c-0.768-0.49-1.788-0.266-2.278,0.502c-0.491,0.768-0.267,1.788,0.502,2.278
				c0.768,0.49,3.161,0.449,3.336,0.174C209.276,112.924,208.308,110.735,207.541,110.244z"/>
			<path fill="#FFA044" d="M230.688,102.36c-0.768-0.49-1.788-0.266-2.278,0.502c-0.491,0.768-0.266,1.788,0.502,2.278
				c0.768,0.491,3.161,0.449,3.337,0.175C232.424,105.04,231.456,102.851,230.688,102.36z"/>
		</g>
		<g>
			<path fill="#FFFFFF" d="M174.781,114.754c0.827,0.382,1.188,1.362,0.806,2.189c-0.382,0.827-1.362,1.188-2.189,0.807
				c-0.827-0.383-2.082-2.421-1.945-2.717C171.588,114.739,173.954,114.372,174.781,114.754z"/>
			<path fill="#FFFFFF" d="M164.972,122.503c0.826,0.382,1.188,1.361,0.806,2.189c-0.382,0.827-1.362,1.188-2.189,0.806
				c-0.827-0.382-2.083-2.42-1.946-2.716S164.143,122.12,164.972,122.503z"/>
			<path fill="#FFFFFF" d="M180.671,109.498c-0.25-0.876,0.258-1.789,1.134-2.039c0.876-0.25,1.789,0.258,2.039,1.134
				c0.249,0.876-0.477,3.157-0.79,3.247C182.741,111.929,180.921,110.374,180.671,109.498z"/>
			<path fill="#FFFFFF" d="M162.822,130.734c0.827,0.383,1.188,1.362,0.806,2.189c-0.382,0.827-1.362,1.188-2.189,0.807
				c-0.827-0.383-2.082-2.42-1.945-2.716C159.629,130.718,161.995,130.352,162.822,130.734z"/>
			<path fill="#FFFFFF" d="M156.817,119.501c-0.67,0.618-1.714,0.576-2.331-0.094c-0.618-0.67-0.576-1.713,0.094-2.331
				c0.67-0.618,3.033-0.997,3.254-0.758C158.055,116.558,157.487,118.884,156.817,119.501z"/>
			<path fill="#FFFFFF" d="M146.349,126.037c0.819-0.399,1.807-0.059,2.206,0.761c0.398,0.818,0.059,1.806-0.761,2.205
				c-0.818,0.399-3.191,0.083-3.334-0.21C144.318,128.5,145.53,126.437,146.349,126.037z"/>
			<path fill="#FFFFFF" d="M171.218,101.885c0.818-0.399,1.807-0.059,2.205,0.761c0.399,0.818,0.06,1.807-0.76,2.206
				c-0.818,0.398-3.191,0.082-3.334-0.21C169.185,104.349,170.398,102.284,171.218,101.885z"/>
			<path fill="#FFFFFF" d="M170.376,111.067c-0.32,0.854-1.271,1.286-2.124,0.967c-0.854-0.32-1.286-1.271-0.966-2.124
				c0.319-0.854,2.258-2.257,2.564-2.143C170.154,107.881,170.695,110.213,170.376,111.067z"/>
			<path fill="#FFFFFF" d="M175.801,130.837c-0.319,0.854-1.271,1.286-2.124,0.967c-0.853-0.32-1.285-1.271-0.966-2.124
				c0.319-0.854,2.259-2.257,2.563-2.143C175.579,127.652,176.12,129.984,175.801,130.837z"/>
			<path fill="#FFFFFF" d="M261.863,120.846c0.827-0.383,1.188-1.362,0.807-2.189c-0.382-0.827-1.362-1.188-2.19-0.807
				c-0.827,0.382-2.083,2.421-1.946,2.716C258.671,120.862,261.036,121.228,261.863,120.846z"/>
			<path fill="#FFFFFF" d="M252.054,113.097c0.827-0.382,1.188-1.362,0.806-2.189c-0.382-0.827-1.362-1.188-2.189-0.806
				c-0.827,0.382-2.082,2.42-1.945,2.716C248.86,113.114,251.226,113.48,252.054,113.097z"/>
			<path fill="#FFFFFF" d="M266.108,125.408c-0.25,0.876,0.258,1.789,1.135,2.039c0.876,0.25,1.789-0.258,2.039-1.134
				c0.25-0.876-0.477-3.157-0.79-3.246C268.179,122.978,266.358,124.533,266.108,125.408z"/>
			<path fill="#FFFFFF" d="M249.904,104.867c0.827-0.383,1.188-1.362,0.807-2.189c-0.382-0.827-1.362-1.188-2.189-0.807
				c-0.827,0.383-2.083,2.42-1.946,2.716C246.712,104.882,249.077,105.248,249.904,104.867z"/>
			<path fill="#FFFFFF" d="M243.899,116.099c-0.669-0.618-1.713-0.576-2.331,0.094c-0.617,0.67-0.575,1.713,0.094,2.331
				c0.67,0.618,3.033,0.997,3.255,0.758C245.138,119.042,244.569,116.716,243.899,116.099z"/>
			<path fill="#FFFFFF" d="M233.432,109.563c0.818,0.4,1.807,0.059,2.205-0.761c0.399-0.818,0.059-1.807-0.76-2.205
				c-0.819-0.399-3.191-0.083-3.335,0.21C231.4,107.1,232.613,109.163,233.432,109.563z"/>
			<path fill="#FFFFFF" d="M258.3,133.715c0.819,0.398,1.807,0.059,2.206-0.761c0.4-0.818,0.059-1.807-0.761-2.205
				c-0.818-0.399-3.191-0.083-3.334,0.21C256.268,131.251,257.481,133.316,258.3,133.715z"/>
			<path fill="#FFFFFF" d="M252.924,121.031c-0.319-0.854-1.27-1.286-2.123-0.967c-0.854,0.319-1.286,1.271-0.967,2.124
				c0.319,0.853,2.259,2.256,2.563,2.142C252.703,124.216,253.243,121.883,252.924,121.031z"/>
			<path fill="#FFFFFF" d="M262.883,104.763c-0.319-0.854-1.27-1.286-2.123-0.966c-0.854,0.319-1.286,1.27-0.967,2.123
				c0.319,0.854,2.259,2.257,2.564,2.142C262.662,107.949,263.202,105.617,262.883,104.763z"/>
			<path fill="#FFFFFF" d="M240.698,128.333c0.827-0.382,1.188-1.362,0.806-2.19c-0.382-0.827-1.362-1.188-2.189-0.807
				c-0.828,0.383-2.083,2.421-1.946,2.717C237.505,128.349,239.871,128.715,240.698,128.333z"/>
			<path fill="#FFFFFF" d="M230.889,120.585c0.827-0.383,1.188-1.362,0.806-2.189c-0.382-0.828-1.362-1.189-2.189-0.807
				c-0.827,0.382-2.083,2.42-1.946,2.716S230.061,120.967,230.889,120.585z"/>
			<path fill="#FFFFFF" d="M232.088,139.81c-0.25,0.876,0.258,1.789,1.134,2.038c0.877,0.25,1.789-0.257,2.039-1.134
				c0.25-0.876-0.476-3.157-0.789-3.246C234.158,137.378,232.338,138.933,232.088,139.81z"/>
			<path fill="#FFFFFF" d="M228.739,112.354c0.827-0.382,1.188-1.362,0.806-2.19c-0.382-0.827-1.362-1.188-2.189-0.807
				c-0.827,0.383-2.082,2.421-1.946,2.717C225.546,112.37,227.912,112.736,228.739,112.354z"/>
			<path fill="#FFFFFF" d="M222.734,123.586c-0.67-0.618-1.714-0.576-2.331,0.094c-0.618,0.67-0.576,1.713,0.094,2.331
				c0.67,0.618,3.033,0.997,3.254,0.758C223.972,126.53,223.404,124.203,222.734,123.586z"/>
			<path fill="#FFFFFF" d="M212.266,117.05c0.819,0.399,1.807,0.059,2.206-0.76c0.399-0.819,0.059-1.807-0.761-2.206
				c-0.818-0.399-3.191-0.083-3.334,0.21C210.235,114.587,211.447,116.651,212.266,117.05z"/>
			<path fill="#FFFFFF" d="M229.973,126.679c0.819,0.398,1.807,0.059,2.206-0.761c0.399-0.819,0.059-1.807-0.761-2.205
				c-0.818-0.399-3.191-0.083-3.334,0.21C227.942,124.216,229.154,126.28,229.973,126.679z"/>
			<path fill="#FFFFFF" d="M231.759,128.518c-0.319-0.854-1.27-1.286-2.124-0.967c-0.852,0.319-1.285,1.27-0.966,2.124
				c0.319,0.852,2.259,2.256,2.564,2.143C231.538,131.702,232.078,129.371,231.759,128.518z"/>
			<path fill="#FFFFFF" d="M241.718,112.25c-0.319-0.852-1.271-1.286-2.124-0.966c-0.852,0.319-1.285,1.27-0.966,2.123
				c0.319,0.854,2.258,2.257,2.564,2.143C241.497,115.436,242.037,113.104,241.718,112.25z"/>
			<path fill="#FFFFFF" d="M193.714,128.938c0.827-0.382,1.188-1.362,0.806-2.189c-0.382-0.827-1.362-1.188-2.189-0.806
				c-0.827,0.382-2.082,2.42-1.945,2.716C190.52,128.954,192.887,129.32,193.714,128.938z"/>
			<path fill="#FFFFFF" d="M180.004,122.743c0.827-0.382,1.188-1.362,0.807-2.189c-0.382-0.827-1.362-1.188-2.189-0.806
				c-0.827,0.382-2.083,2.42-1.946,2.716S179.177,123.125,180.004,122.743z"/>
			<path fill="#FFFFFF" d="M206.62,124.116c-0.25,0.877,0.258,1.789,1.134,2.039c0.876,0.25,1.789-0.258,2.039-1.134
				c0.25-0.876-0.476-3.157-0.789-3.246C208.69,121.685,206.87,123.24,206.62,124.116z"/>
			<path fill="#FFFFFF" d="M177.855,114.512c0.827-0.382,1.188-1.362,0.806-2.189c-0.382-0.827-1.362-1.188-2.189-0.806
				c-0.827,0.382-2.082,2.42-1.945,2.716C174.662,114.529,177.028,114.894,177.855,114.512z"/>
			<path fill="#FFFFFF" d="M171.85,125.744c-0.67-0.618-1.714-0.575-2.331,0.094c-0.618,0.67-0.576,1.714,0.094,2.331
				c0.67,0.618,3.033,0.997,3.254,0.758C173.088,128.688,172.52,126.363,171.85,125.744z"/>
			<path fill="#FFFFFF" d="M162.798,117.74c0.818,0.399,1.807,0.06,2.205-0.76c0.399-0.819,0.06-1.807-0.76-2.206
				c-0.819-0.399-3.191-0.083-3.335,0.21C160.765,115.277,161.978,117.341,162.798,117.74z"/>
			<path fill="#FFFFFF" d="M209.142,136.492c0.818,0.399,1.807,0.059,2.205-0.761c0.399-0.818,0.06-1.807-0.76-2.205
				c-0.819-0.399-3.192-0.083-3.335,0.21C207.11,134.03,208.323,136.093,209.142,136.492z"/>
			<path fill="#FFFFFF" d="M182.155,133.882c-0.319-0.854-1.27-1.286-2.123-0.967c-0.854,0.319-1.286,1.27-0.967,2.123
				c0.319,0.854,2.259,2.257,2.564,2.143C181.934,137.067,182.474,134.735,182.155,133.882z"/>
			<path fill="#FFFFFF" d="M194.072,105.291c-0.319-0.854-1.27-1.286-2.124-0.967c-0.854,0.32-1.286,1.271-0.967,2.124
				c0.32,0.854,2.259,2.257,2.564,2.143C193.85,108.477,194.391,106.145,194.072,105.291z"/>
			<path fill="#FFFFFF" d="M214.579,102.64c0.433-0.802,0.133-1.803-0.67-2.235c-0.802-0.432-1.803-0.132-2.234,0.67
				c-0.433,0.803-0.213,3.187,0.074,3.341C212.036,104.57,214.147,103.442,214.579,102.64z"/>
			<path fill="#FFFFFF" d="M202.082,102.332c0.433-0.802,0.133-1.803-0.67-2.234c-0.802-0.433-1.802-0.132-2.234,0.67
				c-0.433,0.802-0.213,3.186,0.074,3.34C199.539,104.263,201.65,103.135,202.082,102.332z"/>
			<path fill="#FFFFFF" d="M220.714,103.741c0.326,0.851,1.28,1.276,2.131,0.95c0.851-0.326,1.276-1.28,0.95-2.131
				c-0.326-0.851-2.276-2.239-2.581-2.123C220.91,100.554,220.388,102.89,220.714,103.741z"/>
			<path fill="#FFFFFF" d="M186.183,100.751c0.432-0.802,0.132-1.803-0.67-2.234c-0.803-0.433-1.803-0.133-2.235,0.67
				c-0.432,0.802-0.212,3.185,0.074,3.34C183.639,102.682,185.751,101.554,186.183,100.751z"/>
			<path fill="#FFFFFF" d="M198.48,112.256c-0.906-0.092-1.716,0.568-1.808,1.475c-0.093,0.906,0.567,1.716,1.475,1.809
				c0.906,0.092,3.025-1.024,3.057-1.349C201.237,113.867,199.387,112.348,198.48,112.256z"/>
			<path fill="#FFFFFF" d="M191.288,122.185c0.896-0.173,1.48-1.038,1.309-1.933c-0.173-0.895-1.038-1.48-1.933-1.308
				c-0.895,0.172-2.602,1.85-2.541,2.17C188.184,121.434,190.393,122.357,191.288,122.185z"/>
			<path fill="#FFFFFF" d="M219.455,115.072c0.895-0.173,1.48-1.038,1.308-1.933c-0.172-0.895-1.037-1.48-1.932-1.308
				c-0.895,0.173-2.603,1.85-2.541,2.17C216.351,114.322,218.56,115.243,219.455,115.072z"/>
			<path fill="#FFFFFF" d="M207.541,108.155c-0.768-0.491-1.788-0.266-2.278,0.502c-0.491,0.768-0.267,1.788,0.502,2.278
				c0.768,0.49,3.161,0.449,3.336,0.174C209.276,110.834,208.308,108.645,207.541,108.155z"/>
			<path fill="#FFFFFF" d="M230.688,100.27c-0.768-0.49-1.788-0.266-2.278,0.502c-0.491,0.768-0.266,1.788,0.502,2.278
				c0.768,0.49,3.161,0.449,3.337,0.174C232.424,102.95,231.456,100.761,230.688,100.27z"/>
		</g>
	</g>
	<g>
		<path fill="#D9D9D9" d="M298.646,271.38l-17.644-10.207c-0.998-0.577-2.229-0.583-3.231-0.014l-35.721,20.251
			c-2.187,1.239-2.2,4.386-0.024,5.644l17.847,10.314c1.003,0.58,2.238,0.582,3.243,0.006l35.518-20.359
			C300.809,275.769,300.815,272.635,298.646,271.38z"/>
		<polygon fill="#D9D9D9" points="240.418,284.588 240.429,284.648 300.269,274.17 300.269,261.494 240.418,272.154 		"/>
		<path fill="#FFFFFF" d="M302.259,255.656l-19.895-11.51c-1.126-0.65-2.513-0.657-3.643-0.016l-40.279,22.836
			c-2.466,1.397-2.48,4.944-0.026,6.362l20.124,11.631c1.131,0.654,2.524,0.656,3.657,0.007l40.05-22.957
			C304.697,260.604,304.704,257.071,302.259,255.656z"/>
		<polygon fill="#C0CCDA" points="241.339,270.159 260.375,281.16 299.339,258.826 280.526,247.944 		"/>
		<polygon fill="#D9D9D9" points="280.664,269.531 299.339,258.826 280.664,248.024 		"/>
		<path fill="#FF2657" d="M272.089,261.118c-1.125,0.647-4.737,3.799-5.89,4.396c-2.611,1.353-7.921,3.73-10.545,5.218
			c-1.528,0.866-6.064,4.197-6.064,4.197l10.787,6.228l30.746-17.629l-10.602-6.134
			C280.522,257.395,274.531,259.714,272.089,261.118z"/>
	</g>
	<g>
		<g>
			<path fill="#FFACAC" d="M123.975,231.445c-0.459,1.574-3.067,1.299-2.437,3.267c0.554,1.727,0.855,3.308,0.624,3.458
				c-0.466,0.3-1.654-3.229-2.259-4.65c-0.603-1.424-0.839-2.866-1.455-2.52c-0.698,0.39-1.12,2.616-1.416,2.641
				c-1.408,0.123-0.572-4.021,0.815-4.686c1.482-0.709-6.713-11.541-6.574-15.893l6.102-0.701c0,0,3.062,12.318,4.775,14.579
				C122.812,227.807,124.567,229.408,123.975,231.445z"/>
			<path fill="#FFFFFF" d="M122.992,204.47c-2.89,4.523-4.137,7.932-4.795,9.372c-0.66,1.438-7.315,2.843-7.416,0.21
				c-0.249-6.679,2.774-12.078,5.241-15.774c2.927-4.381,5.667-7.007,8.614-4.715C127.251,195.6,126.384,199.158,122.992,204.47z"/>
		</g>
		<g>
			<g>
				<g>
					<path fill="#FFDE91" d="M126.811,291.125c0.5,1.08-0.419,2.816-1.318,3.594c-0.99,0.857-6.931,6-10.787,4.522
						c-0.465-0.179-0.933-0.396-1.266-0.767c-0.579-0.64,0.237-4.131,0.882-4.758C115.162,292.894,126.404,290.239,126.811,291.125z
						"/>
					<path fill="#FF5A77" d="M119.927,290.633c2.729-1.059,6.318-0.943,6.728-0.059c0.497,1.082-1.012,2.92-1.906,3.706
						c-2.569,2.254-7.749,4.66-9.62,4.032c-0.473-0.156-1.354-0.497-1.688-0.867c-0.579-0.64-0.047-2.876,0.642-3.542
						C114.73,293.277,118.489,291.192,119.927,290.633z"/>
				</g>
				<path fill="#FFDE91" d="M118.66,295.412c0.302,0,0.547,0.316,0.547,0.706c0,0.389-0.245,0.705-0.547,0.705
					c-0.299,0-0.543-0.316-0.543-0.705C118.117,295.729,118.361,295.412,118.66,295.412z"/>
				<path fill="#FFDE91" d="M114.917,293.173l1.08,1.426l-0.276,0.513c-0.536,0.771-0.448,3.297-0.448,3.297
					c-1.247-0.093-1.678-0.815-1.678-0.815c-0.321-2.494,0.686-3.452,0.686-3.452L114.917,293.173z"/>
			</g>
			<path fill="#FFACAC" d="M121.103,291.755c0.223,0.492-0.199,1.869-2.585,2.883c-0.851,0.363-1.884,0.625-2.798,0.474
				c0.117-0.376-0.047-0.818-0.38-1.024c-0.338-0.209-0.742-0.125-1.061,0.054c0.184-0.627,0.284-1.281,0.399-1.928
				C115.35,292.328,120.4,290.209,121.103,291.755z"/>
		</g>
		<path fill="#002E47" d="M122.509,260.967c-0.158,6.696-1.844,30.47-1.844,30.47s-2.507,2.329-7.267,0.492
			c0,0-1.281-17.517-1.708-22.248c-0.426-4.73,0.348-8.819,0.742-9.706C113.504,257.577,122.671,254.275,122.509,260.967z"/>
		<path fill="#002E47" d="M114.025,225.278c1.14-0.862,4.647-1.367,8.173,1.7c6.345,5.522,0.237,31.576,0.237,35.974
			c0,4.54-9.143,4.104-10.201-1.979c-0.71-4.086-2.43-18.256-2.65-20.821C109.344,237.351,109.311,228.84,114.025,225.278z"/>
		<g>
			<g>
				<g>
					<path fill="#FFDE91" d="M137.24,296.241c0.5,1.08-0.419,2.814-1.318,3.597c-0.989,0.854-6.931,5.997-10.786,4.52
						c-0.466-0.179-0.932-0.396-1.267-0.767c-0.578-0.64,0.237-4.131,0.882-4.758C125.594,298.009,136.833,295.354,137.24,296.241z"
						/>
					<path fill="#FF5A77" d="M130.356,295.748c2.729-1.059,6.318-0.943,6.727-0.06c0.497,1.083-1.009,2.921-1.905,3.707
						c-2.57,2.257-7.749,4.662-9.62,4.032c-0.474-0.156-1.353-0.497-1.688-0.867c-0.578-0.64-0.047-2.876,0.645-3.542
						C125.16,298.394,128.918,296.307,130.356,295.748z"/>
				</g>
				<path fill="#FFDE91" d="M129.092,300.528c0.299,0,0.544,0.316,0.544,0.706c0,0.39-0.245,0.705-0.544,0.705
					c-0.301,0-0.546-0.315-0.546-0.705C128.546,300.844,128.791,300.528,129.092,300.528z"/>
				<path fill="#FFDE91" d="M125.348,298.288l1.078,1.426l-0.277,0.512c-0.534,0.772-0.448,3.298-0.448,3.298
					c-1.247-0.093-1.678-0.813-1.678-0.813c-0.321-2.496,0.686-3.454,0.686-3.454L125.348,298.288z"/>
			</g>
			<path fill="#FFACAC" d="M131.532,296.87c0.226,0.494-0.199,1.869-2.585,2.883c-0.85,0.363-1.884,0.625-2.798,0.473
				c0.118-0.374-0.046-0.817-0.38-1.023c-0.335-0.206-0.742-0.125-1.061,0.054c0.184-0.627,0.284-1.281,0.399-1.928
				C125.779,297.444,130.829,295.325,131.532,296.87z"/>
		</g>
		<path fill="#00537A" d="M132.666,266.485c-0.159,6.695-1.808,30.04-1.808,30.04s-2.479,3.572-7.237,1.734
			c0,0-1.347-18.33-1.774-23.061c-0.426-4.73-0.151-9.564,0.242-10.448C123.161,262.349,132.828,259.791,132.666,266.485z"/>
		<path fill="#00537A" d="M122.512,231.079c1.14-0.863,5.48-3.33,9.089-0.36c4.873,4.008,0.994,33.353,0.994,37.75
			c0,4.537-9.145,4.103-10.201-1.979c-0.71-4.089-3.405-21.77-3.625-24.332C118.528,239.358,117.798,234.639,122.512,231.079z"/>
		<path fill="#002E47" d="M119.046,244.428c-0.144-1.063-0.242-1.861-0.277-2.27c-0.24-2.801-0.971-7.519,3.743-11.078
			c1.14-0.863,5.48-3.33,9.089-0.36C132.93,231.812,129.601,240.236,119.046,244.428z"/>
		<path fill="#00537A" d="M115.995,207.617c0.343-7.019,2.521-16.284,9.854-14.825c3.624,0.721,14.939,6.091,13.408,13.79
			c-1.344,6.754-4.436,23.416-4.164,31.872c0,0-19.057,0-25.454-8.789C109.639,229.664,115.656,214.636,115.995,207.617z"/>
		<path fill="#FFACAC" d="M133.335,181.489c0.8-0.315,6.891,0.959,6.792,1.871c-0.1,0.914-1.212,2.01-1.055,2.915
			c0.11,0.626,0.134,1.938-0.492,2.627c-2.107,2.311-3.63,4.318-5.24,3.477c-0.791,1.713,0.46,4.115,0.243,4.039
			c-1.251-0.431-4.584-2.4-5.616-3.237c1.415-3.896,1.021-7.136,3.902-10.512C132.282,182.189,132.744,181.721,133.335,181.489z"/>
		<path fill="#002E47" d="M132.287,176.742c0.616-3.097,6.097-1.313,5.557,1.015c2.755-0.918,5.527,3.08,2.41,6.948
			c0,0-0.176-1.464-1.24-1.2c-0.446,2.244-1.716,0.678-2.756,3.144c-0.636,1.515-1.465,3.07-3.06,3.729
			c-1.369,0.567-4.285-0.872-4.285-0.872c0.432-2.173-2.872-6.481-1.149-8.54C127.117,177.67,130.088,175.958,132.287,176.742z"/>
		<path fill="#FFFFFF" d="M128.687,191.455c1.35,0.348,2.511,0.823,5.13,2.889c0.652,0.514,1.264,1.91,0.989,3.167l-8.376-4.632
			l1.068-1.091C127.809,191.475,128.263,191.345,128.687,191.455z"/>
		<g>
			<path fill="#FFACAC" d="M166.704,214.965c0.475-0.186,1.857-1.188,2.005-1.939c0.317-1.607,1.239-3.393,1.728-2.895
				c0.241,0.247-0.216,2.13-0.14,3.058c0.064,0.821,0.548,0.301,2.314-0.037c1.767-0.337,4.843,0.581,5.887,0.941
				c0.679,0.233-1.597,0.883-3.613,0.459c-2.481-0.524,0.74,0.815,0.787,1.473c0.045,0.654-1.279,3.032-1.477,3.606
				c-0.195,0.571-3.195-0.016-4.453-0.183c-2.731-0.365-15.46,4.554-20.718,5.22l1.567-7.647
				C150.592,217.021,163.098,216.385,166.704,214.965z"/>
			<path fill="#FFFFFF" d="M132.372,199.848c3.401-1.827,6.78,0.769,10.841,6.884c3.459,5.206,6.502,8.141,7.726,9.519
				c1.223,1.38-0.707,9.97-3.558,8.837c-7.231-2.879-12.277-9.044-15.052-13.411C129.038,206.494,128.542,201.906,132.372,199.848z"
				/>
		</g>
	</g>
</g>
</svg>
