<?xml version="1.0" encoding="utf-8"?>
<!-- Generator: Adobe Illustrator 24.3.0, SVG Export Plug-In . SVG Version: 6.00 Build 0)  -->
<svg version="1.1" id="Layer_1" xmlns="http://www.w3.org/2000/svg" xmlns:xlink="http://www.w3.org/1999/xlink" x="0px" y="0px"
	 viewBox="0 0 350 350" enable-background="new 0 0 350 350" xml:space="preserve">
<g>
	
		<radialGradient id="SVGID_1_" cx="254.4447" cy="181.9676" r="132.3495" gradientTransform="matrix(0.5734 -0.7894 0.4525 0.3009 -80.009 321.1165)" gradientUnits="userSpaceOnUse">
		<stop  offset="0" style="stop-color:#B0BED9"/>
		<stop  offset="0.206" style="stop-color:#C7D1E4"/>
		<stop  offset="0.5296" style="stop-color:#E6EAF3"/>
		<stop  offset="0.8058" style="stop-color:#F8FAFC"/>
		<stop  offset="1" style="stop-color:#FFFFFF"/>
	</radialGradient>
	<path fill="url(#SVGID_1_)" d="M52.323,223.556c-6.987,56.895,30.281,81.284,83.269,54.479
		c52.982-26.861,101.559-94.699,108.547-151.596c6.991-56.925-30.261-81.312-83.246-54.423
		C107.906,98.819,59.304,166.716,52.323,223.556z"/>
	<g>
		<g>
			<path fill="#FFACAC" d="M193.654,115.866c0.538-0.051,1.626-0.058,1.785-0.777c0.202-0.912-1.381-0.157-2.793-0.625
				c-0.423-0.14-2.106-0.006-2.75,0.319c-0.646,0.324-2.575,0.107-2.869,0.088c-0.294-0.018-0.712,3.495-0.712,3.495
				s2.971,0.387,3.626,0.7c0.656,0.314,3.065,1.506,4.553,1.676c1.697,0.194,1.873-1.431,3.384-1.593
				c0.211-0.023,0.807-0.006,0.672-0.516c-0.135-0.511-4.82-1.582-5.421-2.473C192.911,115.837,193.443,115.885,193.654,115.866z"/>
			<path fill="#5A5C71" d="M169.13,105.98c-6.133-4.613-13.867-10.232-14.882-10.878c-4.833-3.081-5.754-0.704-6.555,2.022
				c-1.357,4.62,2.23,8.304,10.22,12.979c7.989,4.676,10.725,4.508,12.763,3.866C172.714,113.328,175.264,110.592,169.13,105.98z"/>
			<path fill="#5A5C71" d="M169.13,105.98c-4.208-2.294-11.249,3.072-4.895,7.312c6.355,4.241,21.838,6.424,21.838,6.424
				c3.461-3.159,1.077-6.283,1.077-6.283S177.392,110.486,169.13,105.98z"/>
		</g>
		<path fill="#002E47" d="M159.637,186.809c-0.784-0.308-0.72-2.218-0.72-2.218l-5.855-0.949c0,0,0.083,4.986,0.151,5.85
			c0.061,0.757,0.492,2.549,2.622,2.138c2.631-0.507,5.003-0.084,5.799,0.162c0.798,0.246,2.454,0.459,4.387,0.085
			c1.878-0.362,3.131-1.25,1.575-2.592C166.038,187.942,161.513,187.546,159.637,186.809z"/>
		<path fill="#00537A" d="M147.965,157.54c-0.003,1.577,1.759,16.042,3.91,28.048c0.629,3.512,8.125,0.668,8.171-0.913
			c0.087-2.987-1.768-23.763-2.842-29.761C156.527,151.14,147.973,152.732,147.965,157.54z"/>
		<path fill="#002E47" d="M138.244,193.865c0.037-0.318-0.136-1.018-0.136-1.018l-5.106-0.988c0,0-0.438,0.828-0.572,1.888
			c-0.132,1.061-0.333,3.359-0.404,4.032c-0.073,0.672-0.116,2.316,1.266,3.878c1.382,1.562,2.099,2.176,3.965,1.54
			c1.866-0.636,1.852-3.274,1.538-4.626C138.48,197.216,138.207,194.183,138.244,193.865z"/>
		<path fill="#00537A" d="M132.693,162.971c-0.28,1.546-1.093,16.113-1.093,28.347c0,3.579,7.856,2.36,8.179,0.817
			c0.61-2.912,2.441-23.69,2.441-29.802C142.221,158.487,133.547,158.255,132.693,162.971z"/>
		<path fill="#00537A" d="M143.278,135.171c-0.086,2.987,1.104,7.197,1.768,10.027c0.665,2.83,2.319,12.591,3.191,15.388
			c1.135,3.642,9.443,2.405,9.452-2.403c0.002-1.577,0.42-20.872-1.73-32.878C155.33,121.792,143.325,133.589,143.278,135.171z"/>
		<path fill="#00537A" d="M131.6,138.379c-1.056,3.978,0.46,24.71,0.825,27.639c0.474,3.811,8.844,4.341,9.698-0.376
			c0.28-1.545,3.417-20.465,3.417-32.699C145.539,129.364,132.004,136.856,131.6,138.379z"/>
		<path fill="#5A5C71" d="M146.363,93.29l-7.247-1.907c0,0-1.377,0.181-1.736,0.553c-0.619,0.641-1.039,1.519-1.305,2.236
			c-0.332,0.891-0.857,1.689-1.56,2.304c0,0-4.754,3.807-5.932,5.229c-4.474,5.409,1.688,33.333,1.688,45.84
			c0,0,11.218-0.216,17.297-1.855l1.24-4.704l1.887,3.221c2.107-0.63,7.083-4.421,7.299-4.708
			c0.214-0.287-2.016-41.807-6.489-45.436C150.486,93.238,146.363,93.29,146.363,93.29z"/>
		<path fill="#002E47" d="M129.632,115.387c1.136-2.659,3.018-6.706,5.501-7.672c-0.278,0.854-5.866,24.27-5.866,24.27
			S126.42,122.903,129.632,115.387z"/>
		<path fill="#002E47" d="M148.043,95.876c-0.267-0.718-0.709-1.362-1.31-1.837c-0.617-0.486-1.447-0.922-2.269-0.682
			c0,0,1.901,0.704,1.591,3.497c-0.126,1.1,0.045,2.914-0.118,4.962c-0.188,2.348,1.071,9.779,1.071,9.779l3.21-9.15l-1.556-1.538
			l1.698-1.196L148.043,95.876z"/>
		<path fill="#FFFFFF" d="M137.8,91.391c-0.864,0.676-1.559,2.208,0.545,4.863c1.019,1.286,2.053,3.346,2.994,5
			c0.685,1.205,4.965,7.201,5.518,8.902c0,0,0.055-1.549,0.122-4.059c0.016-0.567,0.001-7.707-0.469-9.434
			C145.393,92.548,140.493,89.295,137.8,91.391z"/>
		<path fill="#FFACAC" d="M138.685,89.171c0,0-0.097,1.202-0.849,3.276c-0.108,0.298-0.061,0.63,0.137,0.878
			c0.784,0.97,2.919,3.337,5.114,3.337c0,0,1.6-1.257,1.6-2.742C144.687,92.435,138.685,89.171,138.685,89.171z"/>
		<path fill="#FFACAC" d="M142.295,77.883c-6.931,0.188-5.013,7.868-5.013,7.868s-0.513,0.229-0.238,1.217
			c0.276,0.988,0.342,1.092,0.484,1.581c0.141,0.491,0.49,1.4,1.186,1.257c0,0,1.047,2.666,5.575,4.209
			c0.788,0.27,1.831-0.018,2.045-0.815c0.215-0.797,1.728-3.114,1.783-4.905c0.041-1.355-0.471-1.251-0.121-2.014
			C148.347,85.518,149.225,77.694,142.295,77.883z"/>
		<path fill="#002E47" d="M142.634,77.367c-4.718-0.205-8.06,3.81-5.725,9.048c0.852-1.283,1.816,0.231,1.958,0.735
			c0.077,0.277,0.336,1.442,0.766,1.442c0.311,0,0.409-1.129,0.409-1.129c0-3.218-0.789-3.592,0.81-4.359
			c1.363-0.653,4.378,1.785,7.053,1.788C150.299,84.894,149.116,77.65,142.634,77.367z"/>
		<path fill="#4B6DFF" d="M145.871,98.491l-1.802-0.364l-1.174,1.466c0,0,0.342,0.766,1.274,1.783
			c-0.238,0.44-0.403,1.469-0.247,3.355c0.549,1.156,3.085,6.866,3.085,6.866l0.035-7.533c-0.27-1.773-0.512-2.195-1.18-3.141
			L145.871,98.491z"/>
		<path fill="#002E47" d="M138.441,95.984c-2.119-2.641-0.646-4.591-0.646-4.591c-0.99,0.288-1.55,1.27-1.862,2.166
			c-0.304,0.873-0.337,1.817-0.141,2.72l1.22,5.668l1.404-0.145l-0.401,1.496l8.994,8.309c0,0-3.529-8.38-5.237-10.647
			C140.281,98.98,139.282,97.022,138.441,95.984z"/>
		<path fill="#002E47" d="M138.533,86.831c-0.3-0.459-0.98-0.434-1.237,0.052l-0.006,0.01c-0.288,0.543-0.213,1.217,0.208,1.667
			c1.27,1.357,2.891,1.919,3.581,2.107c0.197,0.054,0.404-0.027,0.518-0.197c0.144-0.219,0.085-0.519-0.137-0.658
			C140.1,88.972,139.117,87.725,138.533,86.831z"/>
		<g>
			<path fill="#4B6DFF" d="M137.139,85.798c-0.364,0.361-0.486,1.059,0.001,1.641c0.04,0.048,0.111,0.053,0.158,0.013
				c0.047-0.04,0.054-0.11,0.014-0.157c-0.403-0.48-0.309-1.047-0.015-1.339c0.233-0.23,0.651-0.334,1.13,0.074
				c1.164,0.991,0.803,2.576,0.798,2.591c-0.014,0.06,0.023,0.121,0.083,0.134c0.008,0.003,0.018,0.004,0.026,0.004
				c0.051,0,0.097-0.035,0.109-0.085c0.017-0.072,0.396-1.735-0.872-2.814C137.978,85.354,137.429,85.511,137.139,85.798z"/>
		</g>
		<path fill="#FFACAC" d="M122.047,140.536c0,0,3.486-0.602,3.551-0.315c0.067,0.288,0.409,2.199,0.906,2.725
			c0.496,0.525,1.104,2.1,1.09,2.544c-0.044,1.487,1.132,2.789,0.199,2.856c-0.734,0.053-1.053-0.989-1.254-1.49
			c-0.079-0.196-0.185-0.719-0.432-0.418c-0.682,0.829-0.373,5.626-0.824,5.901c-0.45,0.275-0.603-0.301-0.685-0.497
			c-0.587-1.402-2.194-1.107-2.493-2.788c-0.263-1.473,0.193-4.124,0.306-4.842C122.523,143.494,122.047,140.536,122.047,140.536z"
			/>
		<path fill="#5A5C71" d="M131.146,99.801c2.214-0.809,6.096,2.28,4.524,7.792c-0.331,1.157-4.252,8.014-6.92,15.211
			c-2.668,7.195-6.019,5.533-7.216,3.763c-1.197-1.77-0.482-3.807,1.717-12.799C125.45,104.775,127.723,101.053,131.146,99.801z"/>
		<path fill="#5A5C71" d="M128.297,124.114c-1.751,8.23-1.489,17.547-1.489,17.547s-2.07,2.841-5.659,0.681
			c0,0-1.819-13.421,0.192-19.948C123.353,115.867,129.188,119.922,128.297,124.114z"/>
	</g>
	<g>
		<g>
			<g>
				<g>
					<path fill="#FFA044" d="M288.649,189.927c-0.207-1.854-0.596-3.622-1.167-5.31c-11.501-34.344-94.624-33.939-114.525-5.776
						c-2.991,4.23-4.559,9.079-4.243,14.536C171.364,239.248,293.651,235.436,288.649,189.927z M245.865,184.749
						c-0.122,0.074-0.435,0.427-0.666,0.556c-9.567,4.984-23.941,5.617-34.098,0c0.073-0.024,3.466-3.082,5.417-3.585
						C226.554,179.129,242.894,181.921,245.865,184.749z M227.927,189.774c-6.141,0-12.206-1.344-17.067-4.032
						c-0.173-0.096-0.274-0.285-0.256-0.483c0.014-0.153,0.098-0.289,0.222-0.372c0.035-0.027,0.104-0.086,0.202-0.169
						c0.891-0.749,3.603-3.029,5.366-3.484c10.131-2.614,26.68,0.167,29.816,3.152c0.113,0.107,0.169,0.261,0.152,0.416
						c-0.016,0.151-0.101,0.286-0.228,0.368c-0.038,0.029-0.09,0.08-0.15,0.136c-0.164,0.154-0.35,0.328-0.541,0.435
						C240.282,188.43,234.066,189.774,227.927,189.774z M211.994,185.215c9.438,4.875,23.167,4.756,32.974-0.354
						c0.029-0.016,0.072-0.05,0.119-0.091c-3.665-2.471-18.775-5.063-28.444-2.567C215.668,182.455,214.105,183.468,211.994,185.215
						z"/>
				</g>
			</g>
		</g>
		<path fill="#FFFFFF" d="M286.161,178.571c-16.48-42.882-122.516-37.886-115.524,14.793c1.397,6.098,2.771-3.26,5.552,1.093
			c1.577,6.421,5.97-0.728,6.934,5.384c-0.208,0.596-1.15,3.64,0.915,3.205c4.552-2.739,0.311,13.122,7.568,6.992
			c0.748-0.677,2.111-0.054,3.274-0.564c0.974-0.83,0.857-2.625,2.83-2.119c1.52,0.501,2.244,2.711,3.079,3.996
			c5.749,4.997,5.871-2.227,12.454,3.706c1.164,0.476,1.872,0.597,2.914,1.711c5.018,7.013,6.226-1.768,10.341-3.246
			c3.167-1.318,1.28,5.954,6.35,4.313c2.408-0.665,1.406-2.949,3.564-4.208c1.918-0.455,0.796-2.831,1.938-3.627
			c3.119,1.346,2.857,6.603,1.882,9.752c-0.338,1.291,0.728,2.261,2.569,2.646c4.232-0.468,2.117-6.959,5.548-8.756
			c1.693-1.101,2.763,0.354,4.93-0.217c1.523-1.16,3.212-3.123,5.489-3.978c3.019-1.956,5.358-0.055,8.457,0.676
			c4.358-1.785,2.539-6.628,3.507-10.646c2.888-6.454,3.19,2.605,6.14,1.309c3.082-0.749-0.311-5.683,3.421-5.298
			C284.269,203.008,290.591,190.098,286.161,178.571z M244.77,185.304c-9.662,4.984-23.412,5.617-33.668,0
			c7.944-2.706,21.099-8.717,28.7-3.546c1.305,3.816,2.191,3.715,5.281,3.362C244.961,185.194,245.004,185.176,244.77,185.304z"/>
		<path fill="#E2E9E8" d="M244.408,185.421c0.036-0.02,0.067-0.042,0.103-0.062l0.001,0.001
			C244.476,185.385,244.439,185.403,244.408,185.421z"/>
		<path fill="#E2E9E8" d="M250.105,179.909c-0.952,1.921-2.725,3.738-5.316,5.285c-0.092,0.055-0.184,0.11-0.276,0.166
			c-0.043-0.024-0.08-0.043-0.117-0.067c-0.025-0.018-0.055-0.037-0.08-0.049c-0.246-0.135-0.51-0.251-0.761-0.38
			c-0.129,0.104-0.264,0.208-0.405,0.288c-0.178,0.11-0.35,0.221-0.509,0.332c-1.406,0.939-2.142,1.571-3.272-0.804
			c-0.129-0.27-0.239-0.516-0.337-0.749c0,0,0,0-0.006-0.006c-0.159-0.374-0.288-0.706-0.405-0.995
			c-0.411-0.117-0.835-0.227-1.258-0.332c-5.175-1.265-11.019-1.399-16.353-0.399c-2.357,0.436-4.604,1.099-6.654,1.983
			c-0.798,0.337-3.253,1.123-3.253,1.123s-2.118-1.682-2.99-2.572c-4.739-4.837-3.419-11.062,3.947-15.18
			c8.938-5.003,23.374-5.027,32.257-0.062C250.307,170.849,252.235,175.618,250.105,179.909z"/>
		<g>
			<g>
				<path fill="#4B6DFF" d="M204.216,196.537l-1.04,1.87l-0.087,0.156l-6.493-3.612c-0.158-0.083-0.255-0.266-0.255-0.529
					c0-0.099,0.013-0.201,0.039-0.304c0.003-0.014,0.007-0.027,0.011-0.042l0.001-0.001v-0.001c0.117-0.426,0.429-0.858,0.793-1.063
					c0.234-0.131,0.446-0.143,0.6-0.058L204.216,196.537z"/>
			</g>
			<g>
				<path fill="#4B6DFF" d="M262.078,181.275l2.107-0.584l0.176-0.049l-2.249-6.92c-0.05-0.167-0.214-0.298-0.479-0.355
					c-0.099-0.021-0.205-0.03-0.315-0.028c-0.014,0-0.029,0.001-0.044,0.002h-0.001h0c-0.455,0.02-0.957,0.222-1.242,0.523
					c-0.183,0.194-0.24,0.392-0.186,0.555L262.078,181.275z"/>
			</g>
			<g>
				<g>
					<path fill="#FFDE91" d="M229.889,194.724l-0.949-1.915l-0.079-0.161l6.834-2.962c0.162-0.075,0.372-0.044,0.592,0.112
						c0.082,0.058,0.159,0.128,0.23,0.209c0.01,0.011,0.019,0.022,0.028,0.033l0.001,0.001l0.001,0.001
						c0.287,0.343,0.464,0.841,0.419,1.247c-0.028,0.261-0.143,0.434-0.304,0.503L229.889,194.724z"/>
					<path fill="#FFFFFF" d="M229.889,195.224c-0.185,0-0.361-0.103-0.448-0.278l-1.028-2.077c-0.06-0.123-0.068-0.265-0.02-0.393
						c0.047-0.128,0.145-0.232,0.27-0.287l6.835-2.962c0.32-0.15,0.719-0.092,1.079,0.163c0.111,0.078,0.218,0.175,0.317,0.286
						c0.42,0.502,0.629,1.139,0.572,1.667c-0.047,0.432-0.267,0.764-0.604,0.909l-6.773,2.931
						C230.023,195.211,229.956,195.224,229.889,195.224z M229.543,192.899l0.584,1.178l6.336-2.742
						c-0.021-0.002,0.001-0.033,0.008-0.1c0.028-0.26-0.1-0.626-0.306-0.873c-0.067-0.077-0.116-0.121-0.164-0.155
						c-0.067-0.048-0.111-0.059-0.123-0.06L229.543,192.899z"/>
				</g>
			</g>
			<g>
				<path fill="#4B6DFF" d="M223.219,162.066l-2.19-0.077l-0.183-0.007l0.473-7.241c0.007-0.173,0.133-0.339,0.378-0.456
					c0.091-0.043,0.191-0.077,0.298-0.101c0.014-0.003,0.028-0.006,0.043-0.009h0.001l0.001-0.001
					c0.446-0.086,0.984-0.006,1.335,0.22c0.225,0.146,0.33,0.325,0.318,0.496L223.219,162.066z"/>
			</g>
			<g>
				<path fill="#4B6DFF" d="M192.937,175.289l-0.481-2.072l-0.04-0.173l7.346-1.404c0.175-0.038,0.372,0.039,0.551,0.237
					c0.066,0.074,0.126,0.16,0.176,0.254c0.007,0.013,0.014,0.025,0.02,0.039l0,0l0.001,0.001c0.2,0.396,0.258,0.92,0.121,1.307
					c-0.088,0.248-0.24,0.392-0.414,0.425L192.937,175.289z"/>
			</g>
			<g>
				<path fill="#FF5978" d="M240.524,159.804l-0.982,1.898l-0.083,0.159l-6.6-3.427c-0.16-0.078-0.263-0.258-0.271-0.521
					c-0.003-0.099,0.008-0.201,0.03-0.305c0.003-0.015,0.006-0.028,0.009-0.042v0l0-0.002c0.105-0.43,0.403-0.871,0.761-1.085
					c0.23-0.138,0.442-0.156,0.597-0.075L240.524,159.804z"/>
			</g>
			<g>
				<path fill="#FF5978" d="M271.568,165.688l-1.039,1.87l-0.087,0.157l-6.494-3.612c-0.157-0.083-0.255-0.266-0.255-0.529
					c0-0.099,0.014-0.201,0.039-0.304c0.003-0.014,0.007-0.027,0.011-0.042l0.001-0.001v-0.001c0.117-0.426,0.429-0.858,0.794-1.062
					c0.234-0.131,0.446-0.144,0.599-0.058L271.568,165.688z"/>
			</g>
			<g>
				<path fill="#FF5978" d="M204.695,156.984l0.811,1.973l0.068,0.165l6.879-2.864c0.166-0.065,0.284-0.236,0.316-0.498
					c0.012-0.097,0.01-0.201-0.002-0.306c-0.002-0.015-0.004-0.028-0.006-0.043v-0.001l0,0c-0.066-0.437-0.324-0.901-0.663-1.145
					c-0.217-0.156-0.426-0.192-0.588-0.124L204.695,156.984z"/>
			</g>
			<g>
				<g>
					<path fill="#FFDE91" d="M206.642,167.159l1.145-1.811l0.096-0.152l-6.488-3.622c-0.152-0.09-0.365-0.08-0.6,0.053
						c-0.087,0.049-0.172,0.112-0.251,0.185c-0.011,0.01-0.021,0.02-0.032,0.03l-0.001,0.001h-0.001
						c-0.321,0.313-0.55,0.791-0.549,1.199c0.001,0.262,0.097,0.446,0.25,0.531L206.642,167.159z"/>
					<path fill="#FFFFFF" d="M206.641,167.659c-0.083,0-0.166-0.021-0.243-0.063l-6.431-3.585c-0.32-0.178-0.505-0.53-0.506-0.967
						c-0.002-0.53,0.273-1.142,0.7-1.558c0.151-0.141,0.267-0.226,0.388-0.294c0.383-0.217,0.784-0.234,1.1-0.048l6.478,3.616
						c0.12,0.067,0.207,0.18,0.241,0.314c0.034,0.133,0.011,0.274-0.062,0.391l-1.24,1.962
						C206.97,167.576,206.808,167.659,206.641,167.659z M201.151,162.011c0.007,0.004-0.038,0.011-0.111,0.052
						c-0.053,0.03-0.105,0.069-0.157,0.116c-0.255,0.247-0.423,0.601-0.422,0.862c0,0.072,0.014,0.11,0.019,0.118l5.992,3.333
						l0.706-1.117L201.151,162.011z"/>
				</g>
			</g>
			<g>
				<path fill="#FF5978" d="M267.315,189.666l0.81,1.973l0.068,0.165l6.879-2.864c0.166-0.065,0.285-0.236,0.316-0.498
					c0.012-0.098,0.01-0.201-0.002-0.306c-0.001-0.015-0.004-0.028-0.005-0.042l-0.001-0.001v0
					c-0.066-0.438-0.324-0.901-0.662-1.145c-0.218-0.157-0.427-0.192-0.589-0.124L267.315,189.666z"/>
			</g>
			<g>
				<path fill="#FF5978" d="M256.55,189.913l1.739-1.293l0.146-0.108l-4.716-5.635c-0.109-0.137-0.312-0.201-0.58-0.159
					c-0.1,0.016-0.202,0.044-0.303,0.086c-0.014,0.005-0.027,0.011-0.041,0.017l-0.001,0.001h-0.001
					c-0.415,0.181-0.806,0.547-0.956,0.929c-0.096,0.245-0.075,0.45,0.038,0.582L256.55,189.913z"/>
				<path fill="#FF5978" d="M257.139,190.085c0.528-0.083,1.11-0.545,1.302-1.032c0.191-0.487-0.082-0.815-0.609-0.732
					c-0.528,0.083-1.111,0.545-1.302,1.032C256.338,189.84,256.611,190.168,257.139,190.085z"/>
			</g>
			<g>
				<path fill="#FF5978" d="M181.994,165.376l1.151,1.807l0.096,0.151l6.263-3.977c0.152-0.092,0.238-0.28,0.222-0.543
					c-0.006-0.098-0.025-0.199-0.057-0.301c-0.004-0.014-0.009-0.027-0.013-0.041l-0.001-0.001v-0.001
					c-0.144-0.419-0.48-0.833-0.857-1.016c-0.242-0.118-0.454-0.118-0.602-0.023L181.994,165.376z"/>
				<path fill="#FF5978" d="M181.758,165.927c0.032,0.518,0.447,1.126,0.928,1.36c0.481,0.233,0.845,0.004,0.814-0.513
					c-0.032-0.518-0.447-1.126-0.928-1.36C182.091,165.179,181.726,165.409,181.758,165.927z"/>
			</g>
			<g>
				<g>
					<path fill="#FFDE91" d="M243.717,153.138l-0.536,2.06l-0.045,0.172l7.307,1.584c0.174,0.042,0.374-0.029,0.557-0.224
						c0.068-0.073,0.13-0.157,0.183-0.249c0.008-0.013,0.014-0.025,0.021-0.038l0-0.001l0.001-0.001
						c0.21-0.391,0.281-0.914,0.155-1.303c-0.081-0.25-0.229-0.397-0.402-0.434L243.717,153.138z"/>
					<path fill="#FFFFFF" d="M250.541,157.466c-0.072,0-0.145-0.008-0.216-0.026l-7.295-1.581c-0.133-0.029-0.249-0.111-0.32-0.227
						c-0.071-0.117-0.092-0.257-0.057-0.389l0.581-2.229c0.067-0.26,0.331-0.421,0.589-0.363l7.241,1.565
						c0.356,0.077,0.637,0.356,0.772,0.768c0.165,0.509,0.09,1.174-0.19,1.695c-0.101,0.177-0.186,0.293-0.281,0.395
						C251.122,157.329,250.831,157.466,250.541,157.466z M243.752,154.992l6.797,1.473c-0.006-0.002,0.033-0.021,0.088-0.078
						c0.04-0.043,0.078-0.095,0.111-0.153c0.167-0.309,0.217-0.692,0.136-0.941c-0.023-0.071-0.049-0.104-0.058-0.111l-6.746-1.453
						L243.752,154.992z"/>
				</g>
				<g>
					<path fill="#FFDE91" d="M243.145,153.358c-0.361,0.382-0.522,1.095-0.36,1.593c0.162,0.497,0.586,0.59,0.947,0.208
						c0.361-0.382,0.522-1.095,0.36-1.592C243.93,153.069,243.506,152.975,243.145,153.358z"/>
					<path fill="#FFFFFF" d="M243.273,155.894c-0.067,0-0.135-0.007-0.201-0.022c-0.352-0.079-0.63-0.359-0.763-0.767
						c-0.22-0.674-0.017-1.573,0.472-2.091h0c0.297-0.315,0.671-0.446,1.023-0.37c0.352,0.079,0.63,0.359,0.763,0.767
						c0.22,0.674,0.017,1.573-0.473,2.09C243.854,155.757,243.563,155.894,243.273,155.894z M243.509,153.701
						c-0.235,0.249-0.354,0.771-0.248,1.095c0.014,0.043,0.029,0.072,0.04,0.09c0.007-0.014,0.035-0.035,0.067-0.07
						c0.236-0.249,0.354-0.771,0.249-1.094c-0.014-0.043-0.029-0.072-0.041-0.09C243.569,153.645,243.542,153.666,243.509,153.701
						L243.509,153.701z"/>
				</g>
			</g>
			<g>
				<path fill="#FF5978" d="M218.371,200.777l2.191-0.021l0.184-0.001l-0.276-7.251c-0.002-0.174-0.124-0.342-0.364-0.465
					c-0.09-0.045-0.189-0.081-0.296-0.108c-0.014-0.004-0.028-0.007-0.042-0.01l-0.001,0h-0.001
					c-0.444-0.098-0.984-0.032-1.34,0.186c-0.229,0.14-0.338,0.316-0.331,0.487L218.371,200.777z"/>
				<path fill="#FF5978" d="M218.735,201.257c0.474,0.241,1.226,0.211,1.681-0.067c0.455-0.278,0.44-0.699-0.033-0.941
					c-0.473-0.241-1.226-0.211-1.681,0.067C218.247,200.595,218.262,201.016,218.735,201.257z"/>
			</g>
			<g>
				<path fill="#4B6DFF" d="M245.421,201.945l1.524-1.526l0.127-0.127l-5.518-4.905c-0.129-0.12-0.338-0.155-0.598-0.075
					c-0.097,0.03-0.193,0.073-0.287,0.128c-0.013,0.007-0.025,0.015-0.038,0.022l-0.001,0.001h-0.001
					c-0.384,0.238-0.715,0.656-0.805,1.055c-0.058,0.256-0.006,0.456,0.125,0.571L245.421,201.945z"/>
			</g>
			<g>
				<path fill="#FF5978" d="M250.163,165.723l0.964,1.907l0.081,0.16l6.633-3.367c0.161-0.077,0.265-0.256,0.276-0.52
					c0.004-0.098-0.005-0.201-0.027-0.305c-0.002-0.014-0.006-0.028-0.009-0.042l0-0.001v-0.001
					c-0.101-0.43-0.394-0.874-0.751-1.091c-0.229-0.14-0.44-0.161-0.597-0.08L250.163,165.723z"/>
			</g>
			<g>
				<g>
					<path fill="#FFDE91" d="M182.535,182.693l2.17,0.298l0.182,0.025l0.852-7.208c0.024-0.172-0.07-0.357-0.288-0.513
						c-0.082-0.059-0.175-0.109-0.276-0.15c-0.013-0.006-0.027-0.011-0.041-0.017h-0.001l-0.001-0.001
						c-0.423-0.161-0.967-0.175-1.354-0.011c-0.248,0.105-0.384,0.263-0.403,0.433L182.535,182.693z"/>
					<path fill="#FFFFFF" d="M184.887,183.516c-0.023,0-0.045-0.001-0.068-0.004l-2.352-0.323c-0.27-0.037-0.46-0.283-0.429-0.554
						l0.84-7.144c0.041-0.358,0.298-0.663,0.705-0.835c0.493-0.209,1.17-0.207,1.726,0.004c0.192,0.078,0.32,0.148,0.433,0.229
						c0.364,0.261,0.544,0.621,0.492,0.989l-0.85,7.197c-0.016,0.133-0.085,0.255-0.191,0.337
						C185.104,183.479,184.997,183.516,184.887,183.516z M183.088,182.264l1.362,0.187l0.791-6.694
						c-0.007,0.011-0.031-0.02-0.082-0.056c-0.05-0.036-0.107-0.066-0.173-0.093c-0.345-0.133-0.757-0.14-1.013-0.032
						c-0.074,0.032-0.108,0.062-0.115,0.071L183.088,182.264z"/>
				</g>
			</g>
			<g>
				<g>
					<path fill="#FFDE91" d="M276.667,180.726l2.112-0.568l0.177-0.047l-2.195-6.938c-0.048-0.167-0.211-0.3-0.476-0.358
						c-0.099-0.022-0.205-0.032-0.314-0.031c-0.015,0-0.029,0.001-0.044,0.001l-0.001,0.001h-0.001
						c-0.455,0.016-0.959,0.214-1.245,0.514c-0.184,0.192-0.244,0.39-0.191,0.553L276.667,180.726z"/>
					<path fill="#FFFFFF" d="M276.667,181.226c-0.213,0-0.409-0.137-0.477-0.349l-2.179-6.873c-0.112-0.346,0-0.729,0.306-1.05
						c0.365-0.381,0.979-0.642,1.57-0.667c0.023-0.003,0.047-0.001,0.07-0.001c0.174,0,0.309,0.014,0.435,0.042
						c0.436,0.095,0.745,0.353,0.848,0.706l2.191,6.926c0.042,0.13,0.027,0.271-0.038,0.391c-0.065,0.12-0.177,0.207-0.309,0.243
						l-2.288,0.615C276.753,181.221,276.71,181.226,276.667,181.226z M275.986,173.285c-0.003,0-0.007,0-0.011,0
						c-0.367,0.013-0.746,0.164-0.935,0.361c-0.051,0.054-0.069,0.091-0.072,0.102l2.03,6.372l1.323-0.355l-2.036-6.435
						c0.002,0.009-0.037-0.009-0.107-0.025C276.119,173.291,276.055,173.285,275.986,173.285z"/>
				</g>
			</g>
			<g>
				<path fill="#FF5978" d="M202.883,188.758l2.112-0.567l0.177-0.047l-2.195-6.938c-0.048-0.167-0.211-0.3-0.476-0.358
					c-0.099-0.022-0.205-0.032-0.314-0.031c-0.015,0-0.029,0.001-0.044,0.001h-0.001h-0.001c-0.455,0.017-0.958,0.215-1.245,0.514
					c-0.184,0.193-0.243,0.39-0.191,0.554L202.883,188.758z"/>
			</g>
		</g>
	</g>
	<g>
		<g>
			<g>
				<g>
					<path fill="#FFA044" d="M208.903,234.417c-0.212-1.903-0.612-3.719-1.199-5.452c-11.81-35.269-97.172-34.853-117.609-5.932
						c-3.071,4.343-4.682,9.323-4.357,14.927C88.459,285.068,214.04,281.153,208.903,234.417z M164.967,229.1
						c-0.125,0.076-0.446,0.438-0.684,0.571c-9.825,5.118-24.586,5.768-35.016,0c0.075-0.025,3.559-3.165,5.563-3.683
						C145.136,223.328,161.915,226.197,164.967,229.1z M146.545,234.247c-6.304,0.001-12.53-1.38-17.52-4.139
						c-0.173-0.096-0.274-0.286-0.256-0.483c0.014-0.153,0.098-0.289,0.223-0.372c0.036-0.028,0.107-0.089,0.209-0.174
						c0.914-0.769,3.697-3.108,5.504-3.575c10.401-2.683,27.388,0.171,30.606,3.234c0.113,0.108,0.169,0.261,0.152,0.416
						c-0.016,0.151-0.101,0.287-0.229,0.368c-0.039,0.029-0.093,0.082-0.155,0.14c-0.168,0.158-0.358,0.336-0.554,0.445
						C159.228,232.868,152.847,234.247,146.545,234.247z M130.159,229.581c9.696,5.017,23.811,4.898,33.893-0.354
						c0.033-0.019,0.083-0.059,0.138-0.106c-3.744-2.542-19.29-5.214-29.235-2.649C133.949,226.732,132.337,227.778,130.159,229.581
						z"/>
				</g>
			</g>
		</g>
		<path fill="#FFFFFF" d="M206.348,222.756c-16.924-44.037-125.815-38.907-118.635,15.192c1.435,6.262,2.846-3.348,5.702,1.122
			c1.62,6.594,6.131-0.747,7.12,5.529c-0.213,0.612-1.182,3.738,0.94,3.291c4.675-2.813,0.319,13.476,7.772,7.18
			c0.769-0.696,2.167-0.056,3.362-0.58c1-0.852,0.88-2.696,2.906-2.176c1.561,0.514,2.304,2.784,3.161,4.104
			c5.904,5.132,6.03-2.287,12.79,3.806c1.195,0.488,1.922,0.613,2.992,1.757c5.153,7.202,6.394-1.815,10.62-3.333
			c3.251-1.353,1.314,6.115,6.521,4.43c2.473-0.682,1.443-3.029,3.661-4.321c1.97-0.467,0.818-2.908,1.989-3.725
			c3.203,1.382,2.934,6.781,1.933,10.015c-0.348,1.326,0.748,2.322,2.638,2.718c4.346-0.481,2.174-7.147,5.697-8.992
			c1.739-1.13,2.837,0.363,5.062-0.223c1.564-1.191,3.299-3.208,5.637-4.085c3.1-2.009,5.502-0.056,8.685,0.694
			c4.475-1.833,2.607-6.806,3.602-10.933c2.965-6.628,3.276,2.676,6.305,1.345c3.164-0.769-0.32-5.836,3.514-5.441
			C204.405,247.851,210.897,234.593,206.348,222.756z M163.843,229.671c-9.922,5.118-24.042,5.768-34.576,0
			c8.158-2.78,21.667-8.952,29.473-3.642c1.341,3.919,2.25,3.815,5.424,3.453C164.038,229.557,164.082,229.538,163.843,229.671z"/>
		<path fill="#E2E9E8" d="M163.471,229.791c0.037-0.021,0.069-0.044,0.105-0.064c0.001,0,0.001,0.001,0.002,0.001
			C163.54,229.753,163.502,229.772,163.471,229.791z"/>
		<path fill="#E2E9E8" d="M169.32,224.13c-0.977,1.973-2.798,3.839-5.458,5.427c-0.095,0.057-0.189,0.114-0.284,0.17
			c-0.044-0.025-0.082-0.044-0.12-0.069c-0.025-0.019-0.057-0.038-0.082-0.051c-0.252-0.139-0.523-0.258-0.782-0.391
			c-0.133,0.107-0.271,0.214-0.416,0.296c-0.183,0.113-0.359,0.227-0.523,0.34c-1.443,0.964-2.2,1.614-3.36-0.826
			c-0.132-0.278-0.246-0.53-0.347-0.769c0,0,0,0-0.006-0.006c-0.164-0.385-0.296-0.725-0.416-1.021
			c-0.422-0.12-0.857-0.233-1.292-0.34c-5.314-1.298-11.315-1.437-16.793-0.41c-2.421,0.448-4.728,1.128-6.834,2.036
			c-0.819,0.347-3.341,1.154-3.341,1.154s-2.175-1.727-3.07-2.642c-4.866-4.967-3.511-11.359,4.053-15.589
			c9.178-5.138,24.004-5.163,33.126-0.063C169.528,214.825,171.508,219.724,169.32,224.13z"/>
		<g>
			<g>
				<path fill="#4B6DFF" d="M122.196,241.206l-1.068,1.92l-0.089,0.161l-6.668-3.71c-0.162-0.085-0.262-0.273-0.262-0.543
					c0-0.101,0.014-0.206,0.04-0.312c0.003-0.014,0.007-0.028,0.011-0.042l0-0.001v-0.001c0.121-0.438,0.44-0.881,0.815-1.091
					c0.241-0.135,0.458-0.147,0.615-0.06L122.196,241.206z"/>
			</g>
			<g>
				<path fill="#4B6DFF" d="M181.617,225.533l2.164-0.599l0.181-0.05l-2.31-7.107c-0.051-0.171-0.219-0.306-0.492-0.364
					c-0.102-0.021-0.21-0.031-0.323-0.029c-0.015,0-0.03,0.001-0.046,0.001l-0.001,0l-0.001,0c-0.468,0.02-0.983,0.228-1.275,0.538
					c-0.187,0.199-0.247,0.402-0.191,0.57L181.617,225.533z"/>
			</g>
			<g>
				<g>
					<path fill="#FFDE91" d="M148.56,239.345l-0.974-1.966l-0.082-0.165l7.019-3.042c0.166-0.077,0.382-0.044,0.607,0.115
						c0.085,0.06,0.164,0.132,0.237,0.215c0.01,0.011,0.02,0.022,0.029,0.034l0.001,0.001l0.001,0.001
						c0.294,0.352,0.476,0.864,0.431,1.281c-0.029,0.268-0.147,0.446-0.312,0.518L148.56,239.345z"/>
					<path fill="#FFFFFF" d="M148.561,239.845c-0.185,0-0.362-0.103-0.449-0.278l-1.055-2.13c-0.061-0.123-0.068-0.265-0.021-0.394
						c0.047-0.128,0.145-0.232,0.271-0.287l7.019-3.042c0.326-0.15,0.729-0.092,1.094,0.165c0.115,0.081,0.224,0.18,0.324,0.293
						c0.429,0.511,0.642,1.161,0.583,1.701c-0.047,0.438-0.269,0.774-0.61,0.922l-6.958,3.011
						C148.694,239.831,148.627,239.845,148.561,239.845z M148.187,237.463l0.611,1.234l6.521-2.822
						c-0.02,0.011,0.005-0.034,0.014-0.112c0.029-0.271-0.104-0.652-0.317-0.907c-0.07-0.08-0.121-0.126-0.172-0.162
						c-0.073-0.052-0.121-0.063-0.133-0.063L148.187,237.463z"/>
				</g>
			</g>
			<g>
				<path fill="#4B6DFF" d="M141.71,205.806l-2.25-0.08l-0.188-0.007l0.486-7.436c0.007-0.178,0.137-0.349,0.388-0.468
					c0.094-0.045,0.197-0.079,0.306-0.103c0.015-0.003,0.029-0.006,0.044-0.01h0.001h0.001c0.459-0.089,1.011-0.007,1.371,0.226
					c0.231,0.15,0.339,0.333,0.327,0.509L141.71,205.806z"/>
			</g>
			<g>
				<path fill="#4B6DFF" d="M110.613,219.386l-0.495-2.128l-0.041-0.178l7.544-1.442c0.18-0.038,0.382,0.04,0.565,0.244
					c0.069,0.076,0.129,0.164,0.181,0.261c0.007,0.013,0.014,0.026,0.021,0.039v0.001l0.001,0.001
					c0.205,0.408,0.265,0.946,0.124,1.342c-0.091,0.255-0.246,0.402-0.425,0.436L110.613,219.386z"/>
			</g>
			<g>
				<path fill="#FF5978" d="M159.482,203.484l-1.009,1.949l-0.085,0.163l-6.777-3.519c-0.165-0.081-0.27-0.266-0.278-0.536
					c-0.003-0.101,0.008-0.206,0.031-0.313c0.003-0.015,0.006-0.028,0.009-0.043v-0.001l0-0.001
					c0.107-0.441,0.414-0.894,0.782-1.114c0.236-0.141,0.454-0.16,0.613-0.077L159.482,203.484z"/>
			</g>
			<g>
				<path fill="#FF5978" d="M191.362,209.526l-1.067,1.92l-0.089,0.161l-6.668-3.71c-0.162-0.085-0.262-0.273-0.262-0.543
					c0-0.101,0.014-0.206,0.04-0.312c0.003-0.014,0.007-0.028,0.011-0.043l0.001-0.001v-0.002c0.121-0.437,0.44-0.881,0.815-1.091
					c0.241-0.135,0.458-0.147,0.615-0.06L191.362,209.526z"/>
			</g>
			<g>
				<path fill="#FF5978" d="M122.688,200.588l0.833,2.026l0.07,0.169l7.064-2.941c0.171-0.067,0.292-0.243,0.324-0.511
					c0.012-0.1,0.011-0.206-0.003-0.314c-0.001-0.015-0.004-0.029-0.006-0.044v-0.001v-0.001c-0.068-0.449-0.333-0.925-0.68-1.176
					c-0.223-0.161-0.438-0.197-0.604-0.127L122.688,200.588z"/>
			</g>
			<g>
				<g>
					<path fill="#FFDE91" d="M124.687,211.036l1.176-1.86l0.099-0.156l-6.663-3.719c-0.157-0.093-0.375-0.083-0.617,0.054
						c-0.09,0.051-0.176,0.115-0.258,0.19c-0.011,0.01-0.021,0.021-0.033,0.031l-0.001,0.001h-0.001
						c-0.33,0.321-0.565,0.812-0.563,1.232c0.001,0.269,0.1,0.458,0.257,0.545L124.687,211.036z"/>
					<path fill="#FFFFFF" d="M124.686,211.536c-0.083,0-0.166-0.02-0.243-0.063l-6.604-3.681c-0.324-0.18-0.512-0.538-0.513-0.98
						c-0.002-0.542,0.278-1.167,0.714-1.592c0.156-0.144,0.274-0.231,0.395-0.299c0.39-0.221,0.797-0.238,1.117-0.049l6.652,3.713
						c0.12,0.067,0.207,0.18,0.241,0.314c0.034,0.133,0.011,0.274-0.062,0.391l-1.274,2.015
						C125.014,211.453,124.853,211.536,124.686,211.536z M119.055,205.739c0,0.002-0.049,0.008-0.127,0.053
						c-0.054,0.031-0.109,0.072-0.165,0.122c-0.264,0.256-0.438,0.623-0.437,0.894c0.001,0.079,0.016,0.12,0.022,0.128l6.168,3.433
						l0.739-1.169L119.055,205.739z"/>
				</g>
			</g>
			<g>
				<path fill="#FF5978" d="M186.994,234.15l0.832,2.026l0.07,0.169l7.064-2.941c0.17-0.066,0.292-0.242,0.325-0.511
					c0.012-0.101,0.01-0.206-0.003-0.314c-0.001-0.015-0.004-0.029-0.005-0.043l-0.001-0.001l0.001-0.001
					c-0.068-0.449-0.333-0.925-0.68-1.176c-0.223-0.161-0.438-0.197-0.604-0.127L186.994,234.15z"/>
			</g>
			<g>
				<path fill="#FF5978" d="M175.939,234.404l1.785-1.328l0.149-0.111l-4.843-5.787c-0.112-0.141-0.32-0.207-0.596-0.164
					c-0.103,0.016-0.208,0.046-0.311,0.088c-0.014,0.005-0.028,0.011-0.042,0.017l-0.001,0.001h-0.001
					c-0.427,0.186-0.828,0.562-0.981,0.954c-0.099,0.252-0.077,0.462,0.038,0.599L175.939,234.404z"/>
				<path fill="#FF5978" d="M176.544,234.58c0.542-0.085,1.141-0.56,1.337-1.061c0.196-0.5-0.084-0.837-0.626-0.752
					c-0.542,0.085-1.141,0.56-1.337,1.061C175.722,234.328,176.002,234.665,176.544,234.58z"/>
			</g>
			<g>
				<path fill="#FF5978" d="M99.375,209.206l1.183,1.855l0.099,0.156l6.431-4.084c0.156-0.094,0.245-0.288,0.228-0.558
					c-0.006-0.101-0.026-0.204-0.059-0.309c-0.004-0.015-0.009-0.028-0.013-0.042l-0.001-0.001v-0.001
					c-0.147-0.43-0.494-0.855-0.88-1.043c-0.248-0.121-0.467-0.121-0.619-0.024L99.375,209.206z"/>
				<path fill="#FF5978" d="M99.133,209.771c0.032,0.531,0.459,1.156,0.953,1.396c0.494,0.24,0.868,0.004,0.836-0.527
					c-0.032-0.532-0.459-1.157-0.953-1.396C99.475,209.004,99.1,209.24,99.133,209.771z"/>
			</g>
			<g>
				<g>
					<path fill="#FFDE91" d="M162.761,196.638l-0.55,2.115l-0.046,0.177l7.503,1.627c0.179,0.043,0.383-0.03,0.572-0.23
						c0.07-0.075,0.133-0.161,0.188-0.256c0.008-0.013,0.015-0.025,0.022-0.038l0-0.001l0.001-0.001
						c0.216-0.402,0.289-0.939,0.159-1.338c-0.083-0.257-0.235-0.409-0.413-0.446L162.761,196.638z"/>
					<path fill="#FFFFFF" d="M169.768,201.069c-0.073,0-0.145-0.009-0.217-0.026l-7.493-1.624c-0.133-0.029-0.249-0.111-0.32-0.228
						c-0.071-0.116-0.092-0.256-0.057-0.388l0.596-2.29c0.067-0.259,0.329-0.421,0.589-0.363l7.436,1.607
						c0.361,0.077,0.646,0.361,0.783,0.781c0.169,0.519,0.092,1.197-0.194,1.73c-0.103,0.181-0.19,0.299-0.287,0.402
						C170.358,200.93,170.063,201.069,169.768,201.069z M162.78,198.552l6.994,1.517c-0.001-0.001,0.042-0.021,0.102-0.085
						c0.042-0.045,0.082-0.099,0.117-0.161c0.173-0.319,0.225-0.717,0.141-0.977c-0.025-0.079-0.054-0.113-0.063-0.121l-6.947-1.497
						L162.78,198.552z"/>
				</g>
				<g>
					<path fill="#FFDE91" d="M162.173,196.864c-0.371,0.392-0.536,1.124-0.37,1.635c0.166,0.51,0.602,0.606,0.973,0.213
						c0.371-0.392,0.536-1.125,0.37-1.635C162.979,196.567,162.544,196.471,162.173,196.864z"/>
					<path fill="#FFFFFF" d="M162.304,199.454c-0.068,0-0.136-0.007-0.204-0.022c-0.356-0.08-0.638-0.364-0.773-0.778
						c-0.224-0.689-0.017-1.605,0.482-2.133l0,0c0.302-0.319,0.68-0.457,1.038-0.376c0.356,0.08,0.638,0.363,0.773,0.778
						c0.224,0.689,0.017,1.605-0.482,2.133C162.894,199.315,162.599,199.454,162.304,199.454z M162.536,197.207
						c-0.244,0.259-0.367,0.801-0.257,1.137c0.019,0.058,0.039,0.092,0.052,0.109c0.002-0.014,0.037-0.038,0.081-0.084
						c0.244-0.259,0.367-0.801,0.257-1.137c-0.019-0.057-0.039-0.092-0.052-0.109C162.616,197.138,162.581,197.161,162.536,197.207
						L162.536,197.207z"/>
				</g>
			</g>
			<g>
				<path fill="#FF5978" d="M136.732,245.56l2.25-0.021l0.188-0.001l-0.283-7.446c-0.002-0.178-0.127-0.352-0.374-0.478
					c-0.092-0.047-0.194-0.084-0.304-0.111c-0.014-0.004-0.029-0.007-0.044-0.011h-0.001h-0.001c-0.456-0.101-1.01-0.033-1.376,0.19
					c-0.235,0.144-0.348,0.325-0.34,0.501L136.732,245.56z"/>
				<path fill="#FF5978" d="M137.106,246.054c0.486,0.247,1.259,0.217,1.726-0.069c0.467-0.286,0.452-0.718-0.034-0.966
					c-0.486-0.247-1.259-0.217-1.726,0.069C136.605,245.373,136.62,245.805,137.106,246.054z"/>
			</g>
			<g>
				<path fill="#4B6DFF" d="M164.51,246.76l1.565-1.567l0.131-0.131l-5.667-5.037c-0.132-0.123-0.348-0.159-0.614-0.077
					c-0.099,0.031-0.198,0.076-0.294,0.131c-0.013,0.007-0.026,0.016-0.039,0.023l-0.001,0.001h0
					c-0.395,0.244-0.734,0.674-0.827,1.083c-0.06,0.263-0.006,0.468,0.128,0.586L164.51,246.76z"/>
			</g>
			<g>
				<path fill="#FF5978" d="M169.381,209.562l0.99,1.958l0.083,0.164l6.811-3.458c0.165-0.079,0.272-0.263,0.283-0.533
					c0.004-0.101-0.006-0.206-0.028-0.313c-0.002-0.014-0.006-0.028-0.009-0.043v-0.001v-0.001
					c-0.104-0.441-0.405-0.897-0.771-1.121c-0.235-0.144-0.452-0.165-0.613-0.082L169.381,209.562z"/>
			</g>
			<g>
				<g>
					<path fill="#FFDE91" d="M99.931,226.989l2.229,0.306l0.187,0.026l0.875-7.403c0.025-0.177-0.071-0.366-0.296-0.527
						c-0.084-0.06-0.18-0.112-0.283-0.154c-0.014-0.006-0.028-0.011-0.042-0.017h-0.001l0-0.001
						c-0.435-0.165-0.994-0.179-1.39-0.011c-0.255,0.107-0.394,0.27-0.415,0.445L99.931,226.989z"/>
					<path fill="#FFFFFF" d="M102.346,227.821c-0.023,0-0.046-0.001-0.069-0.005l-2.414-0.332c-0.27-0.037-0.46-0.283-0.429-0.554
						l0.862-7.336c0.043-0.364,0.304-0.673,0.717-0.847c0.503-0.212,1.196-0.21,1.762,0.005c0.197,0.081,0.327,0.151,0.44,0.232
						c0.371,0.266,0.553,0.632,0.5,1.005l-0.873,7.39c-0.016,0.133-0.084,0.255-0.191,0.337
						C102.564,227.785,102.456,227.821,102.346,227.821z M100.484,226.56l1.425,0.196l0.814-6.892
						c-0.001,0.012-0.032-0.024-0.09-0.066c-0.05-0.036-0.112-0.069-0.182-0.098c-0.355-0.135-0.783-0.143-1.049-0.031
						c-0.081,0.034-0.117,0.067-0.123,0.077L100.484,226.56z"/>
				</g>
			</g>
			<g>
				<g>
					<path fill="#FFDE91" d="M196.598,224.97l2.169-0.583l0.182-0.049l-2.254-7.124c-0.05-0.172-0.216-0.308-0.489-0.368
						c-0.102-0.022-0.21-0.033-0.323-0.031c-0.015,0-0.03,0.001-0.045,0.001l-0.001,0.001h-0.001
						c-0.467,0.017-0.984,0.22-1.279,0.528c-0.189,0.198-0.25,0.4-0.196,0.568L196.598,224.97z"/>
					<path fill="#FFFFFF" d="M196.598,225.47c-0.213,0-0.409-0.137-0.477-0.349l-2.237-7.058c-0.113-0.35,0-0.739,0.311-1.064
						c0.372-0.389,1-0.655,1.604-0.682c0.023-0.001,0.046-0.001,0.069-0.001c0.177,0,0.314,0.014,0.443,0.042
						c0.445,0.098,0.759,0.36,0.863,0.718l2.25,7.112c0.042,0.13,0.027,0.271-0.038,0.391c-0.066,0.12-0.177,0.207-0.309,0.243
						l-2.35,0.632C196.684,225.464,196.641,225.47,196.598,225.47z M195.897,217.314c-0.003,0-0.007,0-0.01,0
						c-0.38,0.013-0.774,0.17-0.969,0.375c-0.056,0.058-0.074,0.1-0.077,0.11l2.088,6.563l1.384-0.372l-2.096-6.625
						c0.001,0.008-0.035-0.013-0.12-0.032C196.038,217.321,195.97,217.314,195.897,217.314z"/>
				</g>
			</g>
			<g>
				<path fill="#FF5978" d="M120.827,233.217l2.168-0.583l0.182-0.048l-2.253-7.124c-0.05-0.172-0.217-0.308-0.489-0.368
					c-0.102-0.023-0.21-0.033-0.323-0.032c-0.015,0-0.03,0.001-0.045,0.001h-0.001h-0.002c-0.467,0.017-0.984,0.221-1.279,0.528
					c-0.189,0.198-0.249,0.401-0.196,0.569L120.827,233.217z"/>
			</g>
		</g>
	</g>
	<g>
		<g>
			<g>
				<g>
					<path fill="#FFA044" d="M298.366,248.92c-0.212-1.903-0.612-3.719-1.199-5.453c-11.81-35.268-97.172-34.852-117.609-5.932
						c-3.071,4.343-4.681,9.323-4.357,14.927C177.922,299.57,303.503,295.656,298.366,248.92z M254.429,243.603
						c-0.124,0.076-0.446,0.438-0.683,0.57c-9.825,5.119-24.585,5.768-35.016,0c0.075-0.025,3.559-3.165,5.562-3.682
						C234.599,237.831,251.379,240.7,254.429,243.603z M236.008,248.75c-6.304,0.001-12.53-1.38-17.52-4.139
						c-0.173-0.096-0.274-0.286-0.256-0.483c0.014-0.153,0.098-0.289,0.223-0.372c0.036-0.028,0.107-0.089,0.209-0.174
						c0.914-0.769,3.696-3.108,5.504-3.574c10.402-2.685,27.388,0.171,30.607,3.233c0.113,0.107,0.169,0.261,0.152,0.416
						c-0.017,0.151-0.101,0.287-0.229,0.368c-0.04,0.03-0.094,0.083-0.156,0.142c-0.167,0.157-0.357,0.335-0.552,0.443
						C248.692,247.37,242.311,248.75,236.008,248.75z M219.623,244.084c9.696,5.017,23.811,4.898,33.893-0.354
						c0.033-0.018,0.083-0.059,0.138-0.106c-3.744-2.542-19.291-5.215-29.236-2.648C223.412,241.235,221.8,242.281,219.623,244.084z
						"/>
				</g>
			</g>
		</g>
		<path fill="#FFFFFF" d="M295.811,237.259c-16.923-44.037-125.815-38.907-118.635,15.192c1.435,6.262,2.846-3.348,5.702,1.122
			c1.619,6.594,6.131-0.747,7.12,5.529c-0.213,0.612-1.181,3.738,0.94,3.291c4.675-2.813,0.319,13.476,7.772,7.18
			c0.769-0.696,2.168-0.056,3.363-0.58c1-0.852,0.88-2.696,2.906-2.176c1.561,0.514,2.304,2.784,3.162,4.103
			c5.904,5.132,6.029-2.288,12.789,3.806c1.195,0.488,1.923,0.613,2.992,1.757c5.153,7.202,6.393-1.815,10.62-3.333
			c3.251-1.354,1.314,6.115,6.521,4.43c2.474-0.682,1.444-3.029,3.661-4.322c1.97-0.467,0.817-2.908,1.989-3.725
			c3.202,1.382,2.934,6.781,1.933,10.015c-0.348,1.326,0.748,2.322,2.638,2.717c4.346-0.48,2.174-7.147,5.698-8.992
			c1.738-1.13,2.837,0.363,5.062-0.223c1.564-1.192,3.299-3.208,5.637-4.085c3.101-2.009,5.503-0.056,8.685,0.694
			c4.476-1.833,2.607-6.806,3.602-10.933c2.965-6.628,3.276,2.676,6.305,1.344c3.165-0.769-0.319-5.836,3.514-5.441
			C293.868,262.353,300.36,249.096,295.811,237.259z M253.305,244.174c-9.922,5.119-24.042,5.768-34.575,0
			c8.158-2.779,21.667-8.952,29.473-3.642c1.341,3.919,2.25,3.815,5.424,3.453C253.501,244.06,253.545,244.041,253.305,244.174z"/>
		<path fill="#E2E9E8" d="M252.933,244.294c0.037-0.021,0.069-0.044,0.105-0.064c0.001,0,0.001,0.001,0.002,0.001
			C253.003,244.256,252.965,244.275,252.933,244.294z"/>
		<path fill="#E2E9E8" d="M258.783,238.633c-0.977,1.973-2.799,3.839-5.459,5.428c-0.095,0.057-0.189,0.113-0.284,0.17
			c-0.044-0.025-0.082-0.044-0.12-0.069c-0.025-0.019-0.057-0.038-0.082-0.05c-0.252-0.139-0.523-0.258-0.782-0.391
			c-0.132,0.107-0.271,0.214-0.416,0.296c-0.183,0.114-0.359,0.227-0.523,0.341c-1.443,0.964-2.2,1.613-3.359-0.826
			c-0.133-0.277-0.246-0.529-0.347-0.769c0,0,0,0-0.006-0.006c-0.164-0.385-0.296-0.725-0.417-1.021
			c-0.422-0.12-0.857-0.233-1.292-0.34c-5.314-1.299-11.315-1.437-16.793-0.41c-2.421,0.447-4.728,1.128-6.833,2.036
			c-0.82,0.347-3.341,1.153-3.341,1.153s-2.175-1.727-3.07-2.641c-4.866-4.967-3.511-11.359,4.053-15.589
			c9.178-5.138,24.004-5.163,33.126-0.063C258.992,229.328,260.971,234.226,258.783,238.633z"/>
		<g>
			<g>
				<path fill="#4B6DFF" d="M211.659,255.709l-1.067,1.92l-0.089,0.161l-6.669-3.71c-0.161-0.085-0.262-0.273-0.262-0.543
					c0-0.101,0.014-0.206,0.04-0.312c0.003-0.014,0.007-0.028,0.011-0.043l0.001-0.001v-0.001c0.121-0.438,0.44-0.881,0.815-1.092
					c0.241-0.135,0.458-0.147,0.616-0.059L211.659,255.709z"/>
			</g>
			<g>
				<path fill="#4B6DFF" d="M271.08,240.035l2.164-0.599l0.181-0.05l-2.31-7.107c-0.051-0.171-0.219-0.306-0.492-0.364
					c-0.102-0.021-0.211-0.031-0.323-0.029c-0.015,0-0.03,0.001-0.045,0.001l-0.001,0.001l-0.001-0.001
					c-0.467,0.021-0.983,0.228-1.275,0.538c-0.188,0.199-0.247,0.402-0.191,0.57L271.08,240.035z"/>
			</g>
			<g>
				<g>
					<path fill="#FFDE91" d="M238.024,253.847l-0.974-1.966l-0.082-0.165l7.019-3.042c0.166-0.077,0.382-0.045,0.607,0.115
						c0.085,0.059,0.164,0.132,0.237,0.215c0.01,0.011,0.019,0.022,0.029,0.034l0,0.001l0.001,0.001
						c0.294,0.352,0.477,0.864,0.431,1.281c-0.029,0.268-0.147,0.446-0.312,0.517L238.024,253.847z"/>
					<path fill="#FFFFFF" d="M238.024,254.347c-0.185,0-0.361-0.102-0.448-0.278l-1.056-2.131c-0.061-0.123-0.068-0.265-0.022-0.394
						c0.047-0.128,0.145-0.232,0.271-0.287l7.018-3.042c0.325-0.15,0.73-0.092,1.094,0.165c0.114,0.08,0.223,0.178,0.324,0.293
						c0.429,0.511,0.642,1.161,0.583,1.701c-0.048,0.439-0.271,0.775-0.612,0.922l-6.956,3.011
						C238.158,254.334,238.09,254.347,238.024,254.347z M237.65,251.966l0.611,1.234l6.52-2.822
						c-0.018,0.016,0.006-0.035,0.014-0.112c0.029-0.27-0.104-0.65-0.318-0.906c-0.07-0.08-0.12-0.126-0.17-0.161
						c-0.075-0.053-0.122-0.064-0.134-0.064L237.65,251.966z"/>
				</g>
			</g>
			<g>
				<path fill="#4B6DFF" d="M231.173,220.309l-2.249-0.079l-0.188-0.007l0.485-7.436c0.007-0.178,0.137-0.349,0.388-0.468
					c0.093-0.044,0.196-0.079,0.306-0.103c0.015-0.003,0.029-0.006,0.044-0.01h0.001h0.001c0.458-0.089,1.01-0.007,1.37,0.226
					c0.231,0.15,0.339,0.333,0.327,0.509L231.173,220.309z"/>
			</g>
			<g>
				<path fill="#4B6DFF" d="M200.076,233.888l-0.495-2.128l-0.042-0.178l7.543-1.442c0.18-0.039,0.382,0.04,0.566,0.243
					c0.068,0.077,0.129,0.165,0.181,0.261c0.007,0.014,0.014,0.026,0.021,0.04l0.001,0.001l0,0.001
					c0.206,0.407,0.265,0.946,0.124,1.342c-0.09,0.254-0.246,0.402-0.424,0.436L200.076,233.888z"/>
			</g>
			<g>
				<path fill="#FF5978" d="M248.945,217.986l-1.009,1.95l-0.085,0.163l-6.777-3.519c-0.164-0.08-0.27-0.265-0.278-0.536
					c-0.003-0.101,0.008-0.206,0.031-0.313c0.003-0.015,0.006-0.029,0.009-0.043v-0.001l0.001-0.001
					c0.107-0.441,0.413-0.894,0.782-1.114c0.237-0.141,0.454-0.16,0.613-0.077L248.945,217.986z"/>
			</g>
			<g>
				<path fill="#FF5978" d="M280.825,224.029l-1.067,1.92l-0.089,0.161L273,222.4c-0.162-0.085-0.262-0.273-0.262-0.544
					c0-0.101,0.014-0.206,0.04-0.312c0.003-0.014,0.007-0.028,0.011-0.043l0.001-0.001v-0.001c0.121-0.438,0.44-0.881,0.815-1.091
					c0.24-0.135,0.458-0.147,0.615-0.06L280.825,224.029z"/>
			</g>
			<g>
				<path fill="#FF5978" d="M212.151,215.091l0.832,2.026l0.069,0.169l7.064-2.941c0.171-0.066,0.292-0.242,0.325-0.511
					c0.012-0.1,0.011-0.206-0.003-0.314c-0.001-0.015-0.003-0.029-0.006-0.044v-0.001l0,0c-0.068-0.449-0.333-0.925-0.68-1.176
					c-0.223-0.161-0.438-0.197-0.604-0.128L212.151,215.091z"/>
			</g>
			<g>
				<g>
					<path fill="#FFDE91" d="M214.15,225.539l1.175-1.86l0.099-0.156l-6.663-3.719c-0.157-0.093-0.375-0.083-0.617,0.054
						c-0.09,0.051-0.176,0.115-0.258,0.191c-0.011,0.01-0.021,0.02-0.033,0.031l0,0.001h-0.001c-0.33,0.321-0.564,0.812-0.563,1.232
						c0.001,0.269,0.099,0.458,0.256,0.545L214.15,225.539z"/>
					<path fill="#FFFFFF" d="M214.15,226.039c-0.083,0-0.166-0.02-0.243-0.063l-6.604-3.682c-0.325-0.181-0.512-0.538-0.513-0.981
						c-0.002-0.541,0.278-1.166,0.714-1.59c0.156-0.144,0.274-0.231,0.395-0.299c0.392-0.221,0.8-0.237,1.119-0.048l6.65,3.712
						c0.12,0.067,0.207,0.18,0.241,0.313c0.034,0.133,0.011,0.274-0.062,0.391l-1.273,2.015
						C214.478,225.956,214.316,226.039,214.15,226.039z M208.518,220.242c0.001,0.001-0.049,0.008-0.127,0.053
						c-0.054,0.031-0.109,0.072-0.165,0.123c-0.263,0.255-0.437,0.622-0.436,0.894c0,0.079,0.016,0.12,0.021,0.129l6.169,3.433
						l0.739-1.169L208.518,220.242z"/>
				</g>
			</g>
			<g>
				<path fill="#FF5978" d="M276.457,248.653l0.832,2.026l0.069,0.169l7.065-2.942c0.171-0.066,0.292-0.242,0.325-0.511
					c0.012-0.1,0.011-0.206-0.003-0.314c-0.001-0.015-0.003-0.029-0.005-0.044l0-0.001v0c-0.068-0.449-0.333-0.925-0.68-1.176
					c-0.223-0.161-0.438-0.197-0.604-0.128L276.457,248.653z"/>
			</g>
			<g>
				<path fill="#FF5978" d="M265.402,248.907l1.786-1.328l0.149-0.111l-4.843-5.787c-0.112-0.141-0.32-0.207-0.596-0.164
					c-0.102,0.016-0.207,0.046-0.311,0.088c-0.014,0.005-0.028,0.011-0.041,0.017l-0.002,0.001h-0.001
					c-0.426,0.185-0.828,0.562-0.981,0.954c-0.099,0.252-0.077,0.462,0.038,0.598L265.402,248.907z"/>
				<path fill="#FF5978" d="M266.007,249.083c0.542-0.085,1.141-0.56,1.337-1.06c0.196-0.501-0.084-0.837-0.626-0.752
					c-0.542,0.085-1.141,0.56-1.337,1.061C265.185,248.831,265.465,249.168,266.007,249.083z"/>
			</g>
			<g>
				<path fill="#FF5978" d="M188.838,223.709l1.183,1.855l0.099,0.155l6.431-4.083c0.156-0.094,0.244-0.288,0.228-0.558
					c-0.006-0.101-0.026-0.205-0.059-0.309c-0.004-0.015-0.009-0.028-0.014-0.042l-0.001-0.001v-0.001
					c-0.147-0.43-0.494-0.855-0.88-1.042c-0.249-0.121-0.466-0.121-0.618-0.024L188.838,223.709z"/>
				<path fill="#FF5978" d="M188.596,224.274c0.032,0.531,0.459,1.156,0.953,1.396c0.494,0.24,0.868,0.004,0.836-0.527
					c-0.032-0.532-0.459-1.157-0.953-1.396C188.938,223.507,188.564,223.743,188.596,224.274z"/>
			</g>
			<g>
				<g>
					<path fill="#FFDE91" d="M252.224,211.141l-0.55,2.115l-0.046,0.177l7.503,1.627c0.179,0.043,0.383-0.03,0.572-0.23
						c0.07-0.075,0.133-0.161,0.188-0.256c0.008-0.013,0.015-0.025,0.022-0.039v-0.001l0.001-0.001
						c0.216-0.402,0.289-0.938,0.159-1.339c-0.083-0.257-0.235-0.408-0.412-0.446L252.224,211.141z"/>
					<path fill="#FFFFFF" d="M259.231,215.572c-0.073,0-0.145-0.008-0.217-0.025l-7.493-1.624c-0.133-0.029-0.249-0.111-0.32-0.228
						c-0.071-0.116-0.092-0.256-0.057-0.388l0.596-2.29c0.067-0.259,0.329-0.419,0.589-0.363l7.436,1.607
						c0.361,0.078,0.646,0.362,0.782,0.78c0.169,0.518,0.092,1.197-0.194,1.73c-0.105,0.184-0.191,0.302-0.287,0.403
						C259.821,215.433,259.525,215.572,259.231,215.572z M252.242,213.055l6.994,1.516c0-0.001,0.043-0.021,0.103-0.085
						c0.041-0.044,0.081-0.098,0.117-0.162c0.171-0.317,0.224-0.716,0.14-0.975c-0.025-0.079-0.055-0.114-0.063-0.121l-6.946-1.497
						L252.242,213.055z"/>
				</g>
				<g>
					<path fill="#FFDE91" d="M251.637,211.367c-0.371,0.393-0.537,1.125-0.37,1.635c0.166,0.511,0.602,0.607,0.973,0.214
						c0.371-0.392,0.537-1.124,0.37-1.635C252.443,211.07,252.007,210.974,251.637,211.367z"/>
					<path fill="#FFFFFF" d="M251.768,213.957c-0.068,0-0.136-0.007-0.204-0.022c-0.356-0.08-0.638-0.364-0.773-0.778
						c-0.224-0.688-0.017-1.605,0.482-2.133c0.301-0.319,0.678-0.456,1.038-0.376c0.357,0.08,0.639,0.364,0.773,0.778
						c0.225,0.688,0.018,1.605-0.482,2.134C252.357,213.818,252.062,213.957,251.768,213.957z M252.081,211.626
						c-0.002,0.014-0.037,0.037-0.081,0.083h0c-0.245,0.259-0.368,0.801-0.258,1.137c0.019,0.058,0.039,0.092,0.053,0.109
						c0.002-0.014,0.038-0.037,0.081-0.083c0.245-0.259,0.368-0.8,0.258-1.137C252.115,211.678,252.094,211.643,252.081,211.626z"/>
				</g>
			</g>
			<g>
				<path fill="#FF5978" d="M226.195,260.063l2.251-0.021l0.188-0.001l-0.283-7.446c-0.002-0.179-0.127-0.352-0.374-0.478
					c-0.092-0.047-0.194-0.084-0.304-0.111c-0.014-0.004-0.029-0.007-0.044-0.011l0,0h-0.001c-0.456-0.101-1.01-0.033-1.376,0.19
					c-0.235,0.144-0.348,0.325-0.34,0.501L226.195,260.063z"/>
				<path fill="#FF5978" d="M226.569,260.556c0.486,0.248,1.259,0.217,1.726-0.069c0.467-0.286,0.452-0.718-0.034-0.966
					c-0.486-0.247-1.259-0.217-1.726,0.069C226.068,259.876,226.083,260.309,226.569,260.556z"/>
			</g>
			<g>
				<path fill="#4B6DFF" d="M253.973,261.263l1.565-1.567l0.131-0.131l-5.666-5.037c-0.133-0.123-0.348-0.159-0.614-0.077
					c-0.099,0.031-0.198,0.075-0.294,0.131c-0.013,0.007-0.026,0.016-0.039,0.023l-0.001,0.001h-0.001
					c-0.395,0.244-0.734,0.674-0.827,1.083c-0.06,0.263-0.006,0.468,0.128,0.586L253.973,261.263z"/>
			</g>
			<g>
				<path fill="#FF5978" d="M258.844,224.065l0.99,1.958l0.083,0.164l6.811-3.458c0.165-0.079,0.272-0.263,0.283-0.534
					c0.004-0.101-0.006-0.206-0.028-0.313c-0.003-0.015-0.006-0.028-0.009-0.043l-0.001-0.001v-0.001
					c-0.103-0.441-0.405-0.897-0.771-1.121c-0.235-0.144-0.452-0.165-0.613-0.082L258.844,224.065z"/>
			</g>
			<g>
				<g>
					<path fill="#FFDE91" d="M189.394,241.492l2.229,0.306l0.186,0.025l0.875-7.402c0.025-0.177-0.071-0.366-0.296-0.527
						c-0.084-0.06-0.18-0.112-0.283-0.154c-0.014-0.006-0.028-0.011-0.042-0.017h-0.001l0-0.001
						c-0.435-0.165-0.994-0.179-1.39-0.012c-0.255,0.108-0.394,0.271-0.414,0.445L189.394,241.492z"/>
					<path fill="#FFFFFF" d="M191.809,242.324c-0.022,0-0.045-0.002-0.067-0.004l-2.416-0.332c-0.27-0.037-0.46-0.283-0.429-0.554
						l0.863-7.337c0.042-0.363,0.303-0.672,0.716-0.847c0.503-0.213,1.195-0.212,1.763,0.005c0.196,0.08,0.326,0.151,0.44,0.232
						c0.371,0.265,0.553,0.631,0.501,1.003l-0.874,7.391c-0.016,0.133-0.085,0.254-0.19,0.337
						C192.027,242.287,191.919,242.324,191.809,242.324z M189.947,241.063l1.425,0.196l0.814-6.893
						c-0.001,0.017-0.032-0.024-0.09-0.066c-0.051-0.037-0.113-0.07-0.182-0.099c-0.355-0.135-0.782-0.143-1.049-0.031
						c-0.08,0.034-0.116,0.067-0.123,0.078L189.947,241.063z"/>
				</g>
			</g>
			<g>
				<g>
					<path fill="#FFDE91" d="M286.061,239.472l2.169-0.583l0.181-0.048l-2.253-7.124c-0.05-0.172-0.217-0.308-0.489-0.368
						c-0.102-0.022-0.21-0.033-0.323-0.031c-0.016,0-0.03,0.001-0.045,0.001l-0.001,0.001h-0.001
						c-0.467,0.017-0.984,0.22-1.279,0.528c-0.189,0.198-0.25,0.4-0.196,0.568L286.061,239.472z"/>
					<path fill="#FFFFFF" d="M286.061,239.972c-0.213,0-0.409-0.137-0.477-0.349l-2.237-7.058c-0.113-0.35,0-0.738,0.311-1.064
						c0.372-0.39,1.001-0.656,1.605-0.682c0.027-0.002,0.053-0.001,0.078-0.002c0.169,0,0.304,0.015,0.434,0.043
						c0.446,0.099,0.76,0.36,0.864,0.718l2.25,7.112c0.042,0.13,0.027,0.271-0.038,0.392c-0.066,0.12-0.178,0.207-0.31,0.242
						l-2.349,0.632C286.147,239.967,286.104,239.972,286.061,239.972z M285.367,231.817c-0.005,0-0.009,0-0.014,0
						c-0.383,0.013-0.776,0.171-0.972,0.375c-0.056,0.058-0.074,0.1-0.077,0.111l2.088,6.563l1.384-0.373l-2.096-6.625
						c0.003,0.01-0.035-0.013-0.12-0.032C285.501,231.824,285.435,231.817,285.367,231.817z"/>
				</g>
			</g>
			<g>
				<path fill="#FF5978" d="M210.29,247.72l2.168-0.583l0.181-0.049l-2.253-7.124c-0.05-0.172-0.217-0.308-0.489-0.368
					c-0.102-0.022-0.21-0.032-0.323-0.031c-0.015,0-0.03,0.001-0.046,0.001h0h-0.001c-0.467,0.017-0.985,0.221-1.279,0.528
					c-0.189,0.198-0.25,0.4-0.196,0.569L210.29,247.72z"/>
			</g>
		</g>
	</g>
</g>
</svg>
