<?xml version="1.0" encoding="utf-8"?>
<!-- Generator: Adobe Illustrator 24.3.0, SVG Export Plug-In . SVG Version: 6.00 Build 0)  -->
<svg version="1.1" id="Layer_1" xmlns="http://www.w3.org/2000/svg" xmlns:xlink="http://www.w3.org/1999/xlink" x="0px" y="0px"
	 viewBox="0 0 350 350" enable-background="new 0 0 350 350" xml:space="preserve">
<g>
	
		<radialGradient id="SVGID_1_" cx="252.4596" cy="180.689" r="134.5619" gradientTransform="matrix(0.5734 -0.7894 0.4525 0.3009 -80.0064 318.6799)" gradientUnits="userSpaceOnUse">
		<stop  offset="0" style="stop-color:#B0BED9"/>
		<stop  offset="0.206" style="stop-color:#C7D1E4"/>
		<stop  offset="0.5296" style="stop-color:#E6EAF3"/>
		<stop  offset="0.8058" style="stop-color:#F8FAFC"/>
		<stop  offset="1" style="stop-color:#FFFFFF"/>
	</radialGradient>
	<path fill="url(#SVGID_1_)" d="M49.005,223.114c-7.104,57.846,30.788,82.642,84.662,55.39
		c53.866-27.31,103.256-96.282,110.361-154.13c7.108-57.876-30.767-82.672-84.637-55.333
		C105.518,96.292,56.103,165.324,49.005,223.114z"/>
	<g>
		<g>
			<path fill="#00537A" d="M225.704,162.583h-12.001h-76.147c0,28.757,18.384,45.21,27.74,50.609
				c14.995,8.659,34.756,12.871,54.408,12.669c19.652,0.202,39.413-4.01,54.408-12.669c9.356-5.399,27.74-21.852,27.74-50.609
				H225.704z"/>
			<ellipse fill="#6A8AFF" cx="219.703" cy="162.526" rx="82.148" ry="47.429"/>
			<path fill="#00537A" d="M275.71,130.882c30.932,17.476,30.932,45.811,0,63.289c-30.932,17.476-81.083,17.476-112.014,0
				c-30.932-17.478-30.932-45.812,0-63.289C194.628,113.405,244.778,113.405,275.71,130.882z"/>
			<path fill="#002E47" d="M268.18,153.427c26.305,12.318,26.305,32.291,0,44.611c-26.304,12.318-68.952,12.318-95.257,0
				c-26.305-12.32-26.305-32.292,0-44.611C199.228,141.109,241.876,141.107,268.18,153.427z"/>
			<g>
				<path fill="#002E47" d="M169.016,203.893l-0.946,0.792c-0.714-0.423-1.544-0.615-2.367-0.523
					c-28.843,3.171-61.668,20.075-70.511,28.909c-8.959,8.967,7.726,23.697,26.059,4.626c12.794-13.31,35.442-20.716,47.632-25
					C173.653,211.021,171.93,205.612,169.016,203.893z M111.254,236.053c-6.767,7.041-12.861,1.519-9.174-1.354
					C112.45,226.604,115.979,231.137,111.254,236.053z"/>
			</g>
			<path fill="#00537A" d="M168.528,203.39l-1.677-0.98c-0.714-0.423-1.544-0.614-2.366-0.523
				c-28.843,3.172-60.468,21.031-69.311,29.865c-8.958,8.967,6.526,22.741,24.858,3.67c12.794-13.309,35.237-21.354,47.633-24.999
				C170.911,209.467,171.442,205.108,168.528,203.39z M110.036,233.777c-6.767,7.04-12.861,1.52-9.175-1.354
				C111.231,224.329,114.76,228.862,110.036,233.777z"/>
			<g>
				<path fill="#E2E9E8" d="M257.178,159.389c14.808,0,23.785,11.411,19.293,22.27c-2.443,5.906-12.962,11.649-19.293,15.305
					c-11.501,6.641-18.436-0.117-33.23-1.976c-5.469-0.688-17.565,6.11-26.899,3.816c-4.869-1.197-5.01-12.337-11.569-12.337
					c-20.752,0-17.972-19.452,0-29.829c10.849-6.263,27.627-8.08,46.619-1.22C244.816,160.011,248.954,159.389,257.178,159.389z"/>
				<path fill="#FFB642" d="M220.578,173.618c-6.432,3.712-16.854,3.712-23.285,0c-3.106-1.802-4.715-4.13-4.809-6.478
					c-0.006-0.165-0.006-0.325,0-0.485c-0.006-0.074,0-0.146,0.006-0.213c0.186-3.498,2.541-6.392,2.946-6.857
					c0.033-0.047,0.053-0.067,0.053-0.067c0.705-0.991,1.756-1.915,3.146-2.713c5.693-3.286,14.911-3.286,20.598,0
					c0.592,0.339,1.124,0.705,1.589,1.083c0.094,0.074,0.187,0.147,0.266,0.227c0.007,0.006,0.007,0.006,0.007,0.006
					c0.399,0.346,0.745,0.705,1.044,1.07c0.007,0.007,0.007,0.014,0.013,0.021c3.24,3.664,3.233,7.003,3.226,7.229
					c0,0.006,0,0.013,0,0.013C225.592,169.029,223.989,171.65,220.578,173.618z"/>
				<path fill="#FFA044" d="M222.153,159.213c-0.006-0.007-0.006-0.014-0.013-0.021c-0.299-0.366-0.645-0.725-1.044-1.07
					c0,0,0,0-0.007-0.006c-0.08-0.08-0.172-0.153-0.266-0.227c-0.272-0.222-0.575-0.437-0.892-0.647
					c0.004,0.117,0.019,0.234,0.02,0.352c0.086,8.734-8.073,15.215-16.316,15.215c-4.545,0-8.408-2.125-11.108-5.311
					c0.235,2.225,1.817,4.41,4.766,6.121c6.432,3.712,16.854,3.712,23.285,0c3.412-1.968,5.014-4.589,4.801-7.163
					c0,0,0-0.007,0-0.013C225.386,166.216,225.393,162.877,222.153,159.213z"/>
				<path fill="#FFDE91" d="M207.129,157.976c-0.395-1.256-2.513-1.709-4.729-1.01c-2.215,0.697-3.69,2.283-3.293,3.539
					c0.395,1.256,2.513,1.709,4.728,1.011C206.051,160.818,207.526,159.234,207.129,157.976z"/>
				<path fill="#FFDE91" d="M206.204,162.163c-0.095-0.299-0.6-0.408-1.129-0.241c-0.529,0.167-0.881,0.545-0.787,0.845
					c0.095,0.3,0.6,0.408,1.129,0.241C205.946,162.842,206.298,162.464,206.204,162.163z"/>
				<path fill="#FFB642" d="M246.419,182.475c-6.432,3.711-16.854,3.711-23.285,0c-3.105-1.803-4.715-4.13-4.808-6.478
					c-0.007-0.167-0.007-0.326,0-0.486c-0.007-0.073,0-0.146,0.006-0.213c0.186-3.499,2.541-6.391,2.947-6.857
					c0.033-0.046,0.053-0.066,0.053-0.066c0.705-0.991,1.756-1.916,3.145-2.714c5.693-3.285,14.912-3.285,20.598,0
					c0.592,0.34,1.124,0.705,1.59,1.085c0.093,0.073,0.187,0.146,0.266,0.226c0.007,0.006,0.007,0.006,0.007,0.006
					c0.399,0.346,0.745,0.705,1.044,1.071c0.007,0.006,0.007,0.013,0.014,0.02c3.239,3.665,3.232,7.003,3.226,7.23
					c0,0.007,0,0.013,0,0.013C251.434,177.886,249.831,180.507,246.419,182.475z"/>
				<path fill="#FFA044" d="M247.995,168.069c-0.007-0.006-0.007-0.013-0.014-0.02c-0.299-0.367-0.645-0.726-1.044-1.071
					c0,0,0,0-0.007-0.006c-0.08-0.08-0.173-0.153-0.266-0.226c-0.279-0.227-0.588-0.446-0.913-0.661
					c0.006,0.149,0.024,0.297,0.025,0.447c0.086,8.733-8.073,15.215-16.316,15.215c-4.528,0-8.379-2.108-11.079-5.274
					c0.278,2.184,1.856,4.321,4.751,6.002c6.432,3.711,16.854,3.711,23.285,0c3.412-1.969,5.015-4.589,4.802-7.163
					c0,0,0-0.006,0-0.013C251.227,175.073,251.234,171.734,247.995,168.069z"/>
				<path fill="#FFDE91" d="M232.034,168.205c-0.396-1.256-2.513-1.709-4.729-1.01c-2.215,0.698-3.69,2.284-3.293,3.54
					c0.395,1.256,2.513,1.708,4.728,1.011C230.956,171.047,232.431,169.463,232.034,168.205z"/>
				<path fill="#FFDE91" d="M231.109,172.393c-0.095-0.3-0.601-0.408-1.129-0.241c-0.529,0.167-0.881,0.545-0.787,0.845
					c0.095,0.3,0.6,0.408,1.129,0.241C230.851,173.072,231.204,172.693,231.109,172.393z"/>
				<path fill="#FFFFFF" d="M193.129,173.745c0.836,0.578,1.713,1.082,2.604,1.555c0.447,0.231,0.904,0.444,1.359,0.658
					c0.465,0.191,0.923,0.397,1.391,0.574c0.472,0.171,0.938,0.354,1.41,0.516l1.435,0.433l1.453,0.35
					c0.479,0.135,0.979,0.176,1.466,0.268l0.734,0.12l0.741,0.064c0.494,0.038,0.986,0.109,1.48,0.12l1.482,0.01
					c0.496,0.026,0.986-0.059,1.479-0.087c0.491-0.056,0.988-0.039,1.473-0.143l1.46-0.246c0.491-0.061,0.963-0.216,1.441-0.34
					l1.432-0.382l0.75-0.201l0.11,0.766c0.054,0.374,0.175,0.847,0.327,1.264c0.062,0.218,0.165,0.424,0.252,0.634
					c0.084,0.212,0.182,0.419,0.299,0.617c0.112,0.2,0.211,0.408,0.334,0.602l0.388,0.572c0.121,0.196,0.266,0.376,0.419,0.549
					l0.442,0.535c0.309,0.344,0.663,0.649,0.991,0.979c0.354,0.304,0.739,0.572,1.107,0.862c0.37,0.287,0.801,0.49,1.196,0.748
					c0.391,0.266,0.829,0.453,1.259,0.653c0.435,0.188,0.849,0.433,1.31,0.564l1.356,0.472c0.447,0.179,0.928,0.246,1.392,0.375
					l1.408,0.34l1.435,0.237c0.48,0.071,0.958,0.177,1.442,0.22c0.97,0.073,1.942,0.164,2.919,0.265
					c-0.977,0.04-1.958,0.069-2.942,0.081c-0.492,0.006-0.981-0.052-1.474-0.075l-1.479-0.094c-0.49-0.058-0.976-0.159-1.467-0.237
					c-0.485-0.098-0.986-0.133-1.462-0.284l-1.442-0.404c-0.488-0.113-0.939-0.346-1.41-0.521c-0.466-0.188-0.939-0.363-1.376-0.624
					c-0.44-0.25-0.901-0.465-1.316-0.759c-0.41-0.301-0.837-0.581-1.234-0.902c-0.374-0.348-0.772-0.674-1.127-1.045
					c-0.33-0.395-0.709-0.75-0.988-1.188l-0.441-0.637c-0.139-0.217-0.256-0.45-0.384-0.674c-0.133-0.224-0.247-0.456-0.346-0.698
					c-0.103-0.239-0.219-0.472-0.296-0.724c-0.18-0.501-0.322-0.975-0.41-1.568l0.859,0.565l-1.508,0.395
					c-0.505,0.125-1.001,0.282-1.52,0.342l-1.541,0.244c-0.511,0.1-1.036,0.087-1.554,0.13c-0.52,0.015-1.038,0.083-1.557,0.042
					l-1.558-0.06c-0.518-0.028-1.031-0.118-1.546-0.174l-0.769-0.107l-0.759-0.165c-0.504-0.121-1.018-0.192-1.509-0.357
					c-0.495-0.15-0.994-0.284-1.482-0.448l-1.443-0.552c-0.473-0.201-0.939-0.421-1.406-0.633c-0.459-0.229-0.906-0.486-1.357-0.726
					c-0.439-0.264-0.88-0.524-1.308-0.803c-0.424-0.285-0.849-0.568-1.254-0.879C193.893,174.42,193.502,174.09,193.129,173.745z"/>
				<path fill="#FFFFFF" d="M252.418,173.745c0,0,0.132,0.171,0.301,0.51c0.089,0.167,0.176,0.378,0.28,0.622
					c0.088,0.248,0.203,0.528,0.269,0.849c0.092,0.316,0.134,0.671,0.183,1.046c0.006,0.376,0.062,0.782-0.007,1.194
					c-0.026,0.206-0.042,0.418-0.078,0.63c-0.054,0.208-0.108,0.42-0.163,0.632c-0.104,0.427-0.324,0.823-0.494,1.234
					c-0.249,0.367-0.454,0.77-0.741,1.098c-0.144,0.163-0.287,0.325-0.428,0.484c-0.14,0.161-0.281,0.315-0.445,0.441
					c-0.314,0.265-0.617,0.524-0.917,0.744c-0.319,0.194-0.62,0.378-0.898,0.548c-0.271,0.18-0.544,0.299-0.789,0.396
					c-0.242,0.102-0.452,0.192-0.625,0.266c-0.346,0.144-0.546,0.217-0.546,0.217s0.176-0.127,0.487-0.333
					c0.304-0.218,0.777-0.463,1.265-0.868c0.248-0.192,0.518-0.4,0.803-0.62c0.268-0.237,0.526-0.512,0.813-0.771
					c0.296-0.254,0.5-0.603,0.774-0.899c0.261-0.307,0.435-0.68,0.662-1.017c0.158-0.371,0.368-0.727,0.469-1.113
					c0.057-0.191,0.114-0.381,0.17-0.568c0.043-0.191,0.067-0.384,0.102-0.571c0.041-0.188,0.057-0.375,0.063-0.56
					c0.009-0.185,0.03-0.366,0.03-0.542c-0.02-0.353-0.013-0.691-0.062-1c-0.068-0.621-0.187-1.138-0.295-1.492
					C252.498,173.945,252.418,173.745,252.418,173.745z"/>
				<path fill="#FFFFFF" d="M214.385,182.919c0,0,0.6,0.716,1.64,1.621c0.517,0.455,1.137,0.962,1.837,1.455
					c0.175,0.122,0.352,0.248,0.532,0.375c0.185,0.118,0.374,0.237,0.563,0.357c0.369,0.255,0.775,0.463,1.169,0.691
					c0.393,0.232,0.81,0.417,1.207,0.626c0.41,0.183,0.813,0.363,1.204,0.537c0.4,0.153,0.788,0.301,1.155,0.441
					c0.365,0.151,0.728,0.237,1.054,0.35c0.331,0.097,0.627,0.22,0.901,0.281c0.273,0.071,0.51,0.134,0.706,0.185
					c0.392,0.105,0.617,0.175,0.617,0.175s-0.232-0.011-0.638-0.047c-0.204-0.02-0.451-0.043-0.734-0.07
					c-0.287-0.016-0.599-0.089-0.945-0.153c-0.342-0.074-0.725-0.12-1.108-0.246c-0.386-0.115-0.801-0.219-1.215-0.369
					c-0.409-0.164-0.843-0.309-1.265-0.501c-0.414-0.208-0.849-0.394-1.259-0.626c-0.404-0.243-0.82-0.466-1.198-0.736
					c-0.391-0.249-0.754-0.527-1.097-0.805c-0.356-0.262-0.658-0.567-0.961-0.833c-0.287-0.285-0.561-0.55-0.79-0.818
					c-0.478-0.517-0.806-1.008-1.043-1.339C214.488,183.129,214.385,182.919,214.385,182.919z"/>
			</g>
		</g>
	</g>
	<g>
		<g>
			<path fill="#FF5978" d="M176.225,268.156c0,5.951-8.573,10.775-19.148,10.775c-10.576,0-19.148-4.824-19.148-10.775
				s8.573-10.775,19.148-10.775C167.652,257.381,176.225,262.205,176.225,268.156z"/>
			<ellipse fill="#FFB642" cx="157.077" cy="263.016" rx="24.39" ry="13.451"/>
			<rect x="132.687" y="207.521" fill="#FFB642" width="48.78" height="55.496"/>
			<path fill="#FFDE91" d="M181.467,207.521c0,7.429-10.92,13.451-24.39,13.451s-24.39-6.022-24.39-13.451
				c0-7.428,10.92-13.45,24.39-13.45S181.467,200.093,181.467,207.521z"/>
			<polygon fill="#FFDE91" points="176.225,196.837 179.497,202.217 134.337,202.217 137.929,196.837 			"/>
			<path fill="#FFB642" d="M176.225,199.421c0,5.951-8.573,10.775-19.148,10.775c-10.576,0-19.148-4.824-19.148-10.775
				c0-5.951,8.573-10.775,19.148-10.775C167.652,188.645,176.225,193.47,176.225,199.421z"/>
			<path fill="#FFFFFF" d="M176.225,196.303c0,5.951-8.573,10.775-19.148,10.775c-10.576,0-19.148-4.824-19.148-10.775
				c0-5.951,8.573-10.775,19.148-10.775C167.652,185.528,176.225,190.352,176.225,196.303z"/>
			<path fill="#FFB642" d="M175.045,196.3c0,3.333-3.375,6.331-8.355,8.06c-2.248,0.779-4.821,1.298-7.564,1.469
				c-0.077,0.012-0.16,0.017-0.242,0.017c-0.596,0.036-1.198,0.053-1.805,0.053c-0.608,0-1.209-0.018-1.806-0.053
				c-0.083,0-0.165-0.006-0.242-0.017c-2.744-0.171-5.316-0.69-7.564-1.469c-4.986-1.729-8.361-4.726-8.361-8.06
				c0-5.198,8.231-9.593,17.972-9.593C166.819,186.707,175.045,191.102,175.045,196.3z"/>
			<g>
				<path fill="#FFDE91" d="M157.079,191.35c-7.558,0-13.936,3.469-13.936,7.576c0,2.106,1.675,4.041,4.325,5.434
					c2.248,0.779,4.82,1.298,7.564,1.469c-6.301-0.531-11.299-3.475-11.299-6.903c0-3.788,6.112-6.986,13.346-6.986
					c7.233,0,13.346,3.198,13.346,6.986c0,3.428-4.997,6.372-11.299,6.903c2.743-0.171,5.316-0.69,7.564-1.469
					c2.649-1.393,4.325-3.328,4.325-5.434C171.015,194.819,164.631,191.35,157.079,191.35z"/>
			</g>
			<path fill="#FF5978" d="M140.517,198.207c0-4.794,7.583-8.843,16.56-8.843c8.976,0,16.56,4.05,16.56,8.843
				c0,0.892-0.263,1.757-0.748,2.576c1.371-1.346,2.156-2.874,2.156-4.48c0-5.201-8.228-9.595-17.968-9.595
				c-9.74,0-17.968,4.394-17.968,9.595c0,1.605,0.786,3.134,2.156,4.48C140.78,199.964,140.517,199.099,140.517,198.207z"/>
			<path fill="#FF5978" d="M160.964,193.4l-3.003-0.761c-1.239-0.313-2.525,0.307-3.062,1.463l-2.318,5.039
				c-0.744,1.61,0.271,3.481,2.029,3.741l2.685,0.389c1.085,0.159,2.16-0.366,2.696-1.321l2.638-4.667
				C163.489,195.754,162.663,193.825,160.964,193.4z M159.483,199.943l-0.478,0.968c-0.136,0.26-0.419,0.407-0.708,0.36
				l-3.706-0.578c-0.454-0.071-0.702-0.572-0.49-0.979l0.643-1.239c0.142-0.271,0.454-0.413,0.755-0.342l3.54,0.856
				C159.46,199.087,159.678,199.559,159.483,199.943z M158.161,197.453c-1.41-0.071-2.525-0.755-2.484-1.522
				c0.036-0.767,1.21-1.34,2.62-1.268c1.41,0.07,2.519,0.749,2.483,1.522C160.746,196.952,159.571,197.518,158.161,197.453z"/>
			<path fill="#FFFFFF" d="M160.964,192.465l-3.003-0.761c-1.239-0.312-2.525,0.307-3.062,1.463l-2.318,5.039
				c-0.744,1.61,0.271,3.481,2.029,3.741l2.685,0.389c1.085,0.159,2.16-0.366,2.696-1.321l2.638-4.667
				C163.489,194.82,162.663,192.891,160.964,192.465z M159.483,199.009l-0.478,0.967c-0.136,0.26-0.419,0.407-0.708,0.36
				l-3.706-0.578c-0.454-0.071-0.702-0.572-0.49-0.98l0.643-1.239c0.142-0.271,0.454-0.413,0.755-0.342l3.54,0.855
				C159.46,198.153,159.678,198.625,159.483,199.009z M158.161,196.519c-1.41-0.071-2.525-0.755-2.484-1.523
				c0.036-0.767,1.21-1.339,2.62-1.268c1.41,0.071,2.519,0.749,2.483,1.522C160.746,196.017,159.571,196.584,158.161,196.519z"/>
			<g>
				<path fill="#6A8AFF" d="M164.089,238.804c-1.884,0.402-4.046,0.761-6.346,0.761c-2.54,0-4.913-0.438-6.928-0.888
					c-2.207-0.493-4.297,1.19-4.297,3.452c0,0.806,0.265,1.594,0.778,2.215c2.421,2.933,6.199,5.753,10.447,5.753
					c3.803,0,7.232-2.261,9.645-4.839c0.62-0.663,0.973-1.531,0.973-2.439v-0.559C168.36,240.01,166.29,238.334,164.089,238.804z"/>
				<path fill="#FF5978" d="M164.089,229.693c-1.884,0.402-4.046,0.761-6.346,0.761c-2.54,0-4.913-0.438-6.928-0.888
					c-2.207-0.493-4.297,1.19-4.297,3.452l0,0c0,0.806,0.265,1.594,0.778,2.215c2.421,2.933,9.273,14.864,10.447,14.864
					c1.051,0,7.232-11.372,9.645-13.95c0.62-0.663,0.973-1.531,0.973-2.439v-0.559C168.36,230.899,166.29,229.223,164.089,229.693z"
					/>
				<path fill="#FFFFFF" d="M164.089,256.729c-1.884,0.402-4.046,0.762-6.346,0.762c-2.54,0-4.913-0.439-6.928-0.888
					c-2.207-0.493-4.297,1.191-4.297,3.452l0,0c0,0.806,0.265,1.594,0.778,2.215c2.421,2.933,6.199,5.753,10.447,5.753
					c3.803,0,7.232-2.261,9.645-4.839c0.62-0.663,0.973-1.531,0.973-2.439v-0.559C168.36,257.936,166.29,256.26,164.089,256.729z"/>
				<path fill="#FF5978" d="M164.089,247.618c-1.884,0.402-4.046,0.761-6.346,0.761c-2.54,0-4.913-0.438-6.928-0.888
					c-2.207-0.493-4.297,1.191-4.297,3.452c0,0.806,0.265,1.594,0.778,2.215c2.421,2.934,9.796,14.864,10.447,14.864
					c0.583,0,7.232-11.372,9.645-13.95c0.62-0.663,0.973-1.531,0.973-2.439v-0.559C168.36,248.826,166.29,247.149,164.089,247.618z"
					/>
			</g>
			<path fill="#FFFFFF" d="M157.765,236.045c-1.194,0-2.163,0.968-2.163,2.163c0,1.194,0.968,2.163,2.163,2.163
				c1.195,0,2.163-0.968,2.163-2.163C159.928,237.014,158.96,236.045,157.765,236.045z"/>
			<path fill="#FFFFFF" d="M157.765,254.353c-1.194,0-2.163,0.969-2.163,2.163c0,1.194,0.968,2.163,2.163,2.163
				c1.195,0,2.163-0.968,2.163-2.163C159.928,255.322,158.96,254.353,157.765,254.353z"/>
		</g>
	</g>
	<g>
		<path fill="#FFACAC" d="M264.774,175.135l-4.63,0.773c1.355-3.75-0.576-4.259-0.576-4.259l1.929-3.243L264.774,175.135z"/>
		<path fill="#FFACAC" d="M246.416,167.651c1.581,2.052,6.185,5.148,11.405,8.199c2.373,1.388,1.077,5.663-2.059,5.156
			c-3.136-0.504-12.11-11.203-12.11-11.203C244.146,167.305,246.416,167.651,246.416,167.651z"/>
		<path fill="#FFACAC" d="M240.42,161.554c1.51,0.855,1.378-0.323,1.939-0.39c0.561-0.069,2.81,1.096,3.126,1.511
			c0.376,0.492-0.291,3.079,1.175,5.355c0.264,0.41-2.758,2.054-2.758,2.054s-3.251-2.587-3.852-3.473
			c-0.601-0.883-2.283-1.291-1.748-1.565c0.534-0.274,1.889,0.212,2.63,0.512c0.74,0.297,0.565-0.991-0.312-2.267
			c-0.879-1.273-3.911-2.668-3.494-3.235C237.397,159.689,239.217,160.872,240.42,161.554z"/>
		<path fill="#FFACAC" d="M274.567,212.339c2.575,4.232-5.488,23.292-2.963,28.943c4.103,9.181,2.699,28.941,3.038,31.26
			c0.341,2.319-3.828,4.811-4.849,0.173c-1.021-4.638-5.893-25.04-8.049-29.931c-2.157-4.888-0.284-32.098-0.284-32.098
			S270.335,205.382,274.567,212.339z"/>
		<path fill="#FFACAC" d="M270.115,213.975c1.807,6.67-2.996,9.031-4.747,15.429c-3.026,11.055-4.546,15.198-3.897,19.941
			c1.024,7.488-1.693,30.548-1.75,32.898c-0.057,2.349-5.006,4.1-5.227-0.666c-0.222-4.768-2.231-29.152-3.525-34.401
			c-1.293-5.249,4.416-36.35,4.416-36.35S266.655,201.203,270.115,213.975z"/>
		<path fill="#002E47" d="M251.708,287.845c2.815-1.701,2.483-6.719,2.483-6.719c3.634,0.141,5.894-0.557,5.894-0.557
			c0,1.528,1.162,4.145,1.372,6.442c0.187,2.051-1.514,3.267-1.514,5.058h-1.494l0.751-4.19c-2.444,0-5.558,4.24-8.602,4.203
			c-3.195-0.037-4.099-1.005-4.341-2.014C246.012,289.059,248.895,289.548,251.708,287.845z"/>
		<path fill="#002E47" d="M267.049,279.57c2.812-1.704,2.482-6.721,2.482-6.721c3.633,0.141,5.309-0.557,5.309-0.557
			c0,1.528,1.746,4.145,1.956,6.443c0.187,2.051-1.514,3.266-1.514,5.057h-1.494l0.75-4.187c-2.442,0-5.556,4.238-8.601,4.2
			c-3.195-0.037-4.098-1.005-4.341-2.014C261.352,280.786,264.235,281.271,267.049,279.57z"/>
		<path fill="#75D894" d="M269.838,196.663c0,0,0.916,3.343,3.337,7.429c2.421,4.086,4.685,10.136,3.859,14.793
			c-0.816,4.601,0.938,22.836,2.622,32.159c0,0-8.298,1.608-11.439,3.819c-10.985,7.737-22.877,0.504-22.877,0.504
			c0-19.855,8.288-45.586,9.977-56.969L269.838,196.663z"/>
		<path fill="#002E47" d="M252.83,185.746c0.714-1.831,1.339-3.001,2.117-5.927c0.779-2.924,5.37-5.438,9.909-4.679
			c4.982,0.834,5.819,7.955,5.832,12.45c0.012,4.168,0.579,10.639,2.978,17.363c-5.272,4.715-15.683,7.025-21.116,4.114
			c0.658-4.529,3.663-13.971,2.666-17.399C255.05,191.095,251.441,189.309,252.83,185.746z"/>
		<path fill="#FFACAC" d="M256.504,163.093c-0.117-0.553-0.015-1.57,0.045-2.072c0.52-4.352,6.704-0.325,8.832,3.212
			c2.128,3.537-6.616,9.81-8.411,6.715c-2.11-3.639-1.118-6.395-1.006-6.552C256.39,163.807,256.609,163.595,256.504,163.093z"/>
		<path fill="#FF5978" d="M262.171,154.207c4.732,1.133,8.389-1.501,10.892,4.021c2.064,4.551,5.257,3.212,7.128,7.59
			c1.871,4.38-2.081,5.003,1.895,8.256c3.85,3.15-0.204,8.165-1.302,10.903c-1.099,2.735-3.084,4.106-0.67,8.068
			c0,0-9.841-0.131-9.061-6.657c0.78-6.526-5.44-3.403-4.889-8.014c0.441-3.699-4.302-2.17-4.168-4.505
			c0.13-2.338-4.288-3.365-1.322-7.571c1.76-2.495-4.168-3.206-4.67-6.772C255.729,157.59,257.079,152.988,262.171,154.207z"/>
		<path fill="#FFACAC" d="M261.511,164.271c0.387,0.883,0.048,2.19-0.503,2.991c-0.554,0.798-1.04,0.526-0.952,0.114
			c0.111-0.526-0.466-1.474-0.178-2.839C259.961,164.148,261.123,163.388,261.511,164.271z"/>
		<path fill="#FFACAC" d="M255.004,185.232c0.234-5.701,2.168-7.524,3.417-7.957c3.639-1.263,5.286,3.097,4.582,7.814
			c-0.672,4.5-2.108,10.965-5.755,15.795c-1.439,1.903-4.225-3.358-3.969-4.767C253.536,194.706,254.803,190.091,255.004,185.232z"
			/>
		<path fill="#EFF6F9" d="M261.65,195.407c-2.584-0.647-6.83-1.884-8.064-4.489c0.298-1.708,0.705-3.686,0.788-5.681
			c0.234-5.701,2.798-7.528,4.047-7.961c3.639-1.263,6.487,3.244,5.783,7.961C263.773,188.118,263.087,191.858,261.65,195.407z"/>
		<path fill="#FFACAC" d="M230.449,198.576c1.532-0.215,3.921,0.185,3.369-0.394c-0.552-0.576-1.233-1.365-1.177-1.962
			c0.057-0.6,0.605,0.778,1.649,1.006c1.044,0.23,3.686,2.131,3.686,2.131s-0.004,3.019-0.491,3.017
			c-0.488-0.003-1.88,0.349-2.956,0.525c-1.077,0.177-3.252,1.793-3.572,1.383c-0.319-0.412-2.053-1.977-2.199-2.523
			c-0.146-0.546,1.602-2.479,0.23-1.417c-1.4,1.086-3.017,1.048-2.53,0.671C227.21,200.43,228.92,198.794,230.449,198.576z"/>
		<path fill="#FFACAC" d="M237.167,198.914c2.578,0.246,13.623-2.479,16.447-2.902c1.285-0.195,5.774,3.278,3.265,5.225
			c-2.511,1.949-19.987,1.206-19.987,1.206C235.404,200.379,237.167,198.914,237.167,198.914z"/>
	</g>
</g>
</svg>
