<?xml version="1.0" encoding="utf-8"?>
<!-- Generator: Adobe Illustrator 24.3.0, SVG Export Plug-In . SVG Version: 6.00 Build 0)  -->
<svg version="1.1" id="Layer_1" xmlns="http://www.w3.org/2000/svg" xmlns:xlink="http://www.w3.org/1999/xlink" x="0px" y="0px"
	 viewBox="0 0 350 350" enable-background="new 0 0 350 350" xml:space="preserve">
<g>
	<g>
		<g>
			<path fill="#FFACAC" d="M186.895,120.217c-0.538-0.05-1.626-0.058-1.785-0.777c-0.202-0.912,1.381-0.157,2.793-0.624
				c0.423-0.14,2.105-0.006,2.75,0.319c0.646,0.324,2.574,0.108,2.869,0.088c0.295-0.018,0.712,3.495,0.712,3.495
				s-2.971,0.387-3.627,0.7c-0.655,0.314-3.066,1.506-4.553,1.677c-1.696,0.194-1.872-1.431-3.384-1.593
				c-0.211-0.023-0.807-0.006-0.672-0.516c0.135-0.511,4.82-1.583,5.422-2.473C187.637,120.188,187.105,120.237,186.895,120.217z"/>
			<path fill="#5A5C71" d="M211.419,110.331c6.133-4.613,13.866-10.231,14.881-10.878c4.834-3.081,5.754-0.704,6.555,2.023
				c1.357,4.62-2.23,8.304-10.22,12.979c-7.988,4.676-10.725,4.507-12.763,3.866C207.834,117.679,205.284,114.943,211.419,110.331z"
				/>
			<path fill="#5A5C71" d="M211.419,110.331c4.207-2.294,11.249,3.072,4.895,7.313c-6.355,4.241-21.838,6.423-21.838,6.423
				c-3.461-3.159-1.077-6.282-1.077-6.282S203.156,114.837,211.419,110.331z"/>
		</g>
		<path fill="#002E47" d="M220.911,191.161c0.784-0.308,0.721-2.219,0.721-2.219l5.855-0.949c0,0-0.083,4.986-0.151,5.85
			c-0.061,0.757-0.491,2.549-2.622,2.138c-2.631-0.507-5.004-0.084-5.8,0.162c-0.798,0.246-2.454,0.459-4.387,0.086
			c-1.878-0.362-3.131-1.25-1.574-2.593C214.51,192.293,219.035,191.897,220.911,191.161z"/>
		<path fill="#00537A" d="M232.583,161.891c0.003,1.577-1.76,16.042-3.91,28.049c-0.629,3.512-8.125,0.667-8.171-0.914
			c-0.087-2.987,1.768-23.763,2.843-29.761C224.021,155.491,232.574,157.083,232.583,161.891z"/>
		<path fill="#002E47" d="M242.304,198.216c-0.037-0.319,0.137-1.018,0.137-1.018l5.105-0.989c0,0,0.439,0.828,0.572,1.888
			c0.132,1.061,0.332,3.36,0.403,4.032c0.073,0.672,0.116,2.316-1.266,3.879c-1.383,1.561-2.1,2.176-3.966,1.54
			c-1.865-0.636-1.852-3.274-1.538-4.627C242.067,201.567,242.341,198.534,242.304,198.216z"/>
		<path fill="#00537A" d="M247.855,167.322c0.28,1.546,1.093,16.113,1.093,28.347c0,3.579-7.856,2.36-8.18,0.818
			c-0.61-2.912-2.441-23.69-2.441-29.802C238.327,162.838,247.001,162.606,247.855,167.322z"/>
		<path fill="#00537A" d="M237.27,139.522c0.087,2.987-1.104,7.197-1.768,10.027c-0.664,2.83-2.319,12.591-3.19,15.388
			c-1.136,3.642-9.443,2.405-9.452-2.403c-0.003-1.577-0.421-20.872,1.729-32.878C225.218,126.143,237.223,137.94,237.27,139.522z"
			/>
		<path fill="#00537A" d="M248.948,142.73c1.056,3.978-0.461,24.71-0.825,27.639c-0.474,3.811-8.844,4.341-9.697-0.376
			c-0.28-1.545-3.417-20.465-3.417-32.699C235.009,133.715,248.544,141.207,248.948,142.73z"/>
		<path fill="#5A5C71" d="M234.186,97.641l7.247-1.907c0,0,1.377,0.181,1.736,0.554c0.618,0.64,1.039,1.519,1.305,2.236
			c0.331,0.891,0.857,1.689,1.559,2.304c0,0,4.755,3.807,5.932,5.23c4.474,5.408-1.689,33.332-1.689,45.839
			c0,0-11.218-0.216-17.297-1.855l-1.24-4.704l-1.887,3.222c-2.107-0.63-7.084-4.421-7.299-4.709
			c-0.215-0.287,2.016-41.806,6.489-45.436C230.062,97.589,234.186,97.641,234.186,97.641z"/>
		<path fill="#002E47" d="M250.916,119.738c-1.136-2.659-3.018-6.705-5.5-7.672c0.277,0.854,5.866,24.27,5.866,24.27
			S254.128,127.254,250.916,119.738z"/>
		<path fill="#002E47" d="M232.505,100.228c0.267-0.718,0.709-1.363,1.311-1.837c0.617-0.486,1.446-0.922,2.268-0.682
			c0,0-1.901,0.704-1.592,3.497c0.127,1.1-0.045,2.915,0.118,4.962c0.188,2.347-1.07,9.778-1.07,9.778l-3.211-9.149l1.556-1.538
			l-1.697-1.196L232.505,100.228z"/>
		<path fill="#FFFFFF" d="M242.748,95.742c0.864,0.676,1.559,2.209-0.545,4.863c-1.02,1.285-2.054,3.345-2.994,5
			c-0.685,1.205-4.965,7.201-5.518,8.901c0,0-0.056-1.548-0.122-4.059c-0.017-0.567-0.001-7.708,0.469-9.435
			C235.155,96.9,240.055,93.646,242.748,95.742z"/>
		<path fill="#FFACAC" d="M241.862,93.523c0,0,0.098,1.202,0.85,3.276c0.107,0.298,0.061,0.63-0.138,0.877
			c-0.783,0.97-2.919,3.337-5.113,3.337c0,0-1.601-1.257-1.601-2.742C235.86,96.786,241.862,93.523,241.862,93.523z"/>
		<path fill="#FFACAC" d="M238.253,82.234c6.932,0.189,5.013,7.868,5.013,7.868s0.514,0.229,0.238,1.217
			c-0.276,0.989-0.343,1.092-0.484,1.581c-0.141,0.491-0.489,1.399-1.186,1.257c0,0-1.047,2.666-5.574,4.209
			c-0.788,0.27-1.831-0.017-2.045-0.815c-0.216-0.798-1.729-3.115-1.783-4.906c-0.041-1.355,0.471-1.251,0.121-2.014
			C232.201,89.869,231.322,82.046,238.253,82.234z"/>
		<path fill="#002E47" d="M237.914,81.718c4.718-0.205,8.061,3.81,5.725,9.049c-0.852-1.284-1.815,0.231-1.957,0.734
			c-0.077,0.278-0.337,1.442-0.767,1.442c-0.311,0-0.408-1.129-0.408-1.129c0-3.218,0.789-3.592-0.811-4.358
			c-1.363-0.654-4.378,1.785-7.053,1.787C230.249,89.246,231.432,82.001,237.914,81.718z"/>
		<path fill="#4B6DFF" d="M234.677,102.842l1.802-0.364l1.174,1.466c0,0-0.342,0.767-1.274,1.783
			c0.238,0.439,0.403,1.469,0.247,3.354c-0.549,1.157-3.085,6.867-3.085,6.867l-0.035-7.533c0.271-1.773,0.512-2.195,1.18-3.14
			L234.677,102.842z"/>
		<path fill="#002E47" d="M242.107,100.335c2.119-2.641,0.646-4.592,0.646-4.592c0.989,0.288,1.55,1.27,1.862,2.166
			c0.304,0.873,0.336,1.817,0.141,2.72l-1.22,5.669l-1.404-0.144l0.401,1.496l-8.993,8.308c0,0,3.529-8.38,5.237-10.647
			C240.267,103.332,241.267,101.373,242.107,100.335z"/>
		<path fill="#002E47" d="M242.015,91.182c0.3-0.46,0.98-0.434,1.237,0.051l0.006,0.011c0.288,0.543,0.213,1.217-0.208,1.666
			c-1.271,1.358-2.891,1.919-3.58,2.107c-0.197,0.054-0.404-0.027-0.518-0.196c-0.145-0.219-0.086-0.519,0.137-0.659
			C240.447,93.323,241.431,92.076,242.015,91.182z"/>
		<g>
			<path fill="#4B6DFF" d="M243.409,90.149c0.363,0.361,0.485,1.059-0.002,1.642c-0.039,0.048-0.111,0.053-0.158,0.013
				c-0.047-0.04-0.054-0.11-0.014-0.157c0.403-0.48,0.31-1.047,0.016-1.339c-0.233-0.231-0.651-0.334-1.131,0.074
				c-1.164,0.991-0.803,2.576-0.798,2.591c0.015,0.06-0.023,0.121-0.083,0.135c-0.008,0.002-0.018,0.003-0.025,0.003
				c-0.051,0-0.098-0.035-0.109-0.085c-0.016-0.071-0.396-1.735,0.872-2.813C242.57,89.705,243.118,89.862,243.409,90.149z"/>
		</g>
		<path fill="#FFACAC" d="M258.501,144.887c0,0-3.485-0.602-3.551-0.315c-0.067,0.288-0.409,2.199-0.906,2.725
			c-0.495,0.525-1.105,2.099-1.09,2.544c0.044,1.486-1.132,2.789-0.199,2.855c0.734,0.053,1.053-0.988,1.254-1.49
			c0.079-0.196,0.186-0.719,0.433-0.419c0.682,0.83,0.372,5.626,0.823,5.901c0.45,0.275,0.604-0.301,0.686-0.497
			c0.587-1.402,2.193-1.107,2.492-2.788c0.263-1.474-0.192-4.125-0.306-4.842C258.024,147.845,258.501,144.887,258.501,144.887z"/>
		<path fill="#5A5C71" d="M249.402,104.152c-2.214-0.809-6.096,2.28-4.524,7.791c0.331,1.158,4.252,8.014,6.921,15.211
			c2.668,7.194,6.019,5.532,7.216,3.762c1.196-1.77,0.482-3.807-1.718-12.798C255.098,109.126,252.825,105.404,249.402,104.152z"/>
		<path fill="#5A5C71" d="M252.251,128.465c1.751,8.23,1.489,17.548,1.489,17.548s2.069,2.841,5.658,0.681
			c0,0,1.819-13.421-0.192-19.948C257.195,120.218,251.359,124.273,252.251,128.465z"/>
	</g>
	
		<radialGradient id="SVGID_1_" cx="305.5941" cy="168.2816" r="132.3495" gradientTransform="matrix(0.5734 -0.7894 0.4525 0.3009 -53.631 354.4041)" gradientUnits="userSpaceOnUse">
		<stop  offset="0" style="stop-color:#B0BED9"/>
		<stop  offset="0.206" style="stop-color:#C7D1E4"/>
		<stop  offset="0.5296" style="stop-color:#E6EAF3"/>
		<stop  offset="0.8058" style="stop-color:#F8FAFC"/>
		<stop  offset="1" style="stop-color:#FFFFFF"/>
	</radialGradient>
	<path fill="url(#SVGID_1_)" d="M101.839,212.347c-6.987,56.895,30.282,81.283,83.271,54.479
		c52.98-26.861,101.559-94.699,108.546-151.596c6.991-56.924-30.261-81.312-83.245-54.423
		C157.422,87.61,108.819,155.507,101.839,212.347z"/>
	<g>
		<path fill="#0DCA6F" d="M189.909,140.957c-4.656-0.4-13.309,8.21-18.407,6.438c-10.939-3.802-6.323,6.502-15.266,4.878
			c-6.044-1.098-1.901-12.966-12.206-13.358c-3.553-0.134-7.216,11.179-9.788,11.447c-7.958,0.831-13.403-8.509-20.479-9.255
			c-8.898-0.94,3.166,25.932-21.791,14.865c-9.868-4.376-1.598,9.096-1.331,10.586c1.35,7.556-15.628-5.153-18.298,2.396
			c-1.551,4.385,13.152,10.851,16.705,15.646c6.841,9.23-10.106,11.68,3.113,23.132c1.706,1.477,3.47,2.495,5.256,3.19
			c15.509-9.09,31.924-16.747,47.05-24.975c7.088-3.855,15.572-8.849,24.106-11.827c4.277-1.492,8.632-2.674,13.02-3.761
			C184.554,169.628,205.729,142.319,189.909,140.957z"/>
		<path fill="#75D894" d="M174.718,152.594c-2.152-5.119-8.468-11.881-14.06-12.446c-11.997-1.214-3.135,9.713-12.945,10.765
			c-6.629,0.712-8.661-8.892-19.968-5.639c-3.897,1.122-1.34,9.786-4.163,11.103c-8.733,4.076-18.298-7.549-26.061-5.975
			c-9.764,1.981,20.097,27.092-7.269,21.023c-10.821-2.4-19.302-3.901-22.103-0.65c-7.644,8.865,7.948,17.993,9.919,20.342
			c11.2,13.348-19.498,2.294-22.441,13.688c-1.71,6.616,14.413,10.117,18.303,15.421c1.271,1.733,1.78,3.449,1.837,5.157
			c20.954-16.261,46.244-27.221,68.7-39.435c7.088-3.855,15.572-8.849,24.106-11.827c4.277-1.492,8.632-2.674,13.02-3.761
			c2.96-0.732,5.95-1.358,8.9-2.134c0.626-0.165,0.907-0.221,1.016-0.227c0.237-0.105,0.591-0.255,1.147-0.482
			c2.326-0.947,4.694-1.933,7.092-2.912c-1.067-0.501-2.246-0.973-3.596-1.397C190.857,161.541,176.227,156.181,174.718,152.594z"/>
	</g>
	<g>
		<path fill="#0DCA6F" d="M224.398,240.302c-1.307-1.84-2.779-3.246-4.35-4.345c-17.222,5.156-34.983,8.704-51.629,13.112
			c-7.799,2.066-17.226,4.906-26.223,5.776c-4.51,0.436-9.02,0.552-13.54,0.568c-3.05,0.01-6.103-0.09-9.152-0.036
			c-0.647,0.011-0.935-0.001-1.041-0.021c-0.255,0.045-0.634,0.107-1.229,0.196c-0.753,0.112-1.516,0.229-2.276,0.345
			c0.447,0.425,0.908,0.854,1.412,1.293c4.102,3.573,9.924,5.184,10.561,8.396c0.908,4.584,1.554,11.599,6.088,14.529
			c9.726,6.286,7.684-4.818,15.986-1.121c5.61,2.499,5.652,10.191,15.57,13.016c3.419,0.973,2.781-6.294,5.344-5.946
			c7.929,1.079,11.005,11.442,17.701,13.845c8.423,3.022-9.155-26.038,12.468-9.372c8.55,6.591,14.918,1.71,19.732,3.285
			c13.144,4.311-3.799-11.648-3.705-13.158c0.48-7.661,13.962,8.71,18.345,2.008c2.546-3.892-10.206-13.659-12.521-19.16
			C217.482,252.925,234.526,254.562,224.398,240.302z"/>
		<path fill="#75D894" d="M245.07,232.486c-0.824-1.985-0.911-3.772-0.562-5.445c-24.21,10.832-51.378,15.484-76.089,22.028
			c-7.799,2.066-17.226,4.906-26.223,5.776c-4.51,0.436-9.02,0.552-13.54,0.568c-3.05,0.01-6.103-0.09-9.152-0.036
			c-0.647,0.011-0.935-0.001-1.041-0.021c-0.255,0.045-0.634,0.107-1.229,0.196c-2.484,0.369-5.019,0.765-7.579,1.148
			c0.918,0.74,1.951,1.478,3.161,2.21c4.751,2.875,17.693,11.55,18.309,15.392c0.879,5.483,5.411,13.549,10.71,15.424
			c11.367,4.022,5.348-8.693,15.128-7.391c6.608,0.88,6.306,10.692,18.061,10.211c4.053-0.166,3.622-9.19,6.677-9.8
			c9.451-1.891,15.987,11.672,23.901,11.981c9.955,0.39-13.103-31.083,12.045-18.701c9.943,4.897,17.826,8.365,21.318,5.87
			c9.527-6.801-3.457-19.364-4.814-22.112c-7.718-15.624,19.485,2.392,25.046-7.979C262.426,245.784,247.593,238.561,245.07,232.486
			z"/>
	</g>
	<g>
		<path fill="#5A5C71" d="M72.454,222.829v26.823c0.375,16.331,8.831,22.731,14.768,27.946
			c46.313,40.686,173.772-3.786,173.772-63.201v-31.77c0,0-33.104,21.806-36.039,23.766
			C224.765,206.521,72.454,222.829,72.454,222.829z"/>
		<path fill="#862942" d="M173.784,171.504c-13.591,6.613-18.339,27.546-18.339,27.546s11.901,21.386,15.113,12.262
			c3.213-9.124,15.493-15.815,30.423-19.025c14.93-3.212,38.254,0.177,38.254,0.177l1.794-31.54l-25.694,0.945
			C215.335,161.868,187.374,164.891,173.784,171.504z"/>
		<path fill="#FFDE91" d="M242.701,162.134c5.399,4.784,6.751,12.666,8.822,19.921c5.324,18.651-8.33,38.407-26.395,42.927
			c-13.23,3.311-27.049,4.764-40.663,5.019c-19.955,0.373-34.177-18.383-34.359-36.846c-0.196-19.971,18.245-34.011,36.846-34.359
			c2.326-0.043,4.644-0.154,6.96-0.296c4.939-0.689,9.828-1.625,14.686-2.84c6.379-1.596,26.214,3.188,31.935,4.997
			c-11.326-12.99-37.586-15.144-44.955-15.144c-42.205,0-87.928,20.974-106.086,40.408c-26.109,27.939-16.792,49.388-7.512,63.087
			c9.034,13.342,27.977,20.689,53.339,20.689h0.006c52.476-0.002,125.671-32.783,125.671-86.166
			C260.994,179.048,257.949,166.798,242.701,162.134z"/>
		<g>
			<path fill="#FF2657" d="M242.232,161.816c-0.687,0.272-4.757,2.026-6.866,5.638c-2.11,3.612-1.281,5.467-0.543,8.391
				c0.737,2.923-0.442,6.665-0.442,6.665c-3.911,10.44-18.501,16.524-18.501,16.524c-24.679,9.865-49.252,7.255-50.754,6.88
				c-1.501-0.375-6.279-5.695-1.734-15.655c4.546-9.961,20.677-19.229,26.301-21.416c5.624-2.188,11.853-2.866,18.604-2.573
				c6.753,0.293,13.073-0.038,13.073-0.038c11.701-0.074,19.66-5.31,19.66-5.31c-49.049-26.639-124.112,2.843-147.948,28.352
				c-21.994,23.537-17.439,41.617-7.035,56.98c28.779,42.495,170.035,7.838,170.035-62.723
				C256.081,170.687,242.232,161.816,242.232,161.816z"/>
			<path fill="#FFFFFF" d="M135.336,265.784c-3.808,0-7.511-0.173-11.08-0.522c-18.601-1.822-32.1-8.201-39.038-18.446
				C75.97,233.16,68.422,214.2,92.35,188.593c12.856-13.759,38.37-27.111,65-34.017c32.334-8.385,62.224-6.443,84.157,5.468
				c0.296,0.161,0.49,0.46,0.519,0.793c0.254-0.054,0.521-0.007,0.745,0.136c0.585,0.374,14.311,9.319,14.311,22.559
				c0,16.749-8.012,32.855-23.17,46.577c-13.212,11.96-31.917,22.052-52.669,28.418
				C165.708,263.292,149.788,265.784,135.336,265.784z M195.416,151.443c-11.856,0-24.502,1.682-37.564,5.069
				c-26.288,6.817-51.425,19.946-64.041,33.447c-22.962,24.574-15.769,42.695-6.937,55.737
				c14.611,21.573,58.237,21.823,93.781,10.92c20.479-6.282,38.915-16.222,51.914-27.989c14.728-13.331,22.512-28.925,22.512-45.094
				c0-10.886-10.663-18.968-12.959-20.581c-1.208,0.555-4.233,2.165-5.894,5.007c-1.691,2.895-1.303,4.361-0.659,6.79
				c0.073,0.275,0.148,0.558,0.223,0.852c0.798,3.162-0.406,7.047-0.458,7.211c-4.034,10.772-18.458,16.891-19.07,17.146
				c-26.245,10.492-51.173,6.979-51.381,6.927c-0.915-0.229-2.278-1.372-3.26-3.409c-1.028-2.135-2.285-6.744,0.857-13.631
				c4.807-10.532,21.602-19.893,26.849-21.933c5.391-2.097,11.61-2.964,19.01-2.64c6.626,0.288,12.915-0.035,12.978-0.038
				c8.367-0.054,14.816-2.827,17.626-4.28C226.583,154.633,211.749,151.443,195.416,151.443z M205.406,167.206
				c-5.88,0-10.924,0.846-15.353,2.569c-5.802,2.256-21.452,11.474-25.753,20.899c-2.761,6.05-1.772,9.993-0.937,11.805
				c0.757,1.643,1.748,2.392,2.005,2.465c2.411,0.602,26.615,2.563,50.139-6.839c0.128-0.053,14.225-6.041,17.936-15.946l0,0
				c-0.002,0,1.065-3.47,0.409-6.07c-0.072-0.286-0.145-0.561-0.216-0.829c-0.669-2.521-1.246-4.699,0.865-8.312
				c0.625-1.071,1.4-1.987,2.213-2.758c-3.557,1.443-8.876,3-15.34,3.041c-0.017,0.002-6.398,0.33-13.122,0.037
				C207.283,167.227,206.334,167.206,205.406,167.206z"/>
		</g>
		<path fill="#F5B4C8" d="M241.878,170.943c2.795,2.832,5.302,6.182,6.175,10.032c0.48,1.897,0.143,3.889,0.044,5.876
			c-0.022,0.994-0.267,1.967-0.399,2.949c-0.162,0.979-0.283,1.963-0.567,2.917c-1.778,7.749-5.709,14.822-10.67,20.944
			c-5.023,6.102-10.968,11.431-17.498,15.921c-6.502,4.533-13.486,8.372-20.74,11.591c-14.514,6.407-29.916,10.907-45.625,12.999
			c-7.854,0.998-15.775,1.457-23.627,0.936c-7.817-0.526-15.66-1.851-22.695-4.898c-3.504-1.505-6.789-3.456-9.479-5.968
			c-1.339-1.308-2.441-2.6-3.494-4.267c-1.08-1.625-2.093-3.276-2.953-4.98c-1.761-3.39-3.02-6.975-3.399-10.659
			c-0.396-3.681,0.13-7.429,1.394-10.983c2.548-7.122,7.407-13.527,12.876-19.069c5.524-5.456,12.062-10.024,18.869-14.055
			c6.841-4.008,14.046-7.432,21.441-10.375c7.396-2.949,15.007-5.393,22.766-7.234c15.458-3.833,31.607-5.569,47.576-3.614
			c-15.85-2.955-32.261-1.665-48.056,1.5c-7.917,1.635-15.69,3.94-23.282,6.739c-7.592,2.8-15.016,6.099-22.132,10.03
			c-14.14,7.721-27.62,18.824-33.857,34.751c-1.459,3.989-2.132,8.389-1.701,12.707c0.405,4.323,1.84,8.451,3.741,12.186
			c0.936,1.885,2.012,3.672,3.139,5.398c1.07,1.744,2.545,3.559,4.08,5.05c3.162,3.001,6.871,5.229,10.726,6.901
			c7.772,3.278,16.029,4.561,24.19,5.051c8.183,0.475,16.361-0.073,24.417-1.165c16.086-2.344,31.865-6.859,46.509-13.907
			c7.334-3.479,14.384-7.586,20.938-12.403c6.571-4.779,12.585-10.394,17.574-16.853c4.865-6.53,8.618-14.011,10.113-22.033
			c0.25-0.986,0.334-2.003,0.459-3.01c0.096-1.011,0.302-2.01,0.283-3.028c0.016-2.004,0.291-4.081-0.314-6.104
			C247.547,176.822,244.821,173.624,241.878,170.943z"/>
		<g>
			<linearGradient id="SVGID_2_" gradientUnits="userSpaceOnUse" x1="201.2019" y1="167.2764" x2="233.3051" y2="234.7226">
				<stop  offset="0" style="stop-color:#F6CDBD"/>
				<stop  offset="1" style="stop-color:#E091D1"/>
			</linearGradient>
			<path fill="url(#SVGID_2_)" d="M216.433,198.786c-0.166,0.083-0.292,0.141-0.383,0.174
				C216.184,198.903,216.309,198.844,216.433,198.786z"/>
			<linearGradient id="SVGID_3_" gradientUnits="userSpaceOnUse" x1="168.9852" y1="185.4983" x2="214.2938" y2="280.688">
				<stop  offset="0" style="stop-color:#F6CDBD"/>
				<stop  offset="1" style="stop-color:#E091D1"/>
			</linearGradient>
			<path fill="url(#SVGID_3_)" d="M179.299,206.427c-2.236,0.083-4.265,0.091-6.052,0.058c-0.025,0.033-0.051,0.066-0.075,0.108
				c1.811,0.008,3.883-0.024,6.137-0.124c0.813-0.042,1.645-0.083,2.502-0.134c0.923-0.057,1.879-0.124,2.844-0.216
				c-0.973,0.074-1.93,0.142-2.844,0.2L179.299,206.427z"/>
			<linearGradient id="SVGID_4_" gradientUnits="userSpaceOnUse" x1="190.0888" y1="175.4453" x2="235.4101" y2="270.6617">
				<stop  offset="0" style="stop-color:#F6CDBD"/>
				<stop  offset="1" style="stop-color:#E091D1"/>
			</linearGradient>
			<path fill="url(#SVGID_4_)" d="M200.102,203.833c-0.132,0.034-0.265,0.058-0.39,0.083h-0.009
				c-3.392,0.732-6.685,1.272-9.794,1.671c3.168-0.373,6.469-0.898,9.786-1.579c0.84-0.167,1.68-0.358,2.52-0.549
				c4.689-1.089,9.346-2.527,13.637-4.406c-4.782,1.904-9.555,3.342-14.152,4.414L200.102,203.833z"/>
			<linearGradient id="SVGID_5_" gradientUnits="userSpaceOnUse" x1="217.5235" y1="193.8989" x2="223.0208" y2="205.4484">
				<stop  offset="0" style="stop-color:#F6CDBD"/>
				<stop  offset="1" style="stop-color:#E091D1"/>
			</linearGradient>
			<path fill="url(#SVGID_5_)" d="M220.011,196.954c-0.548,0.296-1.076,0.615-1.642,0.892
				C218.861,197.591,219.421,197.286,220.011,196.954z"/>
			<linearGradient id="SVGID_6_" gradientUnits="userSpaceOnUse" x1="210.3957" y1="170.0223" x2="250.2139" y2="253.6772">
				<stop  offset="0" style="stop-color:#F6CDBD"/>
				<stop  offset="1" style="stop-color:#E091D1"/>
			</linearGradient>
			<path fill="url(#SVGID_6_)" d="M224.831,193.855c-1.715,1.261-3.385,2.29-4.82,3.099c1.734-0.939,3.409-1.943,4.944-3.074
				C224.914,193.872,224.872,193.863,224.831,193.855z"/>
			<linearGradient id="SVGID_7_" gradientUnits="userSpaceOnUse" x1="187.9868" y1="176.4254" x2="233.335" y2="271.6983">
				<stop  offset="0" style="stop-color:#F6CDBD"/>
				<stop  offset="1" style="stop-color:#E091D1"/>
			</linearGradient>
			<path fill="url(#SVGID_7_)" d="M200.102,203.833l-0.39,0.091c0,0,0,0,0-0.009c0-0.017,0-0.066-0.009,0
				c0,0.026,0,0.051-0.008,0.092c0.84-0.167,1.68-0.358,2.52-0.549c0.008-0.066,0.008-0.108,0.008-0.108l-0.523,0.116
				L200.102,203.833z"/>
			<linearGradient id="SVGID_8_" gradientUnits="userSpaceOnUse" x1="170.3145" y1="184.87" x2="215.6152" y2="280.043">
				<stop  offset="0" style="stop-color:#F6CDBD"/>
				<stop  offset="1" style="stop-color:#E091D1"/>
			</linearGradient>
			<path fill="url(#SVGID_8_)" d="M179.309,206.469c0.813-0.042,1.645-0.083,2.502-0.134c0-0.008,0-0.016,0-0.016l-2.512,0.108
				C179.299,206.427,179.299,206.444,179.309,206.469z"/>
		</g>
		<path fill="#F5B4C8" d="M150.736,209.291c-5.13,0-9.287,2.34-9.287,5.227s4.157,5.226,9.287,5.226c5.129,0,9.287-2.34,9.287-5.226
			S155.865,209.291,150.736,209.291z"/>
		<path fill="#F5B4C8" d="M181.928,166.322c-12.231,1.689-24.148,5.105-35.515,9.718c-11.366,4.633-22.282,10.444-32.078,17.866
			c-4.83,3.749-9.424,7.911-13.193,12.761c-1.865,2.434-3.514,5.045-4.712,7.872c-1.236,2.808-1.845,5.89-1.688,8.933
			c-0.196-6.204,3.023-11.858,6.793-16.51c3.848-4.712,8.501-8.697,13.39-12.27c9.875-7.088,20.849-12.564,32.196-16.845
			c11.348-4.26,23.166-7.303,35.181-8.618c2.631-0.295,5.281-0.511,7.932-0.609c0.02,0,0.02,0,0.039,0
			c5.478-2.003,11.505-2.631,18.023-2.356c0.844,0.039,1.708,0.058,2.532,0.078c-3.436-0.589-6.891-0.903-10.346-1.021
			C194.257,165.086,188.054,165.479,181.928,166.322z"/>
		<path fill="#F5B4C8" d="M234.385,182.519c-0.294,0.786-0.648,1.532-1.04,2.258v0.02c0.511,1.453,0.805,3.004,0.883,4.575
			c0.236,6.321-2.983,12.545-7.047,17.748c-4.123,5.261-9.247,9.777-14.725,13.761c-5.478,4.005-11.387,7.441-17.512,10.425
			c-6.125,2.965-12.486,5.556-18.984,7.578c-6.558,1.865-13.311,3.062-20.084,4.005c-6.793,0.923-13.625,1.551-20.457,1.748
			c-6.852,0.138-13.723-0.118-20.456-1.433c6.714,1.433,13.604,1.806,20.456,1.747c6.872-0.079,13.724-0.569,20.536-1.395
			c6.811-0.844,13.604-1.943,20.279-3.71c6.636-1.904,13.095-4.28,19.377-7.127c6.282-2.846,12.368-6.145,18.102-10.071
			c5.693-3.927,11.092-8.403,15.607-13.821c2.238-2.71,4.24-5.654,5.772-8.913c1.512-3.259,2.513-6.871,2.474-10.621
			c-0.039-3.259-0.942-6.537-2.611-9.364C234.738,181.42,234.385,182.519,234.385,182.519z"/>
		<path fill="#F5B4C8" d="M124.17,197.538c-3.671,2.807-7.126,5.988-9.895,9.738c-2.709,3.671-4.771,8.069-4.771,12.663
			c0.177-4.594,2.355-8.854,5.163-12.368c2.847-3.593,6.361-6.597,10.091-9.247c7.5-5.281,15.922-9.109,24.619-11.917
			c6.636-2.16,13.507-3.691,20.417-4.536c1.179-1.139,2.454-2.238,3.75-3.259c-8.48,1.001-16.824,3.023-24.814,5.929
			C139.994,187.702,131.591,191.904,124.17,197.538z"/>
		<path fill="#F5B4C8" d="M213.948,199.757c-0.314,2.67-1.434,5.379-2.984,7.774c-2.277,3.494-5.359,6.537-8.678,9.266
			c-3.317,2.748-7.028,5.046-10.816,7.146c-7.657,4.123-15.902,7.244-24.384,9.365c-8.501,2.12-17.257,3.317-26.052,3.22
			c8.795,0.432,17.63-0.452,26.268-2.258c8.639-1.826,17.1-4.672,25.07-8.579c3.966-2.022,7.854-4.221,11.426-6.97
			c3.554-2.709,6.95-5.772,9.601-9.561c2.159-3.062,3.848-6.832,3.985-10.836c-0.942,0.471-1.512,0.706-1.512,0.706
			C215.224,199.285,214.596,199.54,213.948,199.757z"/>
		<path fill="#F5B4C8" d="M133.652,206.883c-1.963,1.688-3.789,3.553-5.202,5.732c-1.414,2.14-2.415,4.672-2.258,7.244
			c0-2.591,1.158-4.967,2.65-6.969c1.531-2.022,3.416-3.73,5.418-5.242c4.045-3.004,8.619-5.242,13.351-6.91
			c4.515-1.61,9.188-2.67,13.88-3.142c0.02-0.923,0.157-1.924,0.393-3.004c-5.203,0.805-10.209,2.258-14.98,4.319
			C142.134,200.934,137.599,203.526,133.652,206.883z"/>
		<path fill="#F5B4C8" d="M181.811,210.103c-2.141,3.906-5.831,7.146-9.777,9.757c-3.985,2.631-8.363,4.731-12.918,6.302
			c-4.574,1.55-9.345,2.63-14.193,2.983c4.868-0.019,9.737-0.785,14.469-2.061c4.751-1.276,9.345-3.102,13.684-5.536
			c4.279-2.474,8.402-5.517,11.308-9.993c0.981-1.589,1.768-3.494,1.904-5.575l-3.278,0.255
			C182.93,207.492,182.478,208.846,181.811,210.103z"/>
		<polygon fill="#F5B4C8" points="99.744,250.736 149.437,215.643 94.742,242.277 		"/>
	</g>
	<g>
		<path fill="#FFA044" d="M172.637,220.663c-13.807,0-25.061-6.588-25.582-14.837l-0.02,2.123
			c0.554,8.229,11.328,14.796,25.602,14.796c14.276,0,25.047-6.567,25.601-14.796v-2.72
			C198.237,213.754,186.775,220.663,172.637,220.663z"/>
		<g>
			<g>
				<path fill="#FFB642" d="M190.738,193.99c-9.998-6.202-26.208-6.202-36.206,0c-9.997,6.202-9.997,16.258,0,22.46
					c9.998,6.202,26.208,6.202,36.206,0C200.736,210.248,200.736,200.193,190.738,193.99z"/>
				<path fill="#FFFFFF" d="M189.955,194.477c-9.565-5.934-25.073-5.934-34.639,0c-9.564,5.934-9.564,15.554,0,21.487
					c9.565,5.933,25.073,5.933,34.639,0C199.52,210.031,199.52,200.41,189.955,194.477z"/>
				<path fill="#FFB642" d="M158.067,194.979l12.8,7.745c0.375,0.227,0.839-0.065,0.839-0.527v-10.918
					C163.142,190.778,158.067,194.979,158.067,194.979z"/>
				<path fill="#FFB642" d="M156.531,195.729c0,0-5.169,2.487-6.004,8.652l17.093-0.224c0.568-0.008,0.77-0.811,0.282-1.124
					L156.531,195.729z"/>
				<path fill="#FFB642" d="M167.584,205.632h-17.057c0,0-0.932,4.251,5.771,8.603l11.574-7.48
					C168.362,206.439,168.154,205.632,167.584,205.632z"/>
				<path fill="#FFB642" d="M170.866,206.992l-13.172,7.993c5.35,4.204,14.012,3.351,14.012,3.351v-10.817
					C171.706,207.054,171.241,206.763,170.866,206.992z"/>
				<path fill="#FFB642" d="M173.335,207.52v10.665c0,0,7.029,0.75,13.778-3.301l-12.937-7.89
					C173.801,206.765,173.335,207.057,173.335,207.52z"/>
				<path fill="#FFB642" d="M177.213,206.752l11.296,7.482c5.849-2.697,6.424-8.603,6.424-8.603h-17.424
					C176.941,205.632,176.73,206.431,177.213,206.752z"/>
				<path fill="#FFB642" d="M188.742,195.729l-11.48,7.166c-0.492,0.307-0.298,1.115,0.271,1.128l17.166,0.357
					C193.583,198.029,188.742,195.729,188.742,195.729z"/>
				<path fill="#FFB642" d="M173.335,202.216c0,0.458,0.455,0.75,0.831,0.532l12.947-7.52c-5.532-4.07-13.778-3.992-13.778-3.992
					V202.216z"/>
			</g>
		</g>
		<g>
			<linearGradient id="SVGID_9_" gradientUnits="userSpaceOnUse" x1="147.1662" y1="198.5939" x2="146.1866" y2="249.7309">
				<stop  offset="0" style="stop-color:#F6CDBD"/>
				<stop  offset="1" style="stop-color:#E091D1"/>
			</linearGradient>
			<path fill="url(#SVGID_9_)" d="M147.039,205.538c-0.003-0.103-0.006-0.206-0.006-0.309
				C147.033,205.259,147.033,205.365,147.039,205.538z"/>
			<linearGradient id="SVGID_10_" gradientUnits="userSpaceOnUse" x1="198.3328" y1="199.6543" x2="197.3545" y2="250.7227">
				<stop  offset="0" style="stop-color:#F6CDBD"/>
				<stop  offset="1" style="stop-color:#E091D1"/>
			</linearGradient>
			<path fill="url(#SVGID_10_)" d="M198.234,205.059c0.003-0.146,0.003-0.226,0.003-0.226h-0.009
				C198.232,204.909,198.234,204.986,198.234,205.059z"/>
			<linearGradient id="SVGID_11_" gradientUnits="userSpaceOnUse" x1="198.3328" y1="199.6543" x2="197.3545" y2="250.7227">
				<stop  offset="0" style="stop-color:#F6CDBD"/>
				<stop  offset="1" style="stop-color:#E091D1"/>
			</linearGradient>
			<path fill="url(#SVGID_11_)" d="M198.234,205.059c0.003-0.146,0.003-0.226,0.003-0.226h-0.009
				C198.232,204.909,198.234,204.986,198.234,205.059z"/>
			<linearGradient id="SVGID_12_" gradientUnits="userSpaceOnUse" x1="198.3203" y1="199.6483" x2="197.341" y2="250.7708">
				<stop  offset="0" style="stop-color:#F6CDBD"/>
				<stop  offset="1" style="stop-color:#E091D1"/>
			</linearGradient>
			<path fill="url(#SVGID_12_)" d="M198.234,205.059c0.009,0.447-0.014,0.896-0.068,1.343
				C198.213,205.776,198.229,205.315,198.234,205.059z"/>
		</g>
		<g>
			<path fill="#FFB642" d="M172.552,203.634c-1.243,0-2.251,0.517-2.251,1.154c0,0.638,1.008,1.154,2.251,1.154
				c1.242,0,2.25-0.516,2.25-1.154C174.802,204.151,173.794,203.634,172.552,203.634z"/>
		</g>
	</g>
</g>
</svg>
