<?xml version="1.0" encoding="utf-8"?>
<!-- Generator: Adobe Illustrator 24.3.0, SVG Export Plug-In . SVG Version: 6.00 Build 0)  -->
<svg version="1.1" id="Layer_1" xmlns="http://www.w3.org/2000/svg" xmlns:xlink="http://www.w3.org/1999/xlink" x="0px" y="0px"
	 viewBox="0 0 350 350" enable-background="new 0 0 350 350" xml:space="preserve">
<g>
	
		<radialGradient id="SVGID_1_" cx="272.7114" cy="181.1103" r="132.3495" gradientTransform="matrix(0.5734 -0.7894 0.4525 0.3009 -72.8742 335.5536)" gradientUnits="userSpaceOnUse">
		<stop  offset="0" style="stop-color:#B0BED9"/>
		<stop  offset="0.206" style="stop-color:#C7D1E4"/>
		<stop  offset="0.5296" style="stop-color:#E6EAF3"/>
		<stop  offset="0.8058" style="stop-color:#F8FAFC"/>
		<stop  offset="1" style="stop-color:#FFFFFF"/>
	</radialGradient>
	<path fill="url(#SVGID_1_)" d="M69.544,223.315c-6.987,56.895,30.281,81.283,83.27,54.48
		c52.981-26.861,101.559-94.699,108.547-151.597c6.991-56.924-30.261-81.312-83.246-54.423
		C125.127,98.578,76.525,166.475,69.544,223.315z"/>
	<g>
		<g>
			<ellipse fill="#FF5978" cx="123.814" cy="176.013" rx="21.274" ry="11.972"/>
			<path fill="#00537A" d="M150.912,170.303c0,8.253-12.132,14.943-27.098,14.943s-27.098-6.69-27.098-14.943
				c0-8.254,12.132-14.944,27.098-14.944S150.912,162.049,150.912,170.303z"/>
			<rect x="96.716" y="108.645" fill="#00537A" width="54.196" height="61.657"/>
			<path fill="#002E47" d="M150.912,108.645c0,8.253-12.132,14.944-27.098,14.944s-27.098-6.691-27.098-14.944
				c0-8.253,12.132-14.943,27.098-14.943S150.912,100.392,150.912,108.645z"/>
			<polygon fill="#002E47" points="145.087,96.775 148.722,102.753 98.549,102.753 102.54,96.775 			"/>
			<ellipse fill="#00537A" cx="123.814" cy="99.646" rx="21.274" ry="11.972"/>
			<ellipse fill="#FFFFFF" cx="123.814" cy="96.182" rx="21.274" ry="11.972"/>
			<path fill="#00537A" d="M143.776,96.179c0,3.704-3.75,7.034-9.282,8.955c-2.498,0.865-5.355,1.441-8.404,1.632
				c-0.085,0.013-0.177,0.02-0.269,0.02c-0.662,0.04-1.331,0.06-2.006,0.06c-0.675,0-1.344-0.02-2.006-0.06
				c-0.092,0-0.184-0.007-0.269-0.02c-3.048-0.191-5.906-0.767-8.403-1.632c-5.54-1.921-9.289-5.251-9.289-8.955
				c0-5.775,9.145-10.658,19.967-10.658C134.638,85.52,143.776,90.404,143.776,96.179z"/>
			<g>
				<path fill="#002E47" d="M123.815,90.68c-8.397,0-15.483,3.855-15.483,8.417c0,2.34,1.862,4.49,4.805,6.037
					c2.497,0.865,5.355,1.441,8.403,1.632c-7-0.59-12.553-3.86-12.553-7.669c0-4.209,6.791-7.762,14.828-7.762
					s14.828,3.553,14.828,7.762c0,3.809-5.552,7.079-12.553,7.669c3.048-0.191,5.906-0.767,8.404-1.632
					c2.943-1.547,4.805-3.697,4.805-6.037C139.299,94.534,132.206,90.68,123.815,90.68z"/>
			</g>
			<path fill="#FF5978" d="M105.415,98.297c0-5.325,8.426-9.824,18.398-9.824c9.973,0,18.398,4.499,18.398,9.824
				c0,0.991-0.293,1.953-0.831,2.862c1.523-1.495,2.396-3.193,2.396-4.977c0-5.779-9.142-10.661-19.963-10.661
				s-19.963,4.882-19.963,10.661c0,1.783,0.873,3.481,2.396,4.977C105.708,100.25,105.415,99.288,105.415,98.297z"/>
			<path fill="#FF5978" d="M128.132,92.956l-3.336-0.846c-1.376-0.347-2.806,0.341-3.402,1.626l-2.576,5.599
				c-0.826,1.789,0.301,3.867,2.255,4.155l2.982,0.433c1.206,0.177,2.399-0.406,2.996-1.468l2.93-5.186
				C130.938,95.572,130.02,93.429,128.132,92.956z M126.487,100.225l-0.531,1.075c-0.151,0.289-0.465,0.452-0.787,0.4l-4.116-0.643
				c-0.505-0.078-0.78-0.636-0.544-1.088l0.714-1.377c0.158-0.302,0.505-0.459,0.839-0.38l3.933,0.95
				C126.46,99.275,126.703,99.8,126.487,100.225z M125.019,97.46c-1.567-0.079-2.806-0.839-2.76-1.691
				c0.039-0.852,1.344-1.488,2.91-1.409c1.567,0.078,2.799,0.832,2.76,1.691C127.89,96.902,126.585,97.531,125.019,97.46z"/>
			<path fill="#FFFFFF" d="M128.132,91.919l-3.336-0.846c-1.376-0.348-2.806,0.341-3.402,1.625l-2.576,5.599
				c-0.826,1.789,0.301,3.867,2.255,4.156l2.982,0.433c1.206,0.177,2.399-0.407,2.996-1.469l2.93-5.186
				C130.938,94.534,130.02,92.391,128.132,91.919z M126.487,99.188l-0.531,1.074c-0.151,0.289-0.465,0.453-0.787,0.4l-4.116-0.643
				c-0.505-0.078-0.78-0.636-0.544-1.088l0.714-1.377c0.158-0.301,0.505-0.458,0.839-0.38l3.933,0.95
				C126.46,98.238,126.703,98.762,126.487,99.188z M125.019,96.422c-1.567-0.078-2.806-0.839-2.76-1.691
				c0.039-0.852,1.344-1.487,2.91-1.409c1.567,0.079,2.799,0.833,2.76,1.691C127.89,95.864,126.585,96.494,125.019,96.422z"/>
			<g>
				<path fill="#6A8AFF" d="M131.604,143.401c-2.093,0.446-4.496,0.846-7.051,0.846c-2.823,0-5.459-0.487-7.697-0.986
					c-2.452-0.548-4.775,1.322-4.775,3.834c0,0.895,0.295,1.771,0.865,2.462c2.689,3.259,6.887,6.393,11.607,6.393
					c4.226,0,8.034-2.513,10.715-5.377c0.689-0.736,1.081-1.701,1.081-2.709v-0.621C136.35,144.742,134.049,142.879,131.604,143.401
					z"/>
				<path fill="#FF5978" d="M131.604,133.278c-2.093,0.447-4.496,0.847-7.051,0.847c-2.823,0-5.459-0.487-7.697-0.987
					c-2.452-0.547-4.775,1.323-4.775,3.835l0,0c0,0.895,0.295,1.771,0.865,2.462c2.689,3.259,10.303,16.515,11.607,16.515
					c1.167,0,8.034-12.635,10.715-15.499c0.689-0.736,1.081-1.701,1.081-2.71v-0.621
					C136.35,134.619,134.049,132.757,131.604,133.278z"/>
				<path fill="#FFFFFF" d="M131.604,163.316c-2.093,0.447-4.496,0.847-7.051,0.847c-2.823,0-5.459-0.487-7.697-0.987
					c-2.452-0.547-4.775,1.323-4.775,3.835l0,0c0,0.895,0.295,1.771,0.865,2.462c2.689,3.259,6.887,6.392,11.607,6.392
					c4.226,0,8.034-2.512,10.715-5.376c0.689-0.736,1.081-1.701,1.081-2.71v-0.621C136.35,164.657,134.049,162.795,131.604,163.316z
					"/>
				<path fill="#FF5978" d="M131.604,153.194c-2.093,0.447-4.496,0.846-7.051,0.846c-2.823,0-5.459-0.486-7.697-0.986
					c-2.452-0.547-4.775,1.323-4.775,3.835c0,0.895,0.295,1.771,0.865,2.462c2.689,3.258,10.883,16.514,11.607,16.514
					c0.648,0,8.034-12.634,10.715-15.498c0.689-0.736,1.081-1.701,1.081-2.71v-0.621
					C136.35,154.535,134.049,152.673,131.604,153.194z"/>
			</g>
			<path fill="#FFFFFF" d="M124.578,140.337c-1.327,0-2.403,1.075-2.403,2.402c0,1.327,1.076,2.403,2.403,2.403
				c1.327,0,2.403-1.076,2.403-2.403C126.981,141.412,125.905,140.337,124.578,140.337z"/>
			<path fill="#FFFFFF" d="M124.578,160.678c-1.327,0-2.403,1.075-2.403,2.402c0,1.327,1.076,2.403,2.403,2.403
				c1.327,0,2.403-1.076,2.403-2.403C126.981,161.753,125.905,160.678,124.578,160.678z"/>
		</g>
	</g>
	<g>
		<g>
			<path fill="#FFACAC" d="M190.575,115.108c-0.537-0.051-1.626-0.058-1.785-0.777c-0.202-0.912,1.381-0.156,2.793-0.624
				c0.423-0.141,2.106-0.007,2.75,0.319c0.646,0.324,2.574,0.107,2.869,0.088c0.295-0.018,0.712,3.495,0.712,3.495
				s-2.971,0.387-3.626,0.699c-0.656,0.314-3.066,1.507-4.553,1.677c-1.697,0.193-1.873-1.432-3.384-1.593
				c-0.211-0.023-0.807-0.006-0.672-0.516c0.135-0.511,4.82-1.583,5.421-2.474C191.318,115.08,190.786,115.128,190.575,115.108z"/>
			<path fill="#5A5C71" d="M215.099,105.223c6.133-4.613,13.867-10.231,14.882-10.878c4.833-3.081,5.754-0.704,6.555,2.022
				c1.357,4.62-2.229,8.304-10.22,12.979c-7.989,4.677-10.725,4.508-12.763,3.866C211.515,112.571,208.965,109.834,215.099,105.223z
				"/>
			<path fill="#5A5C71" d="M215.099,105.223c4.208-2.294,11.25,3.072,4.896,7.312c-6.355,4.241-21.838,6.424-21.838,6.424
				c-3.461-3.159-1.077-6.282-1.077-6.282S206.837,109.727,215.099,105.223z"/>
		</g>
		<path fill="#002E47" d="M224.592,186.052c0.784-0.308,0.721-2.219,0.721-2.219l5.855-0.948c0,0-0.083,4.986-0.151,5.85
			c-0.061,0.757-0.492,2.549-2.623,2.138c-2.631-0.507-5.003-0.084-5.8,0.162c-0.797,0.246-2.454,0.459-4.387,0.085
			c-1.877-0.362-3.131-1.25-1.574-2.592C218.19,187.184,222.716,186.789,224.592,186.052z"/>
		<path fill="#00537A" d="M236.264,156.783c0.003,1.576-1.759,16.042-3.91,28.048c-0.629,3.512-8.124,0.668-8.17-0.913
			c-0.087-2.987,1.768-23.763,2.842-29.761C227.702,150.382,236.255,151.975,236.264,156.783z"/>
		<path fill="#002E47" d="M245.985,193.107c-0.037-0.318,0.136-1.019,0.136-1.019l5.106-0.988c0,0,0.438,0.828,0.572,1.889
			c0.132,1.061,0.332,3.359,0.404,4.031c0.073,0.673,0.116,2.316-1.266,3.879c-1.382,1.561-2.1,2.176-3.965,1.54
			c-1.866-0.636-1.852-3.274-1.538-4.627C245.748,196.458,246.021,193.426,245.985,193.107z"/>
		<path fill="#00537A" d="M251.536,162.214c0.28,1.546,1.093,16.113,1.093,28.347c0,3.579-7.856,2.36-8.18,0.817
			c-0.61-2.912-2.441-23.69-2.441-29.802C242.008,157.729,250.682,157.497,251.536,162.214z"/>
		<path fill="#00537A" d="M240.95,134.413c0.087,2.987-1.104,7.197-1.768,10.027c-0.664,2.83-2.319,12.591-3.19,15.388
			c-1.135,3.642-9.443,2.405-9.452-2.403c-0.002-1.576-0.42-20.872,1.73-32.878C228.899,121.035,240.903,132.832,240.95,134.413z"/>
		<path fill="#00537A" d="M252.629,137.621c1.056,3.979-0.46,24.711-0.825,27.639c-0.475,3.811-8.844,4.342-9.698-0.376
			c-0.28-1.545-3.417-20.465-3.417-32.698C238.69,128.606,252.225,136.099,252.629,137.621z"/>
		<path fill="#5A5C71" d="M237.866,92.532l7.247-1.906c0,0,1.377,0.181,1.736,0.553c0.618,0.641,1.039,1.519,1.305,2.236
			c0.332,0.891,0.857,1.689,1.56,2.304c0,0,4.754,3.807,5.932,5.229c4.474,5.409-1.688,33.332-1.688,45.84
			c0,0-11.218-0.216-17.297-1.855l-1.24-4.704l-1.887,3.222c-2.107-0.63-7.083-4.422-7.299-4.709
			c-0.214-0.287,2.016-41.807,6.489-45.436C233.743,92.48,237.866,92.532,237.866,92.532z"/>
		<path fill="#002E47" d="M254.597,114.63c-1.136-2.659-3.018-6.706-5.501-7.672c0.277,0.854,5.866,24.27,5.866,24.27
			S257.809,122.145,254.597,114.63z"/>
		<path fill="#002E47" d="M236.186,95.119c0.266-0.719,0.709-1.362,1.31-1.837c0.617-0.486,1.447-0.922,2.269-0.682
			c0,0-1.901,0.704-1.592,3.496c0.127,1.101-0.044,2.915,0.118,4.962c0.188,2.348-1.07,9.779-1.07,9.779l-3.211-9.15l1.556-1.537
			l-1.698-1.196L236.186,95.119z"/>
		<path fill="#FFFFFF" d="M246.429,90.634c0.864,0.676,1.559,2.208-0.545,4.862c-1.019,1.286-2.053,3.346-2.994,5
			c-0.685,1.205-4.965,7.201-5.518,8.901c0,0-0.055-1.548-0.122-4.059c-0.016-0.566-0.001-7.707,0.469-9.435
			C238.836,91.791,243.736,88.537,246.429,90.634z"/>
		<path fill="#FFACAC" d="M245.543,88.414c0,0,0.098,1.202,0.85,3.276c0.108,0.298,0.06,0.63-0.137,0.877
			c-0.784,0.97-2.919,3.337-5.114,3.337c0,0-1.601-1.257-1.601-2.741C239.541,91.678,245.543,88.414,245.543,88.414z"/>
		<path fill="#FFACAC" d="M241.934,77.125c6.931,0.188,5.013,7.868,5.013,7.868s0.513,0.229,0.238,1.217
			c-0.276,0.989-0.342,1.093-0.484,1.582c-0.141,0.49-0.49,1.399-1.186,1.257c0,0-1.047,2.666-5.575,4.209
			c-0.788,0.27-1.83-0.018-2.045-0.815c-0.216-0.798-1.728-3.114-1.783-4.905c-0.041-1.355,0.471-1.251,0.121-2.014
			C235.882,84.761,235.003,76.936,241.934,77.125z"/>
		<path fill="#002E47" d="M241.595,76.61c4.718-0.205,8.061,3.809,5.725,9.049c-0.852-1.284-1.816,0.23-1.958,0.734
			c-0.077,0.277-0.336,1.441-0.766,1.441c-0.311,0-0.409-1.129-0.409-1.129c0-3.218,0.789-3.593-0.81-4.358
			c-1.363-0.653-4.378,1.784-7.053,1.787C233.93,84.137,235.113,76.892,241.595,76.61z"/>
		<path fill="#4B6DFF" d="M238.358,97.733l1.802-0.364l1.174,1.467c0,0-0.342,0.766-1.274,1.782
			c0.238,0.439,0.403,1.469,0.247,3.355c-0.549,1.156-3.085,6.866-3.085,6.866l-0.035-7.533c0.271-1.773,0.512-2.194,1.18-3.141
			L238.358,97.733z"/>
		<path fill="#002E47" d="M245.788,95.226c2.119-2.642,0.646-4.592,0.646-4.592c0.99,0.288,1.55,1.27,1.862,2.166
			c0.304,0.873,0.336,1.816,0.141,2.72l-1.219,5.668l-1.405-0.144l0.402,1.496l-8.994,8.309c0,0,3.529-8.38,5.237-10.647
			C243.948,98.223,244.947,96.265,245.788,95.226z"/>
		<path fill="#002E47" d="M245.696,86.073c0.3-0.459,0.98-0.434,1.237,0.052l0.006,0.011c0.288,0.543,0.213,1.217-0.208,1.667
			c-1.271,1.357-2.891,1.919-3.581,2.106c-0.197,0.055-0.404-0.026-0.518-0.196c-0.144-0.219-0.085-0.519,0.137-0.658
			C244.128,88.215,245.111,86.968,245.696,86.073z"/>
		<g>
			<path fill="#4B6DFF" d="M247.09,85.04c0.364,0.361,0.486,1.059-0.001,1.642c-0.04,0.048-0.111,0.053-0.158,0.013
				c-0.047-0.04-0.054-0.11-0.014-0.157c0.403-0.479,0.31-1.047,0.016-1.339c-0.233-0.23-0.651-0.334-1.13,0.074
				c-1.165,0.991-0.803,2.575-0.798,2.591c0.014,0.06-0.023,0.121-0.083,0.135c-0.008,0.002-0.017,0.004-0.025,0.004
				c-0.051,0-0.097-0.035-0.109-0.086c-0.016-0.071-0.396-1.734,0.872-2.813C246.251,84.597,246.799,84.753,247.09,85.04z"/>
		</g>
		<path fill="#FFACAC" d="M262.182,139.778c0,0-3.486-0.602-3.551-0.315c-0.067,0.289-0.409,2.199-0.906,2.725
			c-0.496,0.525-1.104,2.1-1.09,2.545c0.044,1.486-1.132,2.789-0.199,2.855c0.734,0.053,1.053-0.988,1.254-1.489
			c0.079-0.196,0.185-0.72,0.432-0.419c0.682,0.829,0.373,5.626,0.824,5.901c0.45,0.275,0.603-0.301,0.685-0.496
			c0.587-1.402,2.194-1.107,2.493-2.788c0.262-1.474-0.193-4.124-0.306-4.843C261.705,142.736,262.182,139.778,262.182,139.778z"/>
		<path fill="#5A5C71" d="M253.083,99.044c-2.214-0.81-6.096,2.279-4.524,7.791c0.331,1.157,4.252,8.014,6.92,15.211
			c2.668,7.194,6.019,5.532,7.216,3.763c1.197-1.771,0.482-3.808-1.717-12.799C258.778,104.017,256.506,100.296,253.083,99.044z"/>
		<path fill="#5A5C71" d="M255.932,123.356c1.751,8.231,1.489,17.548,1.489,17.548s2.069,2.841,5.659,0.681
			c0,0,1.819-13.421-0.192-19.948C260.876,115.11,255.04,119.164,255.932,123.356z"/>
	</g>
	<g>
		<g id="XMLID_1939_">
			<path id="XMLID_1161_" fill="#FFFFFF" d="M151.351,271.916L75.147,227.92c-0.004-0.003-0.007-0.007-0.007-0.012l0.373-20.88
				c0.001-0.005,0.003-0.01,0.007-0.012l93.737-54.119c0.004-0.003,0.01-0.003,0.014,0l112.006,64.667
				c0.009,0.005,0.009,0.018,0,0.023l-93.727,54.113c-0.002,0.001-0.004,0.002-0.007,0.002l-36.185,0.215
				C151.356,271.918,151.353,271.918,151.351,271.916z"/>
		</g>
		<g id="XMLID_1949_">
			<polygon id="XMLID_1157_" fill="#FFB642" points="170.003,158.384 82.556,208.871 82.099,226.017 154.644,267.9 184.341,267.637 
				271.787,217.149 			"/>
			<g>
				<polygon fill="#FFB642" points="84.131,224.88 84.525,210.043 170.003,160.693 267.787,217.149 183.797,265.642 
					155.172,265.895 				"/>
				<path fill="#FFFFFF" d="M155.106,266.146l-0.059-0.034l-71.17-41.09l0.403-15.126l0.121-0.07l85.602-49.422l0.125,0.072
					l98.159,56.673l-0.375,0.217l-84.047,48.524l-0.065,0.001L155.106,266.146z M84.384,224.737l70.854,40.907l28.491-0.252
					l83.558-48.243l-97.284-56.167l-85.231,49.207L84.384,224.737z"/>
			</g>
		</g>
		<g id="XMLID_1955_">
			<path id="XMLID_1082_" fill="#FFDE91" d="M151.355,271.927v17.211c0,0.012-0.013,0.02-0.023,0.014l-76.183-43.984
				c-0.005-0.003-0.008-0.008-0.008-0.014v-17.211c0-0.012,0.013-0.02,0.023-0.013l76.184,43.984
				C151.351,271.917,151.355,271.922,151.355,271.927z"/>
		</g>
		<g id="XMLID_1959_">
			<path id="XMLID_1074_" fill="#FFB642" d="M187.546,271.719v17.215c0,0.009-0.007,0.016-0.015,0.016l-36.161,0.216
				c-0.009,0-0.016-0.008-0.016-0.016v-17.216c0-0.009,0.007-0.016,0.015-0.016l36.161-0.215
				C187.54,271.703,187.546,271.71,187.546,271.719z"/>
		</g>
		<g id="XMLID_1960_">
			<path id="XMLID_1070_" fill="#FF5978" d="M281.297,217.602v17.211c0,0.006-0.003,0.011-0.008,0.014l-93.72,54.108
				c-0.01,0.006-0.023-0.001-0.023-0.013v-17.211c0-0.006,0.003-0.011,0.008-0.014l93.72-54.109
				C281.284,217.583,281.297,217.591,281.297,217.602z"/>
		</g>
		<g id="XMLID_1956_">
			<g id="XMLID_4201_">
				<path id="XMLID_1058_" fill="#00537A" d="M108.017,247.9v6.45c0,0.932,0.496,1.794,1.301,2.264l8.789,5.119
					c0.969,0.564,2.186-0.135,2.186-1.257v-5.474c0-0.619,0.331-1.191,0.868-1.501l18.037-10.374c0.538-0.31,0.553-1.081,0.026-1.41
					l-9.48-5.926c-0.875-0.547-1.982-0.56-2.869-0.035l-18.008,10.654C108.34,246.723,108.017,247.289,108.017,247.9z"/>
			</g>
		</g>
		<g id="XMLID_1944_">
			<g id="XMLID_1933_">
				<g id="XMLID_1934_">
					<g id="XMLID_830_">
						<path fill="#FFB642" d="M159.606,227.815c22.164,15.835,27.538,9.482,27.538,9.482s0.675-1.888,1.975-3.319
							c0.234-0.279,8.466-10.178,9.609-24.481c0.633-7.92,0.629-12.388,1.217-15.052c0.035-0.16-0.168-0.256-0.265-0.123
							c-4.732,6.548-17.836,15.348-30.546,13.798c-13.179-1.606-28.931-1.461-36.715,0.653c-7.783,2.114-6.763,6.578-6.763,6.579
							C126.455,214.986,147.314,219.033,159.606,227.815z"/>
						<path fill="#FFFFFF" d="M182.96,239.056c-4.056,0-11.308-2.02-23.645-10.833c-12.005-8.577-32.389-12.531-33.529-12.391
							l-0.564,0.259l-0.055-0.632c-0.045-0.201-0.989-4.965,7.121-7.168c7.606-2.065,23.128-2.348,36.906-0.667
							c12.153,1.484,25.275-6.943,30.081-13.595c0.182-0.253,0.508-0.339,0.789-0.213c0.285,0.128,0.437,0.431,0.369,0.736
							c-0.355,1.606-0.488,3.873-0.691,7.306c-0.122,2.068-0.273,4.642-0.516,7.679c-1.15,14.395-9.375,24.347-9.725,24.763
							c-1.232,1.357-1.881,3.148-1.888,3.166l-0.089,0.155C187.422,237.743,186.23,239.056,182.96,239.056z M126.108,214.872
							c3.832,0.259,22.459,4.442,33.788,12.536c20.264,14.478,26.215,10.146,26.818,9.611c0.169-0.439,0.85-2.073,2.035-3.377
							c0.328-0.392,8.355-10.104,9.48-24.186c0.242-3.025,0.393-5.594,0.515-7.658c0.153-2.605,0.268-4.547,0.472-6.065
							c-5.352,6.44-17.77,14.396-30.143,12.883c-13.665-1.665-29.025-1.396-36.523,0.64
							C126.583,210.877,126.086,213.828,126.108,214.872z"/>
					</g>
				</g>
				<g id="XMLID_1931_">
					<path id="XMLID_826_" fill="#0DCA6F" d="M154.072,218.367c-2.28,0.764-4.234,1.942-5.711,3.326
						c3.98,1.704,7.914,3.742,11.245,6.122c1.313,0.938,2.564,1.794,3.762,2.582c3.206-2.371,4.872-5.646,3.922-8.481
						C165.962,217.954,160.044,216.365,154.072,218.367z"/>
				</g>
				<g id="XMLID_1930_">
					<path id="XMLID_817_" fill="#FF2657" d="M187.837,204.826c-5.498,2.884-12.029,4.752-18.462,3.968
						c-0.283-0.035-0.572-0.064-0.856-0.097c-1.271,2.699-1.337,5.432,0.116,7.352c2.52,3.333,8.636,2.955,13.66-0.845
						C186.203,212.248,188.287,208.095,187.837,204.826z"/>
				</g>
				<g id="XMLID_1929_">
					<path id="XMLID_811_" fill="#0DCA6F" d="M195.921,221.767c-2.864-3.049-9.003-2.523-14.094,1.327
						c-5.323,4.026-7.473,10.152-4.802,13.684c0.282,0.373,0.615,0.692,0.976,0.978c7.031,2.035,9.144-0.458,9.144-0.458
						s0.675-1.888,1.975-3.319C189.278,233.789,193.111,229.175,195.921,221.767z"/>
				</g>
				<g id="XMLID_1925_">
					<path id="XMLID_805_" fill="#FF5978" d="M191.402,215.466c0.845,2.522-1.727,5.658-5.745,7.005
						c-4.018,1.347-7.96,0.395-8.806-2.127c-0.845-2.522,1.726-5.658,5.745-7.005S190.557,212.944,191.402,215.466z"/>
				</g>
				<g id="XMLID_1922_">
					<path id="XMLID_618_" fill="#FF5978" d="M143.606,211.411c0.455,1.356-1.071,3.091-3.408,3.875
						c-2.337,0.783-4.601,0.318-5.055-1.038s1.071-3.091,3.409-3.875C140.888,209.59,143.151,210.055,143.606,211.411z"/>
				</g>
				<g id="XMLID_492_">
					<path id="XMLID_494_" fill="#FFFFFF" d="M151.559,210.392c0.185,0.551-0.435,1.254-1.383,1.572
						c-0.949,0.317-1.867,0.129-2.051-0.421c-0.185-0.551,0.435-1.255,1.383-1.572C150.456,209.652,151.375,209.841,151.559,210.392
						z"/>
				</g>
				<g id="XMLID_495_">
					<path id="XMLID_497_" fill="#FFDE91" d="M179.519,229.827c0.276,0.826-0.652,1.881-2.074,2.358
						c-1.423,0.477-2.8,0.193-3.077-0.632c-0.277-0.825,0.652-1.881,2.074-2.358C177.864,228.719,179.242,229.002,179.519,229.827z"
						/>
				</g>
				<g id="XMLID_1121_">
					<path id="XMLID_614_" fill="#FF5978" d="M173.219,222.427c0.519,1.548-1.223,3.528-3.891,4.422
						c-2.667,0.895-5.251,0.364-5.769-1.184c-0.519-1.549,1.223-3.528,3.89-4.423C170.117,220.349,172.7,220.879,173.219,222.427z"
						/>
				</g>
				<g id="XMLID_1926_">
					<path id="XMLID_607_" fill="#FF2657" d="M162.275,215.617c0.615,1.835-1.256,4.117-4.18,5.097
						c-2.924,0.98-5.793,0.287-6.408-1.548c-0.615-1.835,1.257-4.117,4.181-5.098C158.792,213.089,161.66,213.782,162.275,215.617z"
						/>
				</g>
				<g id="XMLID_1935_">
					<g id="XMLID_842_">
						<path fill="#FFA044" d="M203.354,190.594c-4.449,1.459-3.466,4.393-4.626,18.903c-1.143,14.304-9.374,24.202-9.609,24.481
							c-1.3,1.432-2.112,2.912-2.112,2.912s-5.237,6.76-27.401-9.075c-12.292-8.782-32.782-12.952-33.581-12.586
							c-0.25,0.115-0.207,0.566-0.03,1.131c0.568,1.814,2.078,3.18,3.909,3.692c5.857,1.638,20.858,6.458,31.597,15.38
							c13.614,11.311,25.363,10.064,30.885,7.292c2.491-1.251,4.471-2.853,5.462-4.538c7.361-10.041,10.969-27.405,11.104-33.538
							C209.096,198.182,207.802,189.135,203.354,190.594z"/>
						<path fill="#FFFFFF" d="M183.451,245.114c-5.624,0-13.371-1.904-22.269-9.297c-10.643-8.843-25.513-13.634-31.412-15.283
							c-2.053-0.574-3.642-2.079-4.251-4.024c-0.108-0.345-0.437-1.395,0.297-1.734c1.04-0.47,21.75,3.824,34.081,12.633
							c21.524,15.379,26.665,9.241,26.716,9.176h-0.001c-0.007,0,0.814-1.484,2.137-2.941c0.328-0.392,8.355-10.104,9.48-24.186
							c0.243-3.033,0.394-5.606,0.516-7.675c0.47-7.992,0.612-10.404,4.453-11.663c1.048-0.348,2.011-0.203,2.853,0.421
							c2.698,2,3.519,8.856,3.403,14.119c-0.124,5.626-3.523,23.35-11.201,33.823c-0.988,1.684-3.001,3.364-5.642,4.689
							C191.526,243.716,188.268,245.113,183.451,245.114z M126.355,215.709c0.011,0.101,0.042,0.26,0.117,0.502
							c0.508,1.621,1.841,2.877,3.567,3.36c5.961,1.667,20.99,6.512,31.781,15.477c16.04,13.326,28.088,8.361,30.342,7.23
							c2.47-1.239,4.337-2.782,5.256-4.345c7.573-10.334,10.913-27.762,11.035-33.295c0.12-5.422-0.761-11.635-2.998-13.294
							c-0.574-0.427-1.211-0.516-1.946-0.274c-3.096,1.015-3.285,2.588-3.766,10.771c-0.122,2.073-0.274,4.652-0.517,7.696
							c-1.15,14.395-9.375,24.347-9.725,24.763c-1.254,1.382-2.048,2.817-2.056,2.831c-0.269,0.358-5.831,7.023-28.13-8.908
							C147.475,219.763,128.75,215.85,126.355,215.709z"/>
					</g>
				</g>
				<g id="XMLID_1937_">
					<g id="XMLID_834_">
						<path fill="#FFDE91" d="M203.335,190.608c-4.449,1.459-3.466,4.392-4.625,18.902c-1.143,14.305-9.375,24.202-9.609,24.481
							c-1.169,1.288-1.938,2.604-2.082,2.859c0.067,0.294,0.106,0.46,0.106,0.46s0.008,0.005,0.022,0.013
							c2.514,1.437,1.931,5.238-0.894,5.874c-2.612,0.588-6.519,0.87-11.9-0.209c7.905,2.759,14.34,1.595,18.015-0.251
							c2.49-1.25,4.471-2.852,5.463-4.538c7.36-10.041,10.969-27.405,11.104-33.537
							C209.078,198.195,207.784,189.149,203.335,190.608z"/>
						<path fill="#FFFFFF" d="M183.508,245.119c-2.657,0-5.793-0.427-9.32-1.658l0.263-0.962c4.432,0.889,8.367,0.962,11.692,0.211
							c1.32-0.297,1.933-1.347,2.065-2.23c0.132-0.878-0.143-2.054-1.31-2.722l-0.189-0.107l-0.221-0.876l0.095-0.168
							c0.145-0.258,0.93-1.609,2.147-2.95c0.328-0.392,8.355-10.104,9.48-24.186c0.243-3.033,0.394-5.606,0.516-7.674
							c0.47-7.992,0.612-10.404,4.453-11.664c1.051-0.345,2.011-0.202,2.853,0.422c2.697,2,3.519,8.856,3.402,14.119
							c-0.124,5.626-3.523,23.349-11.201,33.822c-0.987,1.683-3.001,3.363-5.642,4.689
							C191.413,243.777,188.214,245.119,183.508,245.119z M187.565,236.993c1.232,0.792,1.853,2.165,1.632,3.635
							c-0.232,1.545-1.318,2.717-2.835,3.059c-0.9,0.202-1.842,0.348-2.823,0.436c4.467-0.005,7.486-1.27,8.604-1.831
							c2.471-1.24,4.338-2.783,5.256-4.345c7.573-10.334,10.914-27.761,11.036-33.294c0.12-5.422-0.761-11.635-2.998-13.294
							c-0.575-0.426-1.21-0.517-1.946-0.275c-3.096,1.015-3.285,2.588-3.766,10.771c-0.122,2.072-0.273,4.651-0.517,7.695
							c-1.15,14.396-9.375,24.347-9.725,24.763c-0.986,1.087-1.682,2.195-1.933,2.618L187.565,236.993z"/>
					</g>
				</g>
			</g>
		</g>
	</g>
</g>
</svg>
