<?xml version="1.0" encoding="utf-8"?>
<!-- Generator: Adobe Illustrator 24.3.0, SVG Export Plug-In . SVG Version: 6.00 Build 0)  -->
<svg version="1.1" id="Layer_1" xmlns="http://www.w3.org/2000/svg" xmlns:xlink="http://www.w3.org/1999/xlink" x="0px" y="0px"
	 viewBox="0 0 350 350" enable-background="new 0 0 350 350" xml:space="preserve">
<g>
	
		<radialGradient id="SVGID_1_" cx="262.2524" cy="181.7116" r="134.562" gradientTransform="matrix(0.5734 -0.7894 0.4525 0.3009 -77.022 327.3572)" gradientUnits="userSpaceOnUse">
		<stop  offset="0" style="stop-color:#B0BED9"/>
		<stop  offset="0.206" style="stop-color:#C7D1E4"/>
		<stop  offset="0.5296" style="stop-color:#E6EAF3"/>
		<stop  offset="0.8058" style="stop-color:#F8FAFC"/>
		<stop  offset="1" style="stop-color:#FFFFFF"/>
	</radialGradient>
	<path fill="url(#SVGID_1_)" d="M58.068,224.368c-7.104,57.847,30.788,82.643,84.662,55.39
		c53.867-27.309,103.256-96.282,110.361-154.13c7.108-57.876-30.767-82.672-84.637-55.333
		C114.58,97.546,65.165,166.578,58.068,224.368z"/>
	<g>
		<path fill="#FFB642" d="M110.807,164.848l35.545,65.965l124.879-70.655c47.597-29.464,6.939-88.151-31.23-68.598L110.807,164.848z
			"/>
		<path fill="#E78400" d="M262.212,88.312c20.026,12.831,28.188,45.251-3.097,64.618l-118.578,67.09l5.815,10.792l124.879-70.655
			C309.425,136.514,290.788,94.062,262.212,88.312z"/>
		<path fill="#FFDE91" d="M102.466,182.17c0,16.831,11.89,37.34,26.557,45.808c14.667,8.469,26.558,1.689,26.558-15.142
			c0-16.83-11.891-37.339-26.558-45.807C114.356,158.561,102.466,165.34,102.466,182.17z"/>
		<path fill="#FFB642" d="M107.784,185.594c0,13.296,9.394,29.499,20.981,36.188c11.588,6.691,20.981,1.335,20.981-11.962
			c0-13.297-9.393-29.499-20.981-36.189C117.178,166.941,107.784,172.297,107.784,185.594z"/>
		<path fill="#FF2657" d="M111.126,187.171c0,11.342,8.012,25.162,17.896,30.868c9.884,5.707,17.896,1.139,17.896-10.203
			c0-11.342-8.013-25.162-17.896-30.869C119.138,171.261,111.126,175.829,111.126,187.171z"/>
		<path fill="#FF8DA6" d="M90.053,217.599c2.821,6.238,8.125,10.849,13.814,11.72c9.623,1.482,16.99-2.402,17.006-2.418
			l18.554-10.881c2.386-1.241,4.03-3.805,4.514-7.463c0.097-0.742,0.145-1.532,0.145-2.355c0-4.014-1.192-8.398-3.192-12.477
			c-2.756-5.642-7.044-10.72-11.864-13.509c-2.676-1.547-5.174-2.191-7.367-2.062c-0.048,0-0.113,0-0.177,0.016
			c-1.322,0.113-2.515,0.532-3.546,1.226l-0.483,0.274l-17.361,10.203c-6.706,4.159-9.639,7.335-11.01,11.01
			c-0.032,0.032-0.032,0.064-0.032,0.113c-0.306,0.806-0.532,1.644-0.693,2.515C87.393,208.523,88.167,213.424,90.053,217.599z"/>
		<path fill="#FF5978" d="M90.053,217.599c2.821,6.238,8.125,10.849,13.814,11.72c9.623,1.482,16.99-2.402,17.006-2.418
			l18.554-10.881c2.386-1.241,4.03-3.805,4.514-7.463c-5.803,3.32-22.438,12.847-26.194,15.12
			C113.184,226.416,97.904,230.882,90.053,217.599z"/>
		<path fill="#FF5978" d="M91.481,205.997c0,0,1.057,6.56,3.905,11.044c2.106,3.316,6.296,7.26,6.296,7.26s-3.682-2.004-6.074-5.345
			C91.987,213.899,90.884,210.092,91.481,205.997z"/>
		<path fill="#FF5978" d="M89.011,213.404c0,0,2.149,2.842,6.913,3.625c4.764,0.785,13.417-1.084,13.417-1.084
			s-6.077,3.78-13.742,2.503C88.589,217.28,89.011,213.404,89.011,213.404z"/>
		<path fill="#FF5978" d="M102.865,211.712c0,0-3.124-0.139-5.309,2.362c-2.186,2.5-3.326,8.717-3.326,8.717s-1.32-5.622,2.21-9.637
			C99.668,209.482,102.865,211.712,102.865,211.712z"/>
		<path fill="#FF2657" d="M95.614,193.912c1.625-1.281,3.666-1.966,5.745-2.21c2.084-0.226,4.269-0.022,6.275,0.717
			c0.517,0.142,0.981,0.414,1.471,0.62c0.482,0.226,0.961,0.456,1.393,0.766c0.44,0.296,0.887,0.577,1.309,0.89
			c0.398,0.344,0.786,0.698,1.167,1.055l0.562,0.539l0.493,0.605c0.324,0.405,0.635,0.816,0.936,1.23
			c0.545,0.873,1.015,1.791,1.394,2.733c-0.907-0.534-1.65-1.164-2.452-1.709c-0.411-0.26-0.811-0.523-1.199-0.791l-0.576-0.404
			l-0.611-0.345c-0.402-0.232-0.797-0.468-1.182-0.713l-1.223-0.602c-0.394-0.224-0.807-0.398-1.229-0.552
			c-0.419-0.157-0.81-0.388-1.247-0.491c-1.675-0.624-3.436-0.977-5.263-1.195C99.543,193.837,97.655,193.806,95.614,193.912z"/>
		<path fill="#E78400" d="M124.605,157.891c4.417-3.142,9.853-4.745,15.328-5.293c5.508-0.517,11.146,0.272,16.389,2.077
			c2.621,0.916,5.126,2.109,7.53,3.457c1.161,0.74,2.372,1.402,3.465,2.233l1.67,1.196l1.589,1.296
			c4.188,3.501,7.825,7.579,10.681,12.143c-4.117-3.46-8.204-6.783-12.557-9.618c-2.145-1.462-4.404-2.711-6.663-3.918
			c-2.298-1.131-4.624-2.183-7.03-3.013c-4.805-1.65-9.831-2.631-14.958-2.722C134.928,155.64,129.716,156.272,124.605,157.891z"/>
		<path fill="#E78400" d="M138.848,148.862c4.938,0.047,9.83,1.705,14.179,4.25c4.349,2.58,8.113,6.252,10.851,10.561
			c1.347,2.168,2.478,4.46,3.354,6.838c0.817,2.393,1.514,4.824,1.851,7.306c0.757,4.944,0.688,9.945-0.28,14.76
			c-0.707-4.854-1.482-9.576-2.792-14.089c-0.607-2.269-1.433-4.446-2.307-6.581c-0.924-2.116-1.988-4.151-3.201-6.09
			c-2.455-3.856-5.563-7.272-9.233-10.11C147.601,152.865,143.438,150.546,138.848,148.862z"/>
		<path fill="#E78400" d="M150.365,143.487c4.416-3.143,9.853-4.744,15.328-5.293c5.508-0.517,11.146,0.273,16.389,2.077
			c2.621,0.916,5.126,2.109,7.53,3.458c1.161,0.739,2.372,1.401,3.466,2.232l1.67,1.196l1.589,1.296
			c4.189,3.501,7.825,7.579,10.681,12.143c-4.117-3.459-8.204-6.782-12.557-9.618c-2.145-1.461-4.403-2.711-6.663-3.917
			c-2.298-1.131-4.624-2.184-7.029-3.014c-4.805-1.65-9.832-2.63-14.959-2.722C160.689,141.237,155.476,141.869,150.365,143.487z"/>
		<path fill="#E78400" d="M164.609,134.459c4.938,0.047,9.83,1.705,14.179,4.25c4.349,2.58,8.113,6.252,10.851,10.562
			c1.347,2.167,2.478,4.46,3.354,6.837c0.817,2.393,1.514,4.825,1.851,7.306c0.757,4.944,0.689,9.945-0.28,14.76
			c-0.706-4.854-1.481-9.576-2.792-14.089c-0.606-2.268-1.433-4.446-2.307-6.581c-0.923-2.115-1.988-4.151-3.201-6.089
			c-2.455-3.857-5.563-7.272-9.233-10.11C173.362,138.463,169.198,136.143,164.609,134.459z"/>
		<path fill="#E78400" d="M176.153,129.12c4.416-3.144,9.852-4.745,15.328-5.293c5.508-0.517,11.147,0.272,16.389,2.077
			c2.621,0.916,5.126,2.109,7.53,3.457c1.161,0.74,2.372,1.402,3.465,2.233l1.67,1.196l1.588,1.296
			c4.189,3.501,7.825,7.579,10.682,12.143c-4.117-3.46-8.204-6.783-12.557-9.618c-2.145-1.462-4.404-2.711-6.663-3.918
			c-2.298-1.131-4.625-2.184-7.03-3.013c-4.805-1.65-9.832-2.631-14.959-2.722C186.476,126.869,181.263,127.502,176.153,129.12z"/>
		<path fill="#E78400" d="M190.396,120.092c4.938,0.047,9.83,1.704,14.179,4.25c4.349,2.58,8.112,6.252,10.851,10.562
			c1.346,2.168,2.477,4.46,3.354,6.837c0.817,2.394,1.514,4.826,1.851,7.307c0.757,4.944,0.688,9.945-0.28,14.76
			c-0.706-4.854-1.481-9.576-2.792-14.089c-0.606-2.269-1.433-4.446-2.307-6.581c-0.923-2.116-1.988-4.151-3.201-6.09
			c-2.454-3.857-5.563-7.273-9.233-10.11C199.149,124.095,194.986,121.775,190.396,120.092z"/>
		<path fill="#E78400" d="M201.94,114.753c4.416-3.144,9.853-4.745,15.328-5.294c5.508-0.516,11.147,0.273,16.39,2.077
			c2.621,0.917,5.126,2.11,7.53,3.458c1.161,0.74,2.372,1.401,3.465,2.232l1.67,1.197l1.589,1.296
			c4.188,3.501,7.825,7.578,10.681,12.143c-4.117-3.46-8.204-6.783-12.557-9.618c-2.146-1.462-4.404-2.711-6.663-3.918
			c-2.298-1.131-4.625-2.184-7.03-3.013c-4.805-1.65-9.831-2.631-14.958-2.722C212.263,112.502,207.051,113.134,201.94,114.753z"/>
		<path fill="#E78400" d="M216.183,105.725c4.938,0.047,9.83,1.704,14.179,4.249c4.349,2.58,8.113,6.253,10.851,10.562
			c1.347,2.168,2.478,4.46,3.354,6.837c0.817,2.392,1.514,4.825,1.852,7.307c0.757,4.943,0.688,9.944-0.281,14.76
			c-0.706-4.854-1.481-9.576-2.792-14.089c-0.606-2.269-1.433-4.447-2.307-6.582c-0.924-2.115-1.988-4.151-3.201-6.089
			c-2.455-3.856-5.563-7.272-9.233-10.11C224.936,109.727,220.773,107.408,216.183,105.725z"/>
		<path fill="#E78400" d="M227.727,100.385c4.417-3.143,9.853-4.744,15.328-5.293c5.508-0.517,11.146,0.273,16.389,2.077
			c2.621,0.916,5.126,2.109,7.53,3.458c1.161,0.739,2.371,1.401,3.465,2.232l1.67,1.196l1.589,1.296
			c4.188,3.501,7.825,7.579,10.681,12.143c-4.117-3.459-8.204-6.782-12.557-9.618c-2.146-1.462-4.404-2.711-6.663-3.917
			c-2.298-1.131-4.625-2.184-7.03-3.014c-4.805-1.65-9.831-2.631-14.959-2.722C238.05,98.135,232.838,98.767,227.727,100.385z"/>
		<path fill="#E78400" d="M241.971,91.356c4.938,0.047,9.83,1.705,14.179,4.25c4.349,2.58,8.113,6.252,10.851,10.562
			c1.347,2.168,2.478,4.461,3.353,6.838c0.817,2.392,1.514,4.825,1.852,7.306c0.757,4.944,0.688,9.945-0.28,14.76
			c-0.707-4.854-1.482-9.576-2.793-14.089c-0.606-2.267-1.433-4.446-2.307-6.581c-0.924-2.116-1.988-4.151-3.201-6.089
			c-2.455-3.857-5.563-7.272-9.233-10.11C250.724,95.36,246.56,93.04,241.971,91.356z"/>
		<path fill="#FF2657" d="M104.715,186.941c1.625-1.281,3.667-1.966,5.745-2.209c2.084-0.227,4.269-0.023,6.275,0.716
			c0.517,0.142,0.981,0.414,1.471,0.62c0.483,0.226,0.961,0.456,1.394,0.766c0.44,0.296,0.887,0.577,1.309,0.89
			c0.398,0.345,0.786,0.698,1.167,1.055l0.562,0.539l0.493,0.605c0.323,0.406,0.635,0.817,0.936,1.23
			c0.545,0.874,1.015,1.791,1.394,2.733c-0.907-0.534-1.65-1.164-2.452-1.709c-0.411-0.26-0.811-0.523-1.199-0.791l-0.576-0.404
			l-0.611-0.345c-0.402-0.232-0.798-0.468-1.182-0.713l-1.223-0.602c-0.394-0.224-0.807-0.398-1.229-0.552
			c-0.418-0.156-0.81-0.388-1.246-0.491c-1.675-0.624-3.436-0.977-5.263-1.195C108.643,186.866,106.756,186.835,104.715,186.941z"/>
		<path fill="#FF2657" d="M114.233,181.878c1.625-1.28,3.667-1.966,5.745-2.209c2.084-0.226,4.269-0.023,6.275,0.717
			c0.517,0.142,0.981,0.414,1.471,0.62c0.483,0.226,0.961,0.456,1.394,0.766c0.44,0.295,0.887,0.577,1.309,0.89
			c0.398,0.344,0.786,0.698,1.167,1.055l0.562,0.539l0.493,0.605c0.324,0.405,0.635,0.816,0.936,1.229
			c0.545,0.874,1.015,1.792,1.394,2.733c-0.907-0.533-1.65-1.163-2.452-1.708c-0.411-0.261-0.811-0.523-1.199-0.791l-0.576-0.405
			l-0.611-0.344c-0.402-0.232-0.797-0.468-1.182-0.713l-1.223-0.602c-0.394-0.224-0.807-0.398-1.229-0.552
			c-0.419-0.157-0.81-0.388-1.247-0.491c-1.675-0.624-3.436-0.977-5.263-1.196C118.161,181.804,116.274,181.771,114.233,181.878z"/>
		<g>
			<path fill="#FFDE91" d="M127.496,162.008c11.854,2.268,29.123,18.688,40.555,6.674c4.998-5.251,4.056-13.626,0.746-19.465
				c-1.08-1.903-1.787-1.777-0.888-3.818c0.889-2.02,3.153-2.243,5.148-2.465c2.377-0.265,4.83,0.007,7.173,0.426
				c5.28,0.945,10.329,2.869,15.68,3.477c6.523,0.742,19.232-1.192,17.09-10.678c-0.791-3.5-3.544-5.826-6.374-7.734
				c-2.022-1.364-8.183-4.805-3.919-6.824c4.555-2.156,12.264-1.682,16.987-0.533c5.29,1.285,9.724,4.81,15.052,5.963
				c5.499,1.191,14.355-0.352,14.562-7.411c0.091-3.106-1.715-5.788-3.953-7.746c-1.854-1.622-7.537-3.422-8.409-5.676
				c-1.214-3.137,13.494-4.146,15.62-4.092c6.482,0.165,12.647,1.986,18.298,5.121c3.354,1.859,6.359-3.28,3.005-5.141
				c-8.46-4.692-18.042-6.755-27.681-5.616c-5.304,0.627-18.218,2.803-15.357,11.025c0.833,2.394,2.973,3.981,5.007,5.314
				c1.945,1.274,7.502,3.348,7.417,6.231c-0.131,4.427-8.91,1.752-11.071,0.815c-4.795-2.078-8.996-4.405-14.267-5.146
				c-5.929-0.833-19.216-1.419-22.35,5.354c-2.631,5.688,3.388,10.307,7.365,13.053c0.802,0.554,2.575,1.445,3.115,2.354
				c2.553,4.296-1.438,4.942-3.797,5.374c-2.995,0.548-6.008,0.148-8.967-0.447c-5.185-1.046-10.17-2.865-15.468-3.352
				c-5.993-0.551-18.448,1.244-16.809,9.898c0.969,5.12,5.61,8.191,4.436,14.029c-1.147,5.705-6.815,6.437-11.615,5.309
				c-8.723-2.05-15.903-8.324-24.746-10.016C125.335,155.551,123.731,161.287,127.496,162.008L127.496,162.008z"/>
		</g>
	</g>
	<g>
		<path fill="#C0CCDA" d="M161.031,283.051c12.131,7.006,31.81,7.006,43.942,0c12.131-7.008,12.131-18.36,0-25.366
			c-12.132-7.005-31.811-7.005-43.942,0C148.898,264.69,148.898,276.043,161.031,283.051z"/>
		<path fill="#E2E9E8" d="M161.007,280.774c12.158,7.022,31.879,7.022,44.037,0c12.158-7.022,12.158-18.399,0-25.421
			c-12.158-7.02-31.879-7.02-44.037,0C148.848,262.375,148.848,273.752,161.007,280.774z"/>
		<path opacity="0.5" fill="#C0CCDA" d="M160.948,191.743c12.19,7.04,31.965,7.04,44.157,0c12.189-7.04,12.189-18.449,0-25.488
			c-12.192-7.038-31.966-7.038-44.157,0C148.755,173.294,148.755,184.703,160.948,191.743z"/>
		<g>
			<path fill="#E2E9E8" d="M227.7,213.288c-1.733-3.064-4.134-4.955-8.576-5.325l-11.778-0.529v4.122l9.799,0.363
				c3.226,0.27,4.699,1.647,5.963,3.88c1.269,2.239,1.199,5.086-0.284,7.972c-3.773,7.342-11.516,8.985-15.479,9.015v4.859
				c5.116-0.143,14.358-1.778,19.218-12.136c0.312-0.666,1.328-2.626,1.328-2.626l-0.006,0.006
				C229.298,219.387,229.247,216.017,227.7,213.288z"/>
		</g>
		<g>
			<polygon fill="#00A99F" points="151.921,179.832 151.921,179.832 151.921,179.841 			"/>
			<path fill="#E2E9E8" d="M214.142,179.635c-0.268,4.386-3.298,8.727-9.097,12.074c-12.158,7.021-31.879,7.021-44.037,0
				c-5.621-3.245-8.641-7.422-9.065-11.668l8.57,86.394c0,3.326,2.198,6.651,6.593,9.189c8.789,5.077,23.049,5.077,31.839,0
				c4.395-2.538,6.593-5.863,6.593-9.189l0,0l8.624-86.8H214.142z"/>
		</g>
		<path fill="#FFB642" d="M160.873,251.093l1.436,13.37c0,3.059,2.022,6.121,6.067,8.456c8.089,4.672,21.21,4.672,29.298,0
			c4.044-2.335,6.066-5.397,6.066-8.456l1.443-13.396C188.642,245.037,170.692,244.337,160.873,251.093z"/>
		<g>
			<path fill="#862942" d="M201.738,221.888c-10.332,5.968-27.093,5.968-37.425,0c-4.303-2.485-6.811-5.611-7.531-8.845l3.92,36.474
				c0-0.011,0.001-0.022,0.001-0.034c-0.02,3.315,2.156,6.632,6.537,9.161c8.715,5.033,22.854,5.033,31.57,0
				c4.354-2.515,6.533-5.808,6.537-9.102l3.937-36.565C208.585,216.234,206.07,219.387,201.738,221.888z"/>
		</g>
		<path fill="#FFDE91" d="M154.528,192.077l2.036,18.945v-0.005c-0.029,3.932,2.552,7.869,7.748,10.87
			c10.333,5.968,27.094,5.968,37.425,0c5.166-2.983,7.749-6.891,7.749-10.8l2.047-19.011H154.528z"/>
		<path fill="#FFFFFF" d="M203.287,178.457c-11.188-6.46-29.335-6.46-40.523,0c-11.189,6.461-11.189,16.932,0,23.392
			c11.188,6.462,29.335,6.462,40.523,0C214.475,195.389,214.475,184.918,203.287,178.457z"/>
		<path opacity="0.55" fill="#FFDE91" d="M192.265,185.132c-5.087-2.938-13.338-2.938-18.425,0c-5.087,2.938-5.087,7.698,0,10.636
			c5.087,2.938,13.339,2.938,18.425,0C197.353,192.83,197.353,188.069,192.265,185.132z"/>
		<path fill="#FFDE91" d="M185.607,188.663c-1.426-0.823-3.739-0.823-5.165,0s-1.426,2.158,0,2.981c1.426,0.823,3.739,0.823,5.165,0
			C187.033,190.821,187.033,189.486,185.607,188.663z"/>
	</g>
	<g>
		<g>
			<path fill="#FFACAC" d="M271.006,205.153c0.458,1.575,3.067,1.299,2.436,3.268c-0.554,1.727-0.856,3.307-0.624,3.457
				c0.466,0.301,1.654-3.229,2.258-4.65c0.603-1.424,0.839-2.865,1.456-2.52c0.698,0.39,1.12,2.616,1.416,2.641
				c1.408,0.123,0.572-4.021-0.816-4.684c-1.482-0.71,6.713-11.542,6.575-15.894l-6.103-0.7c0,0-3.061,12.318-4.775,14.578
				C272.168,201.516,270.413,203.116,271.006,205.153z"/>
			<path fill="#75D894" d="M271.988,178.179c2.89,4.524,4.138,7.933,4.795,9.372c0.66,1.439,7.316,2.843,7.416,0.21
				c0.25-6.678-2.774-12.078-5.241-15.775c-2.927-4.381-5.667-7.007-8.613-4.714C267.73,169.309,268.597,172.866,271.988,178.179z"
				/>
		</g>
		<g>
			<g>
				<g>
					<path fill="#FFDE91" d="M268.169,264.834c-0.499,1.081,0.419,2.815,1.318,3.594c0.99,0.858,6.931,6,10.787,4.523
						c0.466-0.179,0.934-0.397,1.267-0.767c0.578-0.64-0.238-4.13-0.882-4.758C279.819,266.603,268.576,263.947,268.169,264.834z"/>
					<path fill="#FF5A77" d="M275.054,264.342c-2.729-1.059-6.319-0.943-6.728-0.059c-0.498,1.083,1.011,2.92,1.906,3.706
						c2.569,2.254,7.749,4.66,9.62,4.032c0.473-0.156,1.355-0.497,1.688-0.866c0.578-0.64,0.047-2.877-0.642-3.543
						C280.25,266.985,276.491,264.9,275.054,264.342z"/>
				</g>
				<path fill="#FFDE91" d="M276.32,269.121c-0.302,0-0.546,0.316-0.546,0.706c0,0.39,0.245,0.705,0.546,0.705
					c0.298,0,0.543-0.315,0.543-0.705C276.864,269.437,276.619,269.121,276.32,269.121z"/>
				<path fill="#FFDE91" d="M280.063,266.883l-1.08,1.426l0.277,0.512c0.537,0.772,0.448,3.297,0.448,3.297
					c1.247-0.093,1.678-0.815,1.678-0.815c0.321-2.494-0.686-3.452-0.686-3.452L280.063,266.883z"/>
			</g>
			<path fill="#FFACAC" d="M273.878,265.464c-0.223,0.492,0.199,1.869,2.584,2.884c0.85,0.362,1.884,0.624,2.798,0.473
				c-0.118-0.375,0.046-0.818,0.38-1.024c0.338-0.208,0.742-0.125,1.061,0.054c-0.184-0.627-0.284-1.28-0.399-1.928
				C279.63,266.037,274.581,263.918,273.878,265.464z"/>
		</g>
		<path fill="#002E47" d="M272.471,234.677c0.159,6.695,1.845,30.469,1.845,30.469s2.506,2.329,7.266,0.492
			c0,0,1.282-17.517,1.708-22.247c0.426-4.73-0.348-8.819-0.743-9.706C281.477,231.286,272.31,227.983,272.471,234.677z"/>
		<path fill="#002E47" d="M280.955,198.987c-1.139-0.863-4.647-1.367-8.173,1.7c-6.345,5.521-0.237,31.576-0.237,35.973
			c0,4.54,9.143,4.104,10.201-1.979c0.71-4.087,2.43-18.257,2.65-20.821C285.637,211.06,285.669,202.549,280.955,198.987z"/>
		<g>
			<g>
				<g>
					<path fill="#FFDE91" d="M257.741,269.949c-0.5,1.08,0.419,2.815,1.318,3.597c0.989,0.855,6.93,5.997,10.787,4.52
						c0.465-0.18,0.931-0.397,1.266-0.768c0.578-0.639-0.237-4.13-0.882-4.757C269.387,271.719,258.147,269.062,257.741,269.949z"/>
					<path fill="#FF5A77" d="M264.624,269.457c-2.729-1.059-6.318-0.943-6.727-0.059c-0.497,1.083,1.009,2.92,1.906,3.706
						c2.57,2.257,7.749,4.663,9.62,4.033c0.473-0.157,1.353-0.498,1.688-0.867c0.578-0.64,0.047-2.877-0.644-3.543
						C269.82,272.103,266.063,270.016,264.624,269.457z"/>
				</g>
				<path fill="#FFDE91" d="M265.888,274.236c-0.298,0-0.543,0.316-0.543,0.706c0,0.39,0.245,0.705,0.543,0.705
					c0.302,0,0.546-0.315,0.546-0.705C266.435,274.553,266.19,274.236,265.888,274.236z"/>
				<path fill="#FFDE91" d="M269.632,271.998l-1.078,1.425l0.277,0.513c0.534,0.771,0.449,3.298,0.449,3.298
					c1.247-0.094,1.678-0.814,1.678-0.814c0.321-2.497-0.686-3.455-0.686-3.455L269.632,271.998z"/>
			</g>
			<path fill="#FFACAC" d="M263.448,270.579c-0.226,0.495,0.199,1.869,2.585,2.884c0.85,0.362,1.884,0.624,2.797,0.473
				c-0.117-0.375,0.047-0.818,0.38-1.025c0.336-0.206,0.743-0.125,1.061,0.054c-0.184-0.627-0.285-1.281-0.4-1.928
				C269.201,271.152,264.152,269.033,263.448,270.579z"/>
		</g>
		<path fill="#00537A" d="M262.314,240.193c0.159,6.695,1.808,30.04,1.808,30.04s2.479,3.572,7.237,1.734
			c0,0,1.347-18.329,1.774-23.061c0.426-4.73,0.152-9.563-0.243-10.448C271.82,236.059,262.153,233.5,262.314,240.193z"/>
		<path fill="#00537A" d="M272.469,204.788c-1.139-0.862-5.48-3.329-9.089-0.36c-4.873,4.009-0.995,33.353-0.995,37.75
			c0,4.537,9.146,4.104,10.201-1.979c0.71-4.089,3.405-21.77,3.625-24.332C276.452,213.066,277.183,208.348,272.469,204.788z"/>
		<path fill="#002E47" d="M275.935,218.137c0.143-1.063,0.242-1.861,0.277-2.271c0.24-2.8,0.971-7.518-3.743-11.078
			c-1.139-0.862-5.48-3.329-9.089-0.36C262.051,205.521,265.379,213.945,275.935,218.137z"/>
		<path fill="#75D894" d="M278.985,181.326c-0.342-7.019-2.52-16.285-9.853-14.826c-3.624,0.721-14.94,6.092-13.408,13.79
			c1.344,6.754,4.436,23.416,4.164,31.873c0,0,19.056,0,25.454-8.789C285.341,203.374,279.324,188.345,278.985,181.326z"/>
		<path fill="#FFACAC" d="M261.646,155.197c-0.8-0.315-6.891,0.959-6.792,1.871c0.1,0.915,1.212,2.01,1.055,2.915
			c-0.11,0.627-0.134,1.938,0.493,2.627c2.105,2.312,3.629,4.319,5.24,3.477c0.791,1.714-0.46,4.115-0.243,4.04
			c1.251-0.432,4.583-2.4,5.616-3.238c-1.414-3.895-1.02-7.136-3.902-10.512C262.699,155.897,262.236,155.43,261.646,155.197z"/>
		<path fill="#002E47" d="M262.693,150.451c-0.616-3.096-6.097-1.312-5.556,1.015c-2.755-0.918-5.527,3.08-2.41,6.949
			c0,0,0.176-1.464,1.24-1.201c0.446,2.244,1.716,0.678,2.756,3.144c0.636,1.515,1.465,3.071,3.06,3.73
			c1.369,0.566,4.285-0.873,4.285-0.873c-0.433-2.173,2.872-6.482,1.149-8.54C267.863,151.379,264.892,149.667,262.693,150.451z"/>
		<path fill="#FFFFFF" d="M266.293,165.164c-1.35,0.349-2.511,0.824-5.13,2.889c-0.652,0.515-1.264,1.91-0.989,3.167l8.376-4.632
			l-1.069-1.091C267.172,165.184,266.719,165.055,266.293,165.164z"/>
		<g>
			<path fill="#FFACAC" d="M230.507,189.347c-0.423-0.166-1.658-1.06-1.79-1.73c-0.283-1.436-1.106-3.028-1.541-2.584
				c-0.216,0.22,0.192,1.901,0.124,2.729c-0.058,0.733-0.489,0.268-2.066-0.032c-1.577-0.301-4.322,0.518-5.254,0.84
				c-0.606,0.208,1.425,0.788,3.225,0.409c2.215-0.467-0.661,0.729-0.703,1.314c-0.04,0.585,1.142,2.708,1.318,3.22
				c0.175,0.511,2.852-0.014,3.975-0.163c2.438-0.325,13.8,4.066,18.493,4.659l-1.399-6.826
				C244.89,191.182,233.726,190.614,230.507,189.347z"/>
			<path fill="#75D894" d="M262.609,173.558c-3.401-1.827-6.78,0.769-10.841,6.884c-3.459,5.206-6.502,8.14-7.726,9.518
				c-1.222,1.38,0.708,9.97,3.559,8.838c7.231-2.879,12.276-9.045,15.052-13.412C265.943,180.204,266.439,175.614,262.609,173.558z"
				/>
		</g>
	</g>
</g>
</svg>
