<?xml version="1.0" encoding="utf-8"?>
<!-- Generator: Adobe Illustrator 24.3.0, SVG Export Plug-In . SVG Version: 6.00 Build 0)  -->
<svg version="1.1" id="Layer_1" xmlns="http://www.w3.org/2000/svg" xmlns:xlink="http://www.w3.org/1999/xlink" x="0px" y="0px"
	 viewBox="0 0 350 350" enable-background="new 0 0 350 350" xml:space="preserve">
<g>
	
		<radialGradient id="SVGID_1_" cx="273.3221" cy="177.4052" r="134.562" gradientTransform="matrix(0.5734 -0.7894 0.4525 0.3009 -70.5508 333.7108)" gradientUnits="userSpaceOnUse">
		<stop  offset="0" style="stop-color:#B0BED9"/>
		<stop  offset="0.206" style="stop-color:#C7D1E4"/>
		<stop  offset="0.5296" style="stop-color:#E6EAF3"/>
		<stop  offset="0.8058" style="stop-color:#F8FAFC"/>
		<stop  offset="1" style="stop-color:#FFFFFF"/>
	</radialGradient>
	<path fill="url(#SVGID_1_)" d="M68.938,220.688c-7.104,57.846,30.788,82.642,84.662,55.39
		c53.867-27.31,103.257-96.282,110.361-154.13c7.108-57.876-30.766-82.672-84.637-55.333
		C125.451,93.865,76.036,162.897,68.938,220.688z"/>
	<g id="XMLID_337_">
		<g id="XMLID_489_">
			<path id="XMLID_490_" fill="#FFFFFF" d="M205.736,155.14l-8.078,84.535l0,0c-0.523,3.485-2.399,6.43-7.197,8.883
				c-9.595,4.906-25.153,4.906-34.748,0c-4.798-2.453-6.893-5.527-7.197-8.883l0,0l-8.079-84.535H205.736z"/>
		</g>
		<g id="XMLID_487_">
			<path fill="#00537A" d="M201.28,172.186l-6.195,65.006c-0.569,3.822-2.757,6.594-6.885,8.723
				c-4.067,2.097-9.434,3.252-15.112,3.252c-5.678,0-11.045-1.155-15.112-3.252c-4.247-2.189-6.567-5.16-6.896-8.816l-6.316-64.913
				H201.28z"/>
		</g>
		<g id="XMLID_485_">
			<g id="XMLID_486_">
				<path fill="#002E47" d="M153.014,162.807c-11.086,5.669-11.086,14.859,0,20.527c11.087,5.669,29.061,5.669,40.147,0
					c11.086-5.668,11.086-14.859,0-20.527C182.075,157.139,164.1,157.139,153.014,162.807z"/>
				<path fill="#FFFFFF" d="M173.087,188.566c-7.435,0-14.869-1.447-20.529-4.341c-5.713-2.921-8.86-6.882-8.86-11.154
					s3.146-8.233,8.86-11.154l0,0c11.32-5.788,29.739-5.788,41.058,0c5.713,2.92,8.86,6.882,8.86,11.153s-3.146,8.233-8.86,11.154
					C187.956,187.119,180.522,188.566,173.087,188.566z M153.469,163.697c-5.01,2.562-7.77,5.891-7.77,9.374s2.76,6.811,7.77,9.374
					c10.818,5.53,28.419,5.53,39.237,0c5.01-2.562,7.77-5.891,7.77-9.374s-2.76-6.811-7.77-9.373
					C181.889,158.167,164.287,158.167,153.469,163.697L153.469,163.697z"/>
			</g>
		</g>
		<g id="XMLID_483_">
			<path id="XMLID_484_" fill="#D9D9D9" d="M140.15,149.407c1.418-2.873,4.406-5.598,8.968-7.842
				c13.237-6.511,34.7-6.51,47.937,0.001c4.562,2.244,7.551,4.968,8.968,7.841l4.271,0.067c0,0-0.732,9.454-13.24,15.669
				c-13.211,6.564-34.718,6.548-47.936,0c-10.65-5.275-13.24-15.669-13.24-15.669L140.15,149.407z"/>
		</g>
		<g id="XMLID_481_">
			<path id="XMLID_482_" fill="#FFFFFF" d="M146.664,134.701c-14.593,7.462-14.593,19.559,0,27.021
				c14.593,7.461,38.253,7.461,52.847,0c14.593-7.461,14.593-19.559,0-27.021C184.917,127.24,161.257,127.24,146.664,134.701z"/>
		</g>
		<g id="XMLID_432_">
			<path id="XMLID_445_" fill="#FFB000" d="M150.418,137.123c-12.524,5.993-12.524,15.71,0,21.703
				c12.524,5.993,32.83,5.993,45.354,0c12.524-5.993,12.524-15.71,0-21.703C183.247,131.13,162.942,131.13,150.418,137.123z"/>
		</g>
		<g id="XMLID_339_">
			<g id="XMLID_340_">
				<path id="XMLID_341_" fill="#E2E9E8" d="M140.441,148.009v0.031c0.054,7.095,8.319,10.627,8.675,10.782
					c0.069,0.039,10.348,4.996,24.29,5.003h0.077c3.765,0,8.218-0.163,12.873-1.294c20.371-4.973,19.426-14.166,19.387-14.561
					c-0.031-0.388-2.851-32.733-32.656-32.733C143.284,115.238,140.464,147.583,140.441,148.009z M166.451,121.535
					c0-0.968,0.744-1.859,2.076-2.502c2.564-1.224,6.568-1.224,9.14,0c1.332,0.643,2.068,1.534,2.068,2.502
					c0,0.968-0.728,1.859-2.068,2.502c-1.294,0.612-2.928,0.914-4.57,0.914c-1.642,0-3.284-0.302-4.57-0.914
					C167.186,123.394,166.451,122.503,166.451,121.535z"/>
				<path fill="#C0CCDA" d="M166.451,121.535c0,0.968,0.736,1.859,2.076,2.502c1.286,0.612,2.928,0.914,4.57,0.914
					c1.642,0,3.276-0.302,4.57-0.914c1.34-0.643,2.068-1.534,2.068-2.502c0-0.968-0.736-1.859-2.068-2.502
					c-2.571-1.224-6.576-1.224-9.14,0C167.194,119.676,166.451,120.567,166.451,121.535z"/>
			</g>
		</g>
		<g id="XMLID_338_">
			<path fill="#00537A" d="M147.815,95.703c0,0.473,0.317,0.922,0.844,1.115l13.066,4.826c2.107,0.79,3.672,2.44,4.183,4.415
				l2.928,9.418l0.953,3.083l1.967,6.32c0.441,0.046,0.891,0.07,1.34,0.07c0.503,0,1.007-0.031,1.495-0.085l-2.091-6.738
				l-0.891-2.858l-3.029-9.751c-0.712-2.734-2.873-5.019-5.793-6.111l-13.075-4.826c-0.697-0.263-1.502,0.031-1.789,0.651
				C147.853,95.386,147.815,95.541,147.815,95.703z"/>
		</g>
		<path opacity="0.4" fill="#FFFFFF" d="M184.17,217.289l-3.031-5.126c-1.092-1.848-3.476-2.46-5.324-1.367l-5.126,3.031
			c-1.848,1.093-2.46,3.477-1.367,5.324l3.031,5.125c1.092,1.848,3.476,2.46,5.324,1.367l5.126-3.031
			C184.65,221.52,185.262,219.137,184.17,217.289z"/>
		<path opacity="0.4" fill="#FFFFFF" d="M164.381,198.794L164.381,198.794c-1.747-0.044-3.198,1.336-3.242,3.083l0,0
			c-0.044,1.747,1.337,3.198,3.083,3.242l0,0c1.747,0.044,3.198-1.336,3.242-3.083l0,0
			C167.508,200.29,166.127,198.838,164.381,198.794z"/>
		<path opacity="0.4" fill="#FFFFFF" d="M171.66,233.213l-1.008,0.219c-2.097,0.457-3.427,2.527-2.971,4.625l0.219,1.007
			c0.456,2.098,2.527,3.428,4.625,2.971l1.007-0.219c2.097-0.457,3.427-2.527,2.971-4.625l-0.219-1.007
			C175.828,234.086,173.757,232.756,171.66,233.213z"/>
		<path opacity="0.4" fill="#FFFFFF" d="M179.286,194.999l-1.007,0.219c-2.098,0.457-3.428,2.527-2.971,4.625l0.219,1.007
			c0.457,2.097,2.527,3.427,4.625,2.971l1.007-0.219c2.097-0.456,3.428-2.527,2.971-4.624l-0.22-1.008
			C183.454,195.872,181.383,194.542,179.286,194.999z"/>
	</g>
	<g id="XMLID_5794_">
		<g id="XMLID_7788_">
			<path id="XMLID_1043_" fill="#FFFFFF" d="M192.893,169.15l10.43,109.14l0,0c0.675,4.5,3.097,8.302,9.291,11.469
				c12.388,6.334,32.474,6.334,44.862,0c6.194-3.167,8.898-7.136,9.292-11.469l0,0l10.43-109.14H192.893z"/>
		</g>
		<g id="XMLID_7800_">
			<path fill="#FF8DA6" d="M198.646,191.157l7.999,83.927c0.735,4.934,3.56,8.514,8.889,11.262
				c5.251,2.707,12.18,4.198,19.511,4.198c7.331,0,14.26-1.491,19.511-4.198c5.483-2.827,8.479-6.662,8.903-11.382l8.155-83.807
				H198.646z"/>
		</g>
		<g id="XMLID_335_">
			<g id="XMLID_336_">
				<path fill="#FF2657" d="M260.961,179.049c14.313,7.318,14.313,19.184,0,26.502c-14.313,7.318-37.519,7.318-51.833,0
					c-14.313-7.318-14.313-19.184,0.001-26.501C223.442,171.731,246.648,171.731,260.961,179.049z"/>
				<path fill="#FFFFFF" d="M235.045,212.017c-9.55,0-19.101-1.858-26.372-5.576c-7.274-3.719-11.28-8.741-11.28-14.141
					c0.001-5.4,4.006-10.422,11.28-14.141c14.541-7.434,38.202-7.435,52.743,0l0,0c7.274,3.719,11.28,8.741,11.28,14.141
					s-4.006,10.422-11.28,14.141C254.146,210.159,244.595,212.017,235.045,212.017z M235.046,174.556
					c-9.222,0-18.441,1.794-25.462,5.384c-6.571,3.36-10.19,7.749-10.19,12.36c0,4.611,3.619,9.001,10.19,12.361
					c14.04,7.178,36.883,7.178,50.923,0c6.571-3.36,10.19-7.75,10.19-12.361c0-4.611-3.619-9.001-10.19-12.361
					C253.487,176.351,244.265,174.556,235.046,174.556z"/>
			</g>
		</g>
		<g id="XMLID_7784_">
			<path id="XMLID_1035_" fill="#D9D9D9" d="M276.359,161.749c-1.778-3.71-5.527-7.228-11.25-10.125
				c-16.604-8.405-43.525-8.405-60.129,0.001c-5.722,2.896-9.471,6.414-11.249,10.124l-5.358,0.086c0,0,0.917,12.206,16.607,20.23
				c16.571,8.475,43.548,8.454,60.129,0c13.359-6.811,16.607-20.23,16.607-20.23L276.359,161.749z"/>
		</g>
		<g id="XMLID_7786_">
			<path id="XMLID_1031_" fill="#FFFFFF" d="M268.189,142.762c18.305,9.633,18.305,25.252,0,34.885
				c-18.305,9.633-47.983,9.633-66.288,0c-18.305-9.633-18.305-25.252,0.001-34.885C220.206,133.13,249.884,133.13,268.189,142.762z
				"/>
		</g>
		<g id="XMLID_7785_">
			<path id="XMLID_1027_" fill="#FFB000" d="M264.312,145.889c16.169,7.738,16.169,20.282,0,28.02
				c-16.169,7.737-42.384,7.737-58.553,0c-16.169-7.737-16.169-20.282,0-28.02C221.928,138.152,248.143,138.152,264.312,145.889z"/>
		</g>
		<g id="XMLID_7801_">
			<g id="XMLID_7783_">
				<path id="XMLID_1018_" fill="#E2E9E8" d="M235.043,117.634c-38.48,0-42.12,41.76-42.16,42.26c-0.05,0.51-1.27,12.38,25.03,18.8
					c6.01,1.46,11.76,1.67,16.62,1.67h0.1c18-0.01,31.27-6.41,31.36-6.46c0.461-0.2,11.13-4.76,11.2-13.92v-0.04
					C277.163,159.394,273.523,117.634,235.043,117.634z M240.934,128.994c-1.66,0.79-3.78,1.18-5.9,1.18c-2.12,0-4.23-0.39-5.9-1.18
					c-1.73-0.83-2.67-1.98-2.67-3.23s0.95-2.4,2.67-3.23c3.32-1.58,8.49-1.58,11.8,0c1.72,0.83,2.68,1.98,2.68,3.23
					S242.663,128.164,240.934,128.994z"/>
				<path fill="#C0CCDA" d="M243.613,125.764c0,1.25-0.95,2.4-2.68,3.23c-1.66,0.79-3.78,1.18-5.9,1.18c-2.12,0-4.23-0.39-5.9-1.18
					c-1.73-0.83-2.67-1.98-2.67-3.23s0.95-2.4,2.67-3.23c3.32-1.58,8.49-1.58,11.8,0
					C242.653,123.364,243.613,124.514,243.613,125.764z"/>
			</g>
		</g>
		<g id="XMLID_7816_">
			<path fill="#00537A" d="M267.673,92.414c0,0.61-0.41,1.19-1.09,1.44l-16.87,6.23c-2.72,1.02-4.74,3.15-5.4,5.7l-3.78,12.16
				l-1.23,3.98l-2.54,8.16c-0.57,0.06-1.15,0.09-1.73,0.09c-0.65,0-1.3-0.04-1.93-0.11l2.7-8.7l1.15-3.69l3.91-12.59
				c0.92-3.53,3.71-6.48,7.48-7.89l16.88-6.23c0.9-0.34,1.94,0.04,2.31,0.84C267.623,92.004,267.673,92.204,267.673,92.414z"/>
		</g>
		<path opacity="0.4" fill="#FFFFFF" d="M220.161,250.362l5.064-8.565c1.093-1.848,3.477-2.46,5.324-1.368l8.565,5.064
			c1.848,1.093,2.46,3.477,1.367,5.324l-5.064,8.565c-1.093,1.848-3.476,2.46-5.324,1.367l-8.565-5.064
			C219.681,254.593,219.068,252.21,220.161,250.362z"/>
		<path opacity="0.4" fill="#FFFFFF" d="M246.088,225.515l0.395-0.01c2.146-0.054,3.929,1.642,3.983,3.788l0.01,0.395
			c0.054,2.146-1.642,3.93-3.788,3.983l-0.395,0.01c-2.146,0.054-3.929-1.642-3.983-3.788l-0.01-0.395
			C242.246,227.353,243.942,225.569,246.088,225.515z"/>
		<path opacity="0.4" fill="#FFFFFF" d="M235.783,269.705l3.511,0.765c2.098,0.457,3.428,2.527,2.971,4.625l-0.765,3.512
			c-0.456,2.097-2.527,3.427-4.625,2.971l-3.511-0.765c-2.097-0.457-3.428-2.527-2.971-4.625l0.765-3.512
			C231.615,270.579,233.685,269.249,235.783,269.705z"/>
		<path opacity="0.4" fill="#FFFFFF" d="M225.937,220.369l3.511,0.764c2.098,0.456,3.428,2.527,2.971,4.625l-0.765,3.511
			c-0.457,2.098-2.527,3.428-4.625,2.971l-3.511-0.765c-2.097-0.456-3.428-2.527-2.971-4.624l0.765-3.512
			C221.769,221.242,223.84,219.912,225.937,220.369z"/>
	</g>
	<g>
		<g>
			<path fill="#FFACAC" d="M101.48,217.685c-0.458,1.575-3.067,1.299-2.436,3.267c0.554,1.727,0.855,3.307,0.623,3.458
				c-0.466,0.3-1.654-3.229-2.258-4.651c-0.604-1.423-0.839-2.865-1.456-2.519c-0.698,0.39-1.12,2.616-1.415,2.641
				c-1.408,0.123-0.572-4.021,0.815-4.685c1.482-0.709-6.713-11.542-6.575-15.893l6.103-0.701c0,0,3.061,12.318,4.775,14.579
				C100.317,214.048,102.073,215.649,101.48,217.685z"/>
			<path fill="#FFFFFF" d="M100.497,190.71c-2.89,4.524-4.137,7.933-4.795,9.373c-0.66,1.438-7.315,2.843-7.415,0.21
				c-0.25-6.678,2.774-12.079,5.241-15.774c2.927-4.381,5.667-7.007,8.614-4.715C104.756,181.841,103.889,185.398,100.497,190.71z"
				/>
		</g>
		<g>
			<g>
				<g>
					<path fill="#FFDE91" d="M104.316,277.366c0.499,1.08-0.419,2.814-1.318,3.594c-0.99,0.858-6.931,6-10.787,4.522
						c-0.465-0.179-0.933-0.397-1.267-0.767c-0.578-0.64,0.238-4.131,0.882-4.758C92.667,279.135,103.91,276.479,104.316,277.366z"
						/>
					<path fill="#FF5A77" d="M97.432,276.874c2.729-1.059,6.318-0.943,6.727-0.059c0.497,1.082-1.012,2.92-1.906,3.707
						c-2.57,2.253-7.749,4.659-9.621,4.032c-0.473-0.157-1.354-0.497-1.688-0.867c-0.578-0.64-0.046-2.876,0.642-3.542
						C92.236,279.517,95.994,277.432,97.432,276.874z"/>
				</g>
				<path fill="#FFDE91" d="M96.165,281.654c0.301,0,0.546,0.316,0.546,0.706c0,0.389-0.245,0.706-0.546,0.706
					c-0.299,0-0.544-0.316-0.544-0.706C95.622,281.969,95.867,281.654,96.165,281.654z"/>
				<path fill="#FFDE91" d="M92.422,279.414l1.08,1.426l-0.277,0.512c-0.536,0.772-0.448,3.297-0.448,3.297
					c-1.247-0.093-1.678-0.816-1.678-0.816c-0.321-2.494,0.687-3.452,0.687-3.452L92.422,279.414z"/>
			</g>
			<path fill="#FFACAC" d="M98.608,277.996c0.223,0.493-0.198,1.869-2.585,2.883c-0.85,0.363-1.884,0.624-2.798,0.473
				c0.118-0.375-0.046-0.818-0.379-1.024c-0.338-0.209-0.743-0.125-1.061,0.053c0.184-0.627,0.284-1.281,0.399-1.928
				C92.856,278.569,97.905,276.45,98.608,277.996z"/>
		</g>
		<path fill="#002E47" d="M100.014,247.208c-0.159,6.696-1.845,30.469-1.845,30.469s-2.506,2.33-7.266,0.493
			c0,0-1.281-17.517-1.708-22.248c-0.426-4.73,0.348-8.819,0.742-9.706C91.009,243.818,100.176,240.515,100.014,247.208z"/>
		<path fill="#002E47" d="M91.53,211.519c1.139-0.862,4.647-1.367,8.173,1.7c6.345,5.522,0.238,31.576,0.238,35.974
			c0,4.54-9.143,4.104-10.201-1.979c-0.711-4.086-2.43-18.256-2.651-20.821C86.849,223.592,86.817,215.081,91.53,211.519z"/>
		<g>
			<g>
				<g>
					<path fill="#FFDE91" d="M114.745,282.482c0.5,1.08-0.419,2.814-1.318,3.596c-0.99,0.855-6.931,5.997-10.787,4.52
						c-0.465-0.179-0.931-0.397-1.267-0.767c-0.578-0.639,0.237-4.13,0.882-4.757C103.099,284.25,114.339,281.594,114.745,282.482z"
						/>
					<path fill="#FF5A77" d="M107.861,281.989c2.729-1.058,6.318-0.943,6.727-0.059c0.497,1.083-1.009,2.92-1.906,3.707
						c-2.57,2.256-7.749,4.662-9.621,4.032c-0.473-0.157-1.353-0.497-1.688-0.867c-0.578-0.64-0.046-2.876,0.645-3.543
						C102.665,284.635,106.423,282.548,107.861,281.989z"/>
				</g>
				<path fill="#FFDE91" d="M106.597,286.768c0.299,0,0.544,0.316,0.544,0.706c0,0.39-0.245,0.705-0.544,0.705
					c-0.301,0-0.546-0.315-0.546-0.705C106.051,287.085,106.296,286.768,106.597,286.768z"/>
				<path fill="#FFDE91" d="M102.853,284.53l1.078,1.426l-0.277,0.512c-0.534,0.772-0.448,3.298-0.448,3.298
					c-1.247-0.093-1.678-0.813-1.678-0.813c-0.321-2.497,0.686-3.454,0.686-3.454L102.853,284.53z"/>
			</g>
			<path fill="#FFACAC" d="M109.037,283.111c0.226,0.495-0.198,1.869-2.584,2.883c-0.85,0.363-1.884,0.625-2.798,0.473
				c0.118-0.374-0.047-0.818-0.38-1.024c-0.336-0.206-0.742-0.125-1.061,0.054c0.184-0.627,0.284-1.281,0.399-1.928
				C103.285,283.684,108.334,281.565,109.037,283.111z"/>
		</g>
		<path fill="#00537A" d="M110.171,252.725c-0.159,6.695-1.808,30.04-1.808,30.04s-2.479,3.572-7.237,1.734
			c0,0-1.347-18.33-1.773-23.06c-0.426-4.731-0.152-9.564,0.242-10.449C100.666,248.59,110.333,246.032,110.171,252.725z"/>
		<path fill="#00537A" d="M100.017,217.32c1.139-0.862,5.48-3.33,9.089-0.36c4.873,4.008,0.994,33.353,0.994,37.75
			c0,4.537-9.145,4.104-10.201-1.979c-0.711-4.089-3.405-21.769-3.626-24.332C96.033,225.598,95.303,220.88,100.017,217.32z"/>
		<path fill="#002E47" d="M96.551,230.669c-0.144-1.063-0.242-1.861-0.277-2.27c-0.24-2.8-0.97-7.519,3.743-11.078
			c1.139-0.862,5.48-3.33,9.089-0.36C110.434,218.053,107.106,226.477,96.551,230.669z"/>
		<path fill="#FF5978" d="M93.5,193.858c0.342-7.019,2.52-16.285,9.853-14.826c3.624,0.721,14.94,6.091,13.408,13.79
			c-1.343,6.754-4.435,23.416-4.164,31.873c0,0-19.056,0-25.454-8.789C87.144,215.905,93.161,200.876,93.5,193.858z"/>
		<path fill="#FFACAC" d="M110.84,167.729c0.799-0.315,6.891,0.959,6.791,1.871c-0.099,0.915-1.211,2.01-1.054,2.915
			c0.11,0.627,0.134,1.938-0.493,2.628c-2.106,2.311-3.629,4.318-5.24,3.476c-0.791,1.714,0.46,4.116,0.243,4.04
			c-1.251-0.431-4.584-2.4-5.616-3.238c1.414-3.895,1.02-7.136,3.902-10.511C109.787,168.429,110.249,167.962,110.84,167.729z"/>
		<path fill="#002E47" d="M109.792,162.984c0.616-3.097,6.097-1.313,5.556,1.014c2.755-0.918,5.527,3.081,2.41,6.949
			c0,0-0.176-1.464-1.24-1.201c-0.447,2.244-1.716,0.678-2.756,3.143c-0.636,1.515-1.465,3.071-3.06,3.73
			c-1.37,0.567-4.285-0.872-4.285-0.872c0.432-2.174-2.872-6.482-1.149-8.54C104.622,163.911,107.593,162.199,109.792,162.984z"/>
		<path fill="#FFFFFF" d="M106.192,177.696c1.35,0.348,2.511,0.824,5.13,2.889c0.652,0.514,1.264,1.91,0.989,3.167l-8.375-4.631
			l1.068-1.091C105.314,177.716,105.767,177.586,106.192,177.696z"/>
		<g>
			<path fill="#FFACAC" d="M144.209,201.206c0.474-0.186,1.857-1.188,2.005-1.939c0.317-1.608,1.239-3.393,1.727-2.895
				c0.242,0.247-0.215,2.13-0.139,3.057c0.065,0.821,0.548,0.301,2.315-0.037c1.767-0.337,4.842,0.581,5.886,0.941
				c0.679,0.233-1.597,0.883-3.613,0.458c-2.481-0.524,0.74,0.815,0.787,1.472c0.045,0.655-1.279,3.033-1.477,3.607
				c-0.195,0.572-3.195-0.015-4.453-0.183c-2.731-0.364-15.46,4.555-20.718,5.22l1.567-7.648
				C128.097,203.261,140.603,202.626,144.209,201.206z"/>
			<path fill="#FFFFFF" d="M109.877,186.089c3.401-1.827,6.78,0.769,10.841,6.884c3.459,5.206,6.502,8.141,7.726,9.518
				c1.222,1.38-0.707,9.97-3.558,8.837c-7.231-2.879-12.277-9.044-15.052-13.411C106.543,192.736,106.046,188.146,109.877,186.089z"
				/>
		</g>
	</g>
</g>
</svg>
