<?xml version="1.0" encoding="utf-8"?>
<!-- Generator: Adobe Illustrator 24.3.0, SVG Export Plug-In . SVG Version: 6.00 Build 0)  -->
<svg version="1.1" id="Layer_1" xmlns="http://www.w3.org/2000/svg" xmlns:xlink="http://www.w3.org/1999/xlink" x="0px" y="0px"
	 viewBox="0 0 350 350" enable-background="new 0 0 350 350" xml:space="preserve">
<g>
	
		<radialGradient id="SVGID_1_" cx="245.0843" cy="180.5263" r="134.5619" gradientTransform="matrix(0.5734 -0.7894 0.4525 0.3009 -82.5986 312.5289)" gradientUnits="userSpaceOnUse">
		<stop  offset="0" style="stop-color:#B0BED9"/>
		<stop  offset="0.206" style="stop-color:#C7D1E4"/>
		<stop  offset="0.5296" style="stop-color:#E6EAF3"/>
		<stop  offset="0.8058" style="stop-color:#F8FAFC"/>
		<stop  offset="1" style="stop-color:#FFFFFF"/>
	</radialGradient>
	<path fill="url(#SVGID_1_)" d="M42.111,222.737c-7.104,57.846,30.787,82.642,84.662,55.39
		c53.866-27.31,103.256-96.282,110.36-154.13c7.108-57.876-30.767-82.672-84.637-55.333
		C98.622,95.914,49.207,164.946,42.111,222.737z"/>
	<g>
		<g>
			<path fill="#FFACAC" d="M193.767,126.536c0.538-0.051,1.626-0.058,1.785-0.778c0.202-0.912-1.381-0.157-2.793-0.624
				c-0.424-0.14-2.105-0.006-2.75,0.319c-0.646,0.324-2.574,0.107-2.869,0.088c-0.295-0.018-0.712,3.495-0.712,3.495
				s2.971,0.386,3.626,0.699c0.656,0.314,3.066,1.507,4.553,1.677c1.697,0.194,1.873-1.431,3.385-1.593
				c0.211-0.023,0.807-0.006,0.672-0.516c-0.136-0.511-4.82-1.583-5.422-2.473C193.025,126.507,193.557,126.555,193.767,126.536z"/>
			<path fill="#5A5C71" d="M169.244,116.65c-6.134-4.613-13.867-10.231-14.883-10.878c-4.833-3.081-5.754-0.704-6.555,2.022
				c-1.357,4.62,2.23,8.304,10.221,12.979c7.988,4.676,10.725,4.508,12.763,3.866C172.827,123.998,175.377,121.262,169.244,116.65z"
				/>
			<path fill="#5A5C71" d="M169.244,116.65c-4.209-2.294-11.25,3.073-4.896,7.313c6.355,4.241,21.839,6.424,21.839,6.424
				c3.461-3.159,1.077-6.283,1.077-6.283S177.505,121.155,169.244,116.65z"/>
		</g>
		<path fill="#002E47" d="M159.75,197.479c-0.784-0.308-0.721-2.219-0.721-2.219l-5.855-0.949c0,0,0.083,4.987,0.151,5.85
			c0.061,0.756,0.491,2.549,2.622,2.138c2.631-0.507,5.003-0.084,5.8,0.162c0.798,0.246,2.454,0.459,4.387,0.085
			c1.878-0.362,3.131-1.25,1.574-2.592S161.626,198.216,159.75,197.479z"/>
		<path fill="#00537A" d="M148.078,168.21c-0.003,1.577,1.76,16.041,3.91,28.048c0.629,3.512,8.124,0.667,8.171-0.913
			c0.087-2.987-1.768-23.763-2.843-29.761C156.64,161.809,148.087,163.402,148.078,168.21z"/>
		<path fill="#002E47" d="M138.358,204.535c0.037-0.319-0.137-1.018-0.137-1.018l-5.105-0.989c0,0-0.438,0.828-0.572,1.889
			c-0.132,1.061-0.332,3.359-0.403,4.032c-0.073,0.672-0.116,2.316,1.266,3.878c1.383,1.561,2.1,2.176,3.966,1.54
			c1.865-0.636,1.852-3.274,1.538-4.627C138.594,207.886,138.321,204.853,138.358,204.535z"/>
		<path fill="#00537A" d="M132.806,173.641c-0.28,1.546-1.093,16.114-1.093,28.347c0,3.579,7.856,2.361,8.18,0.818
			c0.61-2.912,2.441-23.69,2.441-29.802C142.334,169.157,133.661,168.925,132.806,173.641z"/>
		<path fill="#00537A" d="M143.392,145.84c-0.087,2.987,1.104,7.197,1.768,10.027c0.664,2.83,2.319,12.591,3.19,15.388
			c1.136,3.642,9.442,2.405,9.452-2.404c0.002-1.576,0.42-20.872-1.73-32.878C155.443,132.462,143.439,144.259,143.392,145.84z"/>
		<path fill="#00537A" d="M131.713,149.049c-1.056,3.978,0.46,24.71,0.825,27.639c0.474,3.811,8.844,4.341,9.697-0.376
			c0.28-1.545,3.417-20.465,3.417-32.699C145.653,140.034,132.118,147.526,131.713,149.049z"/>
		<path fill="#5A5C71" d="M146.476,103.96l-7.247-1.907c0,0-1.377,0.182-1.736,0.554c-0.618,0.641-1.039,1.519-1.305,2.236
			c-0.331,0.891-0.857,1.689-1.56,2.304c0,0-4.754,3.807-5.931,5.23c-4.474,5.409,1.689,33.332,1.689,45.84
			c0,0,11.218-0.217,17.296-1.855l1.241-4.704l1.887,3.221c2.107-0.63,7.083-4.421,7.299-4.709
			c0.215-0.288-2.016-41.807-6.489-45.436C150.599,103.908,146.476,103.96,146.476,103.96z"/>
		<path fill="#002E47" d="M129.745,126.057c1.136-2.659,3.018-6.706,5.5-7.672c-0.277,0.854-5.866,24.269-5.866,24.269
			S126.533,133.573,129.745,126.057z"/>
		<path fill="#002E47" d="M148.156,106.546c-0.266-0.718-0.708-1.362-1.31-1.837c-0.617-0.486-1.446-0.922-2.269-0.682
			c0,0,1.9,0.704,1.592,3.497c-0.127,1.1,0.045,2.914-0.118,4.962c-0.188,2.348,1.07,9.779,1.07,9.779l3.211-9.15l-1.556-1.538
			l1.697-1.196L148.156,106.546z"/>
		<path fill="#FFFFFF" d="M137.913,102.061c-0.864,0.676-1.56,2.209,0.545,4.863c1.02,1.285,2.054,3.345,2.994,5
			c0.685,1.205,4.965,7.201,5.518,8.901c0,0,0.056-1.548,0.122-4.059c0.017-0.567,0.001-7.707-0.469-9.434
			C145.506,103.218,140.607,99.964,137.913,102.061z"/>
		<path fill="#FFACAC" d="M138.799,99.841c0,0-0.098,1.202-0.85,3.276c-0.107,0.297-0.061,0.63,0.138,0.877
			c0.783,0.97,2.918,3.337,5.113,3.337c0,0,1.601-1.257,1.601-2.742C144.801,103.105,138.799,99.841,138.799,99.841z"/>
		<path fill="#FFACAC" d="M142.408,88.553c-6.931,0.188-5.012,7.868-5.012,7.868s-0.514,0.229-0.238,1.217
			c0.276,0.989,0.343,1.092,0.484,1.582c0.141,0.491,0.489,1.4,1.186,1.257c0,0,1.047,2.667,5.574,4.209
			c0.788,0.27,1.831-0.018,2.045-0.815c0.216-0.797,1.729-3.115,1.783-4.906c0.041-1.355-0.471-1.251-0.121-2.013
			C148.46,96.188,149.339,88.364,142.408,88.553z"/>
		<path fill="#002E47" d="M142.747,88.037c-4.719-0.205-8.061,3.809-5.725,9.048c0.852-1.284,1.815,0.231,1.957,0.735
			c0.077,0.277,0.336,1.442,0.767,1.442c0.311,0,0.408-1.129,0.408-1.129c0-3.217-0.789-3.592,0.811-4.358
			c1.363-0.653,4.378,1.785,7.053,1.787C150.412,95.564,149.23,88.319,142.747,88.037z"/>
		<path fill="#4B6DFF" d="M145.984,109.161l-1.801-0.364l-1.174,1.467c0,0,0.342,0.766,1.274,1.783
			c-0.238,0.439-0.403,1.469-0.247,3.355c0.549,1.156,3.085,6.866,3.085,6.866l0.035-7.533c-0.27-1.774-0.512-2.195-1.18-3.141
			L145.984,109.161z"/>
		<path fill="#002E47" d="M138.554,106.654c-2.119-2.641-0.646-4.591-0.646-4.591c-0.989,0.288-1.55,1.27-1.862,2.166
			c-0.304,0.873-0.336,1.817-0.141,2.72l1.22,5.668l1.404-0.144l-0.402,1.496l8.994,8.309c0,0-3.529-8.38-5.237-10.648
			C140.394,109.65,139.395,107.692,138.554,106.654z"/>
		<path fill="#002E47" d="M138.647,97.501c-0.3-0.46-0.98-0.434-1.237,0.052l-0.006,0.01c-0.288,0.544-0.213,1.217,0.207,1.667
			c1.271,1.357,2.892,1.919,3.581,2.107c0.197,0.054,0.404-0.027,0.518-0.196c0.145-0.219,0.086-0.519-0.137-0.659
			C140.214,99.642,139.231,98.395,138.647,97.501z"/>
		<g>
			<path fill="#4B6DFF" d="M137.252,96.468c-0.364,0.361-0.485,1.059,0.001,1.641c0.04,0.048,0.111,0.053,0.158,0.013
				c0.048-0.039,0.055-0.11,0.015-0.157c-0.403-0.48-0.31-1.047-0.016-1.339c0.233-0.231,0.651-0.334,1.131,0.074
				c1.164,0.991,0.802,2.576,0.798,2.591c-0.015,0.06,0.023,0.121,0.083,0.134c0.008,0.002,0.018,0.004,0.025,0.004
				c0.051,0,0.098-0.035,0.109-0.085c0.016-0.072,0.395-1.735-0.872-2.814C138.091,96.024,137.543,96.181,137.252,96.468z"/>
		</g>
		<path fill="#FFACAC" d="M122.16,151.206c0,0,3.486-0.602,3.552-0.315c0.067,0.288,0.409,2.199,0.906,2.725
			c0.495,0.525,1.104,2.099,1.09,2.544c-0.044,1.486,1.132,2.789,0.199,2.856c-0.734,0.053-1.053-0.989-1.254-1.49
			c-0.079-0.195-0.186-0.719-0.433-0.418c-0.682,0.829-0.372,5.626-0.823,5.901c-0.45,0.275-0.604-0.301-0.686-0.497
			c-0.587-1.402-2.194-1.107-2.493-2.788c-0.262-1.473,0.193-4.124,0.307-4.842C122.637,154.163,122.16,151.206,122.16,151.206z"/>
		<path fill="#5A5C71" d="M131.259,110.471c2.214-0.81,6.096,2.28,4.523,7.791c-0.33,1.157-4.252,8.014-6.92,15.211
			c-2.668,7.195-6.019,5.532-7.216,3.763c-1.196-1.77-0.482-3.807,1.718-12.799C125.564,115.445,127.836,111.723,131.259,110.471z"
			/>
		<path fill="#5A5C71" d="M128.411,134.784c-1.751,8.23-1.489,17.547-1.489,17.547s-2.069,2.841-5.658,0.681
			c0,0-1.819-13.421,0.192-19.948C123.466,126.537,129.302,130.592,128.411,134.784z"/>
	</g>
	<g>
		<g>
			<g>
				<path fill="#6A8AFF" d="M294.144,197.719c-2.294-1.324-2.773-4.437-0.984-6.389c3.669-4.004,5.348-6.908,5.348-9.954
					c0-4.351-4.093-6.133-12.521-11.846c-5.693-3.861-19.15-11.011-24.731-7.631c-3.556,2.153-7.193,5.352-9.443,7.47
					c-1.354,1.276-3.387,1.49-4.98,0.528l-0.512-0.309c-2.499-1.508-2.698-5.054-0.387-6.836c2.539-1.957,5.661-4.319,8.239-6.158
					c15.852-11.307,44.235,11.256,46.227,12.924c5.983,5.011,6.345,7.738,6.345,12.246c0,6.573-1.353,9.097-7.593,15.297
					C297.821,198.381,295.765,198.655,294.144,197.719L294.144,197.719z"/>
			</g>
			<ellipse fill="#00537A" cx="209.564" cy="210.683" rx="99.181" ry="52.756"/>
			<path fill="#002E47" d="M295.598,232.114c0,25.274-38.519,45.763-86.034,45.763c-47.515,0-86.033-20.489-86.033-45.763
				c0-25.275,38.519-45.764,86.033-45.764C257.079,186.35,295.598,206.839,295.598,232.114z"/>
			<g>
				<g>
					<path fill="#C48971" d="M142.441,241.206V254.5c0,0.021,0,0.047,0.006,0.068c0.02,2.022,1.29,3.971,4.169,5.864
						c0,0,23.109,16.152,83.922-1.125c30.292-8.607,40.595-21.669,40.253-33.47v-13.15l-1.93,5.008
						c-3.754-8.369-12.485-15.182-21.943-17.847c-24.682-6.959-54.305-4.854-65.748,9.017
						c-11.444,13.871-17.277,25.538-27.372,32.718c-1.908,1.359-3.656,2.676-5.181,3.962L142.441,241.206z"/>
					<g>
						<path fill="#FF2657" d="M142.441,241.206V254.5c0,0.021,0,0.047,0.006,0.068c0.02,2.022,1.29,3.971,4.169,5.864
							c0,0,23.109,16.152,83.922-1.125c30.292-8.607,40.595-21.669,40.253-33.47v-13.15l-1.93,5.008
							c-3.754-8.369-12.485-15.182-21.943-17.847c-24.682-6.959-54.305-4.854-65.748,9.017
							c-11.444,13.871-17.277,25.538-27.372,32.718c-1.908,1.359-3.656,2.676-5.181,3.962L142.441,241.206z"/>
						<path fill="#FFFFFF" d="M180.276,267.729c-23.68,0-33.795-6.781-33.946-6.887c-2.917-1.917-4.354-3.966-4.383-6.253
							c-0.004-0.035-0.006-0.068-0.006-0.088v-13.294c0-0.186,0.104-0.357,0.27-0.444c0.164-0.085,0.365-0.073,0.518,0.035
							l5.862,4.119c1.351-1.121,2.963-2.348,4.917-3.739c6.512-4.632,11.336-11.294,16.922-19.007
							c2.98-4.115,6.357-8.778,10.354-13.623c12.113-14.683,43.185-15.689,66.27-9.18c9.404,2.65,17.813,9.278,21.759,17.065
							l1.512-3.925c0.086-0.225,0.317-0.357,0.559-0.312c0.236,0.044,0.408,0.251,0.408,0.492v13.15
							c0.24,8.292-4.717,23.75-40.616,33.951C209.6,265.775,192.983,267.729,180.276,267.729z M142.941,242.168V254.5
							c0.024,1.999,1.315,3.782,3.949,5.514c0.241,0.169,23.696,15.805,83.511-1.188c35.248-10.016,40.122-24.959,39.89-32.975
							v-10.476l-0.963,2.499c-0.073,0.189-0.252,0.314-0.453,0.32c-0.204,0.006-0.387-0.111-0.47-0.295
							c-3.58-7.981-12.067-14.878-21.623-17.57c-22.778-6.424-53.383-5.503-65.227,8.854c-3.977,4.82-7.345,9.47-10.315,13.572
							c-5.639,7.785-10.508,14.508-17.152,19.235c-2.076,1.479-3.761,2.766-5.148,3.937c-0.174,0.146-0.425,0.156-0.609,0.027
							L142.941,242.168z"/>
					</g>
					<path fill="#FF8DA6" d="M146.616,247.069c0,0,23.111,16.155,83.92-1.123c60.81-17.277,41.063-52.506,16.38-59.462
						c-24.682-6.956-54.301-4.852-65.745,9.018c-11.443,13.87-17.277,25.538-27.375,32.718
						C143.698,235.401,138.088,241.459,146.616,247.069z"/>
					<path fill="#FF5978" d="M180.087,250.526c-22.029-0.001-31.453-6.198-31.545-6.261c-1.035-0.681-2.679-1.934-2.699-3.096
						c-0.037-2.043,3.302-5.467,9.924-10.175c7.037-5.004,12.037-11.909,17.827-19.903c3.089-4.266,6.284-8.676,10.2-13.423
						c6.107-7.4,18.979-11.645,35.315-11.645c8.914,0,18.211,1.292,26.885,3.737c10.511,2.962,21.391,12.474,21.402,23.263
						c0.013,12.194-13.408,22.726-37.79,29.653c-18.335,5.21-34.995,7.852-49.515,7.852
						C180.089,250.526,180.089,250.526,180.087,250.526z"/>
				</g>
				<path fill="#FF2657" d="M215.818,190.677c4.446-0.194,8.918,0.444,13.252,1.571c4.339,1.129,8.55,2.865,12.418,5.22
					c3.853,2.364,7.359,5.38,10.087,8.999c2.79,3.567,4.702,7.762,5.736,12.069c-1.93-3.996-4.194-7.748-7.102-10.945
					c-1.432-1.61-2.979-3.112-4.652-4.461c-1.644-1.382-3.403-2.628-5.252-3.73c-3.656-2.277-7.642-4.029-11.746-5.465
					C224.438,192.526,220.189,191.419,215.818,190.677z"/>
				<path fill="#FF2657" d="M201.405,197.849c4.446-0.193,8.919,0.444,13.252,1.572c4.339,1.129,8.55,2.864,12.418,5.22
					c3.853,2.364,7.36,5.38,10.088,9c2.789,3.567,4.701,7.762,5.735,12.069c-1.93-3.996-4.193-7.748-7.102-10.944
					c-1.433-1.61-2.979-3.113-4.652-4.461c-1.644-1.382-3.404-2.628-5.253-3.73c-3.656-2.278-7.641-4.029-11.746-5.465
					C210.025,199.698,205.776,198.592,201.405,197.849z"/>
				<path fill="#FF2657" d="M187.563,207.519c4.446-0.194,8.918,0.444,13.252,1.571c4.339,1.129,8.55,2.864,12.418,5.22
					c3.853,2.364,7.36,5.38,10.087,8.999c2.79,3.567,4.702,7.762,5.736,12.069c-1.93-3.996-4.193-7.747-7.103-10.944
					c-1.432-1.61-2.979-3.113-4.651-4.461c-1.645-1.382-3.404-2.628-5.253-3.73c-3.656-2.278-7.642-4.029-11.747-5.465
					C196.183,209.368,191.934,208.262,187.563,207.519z"/>
				<path fill="#FF2657" d="M244.31,230.531c1.044-3.391,1.82-6.798,2.354-10.221c0.504-3.422,0.768-6.865,0.546-10.273
					c-0.071-1.706-0.277-3.402-0.618-5.069c-0.3-1.677-0.764-3.321-1.33-4.934c-1.107-3.246-2.832-6.266-4.84-9.197
					c2.706,2.29,4.987,5.21,6.479,8.527c1.555,3.292,2.363,6.924,2.573,10.547c0.188,3.632-0.196,7.266-1.082,10.749
					C247.509,224.136,246.214,227.518,244.31,230.531z"/>
				<path fill="#FF2657" d="M225.673,238.531c1.417-4.201,2.457-8.467,3.168-12.763c0.68-4.296,1.025-8.635,0.752-12.934
					c-0.095-2.15-0.357-4.29-0.795-6.393c-0.395-2.113-0.985-4.187-1.725-6.211c-1.438-4.076-3.668-7.847-6.272-11.44
					c3.302,2.952,6.09,6.623,7.91,10.77c1.895,4.117,2.889,8.635,3.145,13.148c0.241,4.522-0.226,9.052-1.288,13.409
					C229.508,230.467,227.952,234.707,225.673,238.531z"/>
				<path fill="#FF2657" d="M207.043,243.407c1.417-4.202,2.456-8.467,3.167-12.763c0.681-4.296,1.027-8.635,0.753-12.934
					c-0.095-2.15-0.357-4.291-0.796-6.394c-0.395-2.112-0.984-4.186-1.724-6.21c-1.438-4.076-3.669-7.847-6.272-11.44
					c3.302,2.951,6.09,6.623,7.91,10.77c1.895,4.117,2.889,8.635,3.146,13.147c0.241,4.522-0.227,9.053-1.288,13.409
					C210.878,235.343,209.322,239.583,207.043,243.407z"/>
				<path fill="#FF2657" d="M191.193,242.679c0.945-3.177,1.653-6.358,2.139-9.551c0.458-3.192,0.7-6.4,0.492-9.573
					c-0.065-1.588-0.257-3.167-0.572-4.72c-0.274-1.562-0.705-3.093-1.226-4.599c-1.021-3.027-2.612-5.849-4.463-8.606
					c2.549,2.117,4.696,4.838,6.102,7.936c1.464,3.075,2.225,6.474,2.422,9.862c0.176,3.397-0.188,6.795-1.027,10.048
					C194.225,236.724,192.998,239.879,191.193,242.679z"/>
				<path fill="#FF2657" d="M169.839,245.863c1.036-4.535,1.73-8.956,1.485-13.334c-0.079-2.191-0.523-4.327-1.169-6.42
					c-0.178-0.519-0.369-1.035-0.537-1.568l-0.703-1.514c-0.115-0.257-0.215-0.527-0.346-0.777l-0.432-0.731
					c-0.285-0.493-0.561-1.004-0.834-1.532c0.449,0.365,0.895,0.747,1.331,1.147c0.224,0.195,0.434,0.403,0.651,0.608
					c0.202,0.215,0.376,0.455,0.566,0.683l1.084,1.43c0.299,0.516,0.569,1.052,0.856,1.583c1.033,2.163,1.718,4.554,1.795,6.962
					c0.125,2.405-0.167,4.806-0.795,7.087C172.157,241.763,171.228,243.964,169.839,245.863z"/>
				<path fill="#FF2657" d="M171.761,215.844c4.446-0.194,8.918,0.444,13.251,1.572c4.34,1.129,8.55,2.864,12.418,5.219
					c3.853,2.364,7.36,5.381,10.088,8.999c2.789,3.568,4.701,7.762,5.735,12.069c-1.93-3.996-4.193-7.748-7.101-10.944
					c-1.433-1.61-2.979-3.113-4.652-4.461c-1.644-1.382-3.404-2.628-5.253-3.73c-3.656-2.278-7.641-4.029-11.746-5.465
					C180.38,217.693,176.131,216.587,171.761,215.844z"/>
				<path fill="#FF2657" d="M163.011,228.924c2.895-0.287,5.83,0.051,8.677,0.73c2.855,0.681,5.61,1.823,8.163,3.344
					c2.56,1.515,4.79,3.604,6.56,5.98c0.419,0.616,0.849,1.22,1.248,1.839l0.96,1.999c0.146,0.338,0.313,0.663,0.439,1.006
					l0.309,1.058c0.201,0.704,0.381,1.408,0.544,2.107c-0.39-0.621-0.765-1.236-1.118-1.852l-0.521-0.921
					c-0.189-0.297-0.42-0.572-0.626-0.857l-1.215-1.703l-1.387-1.55c-0.433-0.537-0.961-0.984-1.462-1.454
					c-0.519-0.452-0.969-0.973-1.548-1.353l-1.626-1.262l-1.741-1.105c-2.342-1.444-4.871-2.601-7.49-3.589
					C168.543,230.38,165.83,229.574,163.011,228.924z"/>
			</g>
			<path fill="#00537A" d="M308.74,210.68l-3.396,31.195c-2.071,28.133-42.37,50.585-95.778,50.585
				c-53.409,0-93.719-22.452-95.79-50.585l-3.317-29.154c2.019,28.201,45.619,50.722,99.108,50.722
				C264.334,263.443,308.74,239.822,308.74,210.68z"/>
			<g>
				<path fill="#6A8AFF" d="M150.55,285.15c-8.519,0-14.099-2.764-24.451-8.969c-10.912-6.541-18.626-11.61-18.626-18.721
					c0-7.985,9.452-13.369,13.434-15.283c1.049-0.504,2.279-0.417,3.253,0.22l0,0c2.095,1.374,1.977,4.496-0.226,5.689
					c-4.526,2.449-8.275,5.252-8.208,8.514c0.088,4.168,6.23,7.784,14.271,13.076c16.865,11.099,25.46,9.884,38.492,0.452
					c1.267-0.916,2.971-0.963,4.282-0.113l0,0c2.227,1.444,2.313,4.674,0.174,6.245C164.564,282.415,158.952,285.148,150.55,285.15z
					"/>
			</g>
			<g>
				<path fill="#6A8AFF" d="M209.564,157.927c-54.775,0-99.181,23.62-99.181,52.756c0,29.137,44.405,52.756,99.181,52.756
					s99.182-23.62,99.182-52.756C308.745,181.546,264.339,157.927,209.564,157.927z M278.098,244.984
					c-18.25,9.707-42.589,15.054-68.534,15.054s-50.283-5.347-68.533-15.054c-17.57-9.345-27.246-21.527-27.246-34.301
					c0-12.774,9.676-24.956,27.246-34.301c18.25-9.707,42.588-15.054,68.533-15.054s50.284,5.347,68.534,15.054
					c17.569,9.345,27.245,21.527,27.245,34.301C305.343,223.456,295.667,235.639,278.098,244.984z"/>
			</g>
			<g opacity="0.5">
				<path fill="#FFFFFF" d="M188.168,200.26c-3.809,4.616-6.947,8.949-9.984,13.145c-4.29,5.923-4.627,14.689-1.062,12.702
					c4.841-2.696,8.849-6.398,13.992-8.593c3.549-1.515,25.429-6.112,25.531-9.995C216.842,200.174,190.926,196.917,188.168,200.26z
					"/>
			</g>
			<g opacity="0.5">
				<path fill="#FFFFFF" d="M244.454,194.202c-8.18-2.306-16.944-3.525-25.346-3.525c-3.492,0-11.554,0.524-11.935,3.631
					c-0.699,5.71,15.263,2.171,19.442,12.015C230.454,215.363,249.351,195.581,244.454,194.202z"/>
			</g>
		</g>
	</g>
</g>
</svg>
