<?xml version="1.0" encoding="utf-8"?>
<!-- Generator: Adobe Illustrator 24.3.0, SVG Export Plug-In . SVG Version: 6.00 Build 0)  -->
<svg version="1.1" id="Layer_1" xmlns="http://www.w3.org/2000/svg" xmlns:xlink="http://www.w3.org/1999/xlink" x="0px" y="0px"
	 viewBox="0 0 350 350" enable-background="new 0 0 350 350" xml:space="preserve">
<g>
	
		<radialGradient id="SVGID_1_" cx="246.1019" cy="166.6331" r="132.3495" gradientTransform="matrix(0.5734 -0.7894 0.4525 0.3009 -74.3497 304.5757)" gradientUnits="userSpaceOnUse">
		<stop  offset="0" style="stop-color:#B0BED9"/>
		<stop  offset="0.206" style="stop-color:#C7D1E4"/>
		<stop  offset="0.5296" style="stop-color:#E6EAF3"/>
		<stop  offset="0.8058" style="stop-color:#F8FAFC"/>
		<stop  offset="1" style="stop-color:#FFFFFF"/>
	</radialGradient>
	<path fill="url(#SVGID_1_)" d="M46.26,208.988c-6.987,56.895,30.282,81.284,83.271,54.479
		c52.98-26.861,101.559-94.699,108.546-151.596c6.991-56.925-30.261-81.312-83.245-54.423
		C101.843,84.251,53.241,152.148,46.26,208.988z"/>
	<g>
		<g>
			<g>
				<polygon fill="#FFA044" points="105.364,166.941 242.741,246.865 303.136,206.551 171.489,126.741 				"/>
				<path fill="#FFFFFF" d="M242.741,247.865c-0.174,0-0.347-0.045-0.503-0.136l-137.377-79.924
					c-0.305-0.177-0.493-0.502-0.497-0.854c-0.003-0.353,0.18-0.681,0.48-0.864l66.125-40.2c0.318-0.194,0.72-0.194,1.038-0.001
					l131.646,79.81c0.292,0.177,0.474,0.491,0.481,0.833c0.007,0.342-0.16,0.664-0.444,0.854l-60.395,40.314
					C243.129,247.809,242.936,247.865,242.741,247.865z M107.32,166.922l135.385,78.765l58.568-39.095L171.49,127.911
					L107.32,166.922z"/>
			</g>
		</g>
		<g>
			<g>
				<polygon fill="#FFB642" points="171.585,160.359 242.741,246.865 303.136,206.551 171.585,126.797 				"/>
				<path fill="#FFFFFF" d="M242.742,247.865c-0.29,0-0.577-0.126-0.773-0.365l-71.156-86.505c-0.147-0.179-0.228-0.403-0.228-0.635
					v-33.562c0-0.361,0.194-0.694,0.51-0.871c0.314-0.178,0.699-0.172,1.009,0.016l131.551,79.754
					c0.292,0.177,0.474,0.491,0.481,0.833c0.007,0.342-0.16,0.664-0.444,0.854l-60.395,40.314
					C243.127,247.81,242.934,247.865,242.742,247.865z M172.585,160.001l70.354,85.53l58.335-38.939l-128.689-78.019V160.001z"/>
			</g>
		</g>
		<g>
			<g>
				<polygon fill="#FFA044" points="132.288,182.457 243.206,246.865 278.982,222.895 171.427,158.057 				"/>
				<path fill="#FFFFFF" d="M243.206,247.865c-0.173,0-0.347-0.045-0.502-0.135l-110.918-64.408
					c-0.304-0.176-0.492-0.499-0.498-0.849c-0.006-0.351,0.173-0.679,0.471-0.864l39.139-24.4c0.319-0.2,0.723-0.202,1.046-0.008
					l107.556,64.838c0.293,0.177,0.475,0.491,0.483,0.833c0.008,0.342-0.159,0.665-0.443,0.854l-35.776,23.97
					C243.595,247.808,243.4,247.865,243.206,247.865z M134.228,182.426l108.94,63.26l33.951-22.748L171.436,159.23L134.228,182.426z
					"/>
			</g>
		</g>
		<g>
			<g>
				<path fill="#002E47" d="M149.977,151.953v21.008h0.01c-0.084,1.323,0.573,2.591,1.989,3.599
					c0.176,0.121,14.85,8.559,14.868,8.559c2.748,1.249,6.634,1.416,10.132,0.555c0.462-0.102,0.906-0.231,1.351-0.379
					c0.953-0.305,13.897-7.661,13.897-7.661c0.842-0.481,1.545-1.018,2.091-1.582c0.962-0.981,1.49-2.045,1.545-3.09h0.01v-21.008
					H149.977z"/>
				<path fill="#00537A" d="M166.073,164.068l-13.522-7.807c-3.815-2.203-3.333-6.086,1.073-8.63l11.205-6.469
					c4.405-2.544,11.132-2.822,14.947-0.62l13.522,7.807c3.815,2.203,3.332,6.086-1.073,8.63l-11.205,6.469
					C176.614,165.993,169.889,166.272,166.073,164.068z"/>
				<path fill="#E2E9E8" d="M172.56,163.552c-2.177,0-4.125-0.432-5.485-1.217l-13.523-7.807c-0.588-0.34-1.572-1.052-1.572-2.011
					c0-1.001,1.014-2.208,2.645-3.15l11.205-6.47c2.022-1.168,4.74-1.837,7.458-1.837c2.178,0,4.127,0.433,5.486,1.217l13.523,7.808
					c0.588,0.34,1.573,1.051,1.573,2.011c0,1.001-1.014,2.208-2.645,3.15l-11.206,6.469
					C177.996,162.882,175.277,163.552,172.56,163.552z"/>
				<path fill="#FF5978" d="M172.714,159.353c-1.353,0-2.575-0.275-3.444-0.776l-7.77-4.487c-0.771-0.446-1.196-1.037-1.196-1.664
					c0-0.796,0.678-1.663,1.812-2.318l6.439-3.717c1.247-0.721,2.917-1.134,4.579-1.134c1.352,0,2.574,0.276,3.445,0.778
					l7.771,4.486c0.771,0.446,1.196,1.038,1.196,1.663c0,0.795-0.679,1.662-1.813,2.318l-6.438,3.717
					C176.046,158.941,174.377,159.353,172.714,159.353z"/>
				<path fill="#FF8DA6" d="M172.715,158.767c-1.251,0-2.37-0.249-3.151-0.699l-7.771-4.486c-0.337-0.195-0.903-0.604-0.903-1.156
					c0-0.575,0.583-1.269,1.52-1.81l6.439-3.717c1.161-0.671,2.724-1.056,4.285-1.056c1.251,0,2.371,0.249,3.152,0.7l7.77,4.486
					c0.338,0.195,0.903,0.604,0.903,1.156c0,0.575-0.583,1.269-1.52,1.81l-6.438,3.717
					C175.839,158.382,174.276,158.767,172.715,158.767z"/>
			</g>
			<g>
				<path fill="#FF5978" d="M166.489,151.366c-0.088,1.29-0.895,1.906-1.613,2.463c-0.366,0.278-0.718,0.557-1.025,0.938
					l-1.275-0.748c0.439-0.601,0.953-0.997,1.407-1.349c0.675-0.528,0.997-0.807,1.041-1.408c0.044-0.586-0.425-1.1-1.1-1.51
					l1.393-0.821C166.05,149.533,166.563,150.339,166.489,151.366z"/>
			</g>
			<g>
				<path fill="#FF5978" d="M183.116,153.36c-0.777,1.202-1.804,1.422-2.713,1.628c-1.158,0.264-2.36,0.542-3.636,2.844
					c-0.587,0.323-1.261,0.557-1.98,0.704c1.804-4.208,3.827-4.648,5.293-4.971c0.807-0.19,1.349-0.308,1.804-0.997
					c0.615-0.953,0.059-2.185-0.66-3.167l2.272,1.305C183.717,151.586,183.673,152.495,183.116,153.36z"/>
			</g>
			<g>
				<path fill="#FF5978" d="M179.876,150.677c-0.587,1.583-1.745,2.287-2.874,2.962c-1.466,0.894-3.108,1.876-4.267,5.131h-0.015
					c-0.528,0-1.026-0.044-1.48-0.132c1.319-4.018,3.343-5.234,4.999-6.246c1.07-0.66,1.848-1.129,2.258-2.229
					c0.221-0.586,0.206-1.143-0.059-1.686c-0.249-0.499-0.674-0.968-1.173-1.364l2.771,1.598
					C180.184,149.343,180.125,150.003,179.876,150.677z"/>
			</g>
			<g>
				<path fill="#FF5978" d="M170.933,150.574c-0.089,1.598-0.822,2.375-1.525,3.138c-0.675,0.718-1.407,1.48-1.715,3.27
					l-1.335-0.763c0.41-1.862,1.261-2.756,1.979-3.518c0.645-0.689,1.07-1.144,1.129-2.199c0.073-1.32-0.836-2.258-1.848-2.889
					l1.231-0.718c0.059-0.029,0.118-0.059,0.177-0.088c0,0,0,0,0.014,0C170.126,147.656,171.021,148.874,170.933,150.574z"/>
			</g>
			<g>
				<path fill="#FF5978" d="M174.216,150.662c-0.425,1.774-1.29,2.537-2.125,3.284c-0.895,0.777-1.877,1.627-2.61,4.076l-1.29-0.748
					c0-0.015,0-0.015,0-0.015c0.836-2.595,1.965-3.578,2.932-4.428c0.792-0.689,1.35-1.188,1.672-2.507
					c0.439-1.862-0.543-3.328-1.554-4.296c0.586-0.117,1.188-0.191,1.803-0.191C174.025,147.099,174.671,148.741,174.216,150.662z"
					/>
			</g>
		</g>
		<g>
			<g>
				<path fill="#002E47" d="M120.749,170.991v21.008h0.01c-0.084,1.323,0.573,2.59,1.988,3.599c0.176,0.12,14.85,8.559,14.869,8.559
					c2.748,1.249,6.635,1.415,10.132,0.555c0.462-0.102,0.906-0.232,1.351-0.379c0.953-0.305,13.898-7.661,13.898-7.661
					c0.842-0.481,1.545-1.018,2.091-1.582c0.962-0.981,1.49-2.045,1.545-3.09h0.01v-21.008H120.749z"/>
				<path fill="#00537A" d="M136.846,183.107l-13.522-7.807c-3.815-2.203-3.333-6.086,1.073-8.63l11.205-6.469
					c4.405-2.544,11.132-2.822,14.947-0.62l13.523,7.807c3.815,2.203,3.332,6.086-1.073,8.63l-11.205,6.469
					C147.387,185.03,140.661,185.31,136.846,183.107z"/>
				<path fill="#E2E9E8" d="M143.333,182.59c-2.178,0-4.126-0.432-5.486-1.217l-13.523-7.807c-0.588-0.34-1.572-1.052-1.572-2.011
					c0-1.001,1.013-2.208,2.646-3.15l11.205-6.47c2.021-1.168,4.74-1.837,7.458-1.837c2.178,0,4.126,0.433,5.486,1.218l13.522,7.808
					c0.588,0.34,1.572,1.051,1.572,2.011c0,1.001-1.014,2.208-2.645,3.15l-11.206,6.469
					C148.769,181.921,146.05,182.59,143.333,182.59z"/>
				<path fill="#FF5978" d="M143.486,178.391c-1.352,0-2.575-0.275-3.444-0.777l-7.77-4.486c-0.771-0.446-1.197-1.038-1.197-1.664
					c0-0.796,0.68-1.663,1.814-2.318l6.438-3.717c1.247-0.721,2.917-1.134,4.579-1.134c1.352,0,2.574,0.276,3.445,0.777l7.771,4.487
					c0.771,0.446,1.196,1.038,1.196,1.664c0,0.795-0.679,1.662-1.813,2.317l-6.438,3.717
					C146.818,177.978,145.149,178.391,143.486,178.391z"/>
				<path fill="#FF8DA6" d="M143.487,177.805c-1.251,0-2.37-0.248-3.151-0.699l-7.771-4.486c-0.338-0.195-0.903-0.604-0.903-1.156
					c0-0.575,0.583-1.269,1.52-1.81l6.438-3.717c1.162-0.671,2.725-1.056,4.285-1.056c1.252,0,2.371,0.249,3.153,0.7l7.77,4.486
					c0.337,0.195,0.903,0.604,0.903,1.156c0,0.575-0.582,1.269-1.52,1.81l-6.439,3.717
					C146.61,177.421,145.049,177.805,143.487,177.805z"/>
			</g>
			<g>
				<path fill="#FF5978" d="M137.262,170.404c-0.088,1.29-0.895,1.906-1.612,2.463c-0.367,0.278-0.719,0.557-1.026,0.938
					l-1.276-0.747c0.44-0.601,0.953-0.997,1.408-1.349c0.674-0.528,0.997-0.807,1.041-1.408c0.044-0.586-0.426-1.1-1.1-1.51
					l1.393-0.821C136.822,168.571,137.335,169.378,137.262,170.404z"/>
			</g>
			<g>
				<path fill="#FF5978" d="M153.889,172.398c-0.777,1.202-1.804,1.422-2.713,1.628c-1.158,0.264-2.36,0.542-3.636,2.844
					c-0.587,0.323-1.262,0.557-1.98,0.704c1.804-4.208,3.827-4.648,5.293-4.97c0.807-0.19,1.349-0.308,1.804-0.997
					c0.615-0.953,0.059-2.185-0.66-3.167l2.272,1.305C154.489,170.624,154.445,171.533,153.889,172.398z"/>
			</g>
			<g>
				<path fill="#FF5978" d="M150.648,169.715c-0.587,1.584-1.745,2.287-2.874,2.961c-1.467,0.895-3.108,1.877-4.267,5.132h-0.015
					c-0.528,0-1.026-0.044-1.481-0.132c1.319-4.018,3.343-5.234,4.999-6.246c1.071-0.66,1.848-1.129,2.258-2.229
					c0.22-0.586,0.206-1.143-0.059-1.686c-0.249-0.499-0.674-0.968-1.173-1.364l2.771,1.598
					C150.956,168.38,150.897,169.04,150.648,169.715z"/>
			</g>
			<g>
				<path fill="#FF5978" d="M141.704,169.612c-0.088,1.598-0.82,2.376-1.524,3.138c-0.675,0.719-1.407,1.481-1.716,3.27
					l-1.334-0.763c0.41-1.862,1.261-2.756,1.98-3.519c0.645-0.689,1.07-1.143,1.129-2.2c0.073-1.319-0.836-2.258-1.848-2.888
					l1.231-0.718c0.059-0.029,0.117-0.059,0.177-0.088c0,0,0,0,0.015,0C140.897,166.694,141.792,167.911,141.704,169.612z"/>
			</g>
			<g>
				<path fill="#FF5978" d="M144.988,169.7c-0.425,1.774-1.29,2.536-2.126,3.284c-0.895,0.777-1.876,1.628-2.609,4.076l-1.29-0.748
					c0-0.015,0-0.015,0-0.015c0.836-2.595,1.965-3.578,2.932-4.428c0.792-0.689,1.35-1.188,1.672-2.507
					c0.439-1.862-0.542-3.328-1.554-4.296c0.586-0.117,1.188-0.191,1.803-0.191C144.798,166.137,145.443,167.779,144.988,169.7z"/>
			</g>
		</g>
		<g>
			<g>
				<path fill="#002E47" d="M179.655,170.137v21.008h0.009c-0.083,1.323,0.573,2.591,1.989,3.599
					c0.176,0.121,14.851,8.559,14.869,8.559c2.748,1.249,6.634,1.415,10.131,0.555c0.463-0.102,0.907-0.232,1.352-0.379
					c0.953-0.305,13.897-7.661,13.897-7.661c0.842-0.481,1.545-1.018,2.091-1.582c0.962-0.981,1.489-2.045,1.545-3.09h0.01v-21.008
					H179.655z"/>
				<path fill="#00537A" d="M195.751,182.253l-13.523-7.807c-3.815-2.203-3.332-6.086,1.073-8.63l11.205-6.469
					c4.406-2.544,11.132-2.822,14.947-0.62l13.522,7.807c3.816,2.203,3.333,6.086-1.073,8.63l-11.205,6.469
					C206.293,184.176,199.566,184.455,195.751,182.253z"/>
				<path fill="#E2E9E8" d="M202.238,181.736c-2.177,0-4.126-0.432-5.485-1.217l-13.523-7.807c-0.587-0.34-1.572-1.052-1.572-2.011
					c0-1.002,1.014-2.208,2.646-3.15l11.205-6.47c2.021-1.168,4.74-1.837,7.458-1.837c2.178,0,4.126,0.433,5.486,1.217l13.522,7.808
					c0.588,0.34,1.572,1.051,1.572,2.011c0,1.001-1.014,2.207-2.645,3.15l-11.206,6.469
					C207.675,181.067,204.956,181.736,202.238,181.736z"/>
				<path fill="#FF5978" d="M202.393,177.537c-1.353,0-2.575-0.275-3.444-0.776l-7.77-4.487c-0.771-0.446-1.197-1.038-1.197-1.664
					c0-0.796,0.679-1.663,1.812-2.318l6.439-3.717c1.247-0.721,2.916-1.134,4.579-1.134c1.352,0,2.574,0.276,3.444,0.777l7.77,4.487
					c0.773,0.446,1.197,1.038,1.197,1.664c0,0.795-0.679,1.662-1.815,2.317l-6.438,3.717
					C205.725,177.124,204.055,177.537,202.393,177.537z"/>
				<path fill="#FF8DA6" d="M202.394,176.951c-1.251,0-2.371-0.248-3.152-0.699l-7.769-4.486c-0.338-0.195-0.903-0.604-0.903-1.156
					c0-0.575,0.582-1.268,1.521-1.81l6.438-3.717c1.162-0.671,2.724-1.056,4.285-1.056c1.252,0,2.371,0.249,3.153,0.7l7.769,4.486
					c0.338,0.195,0.904,0.604,0.904,1.156c0,0.575-0.583,1.269-1.52,1.81l-6.439,3.717
					C205.517,176.567,203.955,176.951,202.394,176.951z"/>
			</g>
			<g>
				<path fill="#FF5978" d="M196.168,169.55c-0.088,1.29-0.895,1.906-1.613,2.463c-0.366,0.278-0.718,0.557-1.026,0.938
					l-1.275-0.748c0.44-0.601,0.953-0.997,1.408-1.349c0.674-0.527,0.996-0.806,1.041-1.407c0.044-0.586-0.426-1.1-1.101-1.51
					l1.394-0.821C195.728,167.717,196.241,168.524,196.168,169.55z"/>
			</g>
			<g>
				<path fill="#FF5978" d="M212.794,171.544c-0.776,1.202-1.803,1.422-2.712,1.627c-1.158,0.264-2.36,0.542-3.636,2.844
					c-0.587,0.323-1.262,0.557-1.98,0.704c1.804-4.208,3.827-4.648,5.294-4.971c0.806-0.19,1.349-0.308,1.803-0.997
					c0.616-0.953,0.059-2.185-0.659-3.167l2.272,1.305C213.396,169.77,213.352,170.679,212.794,171.544z"/>
			</g>
			<g>
				<path fill="#FF5978" d="M209.554,168.861c-0.586,1.583-1.744,2.287-2.873,2.961c-1.467,0.895-3.108,1.877-4.267,5.132h-0.015
					c-0.528,0-1.026-0.044-1.481-0.132c1.319-4.018,3.343-5.234,5-6.246c1.07-0.66,1.848-1.129,2.258-2.229
					c0.22-0.586,0.205-1.144-0.059-1.686c-0.249-0.499-0.675-0.968-1.173-1.364l2.771,1.598
					C209.862,167.526,209.804,168.186,209.554,168.861z"/>
			</g>
			<g>
				<path fill="#FF5978" d="M200.61,168.758c-0.088,1.599-0.821,2.376-1.524,3.138c-0.675,0.719-1.408,1.481-1.716,3.27
					l-1.334-0.763c0.41-1.862,1.261-2.756,1.98-3.519c0.644-0.689,1.07-1.144,1.129-2.199c0.073-1.319-0.836-2.258-1.848-2.888
					l1.231-0.718c0.059-0.029,0.117-0.059,0.176-0.088c0,0,0,0,0.015,0C199.804,165.84,200.698,167.057,200.61,168.758z"/>
			</g>
			<g>
				<path fill="#FF5978" d="M203.895,168.846c-0.425,1.774-1.29,2.536-2.126,3.284c-0.895,0.777-1.877,1.627-2.609,4.076
					l-1.291-0.747c0-0.015,0-0.015,0-0.015c0.836-2.595,1.965-3.578,2.933-4.428c0.792-0.689,1.349-1.188,1.672-2.507
					c0.44-1.862-0.543-3.328-1.555-4.296c0.587-0.117,1.188-0.191,1.804-0.191C203.704,165.283,204.349,166.925,203.895,168.846z"/>
			</g>
		</g>
		<g>
			<g>
				<path fill="#002E47" d="M150.428,189.175v21.008h0.009c-0.083,1.323,0.573,2.59,1.989,3.599
					c0.176,0.12,14.851,8.559,14.869,8.559c2.748,1.249,6.634,1.415,10.131,0.555c0.463-0.102,0.907-0.232,1.352-0.379
					c0.952-0.305,13.898-7.661,13.898-7.661c0.842-0.481,1.545-1.018,2.09-1.583c0.963-0.98,1.49-2.044,1.546-3.09h0.009v-21.008
					H150.428z"/>
				<path fill="#00537A" d="M166.523,201.291l-13.522-7.807c-3.816-2.203-3.332-6.086,1.073-8.63l11.205-6.469
					c4.406-2.544,11.132-2.822,14.947-0.62l13.523,7.807c3.816,2.203,3.333,6.087-1.073,8.63l-11.205,6.469
					C177.065,203.214,170.339,203.493,166.523,201.291z"/>
				<path fill="#E2E9E8" d="M173.011,200.774c-2.178,0-4.126-0.432-5.485-1.217l-13.523-7.808c-0.587-0.339-1.572-1.051-1.572-2.011
					c0-1.001,1.014-2.208,2.646-3.15l11.205-6.47c2.021-1.168,4.74-1.837,7.458-1.837c2.178,0,4.126,0.433,5.486,1.217l13.522,7.808
					c0.587,0.34,1.572,1.051,1.572,2.011c0,1.001-1.014,2.208-2.645,3.15l-11.205,6.469
					C178.447,200.105,175.729,200.774,173.011,200.774z"/>
				<path fill="#FF5978" d="M173.165,196.575c-1.354,0-2.576-0.275-3.445-0.777l-7.768-4.486c-0.771-0.446-1.197-1.038-1.197-1.664
					c0-0.796,0.679-1.663,1.812-2.318l6.439-3.717c1.247-0.721,2.916-1.134,4.579-1.134c1.352,0,2.574,0.276,3.444,0.777
					l7.771,4.487c0.772,0.446,1.197,1.037,1.197,1.664c0,0.795-0.679,1.662-1.814,2.317l-6.438,3.717
					C176.497,196.162,174.827,196.575,173.165,196.575z"/>
				<path fill="#FF8DA6" d="M173.166,195.989c-1.251,0-2.37-0.249-3.152-0.699l-7.77-4.486c-0.338-0.195-0.903-0.604-0.903-1.156
					c0-0.575,0.582-1.269,1.52-1.81l6.438-3.717c1.162-0.671,2.724-1.056,4.285-1.056c1.252,0,2.371,0.249,3.153,0.7l7.768,4.486
					c0.338,0.195,0.904,0.604,0.904,1.156c0,0.575-0.583,1.268-1.52,1.81l-6.438,3.717
					C176.289,195.605,174.728,195.989,173.166,195.989z"/>
			</g>
			<g>
				<path fill="#FF5978" d="M166.94,188.588c-0.088,1.29-0.895,1.906-1.613,2.463c-0.366,0.279-0.719,0.557-1.026,0.939
					l-1.275-0.748c0.44-0.601,0.953-0.997,1.408-1.349c0.674-0.528,0.996-0.806,1.04-1.407c0.045-0.586-0.425-1.1-1.1-1.51
					l1.394-0.821C166.5,186.755,167.014,187.562,166.94,188.588z"/>
			</g>
			<g>
				<path fill="#FF5978" d="M183.566,190.582c-0.776,1.202-1.803,1.422-2.712,1.627c-1.158,0.264-2.36,0.542-3.637,2.844
					c-0.586,0.322-1.261,0.557-1.979,0.704c1.803-4.208,3.826-4.648,5.293-4.97c0.806-0.191,1.349-0.308,1.803-0.997
					c0.616-0.953,0.059-2.185-0.659-3.167l2.272,1.305C184.168,188.808,184.124,189.717,183.566,190.582z"/>
			</g>
			<g>
				<path fill="#FF5978" d="M180.326,187.899c-0.586,1.583-1.744,2.287-2.874,2.961c-1.466,0.895-3.107,1.877-4.266,5.132h-0.015
					c-0.528,0-1.026-0.044-1.482-0.132c1.319-4.018,3.343-5.234,5-6.246c1.07-0.66,1.848-1.129,2.258-2.229
					c0.22-0.586,0.205-1.144-0.059-1.687c-0.249-0.498-0.675-0.967-1.173-1.363l2.771,1.598
					C180.635,186.565,180.576,187.224,180.326,187.899z"/>
			</g>
			<g>
				<path fill="#FF5978" d="M171.383,187.796c-0.088,1.598-0.821,2.375-1.524,3.138c-0.675,0.719-1.408,1.481-1.716,3.27
					l-1.334-0.762c0.41-1.862,1.261-2.756,1.979-3.519c0.645-0.689,1.07-1.143,1.129-2.199c0.073-1.319-0.836-2.258-1.848-2.888
					l1.231-0.719c0.059-0.029,0.117-0.059,0.176-0.088c0,0,0,0,0.015,0C170.576,184.879,171.471,186.095,171.383,187.796z"/>
			</g>
			<g>
				<path fill="#FF5978" d="M174.667,187.884c-0.425,1.774-1.29,2.537-2.126,3.285c-0.895,0.777-1.877,1.627-2.609,4.076
					l-1.291-0.748c0-0.015,0-0.015,0-0.015c0.836-2.595,1.965-3.578,2.933-4.428c0.792-0.689,1.349-1.188,1.672-2.507
					c0.439-1.862-0.543-3.328-1.555-4.296c0.587-0.117,1.188-0.19,1.804-0.19C174.477,184.321,175.121,185.963,174.667,187.884z"/>
			</g>
		</g>
		<g>
			<g>
				<path fill="#002E47" d="M209.333,188.321v21.008h0.01c-0.084,1.323,0.573,2.59,1.989,3.599c0.176,0.12,14.85,8.559,14.868,8.559
					c2.748,1.249,6.635,1.416,10.132,0.555c0.463-0.102,0.907-0.232,1.351-0.379c0.953-0.305,13.898-7.661,13.898-7.661
					c0.842-0.481,1.546-1.018,2.091-1.582c0.963-0.981,1.49-2.045,1.546-3.09h0.009v-21.008H209.333z"/>
				<path fill="#00537A" d="M225.43,200.437l-13.523-7.807c-3.815-2.203-3.332-6.087,1.073-8.63l11.205-6.469
					c4.405-2.544,11.132-2.822,14.947-0.62l13.523,7.807c3.815,2.203,3.332,6.087-1.073,8.63l-11.205,6.469
					C235.972,202.36,229.245,202.639,225.43,200.437z"/>
				<path fill="#E2E9E8" d="M231.917,199.92c-2.178,0-4.126-0.433-5.486-1.217l-13.523-7.808c-0.587-0.339-1.572-1.051-1.572-2.011
					c0-1.001,1.014-2.208,2.645-3.15l11.205-6.47c2.022-1.167,4.74-1.837,7.458-1.837c2.179,0,4.127,0.433,5.487,1.218l13.522,7.808
					c0.587,0.34,1.572,1.051,1.572,2.011c0,1.001-1.014,2.208-2.645,3.151l-11.205,6.469
					C237.353,199.25,234.635,199.92,231.917,199.92z"/>
				<path fill="#FF5978" d="M232.071,195.721c-1.354,0-2.576-0.275-3.445-0.777l-7.769-4.486c-0.773-0.446-1.197-1.038-1.197-1.664
					c0-0.796,0.679-1.663,1.812-2.318l6.439-3.717c1.248-0.721,2.917-1.134,4.579-1.134c1.353,0,2.575,0.276,3.445,0.777
					l7.771,4.487c0.771,0.446,1.197,1.037,1.197,1.664c0,0.795-0.679,1.662-1.814,2.317l-6.438,3.717
					C235.403,195.308,233.733,195.721,232.071,195.721z"/>
				<path fill="#FF8DA6" d="M232.071,195.135c-1.25,0-2.37-0.249-3.151-0.699l-7.77-4.486c-0.338-0.195-0.904-0.605-0.904-1.156
					c0-0.575,0.583-1.269,1.52-1.81l6.439-3.718c1.162-0.67,2.724-1.055,4.285-1.055c1.251,0,2.371,0.248,3.152,0.7l7.77,4.486
					c0.338,0.195,0.903,0.604,0.903,1.156c0,0.575-0.582,1.269-1.52,1.81l-6.438,3.717
					C235.195,194.751,233.634,195.135,232.071,195.135z"/>
			</g>
			<g>
				<path fill="#FF5978" d="M225.847,187.734c-0.089,1.29-0.895,1.906-1.613,2.463c-0.366,0.278-0.719,0.557-1.026,0.938
					l-1.275-0.747c0.439-0.601,0.953-0.997,1.407-1.349c0.675-0.528,0.997-0.806,1.041-1.407c0.044-0.586-0.425-1.1-1.1-1.51
					l1.393-0.821C225.406,185.901,225.92,186.708,225.847,187.734z"/>
			</g>
			<g>
				<path fill="#FF5978" d="M242.473,189.728c-0.776,1.202-1.804,1.422-2.712,1.627c-1.159,0.264-2.361,0.542-3.637,2.844
					c-0.586,0.323-1.261,0.557-1.98,0.704c1.804-4.208,3.827-4.648,5.293-4.97c0.807-0.191,1.349-0.308,1.804-0.997
					c0.615-0.953,0.059-2.185-0.66-3.167l2.273,1.305C243.074,187.954,243.03,188.863,242.473,189.728z"/>
			</g>
			<g>
				<path fill="#FF5978" d="M239.232,187.045c-0.587,1.583-1.745,2.287-2.874,2.961c-1.466,0.895-3.107,1.877-4.267,5.132h-0.015
					c-0.527,0-1.025-0.044-1.48-0.132c1.319-4.017,3.343-5.234,5-6.246c1.07-0.66,1.847-1.129,2.258-2.229
					c0.22-0.586,0.205-1.144-0.059-1.686c-0.249-0.499-0.675-0.968-1.173-1.364l2.771,1.598
					C239.54,185.711,239.481,186.37,239.232,187.045z"/>
			</g>
			<g>
				<path fill="#FF5978" d="M230.289,186.942c-0.088,1.598-0.821,2.375-1.525,3.138c-0.674,0.718-1.407,1.481-1.715,3.27
					l-1.335-0.762c0.411-1.862,1.262-2.756,1.979-3.519c0.646-0.689,1.07-1.144,1.129-2.199c0.073-1.319-0.835-2.258-1.847-2.888
					l1.231-0.719c0.059-0.029,0.117-0.059,0.176-0.088c0,0,0,0,0.015,0C229.482,184.025,230.377,185.241,230.289,186.942z"/>
			</g>
			<g>
				<path fill="#FF5978" d="M233.573,187.03c-0.426,1.774-1.291,2.536-2.126,3.284c-0.895,0.777-1.877,1.628-2.61,4.076l-1.29-0.748
					c0-0.015,0-0.015,0-0.015c0.836-2.595,1.965-3.578,2.933-4.428c0.792-0.689,1.349-1.188,1.672-2.507
					c0.439-1.862-0.543-3.328-1.555-4.296c0.586-0.117,1.188-0.191,1.804-0.191C233.382,183.467,234.027,185.109,233.573,187.03z"/>
			</g>
		</g>
		<g>
			<g>
				<path fill="#002E47" d="M180.106,207.359v21.008h0.01c-0.083,1.323,0.573,2.59,1.989,3.599c0.176,0.12,14.85,8.559,14.868,8.559
					c2.748,1.249,6.635,1.416,10.132,0.555c0.463-0.102,0.906-0.232,1.351-0.379c0.953-0.305,13.897-7.661,13.897-7.661
					c0.842-0.481,1.545-1.018,2.091-1.583c0.963-0.98,1.49-2.044,1.546-3.09h0.009v-21.008H180.106z"/>
				<path fill="#00537A" d="M196.202,219.475l-13.522-7.807c-3.816-2.203-3.333-6.086,1.073-8.63l11.205-6.469
					c4.405-2.544,11.132-2.822,14.947-0.62l13.522,7.807c3.816,2.203,3.332,6.086-1.073,8.63l-11.205,6.469
					C206.744,221.399,200.018,221.677,196.202,219.475z"/>
				<path fill="#E2E9E8" d="M202.689,218.958c-2.178,0-4.126-0.432-5.485-1.217l-13.523-7.808c-0.588-0.339-1.572-1.051-1.572-2.011
					c0-1.001,1.014-2.208,2.646-3.15l11.205-6.47c2.022-1.168,4.74-1.837,7.458-1.837c2.178,0,4.127,0.433,5.487,1.218l13.522,7.808
					c0.587,0.34,1.572,1.051,1.572,2.011c0,1.002-1.014,2.208-2.646,3.15l-11.206,6.469
					C208.125,218.288,205.407,218.958,202.689,218.958z"/>
				<path fill="#FF5978" d="M202.844,214.759c-1.354,0-2.576-0.275-3.445-0.777l-7.769-4.486c-0.772-0.446-1.197-1.038-1.197-1.664
					c0-0.796,0.679-1.663,1.812-2.318l6.439-3.717c1.246-0.721,2.916-1.134,4.578-1.134c1.352,0,2.575,0.276,3.445,0.777l7.77,4.487
					c0.771,0.446,1.197,1.037,1.197,1.664c0,0.795-0.679,1.662-1.814,2.317l-6.438,3.717
					C206.175,214.346,204.506,214.759,202.844,214.759z"/>
				<path fill="#FF8DA6" d="M202.845,214.173c-1.252,0-2.371-0.249-3.152-0.699l-7.77-4.486c-0.338-0.195-0.904-0.604-0.904-1.156
					c0-0.575,0.583-1.269,1.52-1.81l6.439-3.718c1.162-0.671,2.724-1.055,4.285-1.055c1.251,0,2.371,0.248,3.152,0.7l7.77,4.486
					c0.338,0.195,0.903,0.604,0.903,1.156c0,0.575-0.582,1.268-1.52,1.81l-6.438,3.717
					C205.968,213.789,204.405,214.173,202.845,214.173z"/>
			</g>
			<g>
				<path fill="#FF5978" d="M196.618,206.772c-0.088,1.29-0.895,1.906-1.612,2.463c-0.366,0.279-0.719,0.557-1.026,0.939
					l-1.275-0.748c0.439-0.601,0.953-0.997,1.407-1.349c0.675-0.528,0.997-0.806,1.041-1.407c0.044-0.587-0.425-1.1-1.1-1.51
					l1.393-0.821C196.179,204.939,196.692,205.746,196.618,206.772z"/>
			</g>
			<g>
				<path fill="#FF5978" d="M213.245,208.766c-0.777,1.202-1.804,1.422-2.713,1.627c-1.158,0.264-2.36,0.542-3.636,2.844
					c-0.587,0.322-1.261,0.557-1.979,0.704c1.804-4.208,3.827-4.648,5.293-4.97c0.807-0.191,1.349-0.308,1.804-0.997
					c0.615-0.953,0.059-2.185-0.66-3.167l2.273,1.305C213.847,206.992,213.802,207.901,213.245,208.766z"/>
			</g>
			<g>
				<path fill="#FF5978" d="M210.005,206.083c-0.586,1.583-1.745,2.288-2.874,2.962c-1.466,0.895-3.108,1.876-4.267,5.132h-0.015
					c-0.527,0-1.026-0.044-1.48-0.132c1.319-4.017,3.343-5.234,4.999-6.246c1.071-0.66,1.848-1.128,2.259-2.228
					c0.22-0.587,0.205-1.144-0.06-1.687c-0.249-0.499-0.674-0.967-1.172-1.363l2.77,1.598
					C210.313,204.749,210.254,205.408,210.005,206.083z"/>
			</g>
			<g>
				<path fill="#FF5978" d="M201.062,205.98c-0.088,1.598-0.821,2.376-1.525,3.138c-0.674,0.718-1.407,1.481-1.715,3.27
					l-1.335-0.762c0.411-1.862,1.261-2.756,1.98-3.519c0.645-0.689,1.07-1.144,1.129-2.199c0.073-1.319-0.836-2.258-1.848-2.888
					l1.232-0.719c0.059-0.029,0.117-0.059,0.176-0.088c0,0,0,0,0.015,0C200.255,203.063,201.149,204.279,201.062,205.98z"/>
			</g>
			<g>
				<path fill="#FF5978" d="M204.346,206.068c-0.426,1.774-1.291,2.537-2.126,3.285c-0.895,0.777-1.877,1.627-2.61,4.076
					l-1.29-0.748c0-0.015,0-0.015,0-0.015c0.836-2.595,1.965-3.578,2.933-4.428c0.792-0.689,1.349-1.188,1.671-2.507
					c0.44-1.862-0.542-3.328-1.554-4.296c0.586-0.118,1.188-0.191,1.804-0.191C204.154,202.505,204.8,204.148,204.346,206.068z"/>
			</g>
		</g>
		<g>
			<g>
				<path fill="#002E47" d="M240.564,206.505v21.008h0.01c-0.084,1.323,0.573,2.59,1.989,3.599c0.176,0.12,14.85,8.559,14.868,8.559
					c2.748,1.249,6.635,1.415,10.132,0.555c0.463-0.102,0.907-0.231,1.351-0.379c0.953-0.305,13.897-7.661,13.897-7.661
					c0.843-0.481,1.546-1.018,2.091-1.582c0.963-0.98,1.49-2.044,1.546-3.09h0.009v-21.008H240.564z"/>
				<path fill="#00537A" d="M256.66,218.621l-13.522-7.807c-3.815-2.203-3.332-6.086,1.073-8.63l11.205-6.469
					c4.405-2.544,11.132-2.823,14.947-0.62l13.522,7.807c3.815,2.203,3.332,6.086-1.073,8.629l-11.205,6.47
					C267.202,220.545,260.476,220.823,256.66,218.621z"/>
				<path fill="#E2E9E8" d="M263.147,218.104c-2.178,0-4.126-0.432-5.486-1.217l-13.522-7.808c-0.587-0.339-1.572-1.051-1.572-2.011
					c0-1.001,1.014-2.208,2.645-3.15l11.205-6.47c2.022-1.168,4.74-1.837,7.459-1.837c2.178,0,4.126,0.433,5.486,1.218l13.522,7.808
					c0.587,0.339,1.572,1.051,1.572,2.011c0,1.001-1.014,2.208-2.646,3.151l-11.206,6.469
					C268.583,217.435,265.865,218.104,263.147,218.104z"/>
				<path fill="#FF5978" d="M263.302,213.905c-1.353,0-2.576-0.275-3.445-0.777l-7.769-4.486c-0.773-0.446-1.197-1.038-1.197-1.664
					c0-0.796,0.679-1.663,1.812-2.318l6.439-3.717c1.247-0.721,2.916-1.134,4.578-1.134c1.353,0,2.575,0.276,3.445,0.777l7.77,4.487
					c0.772,0.446,1.197,1.037,1.197,1.664c0,0.794-0.679,1.662-1.814,2.317l-6.438,3.717
					C266.634,213.492,264.964,213.905,263.302,213.905z"/>
				<path fill="#FF8DA6" d="M263.302,213.319c-1.25,0-2.37-0.249-3.151-0.699l-7.77-4.486c-0.338-0.195-0.904-0.604-0.904-1.155
					c0-0.575,0.583-1.269,1.521-1.811l6.438-3.717c1.162-0.671,2.724-1.056,4.285-1.056c1.251,0,2.371,0.248,3.152,0.7l7.77,4.486
					c0.338,0.195,0.903,0.604,0.903,1.156c0,0.575-0.582,1.268-1.52,1.81l-6.439,3.717
					C266.426,212.935,264.864,213.319,263.302,213.319z"/>
			</g>
			<g>
				<path fill="#FF5978" d="M257.077,205.918c-0.089,1.29-0.895,1.906-1.613,2.463c-0.366,0.279-0.719,0.557-1.026,0.939
					l-1.275-0.748c0.439-0.601,0.953-0.997,1.407-1.349c0.675-0.528,0.997-0.806,1.041-1.407c0.044-0.587-0.425-1.1-1.1-1.51
					l1.393-0.821C256.637,204.085,257.15,204.892,257.077,205.918z"/>
			</g>
			<g>
				<path fill="#FF5978" d="M273.703,207.912c-0.776,1.203-1.804,1.422-2.712,1.627c-1.158,0.264-2.361,0.543-3.637,2.845
					c-0.586,0.322-1.261,0.557-1.979,0.704c1.804-4.208,3.827-4.648,5.293-4.97c0.807-0.19,1.349-0.308,1.804-0.997
					c0.616-0.953,0.059-2.185-0.66-3.167l2.273,1.305C274.305,206.138,274.261,207.047,273.703,207.912z"/>
			</g>
			<g>
				<path fill="#FF5978" d="M270.463,205.229c-0.587,1.584-1.745,2.288-2.874,2.962c-1.466,0.895-3.107,1.877-4.267,5.132h-0.015
					c-0.527,0-1.025-0.044-1.48-0.132c1.319-4.017,3.343-5.234,5-6.246c1.07-0.66,1.847-1.129,2.258-2.229
					c0.22-0.587,0.205-1.144-0.059-1.686c-0.25-0.499-0.675-0.967-1.173-1.363l2.77,1.598
					C270.771,203.895,270.713,204.554,270.463,205.229z"/>
			</g>
			<g>
				<path fill="#FF5978" d="M261.52,205.126c-0.088,1.598-0.821,2.376-1.525,3.138c-0.674,0.718-1.407,1.481-1.715,3.27
					l-1.335-0.762c0.411-1.862,1.262-2.756,1.979-3.519c0.646-0.689,1.07-1.144,1.13-2.199c0.072-1.319-0.836-2.258-1.848-2.889
					l1.232-0.718c0.059-0.029,0.117-0.059,0.176-0.088c0,0,0,0,0.015,0C260.713,202.209,261.607,203.425,261.52,205.126z"/>
			</g>
			<g>
				<path fill="#FF5978" d="M264.804,205.214c-0.426,1.774-1.291,2.537-2.126,3.285c-0.895,0.777-1.877,1.627-2.61,4.076
					l-1.29-0.748c0-0.015,0-0.015,0-0.015c0.836-2.595,1.965-3.578,2.933-4.428c0.792-0.689,1.349-1.188,1.672-2.507
					c0.439-1.862-0.543-3.328-1.555-4.296c0.586-0.117,1.188-0.191,1.804-0.191C264.612,201.651,265.258,203.294,264.804,205.214z"
					/>
			</g>
		</g>
		<g>
			<g>
				<path fill="#002E47" d="M211.336,225.543v21.008h0.01c-0.083,1.323,0.573,2.59,1.989,3.599c0.176,0.12,14.85,8.559,14.868,8.559
					c2.748,1.249,6.635,1.415,10.132,0.555c0.463-0.102,0.907-0.231,1.352-0.379c0.952-0.306,13.896-7.662,13.896-7.662
					c0.842-0.48,1.545-1.018,2.091-1.582c0.963-0.98,1.49-2.044,1.546-3.09h0.009v-21.008H211.336z"/>
				<path fill="#00537A" d="M227.433,237.659l-13.523-7.807c-3.815-2.203-3.332-6.086,1.073-8.63l11.205-6.47
					c4.405-2.543,11.132-2.822,14.947-0.619l13.523,7.807c3.815,2.203,3.333,6.086-1.073,8.63l-11.205,6.469
					C237.975,239.583,231.248,239.861,227.433,237.659z"/>
				<path fill="#E2E9E8" d="M233.92,237.142c-2.178,0-4.126-0.432-5.485-1.217l-13.523-7.808c-0.587-0.339-1.572-1.051-1.572-2.011
					c0-1.001,1.014-2.208,2.646-3.15l11.205-6.47c2.022-1.168,4.74-1.837,7.458-1.837c2.178,0,4.127,0.433,5.487,1.218l13.522,7.808
					c0.587,0.339,1.572,1.051,1.572,2.011c0,1.002-1.014,2.208-2.646,3.15l-11.206,6.469
					C239.356,236.472,236.638,237.142,233.92,237.142z"/>
				<path fill="#FF5978" d="M234.074,232.943c-1.354,0-2.576-0.275-3.445-0.777l-7.769-4.487c-0.772-0.446-1.197-1.037-1.197-1.664
					c0-0.796,0.679-1.663,1.812-2.318l6.439-3.717c1.247-0.721,2.916-1.134,4.578-1.134c1.351,0,2.574,0.276,3.445,0.777l7.77,4.487
					c0.771,0.446,1.197,1.037,1.197,1.664c0,0.794-0.679,1.662-1.814,2.317l-6.438,3.717
					C237.406,232.53,235.736,232.943,234.074,232.943z"/>
				<path fill="#FF8DA6" d="M234.075,232.358c-1.252,0-2.371-0.249-3.152-0.699l-7.77-4.486c-0.338-0.195-0.904-0.604-0.904-1.155
					c0-0.575,0.583-1.269,1.52-1.811l6.439-3.717c1.162-0.67,2.724-1.055,4.285-1.055c1.252,0,2.371,0.248,3.152,0.699l7.77,4.486
					c0.338,0.195,0.903,0.604,0.903,1.155c0,0.575-0.582,1.269-1.52,1.811l-6.438,3.717
					C237.198,231.973,235.636,232.358,234.075,232.358z"/>
			</g>
			<g>
				<path fill="#FF5978" d="M227.85,224.956c-0.089,1.29-0.896,1.906-1.613,2.463c-0.366,0.279-0.719,0.557-1.026,0.939
					l-1.275-0.748c0.439-0.6,0.953-0.996,1.407-1.349c0.675-0.528,0.997-0.807,1.041-1.408c0.044-0.586-0.425-1.1-1.1-1.51
					l1.393-0.821C227.409,223.123,227.923,223.93,227.85,224.956z"/>
			</g>
			<g>
				<path fill="#FF5978" d="M244.476,226.95c-0.777,1.202-1.804,1.422-2.713,1.627c-1.158,0.264-2.36,0.542-3.636,2.845
					c-0.587,0.322-1.261,0.557-1.98,0.704c1.804-4.208,3.827-4.648,5.293-4.97c0.807-0.191,1.349-0.308,1.804-0.997
					c0.615-0.953,0.059-2.185-0.659-3.167l2.271,1.305C245.077,225.176,245.033,226.085,244.476,226.95z"/>
			</g>
			<g>
				<path fill="#FF5978" d="M241.235,224.267c-0.586,1.583-1.745,2.288-2.874,2.962c-1.466,0.895-3.107,1.876-4.267,5.132h-0.015
					c-0.527,0-1.026-0.044-1.48-0.132c1.319-4.017,3.343-5.234,4.999-6.246c1.071-0.66,1.848-1.129,2.259-2.229
					c0.22-0.586,0.205-1.144-0.059-1.686c-0.249-0.499-0.675-0.968-1.173-1.363l2.77,1.598
					C241.543,222.933,241.484,223.592,241.235,224.267z"/>
			</g>
			<g>
				<path fill="#FF5978" d="M232.292,224.164c-0.088,1.598-0.821,2.375-1.525,3.138c-0.674,0.718-1.407,1.481-1.715,3.27
					l-1.335-0.762c0.411-1.862,1.262-2.756,1.98-3.519c0.645-0.689,1.07-1.144,1.129-2.199c0.073-1.319-0.836-2.258-1.847-2.888
					l1.231-0.719c0.059-0.029,0.117-0.059,0.176-0.088c0,0,0,0,0.015,0C231.485,221.247,232.38,222.463,232.292,224.164z"/>
			</g>
			<g>
				<path fill="#FF5978" d="M235.576,224.252c-0.426,1.774-1.291,2.537-2.126,3.284c-0.894,0.777-1.877,1.628-2.61,4.076
					l-1.29-0.748c0-0.015,0-0.015,0-0.015c0.836-2.595,1.965-3.578,2.933-4.428c0.792-0.689,1.349-1.188,1.671-2.507
					c0.44-1.862-0.542-3.329-1.554-4.296c0.586-0.118,1.188-0.191,1.804-0.191C235.385,220.69,236.03,222.332,235.576,224.252z"/>
			</g>
		</g>
		<g>
			<g>
				<polygon fill="#FFB642" points="105.369,166.938 105.369,201.397 243.186,281.623 242.738,246.859 				"/>
				<path fill="#FFFFFF" d="M243.186,282.623c-0.174,0-0.348-0.045-0.503-0.136l-137.816-80.226
					c-0.308-0.179-0.497-0.508-0.497-0.864v-34.459c0-0.358,0.191-0.688,0.501-0.867c0.312-0.178,0.693-0.177,1.002,0.002
					l137.369,79.921c0.304,0.177,0.492,0.5,0.497,0.852l0.447,34.764c0.005,0.36-0.184,0.695-0.496,0.876
					C243.534,282.577,243.359,282.623,243.186,282.623z M106.369,200.822l135.794,79.048l-0.417-32.432l-135.377-78.762V200.822z"/>
			</g>
		</g>
		<g>
			<g>
				<polygon fill="#FFA044" points="242.738,246.859 243.186,281.623 303.582,241.312 303.136,206.551 				"/>
				<path fill="#FFFFFF" d="M243.186,282.623c-0.159,0-0.319-0.038-0.466-0.115c-0.324-0.171-0.529-0.505-0.534-0.872l-0.447-34.764
					c-0.004-0.338,0.163-0.656,0.445-0.844l60.397-40.308c0.304-0.203,0.694-0.225,1.021-0.053c0.324,0.171,0.529,0.505,0.534,0.872
					l0.446,34.761c0.004,0.338-0.163,0.656-0.445,0.844l-60.396,40.311C243.573,282.566,243.38,282.623,243.186,282.623z
					 M243.745,247.389l0.417,32.379l58.413-38.987l-0.416-32.377L243.745,247.389z"/>
			</g>
		</g>
	</g>
	<g>
		<path fill="#FFACAC" d="M143.107,189.545l4.63,0.773c-1.355-3.749,0.576-4.259,0.576-4.259l-1.929-3.243L143.107,189.545z"/>
		<path fill="#FFACAC" d="M161.465,182.061c-1.58,2.052-6.184,5.148-11.405,8.199c-2.373,1.388-1.076,5.663,2.06,5.156
			c3.136-0.504,12.11-11.203,12.11-11.203C163.735,181.715,161.465,182.061,161.465,182.061z"/>
		<path fill="#FFACAC" d="M167.461,175.963c-1.51,0.855-1.378-0.323-1.939-0.389c-0.561-0.069-2.81,1.096-3.126,1.511
			c-0.376,0.492,0.291,3.078-1.175,5.355c-0.265,0.41,2.758,2.054,2.758,2.054s3.252-2.587,3.853-3.473
			c0.601-0.884,2.283-1.291,1.748-1.565c-0.534-0.274-1.889,0.212-2.631,0.512c-0.74,0.297-0.564-0.991,0.312-2.267
			c0.879-1.273,3.911-2.669,3.494-3.235C170.484,174.098,168.664,175.282,167.461,175.963z"/>
		<path fill="#FFACAC" d="M133.314,223.749c-2.574,4.232,5.488,23.292,2.963,28.943c-4.104,9.181-2.698,28.941-3.038,31.26
			c-0.341,2.319,3.827,4.811,4.85,0.173c1.021-4.638,5.893-25.041,8.049-29.931c2.157-4.888,0.284-32.098,0.284-32.098
			S137.546,216.792,133.314,223.749z"/>
		<path fill="#FFACAC" d="M137.767,225.384c-1.808,6.671,2.995,9.03,4.746,15.428c3.026,11.056,4.546,15.198,3.897,19.942
			c-1.024,7.488,1.692,30.547,1.749,32.898c0.058,2.348,5.007,4.099,5.227-0.666c0.222-4.769,2.23-29.152,3.524-34.401
			c1.293-5.248-4.416-36.35-4.416-36.35S141.227,212.613,137.767,225.384z"/>
		<path fill="#002E47" d="M156.173,299.254c-2.814-1.701-2.483-6.718-2.483-6.718c-3.634,0.141-5.894-0.557-5.894-0.557
			c0,1.528-1.162,4.145-1.371,6.442c-0.188,2.051,1.514,3.267,1.514,5.058h1.494l-0.751-4.19c2.443,0,5.558,4.24,8.602,4.203
			c3.195-0.038,4.099-1.006,4.342-2.014C161.869,300.469,158.986,300.958,156.173,299.254z"/>
		<path fill="#002E47" d="M140.832,290.98c-2.812-1.704-2.482-6.721-2.482-6.721c-3.633,0.141-5.31-0.557-5.31-0.557
			c0,1.528-1.746,4.145-1.955,6.442c-0.188,2.051,1.514,3.267,1.514,5.058h1.494l-0.75-4.187c2.442,0,5.557,4.237,8.602,4.2
			c3.194-0.037,4.098-1.005,4.341-2.014C146.529,292.195,143.647,292.681,140.832,290.98z"/>
		<path fill="#FF2657" d="M138.043,211.072c0,0-0.916,3.343-3.337,7.429c-2.422,4.087-4.93,10.187-3.859,14.794
			c1.953,8.412-2.622,20.922-2.622,32.159c0,0,8.299,1.608,11.438,3.819c10.985,7.737,22.877,0.504,22.877,0.504
			c0-19.856-8.288-45.586-9.977-56.969L138.043,211.072z"/>
		<path fill="#00537A" d="M155.051,200.156c-0.714-1.831-1.339-3.001-2.117-5.927c-0.778-2.924-5.369-5.438-9.908-4.679
			c-4.982,0.833-6.622,6.598-6.636,11.093c-0.012,4.169,0.225,11.997-2.175,18.72c5.273,4.715,15.188,7.27,20.62,4.359
			c-0.815-5.888-3.167-14.215-2.171-17.643C152.831,205.505,156.44,203.719,155.051,200.156z"/>
		<path fill="#FFACAC" d="M151.378,177.503c0.116-0.554,0.015-1.57-0.045-2.072c-0.521-4.352-6.704-0.325-8.832,3.212
			c-2.129,3.538,6.615,9.81,8.41,6.716c2.11-3.639,1.118-6.396,1.007-6.552C151.491,178.217,151.272,178.005,151.378,177.503z"/>
		<path fill="#002E47" d="M145.71,168.617c-4.731,1.133-8.389-1.501-10.892,4.021c-2.064,4.551-5.257,3.212-7.128,7.59
			c-1.87,4.38,2.08,5.002-1.894,8.256c-3.85,3.15,0.204,8.165,1.303,10.903c1.099,2.735,3.084,4.106,0.67,8.068
			c0,0,9.841-0.131,9.062-6.657c-0.78-6.526,5.439-3.403,4.889-8.014c-0.441-3.699,4.302-2.169,4.169-4.505
			c-0.131-2.338,4.287-3.365,1.321-7.571c-1.76-2.495,4.169-3.206,4.671-6.772C152.152,172,150.803,167.397,145.71,168.617z"/>
		<path fill="#FFACAC" d="M146.37,178.681c-0.387,0.883-0.048,2.19,0.504,2.991c0.554,0.798,1.039,0.527,0.951,0.114
			c-0.111-0.526,0.467-1.474,0.178-2.839C147.92,178.558,146.758,177.798,146.37,178.681z"/>
		<path fill="#FFACAC" d="M152.878,199.642c-0.234-5.701-2.168-7.525-3.417-7.958c-3.64-1.263-5.286,3.096-4.582,7.814
			c0.673,4.5,2.108,10.965,5.755,15.795c1.438,1.903,4.226-3.357,3.969-4.766C154.346,209.116,153.079,204.501,152.878,199.642z"/>
		<path fill="#EFF6F9" d="M146.231,209.817c2.584-0.647,6.829-1.884,8.064-4.49c-0.298-1.708-0.705-3.686-0.787-5.681
			c-0.234-5.701-2.798-7.528-4.047-7.962c-3.64-1.263-6.487,3.244-5.783,7.962C144.108,202.528,144.794,206.268,146.231,209.817z"/>
		<path fill="#FFACAC" d="M177.433,212.986c-1.531-0.215-3.921,0.185-3.369-0.394c0.552-0.577,1.233-1.365,1.177-1.962
			c-0.057-0.6-0.605,0.778-1.649,1.006c-1.044,0.23-3.686,2.131-3.686,2.131s0.004,3.019,0.49,3.017
			c0.488-0.002,1.88,0.349,2.956,0.525c1.077,0.177,3.253,1.793,3.571,1.383c0.319-0.412,2.053-1.977,2.199-2.523
			c0.146-0.545-1.603-2.479-0.23-1.417c1.399,1.086,3.017,1.048,2.53,0.671C180.672,214.84,178.962,213.204,177.433,212.986z"/>
		<path fill="#FFACAC" d="M170.715,213.324c-2.578,0.246-13.623-2.479-16.447-2.902c-1.285-0.195-5.774,3.278-3.265,5.225
			c2.512,1.949,19.987,1.206,19.987,1.206C172.477,214.789,170.715,213.324,170.715,213.324z"/>
	</g>
</g>
</svg>
