<?xml version="1.0" encoding="utf-8"?>
<!-- Generator: Adobe Illustrator 24.3.0, SVG Export Plug-In . SVG Version: 6.00 Build 0)  -->
<svg version="1.1" id="Layer_1" xmlns="http://www.w3.org/2000/svg" xmlns:xlink="http://www.w3.org/1999/xlink" x="0px" y="0px"
	 viewBox="0 0 350 350" enable-background="new 0 0 350 350" xml:space="preserve">
<g>
	
		<radialGradient id="SVGID_1_" cx="253.5692" cy="171.8682" r="132.3492" gradientTransform="matrix(0.5734 -0.7894 0.4525 0.3009 -74.6005 314.0105)" gradientUnits="userSpaceOnUse">
		<stop  offset="0" style="stop-color:#B0BED9"/>
		<stop  offset="0.206" style="stop-color:#C7D1E4"/>
		<stop  offset="0.5296" style="stop-color:#E6EAF3"/>
		<stop  offset="0.8058" style="stop-color:#F8FAFC"/>
		<stop  offset="1" style="stop-color:#FFFFFF"/>
	</radialGradient>
	<path fill="url(#SVGID_1_)" d="M52.66,214.103c-6.987,56.895,30.281,81.284,83.269,54.479
		c52.981-26.861,101.559-94.699,108.546-151.596c6.991-56.925-30.26-81.312-83.245-54.423
		C108.243,89.366,59.641,157.263,52.66,214.103z"/>
	<g id="XMLID_7887_">
		<g id="XMLID_7862_">
			<path id="XMLID_7876_" fill="#D9D9D9" d="M266.897,242.908l11.369-10.646c12.657-11.852,19.916-28.593,19.916-45.93v-10.527
				c0-5.451-2.687-10.541-7.19-13.615c-4.709-3.216-10.645-3.778-15.874-1.503l-20.608,8.967l5.275,12.122l20.607-8.967
				c1.039-0.455,2.213-0.339,3.145,0.297c0.893,0.61,1.426,1.618,1.426,2.698v10.527c0,13.695-5.734,26.919-15.73,36.281
				l-11.37,10.645L266.897,242.908z"/>
		</g>
		<g id="XMLID_7847_">
			<path id="XMLID_947_" fill="#D9D9D9" d="M137.851,260.154v-89.47l132.401-0.61v90.083l0,0c0,9.782-6.464,19.563-19.39,27.026
				c-25.853,14.926-67.769,14.926-93.621,0C144.314,279.719,137.851,269.936,137.851,260.154z"/>
		</g>
		<g id="XMLID_7845_">
			<g id="XMLID_558_">
				<path fill="#FFA044" d="M147.926,254.637v-77.242c0-10.206,8.248-18.492,18.453-18.539l75.174-0.346
					c10.272-0.047,18.625,8.267,18.625,18.539v77.591l0,0c0,8.293-5.479,16.586-16.439,22.913
					c-21.918,12.655-57.455,12.655-79.374,0C153.404,271.225,147.925,262.931,147.926,254.637z"/>
				<path fill="#FFFFFF" d="M204.052,288.014c-14.554,0-29.107-3.199-40.188-9.595c-10.924-6.307-16.939-14.753-16.938-23.781
					v-77.243c0-10.724,8.725-19.489,19.448-19.539l75.174-0.346c0.031,0,0.062,0,0.093,0c5.202,0,10.093,2.018,13.782,5.691
					c3.711,3.694,5.755,8.612,5.755,13.848v77.591c0,9.027-6.016,17.472-16.939,23.779
					C233.159,284.815,218.606,288.014,204.052,288.014z M241.641,159.51c-0.027,0-0.056,0-0.083,0l-75.174,0.346
					c-9.627,0.044-17.458,7.912-17.458,17.539v77.243c-0.001,8.284,5.659,16.114,15.938,22.049
					c21.607,12.475,56.767,12.475,78.374,0c10.278-5.934,15.939-13.764,15.939-22.047v-77.591c0-4.7-1.835-9.114-5.166-12.43
					C250.7,161.322,246.31,159.51,241.641,159.51z"/>
			</g>
		</g>
		<g id="XMLID_7844_">
			<path id="XMLID_522_" fill="#D9D9D9" d="M157.24,143.048c-25.853,14.926-25.853,39.126,0.001,54.052
				c25.853,14.926,67.769,14.926,93.621,0.001c25.852-14.926,25.852-39.126,0-54.053
				C225.009,128.122,183.094,128.122,157.24,143.048z"/>
		</g>
		<g id="XMLID_235_">
			<g id="XMLID_334_">
				<path fill="#FFDE91" d="M164.266,162.821c-21.973,12.686-21.973,33.254,0,45.94c21.974,12.686,57.599,12.686,79.571,0
					c21.974-12.686,21.973-33.254,0-45.94C221.863,150.135,186.238,150.135,164.266,162.821z"/>
				<path fill="#FFFFFF" d="M204.052,219.246c-14.59,0-29.179-3.206-40.286-9.619c-10.949-6.322-16.979-14.787-16.979-23.837
					c0-9.049,6.03-17.515,16.979-23.836c22.213-12.825,58.356-12.824,80.571,0c10.95,6.322,16.979,14.788,16.979,23.837
					c0,9.049-6.03,17.514-16.979,23.836C233.231,216.039,218.641,219.246,204.052,219.246z M204.051,154.307
					c-14.228,0-28.454,3.126-39.285,9.38c-10.305,5.949-15.979,13.799-15.979,22.104c0,8.305,5.675,16.155,15.979,22.104
					c21.662,12.507,56.909,12.507,78.571,0c10.305-5.949,15.979-13.799,15.979-22.104c0-8.305-5.675-16.155-15.979-22.105
					C232.506,157.433,218.278,154.307,204.051,154.307z"/>
			</g>
		</g>
		<path fill="#0DCA6F" d="M222.107,194.108c0,0-0.341-8,12.596-10.213c12.936-2.213,9.702-10.213,9.702-10.213
			C246.144,173.71,251.554,205.342,222.107,194.108z"/>
		<path fill="#0DCA6F" d="M225.001,193.842c0,0-1.362-7.393-12.597-7.138c-13.121,0.298-15.851-3.116-15.851-3.116
			C191.596,189.895,211.383,214.15,225.001,193.842z"/>
		<path fill="#75D894" d="M222.106,193.691c0,0,6.404-4.806,15.547,4.61c9.142,9.416,13.91,2.224,13.91,2.224
			C252.523,201.975,229.498,224.328,222.106,193.691z"/>
		<g id="XMLID_7842_">
			<path fill="#D9D9D9" d="M148.679,127.469v30.082c2.469,5.349,7.427,10.412,14.91,14.601c22.346,12.51,58.576,12.51,80.922,0
				c7.595-4.252,12.593-9.403,15.023-14.84v-29.843H148.679z"/>
		</g>
		<g id="XMLID_7835_">
			<path id="XMLID_498_" fill="#FFFFFF" d="M164.819,106.191c-21.668,12.51-21.668,32.792,0,45.302
				c21.667,12.509,56.797,12.51,78.465,0c21.667-12.51,21.667-32.792-0.001-45.302C221.616,93.682,186.486,93.682,164.819,106.191z"
				/>
		</g>
		<g id="XMLID_7841_">
			<path id="XMLID_493_" fill="#D9D9D9" d="M170.436,111.674c18.565-9.481,48.666-9.481,67.231,0
				c18.566,9.481,18.566,24.854,0,34.335c-18.565,9.481-48.666,9.481-67.231,0S151.87,121.156,170.436,111.674z"/>
		</g>
		<g id="XMLID_7851_">
			<path id="XMLID_488_" fill="#C0CCDA" d="M170.436,126.395c18.565-9.481,48.666-9.481,67.231,0
				c5.57,2.844,9.455,6.22,11.684,9.807c-2.229,3.587-6.113,6.963-11.684,9.807c-18.565,9.481-48.666,9.481-67.231,0
				c-5.569-2.845-9.455-6.221-11.684-9.807C160.981,132.616,164.866,129.24,170.436,126.395z"/>
		</g>
		<path opacity="0.4" fill="#FFFFFF" d="M208.725,267.601L192,257.946c-1.858-1.074-2.495-3.451-1.422-5.309l9.655-16.725
			c1.073-1.859,3.45-2.496,5.309-1.423l16.725,9.656c1.858,1.073,2.496,3.45,1.423,5.309l-9.656,16.725
			C212.961,268.037,210.584,268.675,208.725,267.601z"/>
		<path opacity="0.4" fill="#FFFFFF" d="M168.64,229.403l-0.168-4.707c-0.076-2.145,1.602-3.946,3.746-4.022l4.707-0.168
			c2.145-0.076,3.946,1.601,4.022,3.746l0.168,4.707c0.076,2.145-1.601,3.946-3.746,4.023l-4.707,0.167
			C170.517,233.225,168.716,231.548,168.64,229.403z"/>
		<path opacity="0.4" fill="#FFFFFF" d="M235.842,244.406l1.944-9.399c0.435-2.102,2.491-3.454,4.593-3.019l9.399,1.944
			c2.101,0.435,3.453,2.492,3.018,4.594l-1.944,9.399c-0.435,2.102-2.491,3.454-4.594,3.019l-9.398-1.944
			C236.758,248.564,235.406,246.508,235.842,244.406z"/>
		<path opacity="0.4" fill="#FFFFFF" d="M160.608,260.236l1.944-9.399c0.435-2.102,2.491-3.454,4.594-3.019l9.398,1.944
			c2.102,0.435,3.453,2.491,3.019,4.593l-1.944,9.399c-0.435,2.102-2.491,3.454-4.593,3.019l-9.399-1.944
			C161.525,264.394,160.173,262.338,160.608,260.236z"/>
	</g>
	<g>
		<g>
			<path fill="#FFACAC" d="M110.653,224.519c-0.459,1.574-3.067,1.298-2.437,3.267c0.554,1.727,0.855,3.307,0.624,3.457
				c-0.466,0.3-1.654-3.229-2.259-4.65c-0.603-1.424-0.839-2.866-1.455-2.52c-0.698,0.39-1.12,2.616-1.416,2.641
				c-1.408,0.123-0.572-4.021,0.815-4.685c1.482-0.709-6.713-11.541-6.575-15.893l6.103-0.701c0,0,3.062,12.319,4.775,14.579
				C109.49,220.881,111.245,222.482,110.653,224.519z"/>
			<path fill="#FFFFFF" d="M109.67,197.544c-2.89,4.524-4.137,7.932-4.795,9.372c-0.66,1.438-7.315,2.843-7.416,0.21
				c-0.249-6.679,2.775-12.079,5.241-15.774c2.927-4.381,5.667-7.007,8.614-4.715C113.929,188.674,113.062,192.232,109.67,197.544z"
				/>
		</g>
		<g>
			<g>
				<g>
					<path fill="#FFDE91" d="M113.489,284.2c0.5,1.081-0.419,2.815-1.318,3.594c-0.989,0.857-6.931,6-10.787,4.522
						c-0.465-0.179-0.933-0.397-1.267-0.767c-0.578-0.64,0.238-4.13,0.883-4.758C101.84,285.969,113.082,283.313,113.489,284.2z"/>
					<path fill="#FF5A77" d="M106.605,283.707c2.729-1.059,6.318-0.943,6.728-0.059c0.497,1.083-1.012,2.92-1.906,3.706
						c-2.569,2.254-7.749,4.66-9.62,4.032c-0.473-0.157-1.354-0.497-1.688-0.867c-0.578-0.639-0.046-2.876,0.643-3.542
						C101.408,286.351,105.167,284.266,106.605,283.707z"/>
				</g>
				<path fill="#FFDE91" d="M105.338,288.487c0.302,0,0.547,0.316,0.547,0.706c0,0.389-0.245,0.706-0.547,0.706
					c-0.299,0-0.543-0.316-0.543-0.706C104.795,288.803,105.039,288.487,105.338,288.487z"/>
				<path fill="#FFDE91" d="M101.595,286.248l1.08,1.426l-0.276,0.512c-0.536,0.771-0.448,3.297-0.448,3.297
					c-1.247-0.093-1.679-0.816-1.679-0.816c-0.32-2.494,0.687-3.452,0.687-3.452L101.595,286.248z"/>
			</g>
			<path fill="#FFACAC" d="M107.781,284.829c0.223,0.493-0.199,1.869-2.585,2.883c-0.851,0.363-1.884,0.625-2.798,0.473
				c0.117-0.375-0.047-0.818-0.38-1.024c-0.338-0.208-0.742-0.125-1.061,0.054c0.184-0.628,0.284-1.281,0.399-1.928
				C102.028,285.403,107.078,283.284,107.781,284.829z"/>
		</g>
		<path fill="#002E47" d="M109.187,254.042c-0.158,6.696-1.845,30.469-1.845,30.469s-2.506,2.33-7.266,0.492
			c0,0-1.281-17.517-1.708-22.247c-0.426-4.731,0.348-8.819,0.742-9.707C100.182,250.652,109.349,247.349,109.187,254.042z"/>
		<path fill="#002E47" d="M100.703,218.352c1.139-0.862,4.647-1.367,8.173,1.7c6.345,5.522,0.237,31.576,0.237,35.974
			c0,4.54-9.143,4.104-10.201-1.979c-0.71-4.086-2.43-18.257-2.65-20.821C96.022,230.426,95.989,221.915,100.703,218.352z"/>
		<g>
			<g>
				<g>
					<path fill="#FFDE91" d="M123.918,289.315c0.5,1.08-0.419,2.815-1.318,3.596c-0.989,0.855-6.931,5.997-10.786,4.52
						c-0.466-0.179-0.932-0.397-1.267-0.767c-0.578-0.639,0.237-4.13,0.882-4.757C112.272,291.084,123.512,288.428,123.918,289.315z
						"/>
					<path fill="#FF5A77" d="M117.034,288.823c2.728-1.059,6.318-0.943,6.727-0.059c0.498,1.083-1.009,2.92-1.905,3.706
						c-2.57,2.256-7.749,4.662-9.621,4.033c-0.473-0.157-1.352-0.498-1.688-0.868c-0.578-0.639-0.047-2.876,0.645-3.542
						C111.838,291.469,115.596,289.381,117.034,288.823z"/>
				</g>
				<path fill="#FFDE91" d="M115.77,293.602c0.299,0,0.544,0.316,0.544,0.706c0,0.39-0.245,0.706-0.544,0.706
					c-0.301,0-0.546-0.316-0.546-0.706C115.224,293.918,115.469,293.602,115.77,293.602z"/>
				<path fill="#FFDE91" d="M112.026,291.363l1.078,1.426l-0.277,0.512c-0.534,0.772-0.448,3.297-0.448,3.297
					c-1.247-0.093-1.678-0.813-1.678-0.813c-0.321-2.497,0.686-3.455,0.686-3.455L112.026,291.363z"/>
			</g>
			<path fill="#FFACAC" d="M118.21,289.945c0.226,0.495-0.198,1.869-2.585,2.883c-0.85,0.363-1.884,0.625-2.798,0.473
				c0.118-0.375-0.046-0.818-0.38-1.024c-0.335-0.206-0.742-0.125-1.061,0.054c0.184-0.627,0.284-1.281,0.399-1.928
				C112.457,290.518,117.507,288.399,118.21,289.945z"/>
		</g>
		<path fill="#00537A" d="M119.344,259.559c-0.159,6.696-1.808,30.04-1.808,30.04s-2.48,3.572-7.237,1.734
			c0,0-1.347-18.33-1.774-23.06c-0.426-4.731-0.151-9.565,0.242-10.449C109.839,255.424,119.506,252.866,119.344,259.559z"/>
		<path fill="#00537A" d="M109.19,224.154c1.14-0.862,5.48-3.329,9.089-0.36c4.873,4.008,0.994,33.352,0.994,37.749
			c0,4.537-9.145,4.103-10.2-1.979c-0.711-4.089-3.406-21.769-3.626-24.332C105.206,232.432,104.476,227.714,109.19,224.154z"/>
		<path fill="#002E47" d="M105.724,237.502c-0.144-1.064-0.242-1.861-0.277-2.27c-0.24-2.8-0.971-7.519,3.743-11.079
			c1.14-0.862,5.48-3.329,9.089-0.36C119.608,224.887,116.279,233.31,105.724,237.502z"/>
		<path fill="#FF5978" d="M102.673,200.691c0.343-7.019,2.521-16.284,9.854-14.826c3.624,0.721,14.939,6.091,13.408,13.79
			c-1.344,6.754-4.436,23.415-4.164,31.872c0,0-19.057,0-25.454-8.789C96.317,222.74,102.334,207.71,102.673,200.691z"/>
		<path fill="#FFACAC" d="M120.013,174.563c0.8-0.315,6.891,0.959,6.792,1.871c-0.1,0.915-1.212,2.01-1.055,2.915
			c0.11,0.626,0.135,1.938-0.492,2.627c-2.107,2.311-3.63,4.318-5.24,3.476c-0.791,1.713,0.46,4.115,0.243,4.04
			c-1.251-0.432-4.584-2.4-5.616-3.238c1.414-3.895,1.021-7.136,3.902-10.512C118.96,175.263,119.422,174.796,120.013,174.563z"/>
		<path fill="#002E47" d="M118.965,169.817c0.616-3.097,6.097-1.313,5.557,1.015c2.755-0.918,5.527,3.08,2.41,6.948
			c0,0-0.176-1.464-1.24-1.201c-0.446,2.244-1.716,0.678-2.756,3.144c-0.636,1.515-1.465,3.071-3.06,3.73
			c-1.369,0.567-4.285-0.872-4.285-0.872c0.432-2.173-2.872-6.482-1.149-8.54C113.795,170.745,116.766,169.033,118.965,169.817z"/>
		<path fill="#FFFFFF" d="M115.365,184.53c1.35,0.348,2.511,0.824,5.13,2.889c0.652,0.515,1.265,1.91,0.989,3.167l-8.376-4.631
			l1.068-1.091C114.487,184.55,114.941,184.42,115.365,184.53z"/>
		<g>
			<path fill="#FFACAC" d="M153.382,208.04c0.475-0.186,1.857-1.188,2.005-1.939c0.317-1.607,1.239-3.392,1.727-2.895
				c0.242,0.247-0.215,2.13-0.139,3.057c0.064,0.821,0.548,0.301,2.314-0.037c1.768-0.337,4.843,0.581,5.887,0.941
				c0.679,0.233-1.597,0.883-3.613,0.458c-2.482-0.524,0.74,0.816,0.787,1.473c0.045,0.655-1.279,3.033-1.477,3.606
				c-0.195,0.572-3.195-0.015-4.453-0.183c-2.732-0.364-15.46,4.554-20.718,5.22l1.567-7.648
				C137.27,210.095,149.776,209.46,153.382,208.04z"/>
			<path fill="#FFFFFF" d="M119.05,192.923c3.401-1.827,6.78,0.769,10.841,6.884c3.459,5.206,6.502,8.14,7.726,9.518
				c1.223,1.38-0.707,9.97-3.558,8.837c-7.231-2.878-12.277-9.044-15.052-13.411C115.716,199.57,115.22,194.98,119.05,192.923z"/>
		</g>
	</g>
</g>
</svg>
