<?xml version="1.0" encoding="utf-8"?>
<!-- Generator: Adobe Illustrator 24.3.0, SVG Export Plug-In . SVG Version: 6.00 Build 0)  -->
<svg version="1.1" id="Layer_1" xmlns="http://www.w3.org/2000/svg" xmlns:xlink="http://www.w3.org/1999/xlink" x="0px" y="0px"
	 viewBox="0 0 350 350" enable-background="new 0 0 350 350" xml:space="preserve">
<g>
	
		<radialGradient id="SVGID_1_" cx="248.7654" cy="182.1538" r="132.3495" gradientTransform="matrix(0.5734 -0.7894 0.4525 0.3009 -82.1817 316.5771)" gradientUnits="userSpaceOnUse">
		<stop  offset="0" style="stop-color:#B0BED9"/>
		<stop  offset="0.206" style="stop-color:#C7D1E4"/>
		<stop  offset="0.5296" style="stop-color:#E6EAF3"/>
		<stop  offset="0.8058" style="stop-color:#F8FAFC"/>
		<stop  offset="1" style="stop-color:#FFFFFF"/>
	</radialGradient>
	<path fill="url(#SVGID_1_)" d="M46.978,223.557c-6.987,56.896,30.282,81.283,83.271,54.479
		c52.98-26.861,101.559-94.699,108.546-151.597c6.991-56.924-30.261-81.312-83.245-54.423
		C102.561,98.819,53.958,166.717,46.978,223.557z"/>
	<g>
		<g>
			<path fill="#FFB642" d="M141.185,195.103c20.711,24.331,83.052,46.088,83.052,46.088s72.356-39.623,74.77-43.232
				c22.638-33.846-40.169-70.731-58.888-60.489C241.757,136.303,143.129,194.025,141.185,195.103z"/>
			<path fill="#FFDE91" d="M235.473,140.073c63.807-8.622,39.201,75.656-50.027,61.652c-23.301-3.657-44.701-6.209-45.123-6.235
				L235.473,140.073z"/>
			<path fill="#FFDE91" d="M136.677,200.533c10.663-23.148,72.925-1.108,84.519,12.32c9.188,9.02,11.856,18.607,7,25.15
				c-17.23,18.44-74.722-1.34-86.679-15.164C133.232,215.002,134.067,206.199,136.677,200.533z"/>
			<path fill="#FFA044" d="M136.09,207.212c-2.275,29.102,92.063,52.98,92.622,23.021
				C232.075,206.003,138.828,172.193,136.09,207.212z"/>
			<g>
				<path fill="#FF2657" d="M204.911,239.107c7.312,2.167,23.989,4.253,23.801-9.973
					C223.057,232.743,210.149,233.325,204.911,239.107z"/>
				<path fill="#FFFFFF" d="M215.157,241.151c-3.605,0-7.332-0.659-10.388-1.564c-0.165-0.049-0.293-0.179-0.34-0.345
					c-0.047-0.165-0.005-0.343,0.111-0.471c3.202-3.535,8.96-5.124,14.528-6.66c3.669-1.013,7.135-1.969,9.374-3.397
					c0.151-0.098,0.345-0.105,0.506-0.019c0.16,0.087,0.26,0.252,0.263,0.434c0.055,4.145-1.284,7.282-3.98,9.323
					C222.639,240.415,218.967,241.151,215.157,241.151z M205.858,238.856c6.014,1.631,14.228,2.235,18.771-1.201
					c2.239-1.695,3.438-4.264,3.572-7.641c-2.328,1.257-5.514,2.136-8.866,3.06C214.235,234.482,208.971,235.935,205.858,238.856z"
					/>
			</g>
			<g>
				<path fill="#FF2657" d="M145.365,209.658c7.04,1.982,16.508,6.502,26.392,3.052c6.756-2.865,27.908-14.482,11.368-16.291
					c-20.111-5.203-21.239-3.123-38.044,9.182C145.081,205.534,145.024,206.212,145.365,209.658z"/>
				<path fill="#FFFFFF" d="M164.121,214.463c-5.446,0-10.563-1.666-14.949-3.094c-1.391-0.453-2.705-0.881-3.943-1.229
					c-0.198-0.056-0.342-0.228-0.362-0.433c-0.241-2.443-0.311-3.518-0.278-4.02c-0.006-0.03-0.008-0.062-0.008-0.094l0.016,0.001
					c0.031-0.297,0.108-0.348,0.208-0.414c0.011-0.007,0.02-0.014,0.031-0.02c0.968-0.708,1.883-1.383,2.754-2.024
					c14.3-10.537,16.497-12.158,35.66-7.201c4.103,0.443,6.262,1.547,6.528,3.36c0.719,4.887-14.116,12.302-17.826,13.875
					C169.297,214.097,166.673,214.463,164.121,214.463z M145.829,209.27c1.159,0.336,2.373,0.73,3.652,1.147
					c6.299,2.05,14.138,4.601,22.109,1.82c6.426-2.727,17.704-9.349,17.197-12.798c-0.187-1.263-2.163-2.136-5.719-2.524
					c-18.771-4.852-20.607-3.5-34.888,7.024c-0.825,0.608-1.691,1.246-2.604,1.915C145.586,206.238,145.629,207.193,145.829,209.27z
					"/>
			</g>
			<path fill="#FF5978" d="M145.658,205.939c11.818,3.645,33.734,7.5,42.396-7.807C181.233,210.185,152.096,187.836,145.658,205.939
				z"/>
			<g>
				<path fill="#FF2657" d="M144.829,202.939c14.63,3.09,23.094,8.522,41.207-5.892
					C174.055,195.682,146.797,184.062,144.829,202.939z"/>
				<path fill="#FFFFFF" d="M163.833,207.045c-4.344,0-8.458-1.032-12.957-2.16c-1.959-0.491-3.984-0.999-6.15-1.456
					c-0.25-0.053-0.42-0.286-0.393-0.541c0.406-3.903,1.921-6.813,4.501-8.651c6.427-4.58,18.352-1.796,27.934,0.441
					c3.493,0.815,6.793,1.586,9.326,1.874c0.201,0.023,0.368,0.165,0.424,0.359c0.056,0.194-0.011,0.403-0.169,0.529
					C177.065,204.826,170.203,207.045,163.833,207.045z M145.378,202.546c2.017,0.436,3.908,0.909,5.741,1.369
					c11.02,2.763,19.043,4.774,33.677-6.529c-2.386-0.365-5.25-1.033-8.257-1.735c-9.383-2.189-21.065-4.915-27.126-0.6
					C147.142,196.669,145.82,199.123,145.378,202.546z"/>
			</g>
			<path fill="#FF5978" d="M145.658,201.105c4.541-3.896,20.751,5.453,39.198-3.693C184.856,197.412,148.05,184.929,145.658,201.105
				z"/>
		</g>
		<path fill="#FFB642" d="M163.6,215.105c5.617-2.28,29.666,3.311,23.49,11.652C180.118,234.555,139.307,221.189,163.6,215.105z"/>
		<path fill="#FFB642" d="M192.226,229.14c23.625-4.26,8.902,3.858,35.51,0.639C232.015,237.766,180.422,245.849,192.226,229.14z"/>
		<path fill="#FFDE91" d="M217.086,233.087c-6.131,1.204-19.28,1.988-24.86-3.947C199.288,227.405,211.258,227.704,217.086,233.087z
			"/>
		<path fill="#FFDE91" d="M186.143,213.185c3.228,0.021,1.553,5.525,2.396,8.635c-6.284,2.429-30.899,0.461-30.931-5.276
			C161.249,205.435,178.175,211.34,186.143,213.185z"/>
		<path fill="#FF5978" d="M185.036,212.509c25.612,1.227,9.067,4.367,5.689,24.457C175.463,238.106,173.478,227.572,185.036,212.509
			z"/>
		<path fill="#0DCA6F" d="M187.886,228.01c1.433,7.253,16.227-1.709,22.198,2.552c14.902,10.63,28.5-7.135-1.41-24.294
			c0,0-11.311,7.326-15.601,12.676C190.743,221.503,196.025,225.243,187.886,228.01z"/>
		<path fill="#FFB642" d="M168.709,200.265c-5.872,14.188,23.9,13.481,31.032,14.01
			C218.828,205.062,175.392,199.434,168.709,200.265z"/>
		<path fill="#FFDE91" d="M202.117,207.957c-6.261,0.429-32.646-0.348-33.341-7.958
			C178.233,192.938,191.093,200.649,202.117,207.957z"/>
		<path fill="#75D894" d="M194.972,201.771c-0.6,7.74,16.711,23.61,23.107,16.33C217.25,210.838,203.921,200.652,194.972,201.771z"
			/>
		<path fill="#0DCA6F" d="M146.557,212.796c-0.31-1.23-0.396-0.622-1.292-4.564c0.58,2.551,12.934,4.277,15.227,4.085
			c0,0-4.623,6.895-8.64,2.542C150.208,214.87,147.703,217.102,146.557,212.796z"/>
		<path fill="#FFA044" d="M168.715,179.47c2.948-0.602,5.95-0.507,8.902-0.222l2.212,0.276c0.732,0.125,1.456,0.283,2.185,0.424
			c0.727,0.149,1.46,0.278,2.17,0.493c0.713,0.203,1.413,0.454,2.117,0.685c1.409,0.461,2.757,1.102,4.102,1.72
			c1.354,0.596,2.686,1.223,4.021,1.837c2.718,1.105,5.403,2.258,8.196,3.243c1.355,0.576,2.732,1.122,4.081,1.732
			c1.373,0.568,2.636,1.334,3.933,2.043c1.283,0.733,2.608,1.406,3.844,2.218c1.244,0.798,2.46,1.641,3.666,2.496
			c0.594,0.44,1.213,0.847,1.78,1.321c0.565,0.476,1.132,0.951,1.686,1.441c1.119,0.967,2.226,1.944,3.31,2.943
			c2.104,2.072,4.08,4.281,5.928,6.578c0.052,0.064,0.042,0.16-0.023,0.213c-0.051,0.041-0.12,0.043-0.173,0.011l-0.01-0.005
			c-2.542-1.547-4.858-3.3-7.225-4.974c-1.212-0.802-2.4-1.626-3.577-2.461c-0.594-0.41-1.175-0.836-1.757-1.261
			c-0.59-0.413-1.2-0.796-1.798-1.198c-4.661-3.395-9.518-6.445-14.395-9.628c-2.497-1.471-5.056-2.898-7.817-3.812l-2.07-0.676
			c-0.704-0.182-1.415-0.342-2.127-0.494c-1.422-0.308-2.832-0.626-4.252-0.885c-2.813-0.613-5.572-1.37-8.381-1.987
			c-2.804-0.64-5.62-1.228-8.512-1.773l-0.011-0.002c-0.083-0.016-0.137-0.095-0.121-0.177
			C168.609,179.528,168.657,179.482,168.715,179.47z"/>
		<path fill="#FFA044" d="M183.637,171.107c2.947-0.603,5.95-0.507,8.902-0.222l2.212,0.275c0.731,0.125,1.455,0.284,2.184,0.425
			c0.727,0.149,1.46,0.278,2.17,0.493c0.713,0.203,1.413,0.454,2.117,0.685c1.409,0.461,2.757,1.102,4.102,1.72
			c1.355,0.596,2.687,1.223,4.021,1.837c2.718,1.105,5.404,2.257,8.197,3.243c1.354,0.576,2.732,1.122,4.08,1.732
			c1.373,0.568,2.636,1.334,3.933,2.043c1.283,0.732,2.608,1.406,3.844,2.218c1.244,0.798,2.46,1.641,3.667,2.496
			c0.593,0.44,1.212,0.847,1.779,1.321c0.566,0.476,1.132,0.951,1.686,1.441c1.118,0.966,2.226,1.943,3.309,2.943
			c2.104,2.072,4.08,4.28,5.928,6.578c0.053,0.064,0.042,0.16-0.023,0.212c-0.051,0.041-0.12,0.044-0.173,0.012l-0.009-0.006
			c-2.543-1.546-4.859-3.299-7.225-4.973c-1.212-0.802-2.4-1.626-3.577-2.461c-0.594-0.41-1.175-0.836-1.757-1.261
			c-0.59-0.413-1.2-0.797-1.797-1.198c-4.662-3.395-9.519-6.445-14.396-9.628c-2.497-1.471-5.056-2.898-7.818-3.812l-2.07-0.676
			c-0.704-0.182-1.415-0.342-2.126-0.494c-1.423-0.308-2.832-0.626-4.253-0.886c-2.811-0.612-5.572-1.369-8.38-1.986
			c-2.804-0.64-5.621-1.227-8.513-1.773l-0.011-0.002c-0.082-0.016-0.137-0.095-0.121-0.177
			C183.53,171.166,183.578,171.12,183.637,171.107z"/>
		<path fill="#FFA044" d="M198.558,162.745c2.947-0.602,5.95-0.507,8.902-0.222l2.212,0.275c0.731,0.125,1.455,0.284,2.185,0.425
			c0.727,0.15,1.46,0.278,2.17,0.493c0.713,0.203,1.412,0.454,2.116,0.685c1.41,0.46,2.757,1.101,4.103,1.72
			c1.354,0.595,2.686,1.223,4.02,1.837c2.718,1.104,5.403,2.257,8.196,3.243c1.354,0.576,2.732,1.121,4.081,1.732
			c1.372,0.568,2.635,1.334,3.933,2.043c1.282,0.732,2.607,1.406,3.843,2.217c1.244,0.799,2.461,1.642,3.667,2.497
			c0.593,0.441,1.213,0.847,1.779,1.321c0.566,0.476,1.133,0.951,1.686,1.441c1.118,0.966,2.226,1.943,3.31,2.943
			c2.104,2.072,4.079,4.28,5.927,6.578c0.053,0.064,0.042,0.16-0.022,0.212c-0.051,0.041-0.12,0.044-0.174,0.012l-0.009-0.006
			c-2.543-1.546-4.858-3.299-7.226-4.974c-1.211-0.801-2.4-1.625-3.576-2.46c-0.594-0.411-1.176-0.836-1.757-1.261
			c-0.591-0.413-1.201-0.797-1.798-1.199c-4.661-3.393-9.518-6.444-14.395-9.627c-2.497-1.471-5.056-2.898-7.817-3.812l-2.071-0.676
			c-0.704-0.182-1.415-0.342-2.126-0.494c-1.422-0.308-2.832-0.626-4.252-0.886c-2.812-0.612-5.573-1.369-8.381-1.986
			c-2.804-0.64-5.621-1.227-8.512-1.772l-0.012-0.002c-0.082-0.016-0.136-0.095-0.12-0.178
			C198.452,162.804,198.499,162.757,198.558,162.745z"/>
		<path fill="#FFA044" d="M213.479,154.383c2.948-0.602,5.95-0.508,8.902-0.222l2.212,0.275c0.731,0.125,1.456,0.284,2.185,0.425
			c0.727,0.148,1.46,0.278,2.17,0.492c0.713,0.204,1.413,0.454,2.117,0.686c1.409,0.46,2.757,1.101,4.101,1.719
			c1.354,0.596,2.686,1.224,4.021,1.838c2.718,1.104,5.403,2.257,8.196,3.243c1.354,0.576,2.732,1.121,4.081,1.732
			c1.372,0.568,2.636,1.334,3.933,2.043c1.282,0.732,2.608,1.406,3.844,2.217c1.243,0.799,2.46,1.642,3.666,2.496
			c0.594,0.441,1.213,0.848,1.78,1.322c0.566,0.476,1.132,0.951,1.686,1.441c1.119,0.966,2.226,1.943,3.31,2.943
			c2.104,2.071,4.08,4.28,5.928,6.577c0.052,0.066,0.042,0.161-0.023,0.213c-0.051,0.041-0.12,0.044-0.173,0.012l-0.01-0.006
			c-2.542-1.546-4.858-3.299-7.225-4.974c-1.212-0.801-2.4-1.625-3.577-2.46c-0.594-0.411-1.176-0.836-1.757-1.261
			c-0.59-0.413-1.201-0.797-1.798-1.199c-4.661-3.394-9.518-6.444-14.395-9.627c-2.497-1.471-5.056-2.899-7.817-3.813l-2.07-0.675
			c-0.705-0.183-1.416-0.342-2.127-0.495c-1.422-0.307-2.832-0.625-4.252-0.885c-2.812-0.612-5.573-1.369-8.381-1.986
			c-2.804-0.64-5.62-1.228-8.512-1.773l-0.011-0.002c-0.083-0.016-0.137-0.095-0.121-0.178
			C213.372,154.44,213.42,154.394,213.479,154.383z"/>
		<path fill="#FFA044" d="M228.401,146.02c2.947-0.603,5.949-0.508,8.902-0.222l2.212,0.275c0.731,0.125,1.455,0.284,2.184,0.425
			c0.727,0.148,1.46,0.278,2.17,0.492c0.713,0.204,1.413,0.454,2.117,0.686c1.409,0.46,2.757,1.101,4.102,1.719
			c1.354,0.596,2.686,1.224,4.02,1.837c2.718,1.105,5.404,2.258,8.196,3.244c1.355,0.576,2.733,1.121,4.081,1.732
			c1.373,0.568,2.636,1.334,3.933,2.043c1.283,0.732,2.608,1.406,3.844,2.217c1.244,0.799,2.46,1.642,3.666,2.496
			c0.594,0.441,1.213,0.848,1.78,1.322c0.565,0.476,1.132,0.951,1.686,1.44c1.119,0.967,2.226,1.944,3.31,2.944
			c2.105,2.071,4.08,4.28,5.928,6.577c0.053,0.065,0.042,0.161-0.023,0.213c-0.051,0.041-0.12,0.044-0.173,0.012l-0.01-0.006
			c-2.542-1.546-4.858-3.299-7.225-4.974c-1.212-0.802-2.4-1.625-3.577-2.46c-0.594-0.411-1.175-0.837-1.757-1.261
			c-0.59-0.414-1.2-0.797-1.797-1.199c-4.662-3.393-9.519-6.444-14.397-9.627c-2.496-1.471-5.055-2.899-7.817-3.813l-2.07-0.675
			c-0.704-0.183-1.415-0.343-2.127-0.495c-1.422-0.308-2.832-0.625-4.252-0.885c-2.812-0.612-5.572-1.37-8.381-1.986
			c-2.804-0.64-5.62-1.228-8.512-1.773l-0.011-0.002c-0.082-0.016-0.137-0.096-0.121-0.178
			C228.293,146.078,228.342,146.032,228.401,146.02z"/>
	</g>
	<g>
		<g>
			<path fill="#FFB642" d="M247.821,95.716c-1.627,31.911-37.854,87.114-37.854,87.114s-81.528,12.594-85.64,11.198
				c-38.561-13.08-11.172-80.571,9.915-83.836C132.232,110.264,245.621,96.044,247.821,95.716z"/>
			<path fill="#FFDE91" d="M139.513,109.432c-55.877,31.989,14.936,83.89,77.217,18.475c16.263-17.082,31.691-32.13,32.01-32.408
				L139.513,109.432z"/>
			<path fill="#FFDE91" d="M254.702,97.281c-22.549-11.879-58.539,43.501-59.566,61.212c-1.802,12.749,1.915,21.979,9.751,24.217
				c24.896,4.146,58.476-46.537,59.551-64.782C266.241,106.665,260.221,100.189,254.702,97.281z"/>
			<path fill="#FFA044" d="M259.232,102.223c19.517,21.708-40.811,98.067-59.485,74.635
				C182.333,159.678,235.747,76.102,259.232,102.223z"/>
			<g>
				<path fill="#FF2657" d="M224.034,169.415c-4.482,6.169-16.446,17.974-24.954,6.571
					C205.762,175.408,216.359,168.015,224.034,169.415z"/>
				<path fill="#FFFFFF" d="M207.448,181.262c-3.355,0-6.305-1.674-8.769-4.977c-0.108-0.145-0.13-0.338-0.056-0.504
					c0.074-0.165,0.232-0.277,0.413-0.293c2.646-0.229,5.979-1.579,9.507-3.009c5.352-2.169,10.887-4.412,15.58-3.557
					c0.169,0.031,0.31,0.146,0.374,0.307c0.064,0.159,0.042,0.341-0.06,0.479c-3.854,5.304-10.6,11.513-16.927,11.553
					C207.491,181.262,207.468,181.262,207.448,181.262z M200.02,176.372c2.146,2.582,4.643,3.89,7.429,3.89c0.019,0,0.037,0,0.057,0
					c5.695-0.036,11.847-5.516,15.624-10.469c-4.255-0.425-9.308,1.626-14.211,3.613
					C205.696,174.712,202.633,175.953,200.02,176.372z"/>
			</g>
			<g>
				<path fill="#FF2657" d="M253.362,109.808c-4.38,5.858-9.142,15.206-19.085,18.483c-7.104,1.838-30.958,5.492-18.935-6.009
					c12.792-16.368,14.953-15.404,35.775-15.867C251.077,106.364,251.535,106.866,253.362,109.808z"/>
				<path fill="#FFFFFF" d="M219.236,130.829c-3.53,0-6.499-0.558-7.422-2.215c-0.893-1.602,0.148-3.79,3.183-6.692
					c12.14-15.541,14.869-15.594,32.632-15.936c1.08-0.021,2.218-0.042,3.417-0.068c0.012-0.002,0.023-0.003,0.035-0.004
					c0.119-0.012,0.212-0.016,0.417,0.2l0.012-0.009c0.02,0.024,0.037,0.051,0.052,0.078c0.331,0.38,0.93,1.274,2.226,3.362
					c0.108,0.175,0.099,0.398-0.025,0.563c-0.77,1.03-1.553,2.169-2.381,3.375c-3.835,5.584-8.607,12.533-16.948,15.282
					C232.01,129.394,224.901,130.829,219.236,130.829z M250.877,106.922c-1.131,0.024-2.206,0.045-3.23,0.064
					c-17.737,0.341-20.017,0.385-31.911,15.604c-2.632,2.525-3.67,4.422-3.049,5.537c1.696,3.045,14.675,1.437,21.465-0.32
					c7.988-2.634,12.655-9.43,16.405-14.89c0.762-1.109,1.484-2.162,2.2-3.133C251.653,108.015,251.105,107.23,250.877,106.922z"/>
			</g>
			<path fill="#FF5978" d="M250.867,107.037c-7.16,10.084-22.204,26.481-38.393,19.605
				C225.222,132.056,234.741,96.59,250.867,107.037z"/>
			<g>
				<path fill="#FF2657" d="M249.698,104.151c-9.729,11.356-13.139,20.817-36.283,20.403
					C222.09,116.179,236.649,90.371,249.698,104.151z"/>
				<path fill="#FFFFFF" d="M214.83,125.067c-0.467,0-0.941-0.004-1.425-0.013c-0.202-0.004-0.383-0.129-0.456-0.316
					c-0.074-0.188-0.028-0.403,0.117-0.543c1.834-1.771,3.983-4.39,6.26-7.163c6.242-7.604,14.011-17.07,21.898-17.35
					c3.152-0.094,6.137,1.275,8.836,4.125c0.176,0.186,0.183,0.475,0.017,0.669c-1.441,1.681-2.738,3.316-3.993,4.898
					C239.146,118.117,233.629,125.067,214.83,125.067z M214.604,124.067c0.091,0,0.184,0.001,0.273,0.001
					c18.271,0,23.395-6.46,30.424-15.316c1.175-1.48,2.387-3.007,3.721-4.58c-2.432-2.446-4.954-3.591-7.762-3.491
					c-7.437,0.264-15.046,9.535-21.161,16.985C218.141,120.054,216.275,122.327,214.604,124.067z"/>
			</g>
			<path fill="#FF5978" d="M247.924,103.201c-5.974-0.329-13.146,16.955-33.352,20.924
				C214.573,124.125,236.181,91.821,247.924,103.201z"/>
		</g>
		<path fill="#FFB642" d="M242.206,125.228c-5.845,1.609-21.524,20.682-11.548,23.543
			C240.937,150.714,265.186,115.272,242.206,125.228z"/>
		<path fill="#FFB642" d="M228.034,153.786c-21.339,10.997-4.716,8.479-27.789,22.117
			C201.711,184.846,247.569,159.862,228.034,153.786z"/>
		<path fill="#FFDE91" d="M210.709,172.048c5.598-2.776,16.509-10.155,17.324-18.262
			C221.374,156.707,212.057,164.229,210.709,172.048z"/>
		<path fill="#FFDE91" d="M223.151,137.425c-2.548,1.98,2.131,5.329,3.355,8.31c6.464-1.898,24.799-18.44,21.332-23.012
			C238.188,116.125,228.35,131.111,223.151,137.425z"/>
		<path fill="#FF5978" d="M223.618,136.213c-19.576,16.561-4.537,8.984,10.37,22.87C246.791,150.7,241.955,141.133,223.618,136.213z
			"/>
		<path fill="#0DCA6F" d="M230.789,150.248c3.277,6.628-13.916,8.52-16.062,15.534c-5.355,17.505-26.957,11.684-13.665-20.135
			c0,0,13.432-1.07,20.092,0.563C224.563,146.824,222.648,153.006,230.789,150.248z"/>
		<path fill="#FFB642" d="M229.121,116.563c13.294,7.685-10.761,25.242-16.099,30.002
			C192.272,150.87,223.314,119.97,229.121,116.563z"/>
		<path fill="#FFDE91" d="M207.294,142.996c5.229-3.469,25.691-20.143,21.613-26.605
			C217.106,116.545,211.593,130.489,207.294,142.996z"/>
		<path fill="#75D894" d="M209.199,133.74c5.186,5.777,1.109,28.905-8.397,27.021C197.038,154.493,201.415,138.299,209.199,133.74z"
			/>
		<path fill="#0DCA6F" d="M254.325,113.024c-0.503-1.165-0.064-0.734-1.752-4.408c1.092,2.377-7.66,11.265-9.596,12.508
			c0,0,7.863,2.657,8.402-3.241C252.691,116.892,256.037,117.14,254.325,113.024z"/>
		<path fill="#FFA044" d="M216.633,100.311c-1.963,2.191-3.84,4.373-5.676,6.587c-1.853,2.198-3.582,4.478-5.442,6.676
			c-0.969,1.07-1.893,2.181-2.835,3.29c-0.472,0.555-0.939,1.114-1.387,1.688l-1.231,1.796c-1.636,2.406-2.797,5.096-3.883,7.782
			c-1.934,5.494-3.931,10.87-5.564,16.4c-0.229,0.683-0.48,1.358-0.696,2.045c-0.203,0.691-0.406,1.383-0.627,2.07
			c-0.426,1.379-0.867,2.756-1.341,4.129c-0.859,2.769-1.63,5.569-2.707,8.344l-0.004,0.01c-0.029,0.077-0.117,0.116-0.195,0.086
			c-0.061-0.023-0.098-0.083-0.097-0.145c0.068-2.947,0.291-5.901,0.7-8.826c0.252-1.453,0.535-2.902,0.835-4.351
			c0.142-0.726,0.302-1.447,0.461-2.169c0.161-0.722,0.405-1.421,0.607-2.132c0.438-1.413,0.89-2.821,1.391-4.212
			c0.486-1.395,1.129-2.737,1.7-4.099c0.599-1.353,1.134-2.729,1.878-4.015c0.697-1.306,1.459-2.576,2.184-3.858
			c1.616-2.481,3.046-5.03,4.53-7.562c0.686-1.3,1.359-2.608,2.071-3.904c0.691-1.31,1.37-2.638,2.209-3.861
			c0.418-0.611,0.821-1.236,1.263-1.831c0.434-0.603,0.937-1.151,1.422-1.712c0.493-0.555,0.971-1.122,1.475-1.666l1.588-1.564
			c2.169-2.023,4.493-3.927,7.199-5.242c0.075-0.036,0.166-0.005,0.202,0.07c0.028,0.057,0.017,0.123-0.023,0.167L216.633,100.311z"
			/>
		<path fill="#FFA044" d="M199.703,102.757c-1.963,2.191-3.84,4.373-5.675,6.586c-1.854,2.199-3.583,4.479-5.441,6.677
			c-0.969,1.07-1.895,2.181-2.835,3.29c-0.472,0.554-0.939,1.113-1.387,1.687l-1.232,1.796c-1.635,2.406-2.796,5.097-3.883,7.783
			c-1.934,5.494-3.931,10.87-5.564,16.4c-0.229,0.683-0.48,1.358-0.697,2.045c-0.203,0.691-0.405,1.383-0.627,2.069
			c-0.426,1.379-0.867,2.756-1.341,4.13c-0.858,2.769-1.629,5.569-2.706,8.343l-0.004,0.01c-0.03,0.078-0.118,0.117-0.195,0.087
			c-0.062-0.023-0.098-0.083-0.097-0.144c0.067-2.947,0.291-5.902,0.7-8.826c0.252-1.453,0.535-2.903,0.835-4.351
			c0.141-0.726,0.301-1.447,0.461-2.17c0.16-0.722,0.405-1.42,0.608-2.132c0.436-1.412,0.889-2.821,1.391-4.212
			c0.486-1.396,1.128-2.736,1.7-4.098c0.598-1.353,1.134-2.729,1.877-4.015c0.698-1.306,1.459-2.577,2.184-3.858
			c1.616-2.482,3.047-5.031,4.53-7.562c0.686-1.3,1.36-2.608,2.072-3.904c0.691-1.31,1.37-2.638,2.209-3.861
			c0.418-0.611,0.82-1.236,1.263-1.831c0.433-0.603,0.936-1.151,1.422-1.712c0.492-0.555,0.971-1.122,1.475-1.666l1.587-1.565
			c2.169-2.022,4.494-3.926,7.199-5.241c0.076-0.037,0.166-0.006,0.203,0.069c0.027,0.058,0.017,0.123-0.023,0.168L199.703,102.757z
			"/>
		<path fill="#FFA044" d="M182.775,105.201c-1.963,2.192-3.84,4.373-5.676,6.587c-1.853,2.198-3.582,4.479-5.441,6.677
			c-0.97,1.07-1.895,2.181-2.836,3.29c-0.472,0.554-0.939,1.113-1.386,1.686l-1.232,1.796c-1.636,2.406-2.797,5.097-3.883,7.783
			c-1.934,5.494-3.931,10.87-5.564,16.4c-0.229,0.683-0.48,1.357-0.696,2.045c-0.203,0.69-0.405,1.382-0.627,2.069
			c-0.426,1.379-0.867,2.756-1.341,4.129c-0.858,2.77-1.63,5.569-2.706,8.344l-0.004,0.01c-0.03,0.078-0.118,0.117-0.196,0.087
			c-0.061-0.024-0.098-0.083-0.097-0.145c0.068-2.947,0.292-5.902,0.701-8.827c0.251-1.453,0.535-2.902,0.834-4.35
			c0.142-0.726,0.302-1.447,0.461-2.17c0.161-0.722,0.406-1.421,0.608-2.132c0.436-1.412,0.889-2.821,1.39-4.212
			c0.486-1.395,1.129-2.736,1.701-4.098c0.598-1.353,1.133-2.729,1.877-4.015c0.698-1.306,1.459-2.577,2.184-3.858
			c1.616-2.482,3.046-5.031,4.53-7.561c0.686-1.3,1.36-2.608,2.072-3.905c0.69-1.308,1.37-2.637,2.208-3.86
			c0.419-0.611,0.821-1.236,1.264-1.832c0.433-0.602,0.936-1.15,1.422-1.711c0.492-0.556,0.97-1.122,1.475-1.666l1.587-1.565
			c2.169-2.023,4.493-3.926,7.199-5.241c0.075-0.037,0.166-0.006,0.203,0.069c0.027,0.058,0.017,0.123-0.023,0.168L182.775,105.201z
			"/>
		<path fill="#FFA044" d="M165.846,107.646c-1.963,2.192-3.841,4.373-5.676,6.587c-1.852,2.198-3.582,4.479-5.441,6.677
			c-0.969,1.07-1.894,2.181-2.835,3.29c-0.472,0.554-0.938,1.113-1.387,1.687l-1.232,1.796c-1.636,2.406-2.797,5.096-3.883,7.783
			c-1.934,5.494-3.931,10.87-5.564,16.399c-0.229,0.683-0.48,1.358-0.696,2.046c-0.203,0.691-0.406,1.382-0.627,2.069
			c-0.426,1.379-0.867,2.756-1.341,4.129c-0.859,2.77-1.63,5.569-2.707,8.344l-0.004,0.01c-0.029,0.078-0.117,0.116-0.195,0.086
			c-0.061-0.023-0.098-0.082-0.097-0.145c0.068-2.946,0.291-5.901,0.7-8.826c0.252-1.453,0.535-2.902,0.835-4.35
			c0.142-0.727,0.302-1.448,0.461-2.17c0.161-0.722,0.405-1.421,0.607-2.132c0.438-1.412,0.89-2.821,1.391-4.212
			c0.486-1.396,1.129-2.736,1.7-4.099c0.599-1.351,1.134-2.727,1.878-4.015c0.697-1.305,1.459-2.576,2.184-3.857
			c1.615-2.482,3.046-5.031,4.53-7.562c0.685-1.299,1.359-2.607,2.071-3.904c0.691-1.309,1.37-2.638,2.209-3.86
			c0.418-0.612,0.821-1.236,1.263-1.832c0.434-0.602,0.936-1.151,1.422-1.712c0.493-0.555,0.971-1.121,1.475-1.666l1.588-1.564
			c2.169-2.023,4.493-3.926,7.199-5.242c0.075-0.036,0.166-0.005,0.202,0.07c0.028,0.057,0.017,0.123-0.023,0.168L165.846,107.646z"
			/>
		<path fill="#FFA044" d="M148.916,110.092c-1.963,2.191-3.84,4.373-5.675,6.587c-1.854,2.198-3.583,4.479-5.441,6.677
			c-0.969,1.069-1.895,2.18-2.835,3.289c-0.472,0.555-0.938,1.114-1.387,1.688l-1.232,1.796c-1.635,2.406-2.797,5.096-3.883,7.782
			c-1.934,5.494-3.931,10.871-5.563,16.4c-0.229,0.683-0.48,1.358-0.697,2.045c-0.203,0.691-0.405,1.383-0.627,2.07
			c-0.426,1.379-0.867,2.756-1.341,4.129c-0.858,2.769-1.629,5.569-2.706,8.344l-0.004,0.01c-0.03,0.078-0.118,0.116-0.195,0.086
			c-0.062-0.023-0.099-0.083-0.097-0.145c0.067-2.947,0.291-5.901,0.7-8.826c0.252-1.453,0.535-2.902,0.835-4.35
			c0.141-0.727,0.301-1.448,0.46-2.17c0.161-0.723,0.406-1.421,0.608-2.132c0.437-1.413,0.889-2.821,1.391-4.212
			c0.486-1.395,1.128-2.736,1.7-4.099c0.598-1.353,1.134-2.729,1.877-4.015c0.698-1.305,1.459-2.576,2.184-3.858
			c1.616-2.482,3.046-5.03,4.53-7.562c0.686-1.3,1.36-2.608,2.072-3.904c0.691-1.31,1.37-2.638,2.209-3.861
			c0.418-0.611,0.82-1.236,1.263-1.831c0.433-0.603,0.937-1.151,1.422-1.712c0.492-0.555,0.971-1.121,1.475-1.666l1.587-1.564
			c2.169-2.023,4.494-3.927,7.199-5.242c0.075-0.036,0.166-0.005,0.203,0.07c0.027,0.057,0.017,0.123-0.023,0.167L148.916,110.092z"
			/>
	</g>
	<g>
		<path fill="#FFACAC" d="M283.158,171.851l-4.63,0.773c1.355-3.749-0.576-4.259-0.576-4.259l1.929-3.242L283.158,171.851z"/>
		<path fill="#FFACAC" d="M264.8,164.368c1.58,2.052,6.184,5.148,11.405,8.198c2.373,1.389,1.076,5.663-2.06,5.156
			c-3.136-0.505-12.11-11.203-12.11-11.203C262.53,164.022,264.8,164.368,264.8,164.368z"/>
		<path fill="#FFACAC" d="M258.804,158.27c1.51,0.854,1.378-0.323,1.939-0.39c0.561-0.069,2.81,1.096,3.126,1.511
			c0.376,0.492-0.291,3.079,1.175,5.355c0.265,0.41-2.758,2.055-2.758,2.055s-3.252-2.587-3.853-3.474
			c-0.601-0.883-2.283-1.291-1.748-1.564c0.534-0.274,1.889,0.212,2.631,0.512c0.74,0.297,0.565-0.991-0.312-2.267
			c-0.879-1.273-3.911-2.668-3.494-3.234C255.781,156.405,257.6,157.589,258.804,158.27z"/>
		<path fill="#FFACAC" d="M292.952,206.056c2.574,4.231-5.488,23.291-2.963,28.943c4.103,9.181,2.698,28.941,3.038,31.26
			c0.341,2.319-3.828,4.811-4.85,0.173c-1.022-4.639-5.893-25.041-8.049-29.931c-2.157-4.888-0.284-32.099-0.284-32.099
			S288.719,199.098,292.952,206.056z"/>
		<path fill="#FFACAC" d="M288.499,207.691c1.808,6.67-2.995,9.03-4.747,15.429c-3.025,11.055-4.545,15.198-3.897,19.941
			c1.024,7.487-1.692,30.548-1.75,32.898c-0.057,2.349-5.006,4.1-5.226-0.666c-0.222-4.769-2.23-29.152-3.525-34.401
			c-1.293-5.248,4.416-36.35,4.416-36.35S285.038,194.92,288.499,207.691z"/>
		<path fill="#002E47" d="M270.091,281.56c2.815-1.7,2.484-6.718,2.484-6.718c3.634,0.141,5.894-0.558,5.894-0.558
			c0,1.528,1.162,4.144,1.371,6.442c0.188,2.052-1.514,3.267-1.514,5.058h-1.494l0.751-4.19c-2.443,0-5.558,4.24-8.603,4.203
			c-3.194-0.037-4.098-1.006-4.341-2.015C264.396,282.776,267.279,283.265,270.091,281.56z"/>
		<path fill="#002E47" d="M285.433,273.287c2.812-1.704,2.482-6.722,2.482-6.722c3.634,0.142,5.31-0.557,5.31-0.557
			c0,1.528,1.745,4.145,1.955,6.442c0.186,2.051-1.514,3.267-1.514,5.058h-1.494l0.75-4.188c-2.442,0-5.557,4.238-8.602,4.2
			c-3.194-0.037-4.098-1.005-4.341-2.014C279.736,274.502,282.619,274.987,285.433,273.287z"/>
		<path fill="#FF2657" d="M288.222,193.379c0,0,0.916,3.343,3.337,7.43c2.422,4.086,4.93,10.186,3.859,14.793
			c-1.953,8.412,2.622,20.922,2.622,32.159c0,0-8.299,1.608-11.439,3.818c-10.985,7.737-22.877,0.504-22.877,0.504
			c0-19.855,8.288-45.586,9.977-56.969L288.222,193.379z"/>
		<path fill="#00537A" d="M271.214,182.463c0.714-1.831,1.339-3.001,2.117-5.928c0.778-2.924,5.369-5.438,9.908-4.679
			c4.982,0.834,6.622,6.599,6.636,11.093c0.012,4.169-0.225,11.997,2.175,18.721c-5.272,4.715-15.188,7.27-20.621,4.358
			c0.816-5.888,3.168-14.215,2.172-17.644C273.434,187.811,269.825,186.025,271.214,182.463z"/>
		<path fill="#FFACAC" d="M274.887,159.809c-0.116-0.554-0.015-1.57,0.045-2.072c0.521-4.352,6.704-0.325,8.832,3.212
			c2.129,3.537-6.615,9.81-8.41,6.715c-2.11-3.639-1.118-6.395-1.007-6.552C274.774,160.523,274.993,160.311,274.887,159.809z"/>
		<path fill="#002E47" d="M280.555,150.924c4.731,1.133,8.389-1.501,10.892,4.021c2.064,4.551,5.257,3.212,7.128,7.59
			c1.87,4.38-2.081,5.002,1.895,8.256c3.85,3.15-0.204,8.165-1.303,10.903c-1.099,2.735-3.084,4.105-0.67,8.067
			c0,0-9.841-0.131-9.062-6.656c0.78-6.526-5.439-3.403-4.889-8.014c0.441-3.699-4.302-2.17-4.169-4.506
			c0.131-2.338-4.288-3.365-1.321-7.57c1.759-2.495-4.169-3.206-4.671-6.772C274.113,154.307,275.462,149.704,280.555,150.924z"/>
		<path fill="#FFACAC" d="M279.895,160.988c0.387,0.883,0.048,2.189-0.504,2.991c-0.554,0.798-1.039,0.526-0.951,0.113
			c0.111-0.526-0.467-1.474-0.179-2.839C278.345,160.865,279.507,160.104,279.895,160.988z"/>
		<path fill="#FFACAC" d="M273.387,181.949c0.234-5.701,2.168-7.524,3.417-7.958c3.64-1.263,5.286,3.097,4.582,7.815
			c-0.673,4.5-2.108,10.965-5.755,15.795c-1.439,1.903-4.226-3.357-3.969-4.767C271.919,191.423,273.186,186.807,273.387,181.949z"
			/>
		<path fill="#EFF6F9" d="M280.034,192.123c-2.584-0.646-6.829-1.884-8.064-4.489c0.298-1.708,0.705-3.686,0.787-5.681
			c0.234-5.701,2.798-7.528,4.047-7.962c3.64-1.263,6.487,3.244,5.783,7.962C282.157,184.835,281.471,188.574,280.034,192.123z"/>
		<path fill="#FFACAC" d="M248.833,195.293c1.531-0.215,3.921,0.185,3.369-0.395c-0.552-0.576-1.233-1.365-1.177-1.962
			c0.057-0.6,0.604,0.778,1.649,1.007c1.044,0.23,3.686,2.131,3.686,2.131s-0.004,3.02-0.49,3.017
			c-0.488-0.002-1.88,0.349-2.956,0.525c-1.077,0.177-3.253,1.793-3.571,1.383c-0.319-0.412-2.053-1.977-2.199-2.522
			c-0.145-0.546,1.603-2.48,0.231-1.416c-1.399,1.086-3.017,1.047-2.53,0.671C245.593,197.147,247.303,195.511,248.833,195.293z"/>
		<path fill="#FFACAC" d="M255.55,195.631c2.578,0.246,13.623-2.48,16.447-2.901c1.285-0.195,5.774,3.278,3.265,5.225
			c-2.512,1.949-19.987,1.206-19.987,1.206C253.788,197.096,255.55,195.631,255.55,195.631z"/>
	</g>
</g>
</svg>
